<?xml version="1.0" encoding="UTF-8" standalone="no"?>
<!-- Generator: Adobe Illustrator 18.1.1, SVG Export Plug-In . SVG Version: 6.00 Build 0)  -->

<svg
   xmlns:dc="http://purl.org/dc/elements/1.1/"
   xmlns:cc="http://creativecommons.org/ns#"
   xmlns:rdf="http://www.w3.org/1999/02/22-rdf-syntax-ns#"
   xmlns:svg="http://www.w3.org/2000/svg"
   xmlns="http://www.w3.org/2000/svg"
   xmlns:xlink="http://www.w3.org/1999/xlink"
   xmlns:sodipodi="http://sodipodi.sourceforge.net/DTD/sodipodi-0.dtd"
   xmlns:inkscape="http://www.inkscape.org/namespaces/inkscape"
   version="1.1"
   id="Layer_1"
   x="0px"
   y="0px"
   viewBox="0 0 167.2 249.4"
   enable-background="new 0 0 167.2 249.4"
   xml:space="preserve"
   inkscape:version="0.91 r13725"
   sodipodi:docname="Cover option 2.svg"><metadata
     id="metadata227"><rdf:RDF><cc:Work
         rdf:about=""><dc:format>image/svg+xml</dc:format><dc:type
           rdf:resource="http://purl.org/dc/dcmitype/StillImage" /></cc:Work></rdf:RDF></metadata><defs
     id="defs225" /><sodipodi:namedview
     pagecolor="#ffffff"
     bordercolor="#666666"
     borderopacity="1"
     objecttolerance="10"
     gridtolerance="10"
     guidetolerance="10"
     inkscape:pageopacity="0"
     inkscape:pageshadow="2"
     inkscape:window-width="1366"
     inkscape:window-height="721"
     id="namedview223"
     showgrid="false"
     inkscape:zoom="2"
     inkscape:cx="141.24008"
     inkscape:cy="162.94421"
     inkscape:window-x="-4"
     inkscape:window-y="-4"
     inkscape:window-maximized="1"
     inkscape:current-layer="Layer_1" /><g
     id="g4707"
     transform="translate(-0.15,0.0500039)"><g
       id="g4604"><g
         id="g4502"><g
           transform="translate(0,-0.1000061)"
           id="g3"><g
             id="g5"><defs
               id="defs7"><rect
                 height="260.79999"
                 width="178.60001"
                 y="-274.29999"
                 x="-5.6999998"
                 id="SVGID_9_" /></defs><clipPath
               id="SVGID_2_"><use
                 id="use11"
                 overflow="visible"
                 xlink:href="#SVGID_9_"
                 style="overflow:visible"
                 x="0"
                 y="0"
                 width="100%"
                 height="100%" /></clipPath><g
               id="g13"
               clip-path="url(#SVGID_2_)"><path
                 id="path21"
                 d="m 17.2,41.1 c 0.2,-0.2 0.3,-0.5 0.2,-0.7 l 0.9,-0.9 c 0.2,0.1 0.5,0 0.7,-0.2 0.2,-0.2 0.3,-0.5 0.2,-0.7 l 0.9,-0.9 c 0.2,0.1 0.5,0 0.7,-0.2 0.3,-0.3 0.3,-0.7 0.1,-1 0.2,-1.1 -0.1,-2.2 -0.8,-3 -0.8,-0.8 -1.9,-1.1 -3,-0.9 -0.3,-0.2 -0.7,-0.2 -1,0.1 -0.2,0.2 -0.3,0.5 -0.2,0.7 L 15,34.2 c -0.2,-0.1 -0.5,0 -0.7,0.2 -0.2,0.2 -0.3,0.5 -0.2,0.7 L 13.2,36 c -0.2,-0.1 -0.5,0 -0.7,0.2 -0.2,0.2 -0.3,0.5 -0.2,0.7 l -1,1.1 c -0.2,-0.1 -0.5,0 -0.7,0.2 -0.3,0.3 -0.3,0.8 0,1.1 0.2,0.2 0.5,0.3 0.7,0.2 l 0.9,1 c -0.1,0.3 0,0.5 0.2,0.7 0.2,0.2 0.5,0.3 0.7,0.2 l 0.9,0.9 c -0.1,0.3 0,0.5 0.2,0.7 0.3,0.3 0.8,0.3 1.1,0 0.2,-0.2 0.3,-0.5 0.2,-0.7 l 0.9,-0.9 c 0.3,-0.1 0.6,-0.1 0.8,-0.3 z m -2.6,0.6 -0.9,-0.9 c 0,-0.1 0,-0.3 0,-0.4 l 0.9,-0.9 c 0.1,0 0.3,0 0.4,0 l 0.9,0.9 c 0,0.1 0,0.3 0,0.4 L 15,41.7 c -0.1,0 -0.3,0 -0.4,0 z m -2.8,-3.2 0.9,-0.9 c 0.1,0 0.3,0 0.4,0 l 0.9,1 c 0,0.1 0,0.2 0,0.4 l -0.9,1 c -0.1,0 -0.2,0 -0.4,0 l -0.9,-1 c 0,-0.2 0,-0.4 0,-0.5 z m 5,-4.7 0.9,1 c 0,0.1 0,0.2 0,0.4 l -0.9,1 c -0.1,0 -0.2,0 -0.4,0 l -0.9,-1 c 0,-0.1 0,-0.3 0,-0.4 l 0.9,-0.9 c 0.2,0 0.3,0 0.4,-0.1 z m 2.8,2.8 c 0,0.1 0,0.3 0,0.4 l -0.9,1 c -0.1,0 -0.3,0 -0.4,0 l -0.9,-1 c 0,-0.1 0,-0.3 0,-0.4 l 0.9,-0.9 c 0.1,0 0.3,0 0.4,0 l 0.9,0.9 z m -3.2,3.2 -0.9,-0.9 c 0,-0.1 0,-0.3 0,-0.4 l 0.9,-0.9 c 0.1,0 0.3,0 0.4,0 l 0.9,0.9 c 0,0.1 0,0.3 0,0.4 l -0.9,0.9 c -0.1,0 -0.2,0 -0.4,0 z m -1.4,-4.1 0.9,1 c 0,0.1 0,0.2 0,0.4 L 15,38 c -0.1,0 -0.2,0 -0.4,0 l -0.9,-1 c 0,-0.1 0,-0.3 0,-0.4 l 0.9,-0.9 c 0.1,0 0.3,0 0.4,0 z m 4.5,-1.8 c 0.6,0.6 0.8,1.4 0.7,2.2 0,0 0,0 -0.1,0 l -0.9,-0.9 c 0.1,-0.3 0,-0.5 -0.2,-0.7 -0.2,-0.2 -0.5,-0.3 -0.7,-0.2 l -0.9,-1 c 0,0 0,0 0,-0.1 0.7,-0.1 1.5,0.1 2.1,0.7 z"
                 inkscape:connector-curvature="0"
                 style="fill:#ffffff" /><line
                 id="line27"
                 y2="20.299999"
                 x2="33"
                 y1="29.4"
                 x1="24"
                 stroke-miterlimit="10"
                 style="fill:none;stroke:#ffffff;stroke-width:0.5;stroke-miterlimit:10" /><path
                 id="path29"
                 d="m 66.1,40.7 c 0.2,-0.2 0.3,-0.5 0.2,-0.7 l 0.9,-0.9 c 0.2,0.1 0.5,0 0.7,-0.2 0.2,-0.2 0.3,-0.5 0.2,-0.7 L 69,37.3 c 0.2,0.1 0.5,0 0.7,-0.2 0.3,-0.3 0.3,-0.7 0.1,-1 C 70,35 69.7,33.9 69,33.1 68.2,32.3 67.1,32 66,32.2 65.7,32 65.3,32 65,32.3 64.8,32.5 64.7,32.8 64.8,33 L 64,33.9 c -0.2,-0.1 -0.5,0 -0.7,0.2 C 63,34.3 63,34.5 63,34.8 l -0.9,0.9 c -0.2,-0.1 -0.5,0 -0.7,0.2 -0.2,0.2 -0.3,0.5 -0.2,0.7 l -0.9,0.9 c -0.2,-0.1 -0.5,0 -0.7,0.2 -0.3,0.3 -0.3,0.8 0,1.1 0.2,0.2 0.5,0.3 0.7,0.2 l 0.9,1 c -0.1,0.3 0,0.5 0.2,0.7 0.2,0.2 0.5,0.3 0.7,0.2 l 0.9,0.9 c -0.1,0.3 0,0.5 0.2,0.7 0.3,0.3 0.8,0.3 1.1,0 0.2,-0.2 0.3,-0.5 0.2,-0.7 l 0.9,-0.9 c 0.3,0.1 0.5,0 0.7,-0.2 z m -2.5,0.6 -0.9,-0.9 c 0,-0.1 0,-0.3 0,-0.4 l 0.9,-0.9 c 0.1,0 0.3,0 0.4,0 l 0.9,0.9 c 0,0.1 0,0.3 0,0.4 L 64,41.3 c -0.2,0 -0.3,0 -0.4,0 z m -2.8,-3.2 0.9,-0.9 c 0.1,0 0.3,0 0.4,0 l 0.9,1 c 0,0.1 0,0.2 0,0.4 l -0.9,1 c -0.1,0 -0.2,0 -0.4,0 l -0.9,-1 c 0,-0.2 0,-0.3 0,-0.5 z m 5,-4.6 0.9,1 c 0,0.1 0,0.2 0,0.4 l -0.9,1 c -0.1,0 -0.2,0 -0.4,0 l -0.9,-1 c 0,-0.1 0,-0.3 0,-0.4 l 0.9,-0.9 c 0.1,-0.1 0.3,-0.1 0.4,-0.1 z m 2.8,2.8 c 0,0.1 0,0.3 0,0.4 l -0.9,0.9 c -0.1,0 -0.3,0 -0.4,0 l -0.9,-0.9 c 0,-0.1 0,-0.3 0,-0.4 l 0.9,-0.9 c 0.1,0 0.3,0 0.4,0 l 0.9,0.9 z m -3.2,3.2 -0.9,-0.9 c 0,-0.1 0,-0.3 0,-0.4 l 0.9,-0.9 c 0.1,0 0.3,0 0.4,0 l 0.9,0.9 c 0,0.1 0,0.3 0,0.4 l -0.9,0.9 c -0.1,-0.1 -0.3,-0.1 -0.4,0 z m -1.4,-4.2 0.9,1 c 0,0.1 0,0.2 0,0.4 l -0.9,1 c -0.1,0 -0.2,0 -0.4,0 l -0.9,-1 c 0,-0.1 0,-0.3 0,-0.4 l 0.9,-0.9 c 0.1,0 0.2,0 0.4,-0.1 z m 4.5,-1.8 c 0.6,0.6 0.8,1.4 0.7,2.2 0,0 0,0 -0.1,0 l -0.9,-0.9 c 0.1,-0.3 0,-0.5 -0.2,-0.7 -0.2,-0.2 -0.5,-0.3 -0.7,-0.2 l -0.9,-1 c 0,0 0,0 0,-0.1 0.7,-0.1 1.5,0.2 2.1,0.7 z"
                 inkscape:connector-curvature="0"
                 style="fill:#ffffff" /><path
                 id="path31"
                 d="m 41.5,65.6 c 0.2,-0.2 0.3,-0.5 0.2,-0.7 L 42.6,64 c 0.2,0.1 0.5,0 0.7,-0.2 0.2,-0.2 0.3,-0.5 0.2,-0.7 l 0.9,-0.9 c 0.2,0.1 0.5,0 0.7,-0.2 0.3,-0.3 0.3,-0.7 0.1,-1 0.2,-1.1 -0.1,-2.2 -0.8,-3 -0.8,-0.8 -1.9,-1.1 -3,-0.9 -0.3,-0.2 -0.7,-0.2 -1,0.1 -0.2,0.2 -0.3,0.5 -0.2,0.7 l -0.9,0.9 c -0.2,-0.1 -0.5,0 -0.7,0.2 -0.2,0.2 -0.3,0.5 -0.2,0.7 l -0.9,0.9 c -0.2,-0.1 -0.5,0 -0.7,0.2 -0.2,0.2 -0.3,0.5 -0.2,0.7 l -0.9,0.9 c -0.2,-0.1 -0.5,0 -0.7,0.2 -0.3,0.3 -0.3,0.8 0,1.1 0.2,0.2 0.5,0.3 0.7,0.2 l 0.9,1 c -0.1,0.3 0,0.5 0.2,0.7 0.2,0.2 0.5,0.3 0.7,0.2 l 0.9,0.9 c -0.1,0.3 0,0.5 0.2,0.7 0.3,0.3 0.8,0.3 1.1,0 0.2,-0.2 0.3,-0.5 0.2,-0.7 l 0.9,-0.9 c 0.2,0.1 0.5,0 0.7,-0.2 z M 38.9,66.2 38,65.3 c 0,-0.1 0,-0.3 0,-0.4 L 38.9,64 c 0.1,0 0.3,0 0.4,0 l 0.9,0.9 c 0,0.1 0,0.3 0,0.4 l -0.9,0.9 c -0.1,0 -0.3,0 -0.4,0 z M 36.1,63 37,62.1 c 0.1,0 0.3,0 0.4,0 l 0.9,1 c 0,0.1 0,0.2 0,0.4 l -0.9,1 c -0.1,0 -0.2,0 -0.4,0 l -0.9,-1 c 0.1,-0.2 0.1,-0.4 0,-0.5 z m 5,-4.6 0.9,1 c 0,0.1 0,0.2 0,0.4 l -0.9,1 c -0.1,0 -0.2,0 -0.4,0 l -0.9,-1 c 0,-0.1 0,-0.3 0,-0.4 l 0.9,-0.9 c 0.2,-0.1 0.3,-0.1 0.4,-0.1 z m 2.8,2.8 c 0,0.1 0,0.3 0,0.4 L 43,62.5 c -0.1,0 -0.3,0 -0.4,0 l -0.9,-0.9 c 0,-0.1 0,-0.3 0,-0.4 l 0.9,-0.9 c 0.1,0 0.3,0 0.4,0 l 0.9,0.9 z m -3.2,3.2 -0.9,-0.9 c 0,-0.1 0,-0.3 0,-0.4 l 0.9,-0.9 c 0.1,0 0.3,0 0.4,0 l 0.9,0.9 c 0,0.1 0,0.3 0,0.4 l -0.9,0.9 c -0.1,-0.1 -0.2,-0.1 -0.4,0 z m -1.4,-4.2 0.9,1 c 0,0.1 0,0.2 0,0.4 l -0.9,1 c -0.1,0 -0.2,0 -0.4,0 l -0.9,-1 c 0,-0.1 0,-0.3 0,-0.4 l 0.9,-0.9 c 0.1,0 0.3,0 0.4,-0.1 z m 4.5,-1.8 c 0.6,0.6 0.8,1.4 0.7,2.2 0,0 0,0 -0.1,0 l -0.9,-0.9 c 0.1,-0.3 0,-0.5 -0.2,-0.7 -0.2,-0.2 -0.5,-0.3 -0.7,-0.2 l -0.9,-1 c 0,0 0,0 0,-0.1 0.7,-0.1 1.6,0.1 2.1,0.7 z"
                 inkscape:connector-curvature="0"
                 style="fill:#ffffff" /><path
                 id="path33"
                 d="m 90.7,15.9 c 0.2,-0.2 0.3,-0.5 0.2,-0.7 l 0.9,-0.9 c 0.2,0.1 0.5,0 0.7,-0.2 0.2,-0.2 0.3,-0.5 0.2,-0.7 l 0.9,-0.9 c 0.2,0.1 0.5,0 0.7,-0.2 0.3,-0.3 0.3,-0.7 0.1,-1 0.2,-1.1 -0.1,-2.2 -0.8,-3 C 92.8,7.5 91.7,7.2 90.6,7.4 90.3,7.2 89.9,7.2 89.6,7.5 89.4,7.7 89.3,8 89.4,8.2 L 88.5,9.1 C 88.3,9 88,9.1 87.8,9.3 87.6,9.5 87.5,9.8 87.6,10 l -0.9,0.9 c -0.2,-0.1 -0.5,0 -0.7,0.2 -0.2,0.2 -0.3,0.5 -0.2,0.7 l -0.9,0.9 c -0.2,-0.1 -0.5,0 -0.7,0.2 -0.3,0.3 -0.3,0.8 0,1.1 0.2,0.2 0.5,0.3 0.7,0.2 l 0.9,1 c -0.1,0.3 0,0.5 0.2,0.7 0.2,0.2 0.5,0.3 0.7,0.2 l 0.9,0.9 c -0.1,0.3 0,0.5 0.2,0.7 0.3,0.3 0.8,0.3 1.1,0 0.2,-0.2 0.3,-0.5 0.2,-0.7 L 90,16.1 c 0.3,0.1 0.5,0 0.7,-0.2 z m -2.5,0.6 -0.9,-0.9 c 0,-0.1 0,-0.3 0,-0.4 l 0.9,-0.9 c 0.1,0 0.3,0 0.4,0 l 0.9,0.9 c 0,0.1 0,0.3 0,0.4 l -0.9,0.9 c -0.2,0 -0.3,0 -0.4,0 z m -2.8,-3.2 0.9,-0.9 c 0.1,0 0.3,0 0.4,0 l 0.9,1 c 0,0.1 0,0.2 0,0.4 l -0.9,1 c -0.1,0 -0.2,0 -0.4,0 l -0.9,-1 c 0,-0.2 0,-0.4 0,-0.5 z m 5,-4.6 0.9,1 c 0,0.1 0,0.2 0,0.4 l -0.9,1 c -0.1,0 -0.2,0 -0.4,0 l -0.9,-1 c 0,-0.1 0,-0.3 0,-0.4 l 0.9,-1 c 0.1,0 0.3,0 0.4,0 z m 2.8,2.8 c 0,0.1 0,0.3 0,0.4 l -0.9,0.9 c -0.1,0 -0.3,0 -0.4,0 L 91,11.9 c 0,-0.1 0,-0.3 0,-0.4 l 0.9,-0.9 c 0.1,0 0.3,0 0.4,0 l 0.9,0.9 z M 90,14.6 89.1,13.7 c 0,-0.1 0,-0.3 0,-0.4 L 90,12.4 c 0.1,0 0.3,0 0.4,0 l 0.9,0.9 c 0,0.1 0,0.3 0,0.4 l -0.9,0.9 c -0.1,0 -0.3,0 -0.4,0 z m -1.4,-4.1 0.9,1 c 0,0.1 0,0.2 0,0.4 l -0.9,1 c -0.1,0 -0.2,0 -0.4,0 l -0.9,-1 c 0,-0.1 0,-0.3 0,-0.4 l 0.9,-0.9 c 0.1,-0.1 0.2,-0.1 0.4,-0.1 z m 4.5,-1.8 c 0.6,0.6 0.8,1.4 0.7,2.2 0,0 0,0 -0.1,0 L 92.8,10 C 92.9,9.7 92.8,9.5 92.6,9.3 92.4,9.1 92.1,9 91.9,9.1 L 91,8.1 c 0,0 0,0 0,-0.1 0.7,-0.1 1.5,0.1 2.1,0.7 z"
                 inkscape:connector-curvature="0"
                 style="fill:#ffffff" /><path
                 id="path35"
                 d="m 89.3,64 c 0.2,-0.2 0.3,-0.5 0.2,-0.7 l 0.9,-0.9 c 0.2,0.1 0.5,0 0.7,-0.2 0.2,-0.2 0.3,-0.5 0.2,-0.7 l 0.9,-0.9 c 0.2,0.1 0.5,0 0.7,-0.2 0.3,-0.3 0.3,-0.7 0.1,-1 0.2,-1.1 -0.1,-2.2 -0.8,-3 -0.8,-0.8 -1.9,-1.1 -3,-0.9 -0.3,-0.2 -0.7,-0.2 -1,0.1 C 88,55.7 87.9,56 88,56.3 l -0.9,0.9 c -0.2,-0.1 -0.5,0 -0.7,0.2 -0.2,0.2 -0.3,0.5 -0.2,0.7 L 85.3,59 c -0.2,-0.1 -0.5,0 -0.7,0.2 -0.2,0.2 -0.3,0.5 -0.2,0.7 l -0.9,0.9 c -0.2,-0.1 -0.5,0 -0.7,0.2 -0.3,0.3 -0.3,0.8 0,1.1 0.2,0.2 0.5,0.3 0.7,0.2 l 0.9,1 c -0.1,0.3 0,0.5 0.2,0.7 0.2,0.2 0.5,0.3 0.7,0.2 l 0.9,0.9 c -0.1,0.3 0,0.5 0.2,0.7 0.3,0.3 0.8,0.3 1.1,0 0.2,-0.2 0.3,-0.5 0.2,-0.7 l 0.9,-0.9 c 0.2,0.1 0.5,0 0.7,-0.2 z m -2.6,0.6 -0.9,-0.9 c 0,-0.1 0,-0.3 0,-0.4 l 0.9,-0.9 c 0.1,0 0.3,0 0.4,0 l 0.9,0.9 c 0,0.1 0,0.3 0,0.4 l -0.9,0.9 c -0.2,0 -0.3,0 -0.4,0 z m -2.8,-3.1 0.9,-0.9 c 0.1,0 0.3,0 0.4,0 l 0.9,1 c 0,0.1 0,0.2 0,0.4 l -0.9,1 c -0.1,0 -0.2,0 -0.4,0 l -0.9,-1 c 0,-0.3 0,-0.4 0,-0.5 z m 5,-4.7 0.9,1 c 0,0.1 0,0.2 0,0.4 l -0.9,1 c -0.1,0 -0.2,0 -0.4,0 l -0.9,-1 c 0,-0.1 0,-0.3 0,-0.4 l 0.9,-0.9 c 0.2,-0.1 0.3,-0.1 0.4,-0.1 z m 2.8,2.8 c 0,0.1 0,0.3 0,0.4 l -0.9,0.9 c -0.1,0 -0.3,0 -0.4,0 L 89.5,60 c 0,-0.1 0,-0.3 0,-0.4 l 0.9,-0.9 c 0.1,0 0.3,0 0.4,0 l 0.9,0.9 z m -3.2,3.2 -0.9,-0.9 c 0,-0.1 0,-0.3 0,-0.4 l 0.9,-0.9 c 0.1,0 0.3,0 0.4,0 l 0.9,0.9 c 0,0.1 0,0.3 0,0.4 l -0.9,0.9 c -0.1,0 -0.2,0 -0.4,0 z m -1.4,-4.1 0.9,1 c 0,0.1 0,0.2 0,0.4 l -0.9,1 c -0.1,0 -0.2,0 -0.4,0 l -0.9,-1 c 0,-0.1 0,-0.3 0,-0.4 l 0.9,-0.9 c 0.1,-0.1 0.2,-0.1 0.4,-0.1 z m 4.5,-1.8 c 0.6,0.6 0.8,1.4 0.7,2.2 0,0 0,0 -0.1,0 l -0.9,-0.9 c 0.1,-0.3 0,-0.5 -0.2,-0.7 -0.2,-0.2 -0.5,-0.3 -0.7,-0.2 l -0.9,-1 c 0,0 0,0 0,-0.1 0.7,-0.2 1.5,0.1 2.1,0.7 z"
                 inkscape:connector-curvature="0"
                 style="fill:#ffffff" /><line
                 id="line37"
                 y2="20"
                 x2="82"
                 y1="29"
                 x1="73"
                 stroke-miterlimit="10"
                 style="fill:none;stroke:#ffffff;stroke-width:0.5;stroke-miterlimit:10" /><line
                 id="line39"
                 y2="44.900002"
                 x2="57.299999"
                 y1="53.900002"
                 x1="48.299999"
                 stroke-miterlimit="10"
                 style="fill:none;stroke:#ffffff;stroke-width:0.5;stroke-miterlimit:10" /><line
                 id="line41"
                 y2="53.799999"
                 x2="82"
                 y1="44.799999"
                 x1="73"
                 stroke-miterlimit="10"
                 style="fill:none;stroke:#ffffff;stroke-width:0.5;stroke-miterlimit:10" /><line
                 id="line43"
                 y2="28.9"
                 x2="57.299999"
                 y1="19.799999"
                 x1="48.299999"
                 stroke-miterlimit="10"
                 style="fill:none;stroke:#ffffff;stroke-width:0.5;stroke-miterlimit:10" /><path
                 id="path45"
                 d="m 113.9,39.2 c 0.2,-0.2 0.3,-0.5 0.2,-0.7 l 0.9,-0.9 c 0.2,0.1 0.5,0 0.7,-0.2 0.2,-0.2 0.3,-0.5 0.2,-0.7 l 0.9,-0.9 c 0.2,0.1 0.5,0 0.7,-0.2 0.3,-0.3 0.3,-0.7 0.1,-1 0.2,-1.1 -0.1,-2.2 -0.8,-3 -0.8,-0.8 -1.9,-1.1 -3,-0.9 -0.3,-0.2 -0.7,-0.2 -1,0.1 -0.2,0.2 -0.3,0.5 -0.2,0.7 l -0.9,0.9 c -0.2,-0.1 -0.5,0 -0.7,0.2 -0.2,0.2 -0.3,0.5 -0.2,0.7 l -0.9,0.9 c -0.2,-0.1 -0.5,0 -0.7,0.2 -0.2,0.2 -0.3,0.5 -0.2,0.7 l -0.9,0.9 c -0.2,-0.1 -0.5,0 -0.7,0.2 -0.3,0.3 -0.3,0.8 0,1.1 0.2,0.2 0.5,0.3 0.7,0.2 l 0.9,1 c -0.1,0.3 0,0.5 0.2,0.7 0.2,0.2 0.5,0.3 0.7,0.2 l 0.9,0.9 c -0.1,0.3 0,0.5 0.2,0.7 0.3,0.3 0.8,0.3 1.1,0 0.2,-0.2 0.3,-0.5 0.2,-0.7 l 0.9,-0.9 c 0.2,0.1 0.5,0 0.7,-0.2 z m -2.6,0.6 -0.9,-0.9 c 0,-0.1 0,-0.3 0,-0.4 l 0.9,-0.9 c 0.1,0 0.3,0 0.4,0 l 0.9,0.9 c 0,0.1 0,0.3 0,0.4 l -0.9,0.9 c -0.1,0 -0.3,0 -0.4,0 z m -2.8,-3.2 0.9,-0.9 c 0.1,0 0.3,0 0.4,0 l 0.9,1 c 0,0.1 0,0.2 0,0.4 l -0.9,1 c -0.1,0 -0.2,0 -0.4,0 l -0.9,-1 c 0,-0.2 0,-0.3 0,-0.5 z m 5,-4.6 0.9,1 c 0,0.1 0,0.2 0,0.4 l -0.9,1 c -0.1,0 -0.2,0 -0.4,0 l -0.9,-1 c 0,-0.1 0,-0.3 0,-0.4 l 0.9,-0.9 c 0.2,-0.1 0.3,-0.1 0.4,-0.1 z m 2.8,2.8 c 0,0.1 0,0.3 0,0.4 l -0.9,0.9 c -0.1,0 -0.3,0 -0.4,0 l -0.9,-0.9 c 0,-0.1 0,-0.3 0,-0.4 l 0.9,-0.9 c 0.1,0 0.3,0 0.4,0 l 0.9,0.9 z m -3.2,3.2 -0.9,-0.9 c 0,-0.1 0,-0.3 0,-0.4 l 0.9,-0.9 c 0.1,0 0.3,0 0.4,0 l 0.9,0.9 c 0,0.1 0,0.3 0,0.4 l -0.9,0.9 c -0.1,-0.1 -0.2,-0.1 -0.4,0 z m -1.4,-4.2 0.9,1 c 0,0.1 0,0.2 0,0.4 l -0.9,1 c -0.1,0 -0.2,0 -0.4,0 l -0.9,-1 c 0,-0.1 0,-0.3 0,-0.4 l 0.9,-0.9 c 0.1,0 0.3,0 0.4,-0.1 z m 4.5,-1.8 c 0.6,0.6 0.8,1.4 0.7,2.2 0,0 0,0 -0.1,0 l -0.9,-0.9 c 0.1,-0.3 0,-0.5 -0.2,-0.7 -0.2,-0.2 -0.5,-0.3 -0.7,-0.2 l -0.9,-1 c 0,0 0,0 0,-0.1 0.7,-0.1 1.5,0.2 2.1,0.7 z"
                 inkscape:connector-curvature="0"
                 style="fill:#ffffff" /><line
                 id="line47"
                 y2="29"
                 x2="106.6"
                 y1="19.9"
                 x1="97.599998"
                 stroke-miterlimit="10"
                 style="fill:none;stroke:#ffffff;stroke-width:0.5;stroke-miterlimit:10" /><path
                 id="path51"
                 d="m 64.6,88.9 c 0.2,-0.2 0.3,-0.5 0.2,-0.7 l 0.9,-0.9 c 0.2,0.1 0.5,0 0.7,-0.2 0.2,-0.2 0.3,-0.5 0.2,-0.7 l 0.9,-0.9 c 0.2,0.1 0.5,0 0.7,-0.2 0.3,-0.3 0.3,-0.7 0.1,-1 0.2,-1.1 -0.1,-2.2 -0.8,-3 -0.8,-0.8 -1.9,-1.1 -3,-0.9 -0.3,-0.2 -0.7,-0.2 -1,0.1 -0.2,0.2 -0.3,0.5 -0.2,0.7 l -0.9,0.9 c -0.2,-0.1 -0.5,0 -0.7,0.2 -0.2,0.2 -0.3,0.5 -0.2,0.7 l -0.9,1 c -0.2,-0.1 -0.5,0 -0.7,0.2 -0.2,0.2 -0.3,0.5 -0.2,0.7 l -0.9,0.9 c -0.2,-0.1 -0.5,0 -0.7,0.2 -0.3,0.3 -0.3,0.8 0,1.1 0.2,0.2 0.5,0.3 0.7,0.2 l 0.9,1 c -0.1,0.3 0,0.5 0.2,0.7 0.2,0.2 0.5,0.3 0.7,0.2 l 0.9,0.9 c -0.1,0.3 0,0.5 0.2,0.7 0.3,0.3 0.8,0.3 1.1,0 0.2,-0.2 0.3,-0.5 0.2,-0.7 l 0.9,-0.9 c 0.2,0 0.5,-0.1 0.7,-0.3 z M 62,89.5 61.1,88.6 c 0,-0.1 0,-0.3 0,-0.4 L 62,87.3 c 0.1,0 0.3,0 0.4,0 l 0.9,0.9 c 0,0.1 0,0.3 0,0.4 l -0.9,0.9 c -0.1,0 -0.3,0 -0.4,0 z m -2.8,-3.2 0.9,-0.9 c 0.1,0 0.3,0 0.4,0 l 0.9,1 c 0,0.1 0,0.2 0,0.4 l -0.9,1 c -0.1,0 -0.2,0 -0.4,0 l -0.9,-1 c 0.1,-0.2 0.1,-0.3 0,-0.5 z m 5,-4.6 0.9,1 c 0,0.1 0,0.2 0,0.4 l -0.9,1 c -0.1,0 -0.2,0 -0.4,0 l -0.9,-1 c 0,-0.1 0,-0.3 0,-0.4 l 0.9,-0.9 c 0.2,-0.1 0.3,-0.1 0.4,-0.1 z m 2.8,2.8 c 0,0.1 0,0.3 0,0.4 l -0.9,0.9 c -0.1,0 -0.3,0 -0.4,0 l -0.9,-0.9 c 0,-0.1 0,-0.3 0,-0.4 l 0.9,-0.9 c 0.1,0 0.3,0 0.4,0 L 67,84.5 Z M 63.9,87.7 63,86.8 c 0,-0.1 0,-0.3 0,-0.4 l 0.9,-0.9 c 0.1,0 0.3,0 0.4,0 l 0.9,0.9 c 0,0.1 0,0.3 0,0.4 l -0.9,0.9 c -0.2,-0.1 -0.3,-0.1 -0.4,0 z m -1.5,-4.2 0.9,1 c 0,0.1 0,0.2 0,0.4 l -0.9,1 c -0.1,0 -0.2,0 -0.4,0 l -0.9,-1 c 0,-0.1 0,-0.3 0,-0.4 L 62,83.6 c 0.1,0 0.3,0 0.4,-0.1 z M 67,81.8 c 0.6,0.6 0.8,1.4 0.7,2.2 0,0 0,0 -0.1,0 l -1,-1 c 0.1,-0.3 0,-0.5 -0.2,-0.7 -0.2,-0.2 -0.5,-0.3 -0.7,-0.2 l -0.9,-1 c 0,0 0,0 0,-0.1 0.8,-0.1 1.6,0.2 2.2,0.8 z"
                 inkscape:connector-curvature="0"
                 style="fill:#ffffff" /><line
                 id="line53"
                 y2="78.699997"
                 x2="57.299999"
                 y1="69.599998"
                 x1="48.400002"
                 stroke-miterlimit="10"
                 style="fill:none;stroke:#ffffff;stroke-width:0.5;stroke-miterlimit:10" /><line
                 id="line55"
                 y2="53.799999"
                 x2="32.599998"
                 y1="44.700001"
                 x1="23.700001"
                 stroke-miterlimit="10"
                 style="fill:none;stroke:#ffffff;stroke-width:0.5;stroke-miterlimit:10" /><line
                 id="line57"
                 y2="43.299999"
                 x2="105.1"
                 y1="52.299999"
                 x1="96.099998"
                 stroke-miterlimit="10"
                 style="fill:none;stroke:#ffffff;stroke-width:0.5;stroke-miterlimit:10" /><path
                 id="path61"
                 d="m 138.4,14.5 c 0.2,-0.2 0.3,-0.5 0.2,-0.7 l 0.9,-0.9 c 0.2,0.1 0.5,0 0.7,-0.2 0.2,-0.2 0.3,-0.5 0.2,-0.7 l 0.9,-0.9 c 0.2,0.1 0.5,0 0.7,-0.2 0.3,-0.3 0.3,-0.7 0.1,-1 0.2,-1.1 -0.1,-2.2 -0.8,-3 -0.8,-0.8 -1.9,-1.1 -3,-0.9 -0.3,-0.2 -0.7,-0.2 -1,0.1 -0.2,0.2 -0.3,0.5 -0.2,0.7 l -0.9,0.9 c -0.2,-0.1 -0.5,0 -0.7,0.2 -0.2,0.2 -0.3,0.5 -0.2,0.7 l -0.9,0.9 c -0.2,-0.1 -0.5,0 -0.7,0.2 -0.2,0.2 -0.3,0.5 -0.2,0.7 l -0.9,0.9 c -0.2,-0.1 -0.5,0 -0.7,0.2 -0.3,0.3 -0.3,0.8 0,1.1 0.2,0.2 0.5,0.3 0.7,0.2 l 0.9,1 c -0.1,0.3 0,0.5 0.2,0.7 0.2,0.2 0.5,0.3 0.7,0.2 l 0.9,0.9 c -0.1,0.3 0,0.5 0.2,0.7 0.3,0.3 0.8,0.3 1.1,0 0.2,-0.2 0.3,-0.5 0.2,-0.7 l 0.9,-0.9 c 0.2,0.1 0.5,0 0.7,-0.2 z m -2.6,0.6 -0.9,-0.9 c 0,-0.1 0,-0.3 0,-0.4 l 0.9,-0.9 c 0.1,0 0.3,0 0.4,0 l 0.9,0.9 c 0,0.1 0,0.3 0,0.4 l -0.9,0.9 c -0.1,0 -0.3,0 -0.4,0 z M 133,11.9 134,11 c 0.1,0 0.3,0 0.4,0 l 0.9,1 c 0,0.1 0,0.2 0,0.4 l -0.9,1 c -0.1,0 -0.2,0 -0.4,0 l -0.9,-1 c 0,-0.2 0,-0.4 -0.1,-0.5 z m 5,-4.6 0.9,1 c 0,0.1 0,0.2 0,0.4 l -0.9,1 c -0.1,0 -0.2,0 -0.4,0 l -0.9,-1 c 0,-0.1 0,-0.3 0,-0.4 l 0.9,-0.9 c 0.2,-0.1 0.3,-0.1 0.4,-0.1 z m 2.8,2.8 c 0,0.1 0,0.3 0,0.4 l -0.9,0.9 c -0.1,0 -0.3,0 -0.4,0 l -0.9,-0.9 c 0,-0.1 0,-0.3 0,-0.4 l 0.9,-0.9 c 0.1,0 0.3,0 0.4,0 l 0.9,0.9 z m -3.2,3.1 -0.9,-0.9 c 0,-0.1 0,-0.3 0,-0.4 l 0.9,-0.9 c 0.1,0 0.3,0 0.4,0 l 0.9,0.9 c 0,0.1 0,0.3 0,0.4 l -0.9,0.9 c -0.1,0 -0.2,0 -0.4,0 z m -1.4,-4.1 0.9,1 c 0,0.1 0,0.2 0,0.4 l -0.9,1 c -0.1,0 -0.2,0 -0.4,0 l -0.9,-1 c 0,-0.1 0,-0.3 0,-0.4 l 0.9,-0.9 c 0.1,-0.1 0.3,-0.1 0.4,-0.1 z m 4.5,-1.8 c 0.6,0.6 0.8,1.4 0.7,2.2 0,0 0,0 -0.1,0 l -0.9,-0.9 c 0.1,-0.3 0,-0.5 -0.2,-0.7 -0.2,-0.2 -0.5,-0.3 -0.7,-0.2 l -0.9,-1 c 0,0 0,0 0,-0.1 0.7,-0.1 1.6,0.1 2.1,0.7 z"
                 inkscape:connector-curvature="0"
                 style="fill:#ffffff" /><line
                 id="line65"
                 y2="18.6"
                 x2="129.60001"
                 y1="27.6"
                 x1="120.6"
                 stroke-miterlimit="10"
                 style="fill:none;stroke:#ffffff;stroke-width:0.5;stroke-miterlimit:10" /><line
                 id="line69"
                 y2="68.199997"
                 x2="80.400002"
                 y1="77.199997"
                 x1="71.400002"
                 stroke-miterlimit="10"
                 style="fill:none;stroke:#ffffff;stroke-width:0.5;stroke-miterlimit:10" /><path
                 id="path71"
                 d="m 111.4,86.4 c 0.2,-0.2 0.3,-0.5 0.2,-0.7 l 0.9,-0.9 c 0.2,0.1 0.5,0 0.7,-0.2 0.2,-0.2 0.3,-0.5 0.2,-0.7 l 0.9,-0.9 c 0.2,0.1 0.5,0 0.7,-0.2 0.3,-0.3 0.3,-0.7 0.1,-1 0.2,-1.1 -0.1,-2.2 -0.8,-3 -0.8,-0.8 -1.9,-1.1 -3,-0.9 -0.3,-0.2 -0.7,-0.2 -1,0.1 -0.2,0.2 -0.3,0.5 -0.2,0.7 l -0.9,0.9 c -0.2,-0.1 -0.5,0 -0.7,0.2 -0.2,0.2 -0.3,0.5 -0.2,0.7 l -0.9,0.9 c -0.2,-0.1 -0.5,0 -0.7,0.2 -0.2,0.2 -0.3,0.5 -0.2,0.7 l -0.9,0.9 c -0.2,-0.1 -0.5,0 -0.7,0.2 -0.3,0.3 -0.3,0.8 0,1.1 0.2,0.2 0.5,0.3 0.7,0.2 l 0.9,1 c -0.1,0.3 0,0.5 0.2,0.7 0.2,0.2 0.5,0.3 0.7,0.2 l 0.9,0.9 c -0.1,0.3 0,0.5 0.2,0.7 0.3,0.3 0.8,0.3 1.1,0 0.2,-0.2 0.3,-0.5 0.2,-0.7 l 0.9,-0.9 c 0.2,0 0.5,0 0.7,-0.2 z m -2.6,0.6 -0.9,-0.9 c 0,-0.1 0,-0.3 0,-0.4 l 0.9,-0.9 c 0.1,0 0.3,0 0.4,0 l 0.9,0.9 c 0,0.1 0,0.3 0,0.4 l -0.9,0.9 c -0.1,-0.1 -0.3,-0.1 -0.4,0 z m -2.8,-3.2 0.9,-0.9 c 0.1,0 0.3,0 0.4,0 l 0.9,1 c 0,0.1 0,0.2 0,0.4 l -0.9,1 c -0.1,0 -0.2,0 -0.4,0 l -0.9,-1 c 0.1,-0.3 0.1,-0.4 0,-0.5 z m 5.1,-4.7 0.9,1 c 0,0.1 0,0.2 0,0.4 l -0.9,1 c -0.1,0 -0.2,0 -0.4,0 l -0.9,-1 c 0,-0.1 0,-0.3 0,-0.4 l 0.9,-0.9 c 0.1,0 0.2,0 0.4,-0.1 z m 2.7,2.8 c 0,0.1 0,0.3 0,0.4 l -0.9,0.9 c -0.1,0 -0.3,0 -0.4,0 l -0.9,-0.9 c 0,-0.1 0,-0.3 0,-0.4 l 0.9,-0.9 c 0.1,0 0.3,0 0.4,0 l 0.9,0.9 z m -3.1,3.2 -0.9,-0.9 c 0,-0.1 0,-0.3 0,-0.4 l 0.9,-0.9 c 0.1,0 0.3,0 0.4,0 l 0.9,0.9 c 0,0.1 0,0.3 0,0.4 l -0.9,0.9 c -0.2,0 -0.3,0 -0.4,0 z m -1.5,-4.1 0.9,1 c 0,0.1 0,0.2 0,0.4 l -0.9,1 c -0.1,0 -0.2,0 -0.4,0 l -0.9,-1 c 0,-0.1 0,-0.3 0,-0.4 l 0.9,-0.9 c 0.1,-0.1 0.3,-0.1 0.4,-0.1 z m 4.6,-1.8 c 0.6,0.6 0.8,1.4 0.7,2.2 0,0 0,0 -0.1,0 l -0.9,-0.9 c 0.1,-0.3 0,-0.5 -0.2,-0.7 -0.2,-0.2 -0.5,-0.3 -0.7,-0.2 l -0.9,-1 c 0,0 0,0 0,-0.1 0.7,-0.1 1.5,0.1 2.1,0.7 z"
                 inkscape:connector-curvature="0"
                 style="fill:#ffffff" /><line
                 id="line73"
                 y2="76.099998"
                 x2="104.1"
                 y1="67.099998"
                 x1="95.199997"
                 stroke-miterlimit="10"
                 style="fill:none;stroke:#ffffff;stroke-width:0.5;stroke-miterlimit:10" /><path
                 id="path75"
                 d="m 136,61.6 c 0.2,-0.2 0.3,-0.5 0.2,-0.7 l 0.9,-0.9 c 0.2,0.1 0.5,0 0.7,-0.2 0.2,-0.2 0.3,-0.5 0.2,-0.7 l 1,-1.1 c 0.2,0.1 0.5,0 0.7,-0.2 0.3,-0.3 0.3,-0.7 0.1,-1 0.2,-1.1 -0.1,-2.2 -0.8,-3 -0.8,-0.8 -1.9,-1.1 -3,-0.9 -0.3,-0.2 -0.7,-0.2 -1,0.1 -0.2,0.2 -0.3,0.5 -0.2,0.7 l -0.9,0.9 c -0.2,-0.1 -0.5,0 -0.7,0.2 -0.2,0.2 -0.3,0.5 -0.2,0.7 l -0.9,0.9 c -0.2,-0.1 -0.5,0 -0.7,0.2 -0.2,0.2 -0.3,0.5 -0.2,0.7 l -0.9,0.9 c -0.2,-0.1 -0.5,0 -0.7,0.2 -0.3,0.3 -0.3,0.8 0,1.1 0.2,0.2 0.5,0.3 0.7,0.2 l 0.9,1 c -0.1,0.3 0,0.5 0.2,0.7 0.2,0.2 0.5,0.3 0.7,0.2 l 0.9,0.9 c -0.1,0.3 0,0.5 0.2,0.7 0.3,0.3 0.8,0.3 1.1,0 0.2,-0.2 0.3,-0.5 0.2,-0.7 l 0.9,-0.9 c 0.1,0.2 0.4,0.2 0.6,0 z m -2.6,0.6 -0.9,-0.9 c 0,-0.1 0,-0.3 0,-0.4 l 0.9,-0.9 c 0.1,0 0.3,0 0.4,0 l 0.9,0.9 c 0,0.1 0,0.3 0,0.4 l -0.9,0.9 c -0.1,-0.1 -0.2,-0.1 -0.4,0 z m -2.8,-3.2 0.9,-0.9 c 0.1,0 0.3,0 0.4,0 l 0.9,1 c 0,0.1 0,0.2 0,0.4 l -0.9,1 c -0.1,0 -0.2,0 -0.4,0 l -0.9,-1 c 0.1,-0.3 0.1,-0.4 0,-0.5 z m 5.1,-4.7 0.9,1 c 0,0.1 0,0.2 0,0.4 l -0.9,1 c -0.1,0 -0.2,0 -0.4,0 l -0.9,-1 c 0,-0.1 0,-0.3 0,-0.4 l 0.9,-0.9 c 0.1,-0.1 0.2,-0.1 0.4,-0.1 z m 2.7,2.8 c 0,0.1 0,0.3 0,0.4 l -0.9,0.9 c -0.1,0 -0.3,0 -0.4,0 l -0.9,-0.9 c 0,-0.1 0,-0.3 0,-0.4 l 0.9,-0.9 c 0.1,0 0.3,0 0.4,0 l 0.9,0.9 z m -3.1,3.2 -0.9,-0.9 c 0,-0.1 0,-0.3 0,-0.4 l 0.9,-0.9 c 0.1,0 0.3,0 0.4,0 l 0.9,0.9 c 0,0.1 0,0.3 0,0.4 l -0.9,0.9 c -0.2,0 -0.3,0 -0.4,0 z m -1.5,-4.1 0.9,1 c 0,0.1 0,0.2 0,0.4 l -0.9,1 c -0.1,0 -0.2,0 -0.4,0 l -0.9,-1 c 0,-0.1 0,-0.3 0,-0.4 l 0.9,-0.9 c 0.2,-0.1 0.3,-0.1 0.4,-0.1 z m 4.6,-1.8 c 0.6,0.6 0.8,1.4 0.7,2.2 0,0 0,0 -0.1,0 l -0.9,-0.9 c 0.1,-0.3 0,-0.5 -0.2,-0.7 -0.2,-0.2 -0.5,-0.3 -0.7,-0.2 l -0.9,-1 c 0,0 0,0 0,-0.1 0.7,-0.1 1.5,0.1 2.1,0.7 z"
                 inkscape:connector-curvature="0"
                 style="fill:#ffffff" /><line
                 id="line77"
                 y2="51.299999"
                 x2="128.7"
                 y1="42.299999"
                 x1="119.8"
                 stroke-miterlimit="10"
                 style="fill:none;stroke:#ffffff;stroke-width:0.5;stroke-miterlimit:10" /><path
                 id="path79"
                 d="m 86.7,111.3 c 0.2,-0.2 0.3,-0.5 0.2,-0.7 l 0.9,-0.9 c 0.2,0.1 0.5,0 0.7,-0.2 0.2,-0.2 0.3,-0.5 0.2,-0.7 l 0.9,-0.9 c 0.2,0.1 0.5,0 0.7,-0.2 0.3,-0.3 0.3,-0.7 0.1,-1 0.2,-1.1 -0.1,-2.2 -0.8,-3 -0.8,-0.8 -1.9,-1.1 -3,-0.9 -0.3,-0.2 -0.7,-0.2 -1,0.1 -0.2,0.2 -0.3,0.5 -0.2,0.7 l -0.9,0.9 c -0.2,-0.1 -0.5,0 -0.7,0.2 -0.2,0.2 -0.3,0.5 -0.2,0.7 l -0.9,0.9 c -0.2,-0.1 -0.5,0 -0.7,0.2 -0.2,0.2 -0.3,0.5 -0.2,0.7 l -0.9,0.9 c -0.2,-0.1 -0.5,0 -0.7,0.2 -0.3,0.3 -0.3,0.8 0,1.1 0.2,0.2 0.5,0.3 0.7,0.2 l 0.9,1 c -0.1,0.3 0,0.5 0.2,0.7 0.2,0.2 0.5,0.3 0.7,0.2 l 0.9,0.9 c -0.1,0.3 0,0.5 0.2,0.7 0.3,0.3 0.8,0.3 1.1,0 0.2,-0.2 0.3,-0.5 0.2,-0.7 l 0.9,-0.9 c 0.2,0 0.5,0 0.7,-0.2 z m -2.5,0.6 -0.9,-0.9 c 0,-0.1 0,-0.3 0,-0.4 l 0.9,-0.9 c 0.1,0 0.3,0 0.4,0 l 0.9,0.9 c 0,0.1 0,0.3 0,0.4 l -0.9,0.9 c -0.2,-0.1 -0.3,-0.1 -0.4,0 z m -2.8,-3.2 0.9,-0.9 c 0.1,0 0.3,0 0.4,0 l 0.9,1 c 0,0.1 0,0.2 0,0.4 l -0.9,1 c -0.1,0 -0.2,0 -0.4,0 l -0.9,-1 c 0,-0.3 0,-0.4 0,-0.5 z m 5,-4.7 0.9,1 c 0,0.1 0,0.2 0,0.4 l -0.9,1 c -0.1,0 -0.2,0 -0.4,0 l -0.9,-1 c 0,-0.1 0,-0.3 0,-0.4 l 0.9,-1 c 0.1,0 0.3,0 0.4,0 z m 2.8,2.8 c 0,0.1 0,0.3 0,0.4 l -0.9,0.9 c -0.1,0 -0.3,0 -0.4,0 L 87,107.2 c 0,-0.1 0,-0.3 0,-0.4 l 0.9,-0.9 c 0.1,0 0.3,0 0.4,0 l 0.9,0.9 z M 86,110 85.1,109.1 c 0,-0.1 0,-0.3 0,-0.4 l 0.9,-0.9 c 0.1,0 0.3,0 0.4,0 l 0.9,0.9 c 0,0.1 0,0.3 0,0.4 l -0.9,0.9 c -0.1,0 -0.3,0 -0.4,0 z m -1.5,-4.1 0.9,1 c 0,0.1 0,0.2 0,0.4 l -0.9,1 c -0.1,0 -0.2,0 -0.4,0 l -0.9,-1 c 0,-0.1 0,-0.3 0,-0.4 l 0.9,-0.9 c 0.2,-0.1 0.3,-0.1 0.4,-0.1 z m 4.6,-1.8 c 0.6,0.6 0.8,1.4 0.7,2.2 0,0 0,0 -0.1,0 l -0.9,-0.9 c 0.1,-0.3 0,-0.5 -0.2,-0.7 -0.2,-0.2 -0.5,-0.3 -0.7,-0.2 l -0.9,-1 c 0,0 0,0 0,-0.1 0.7,-0.1 1.5,0.1 2.1,0.7 z"
                 inkscape:connector-curvature="0"
                 style="fill:#ffffff" /><line
                 id="line81"
                 y2="101"
                 x2="79.5"
                 y1="92"
                 x1="70.5"
                 stroke-miterlimit="10"
                 style="fill:none;stroke:#ffffff;stroke-width:0.5;stroke-miterlimit:10" /><line
                 id="line83"
                 y2="65.599998"
                 x2="127.2"
                 y1="74.599998"
                 x1="118.3"
                 stroke-miterlimit="10"
                 style="fill:none;stroke:#ffffff;stroke-width:0.5;stroke-miterlimit:10" /><line
                 id="line87"
                 y2="26.6"
                 x2="153.2"
                 y1="17.5"
                 x1="144.3"
                 stroke-miterlimit="10"
                 style="fill:none;stroke:#ffffff;stroke-width:0.5;stroke-miterlimit:10" /><line
                 id="line89"
                 y2="40.900002"
                 x2="151.7"
                 y1="49.900002"
                 x1="142.8"
                 stroke-miterlimit="10"
                 style="fill:none;stroke:#ffffff;stroke-width:0.5;stroke-miterlimit:10" /><line
                 id="line91"
                 y2="90.5"
                 x2="102.5"
                 y1="99.599998"
                 x1="93.599998"
                 stroke-miterlimit="10"
                 style="fill:none;stroke:#ffffff;stroke-width:0.5;stroke-miterlimit:10" /></g></g></g><path
           id="rect97"
           d="m 108.19922,180.40039 0,61 40.40039,0 c 4.4,0 8,-3.6 8,-8 l 0,-53 -48.40039,0 z"
           style="fill:#ba3033"
           inkscape:connector-curvature="0" /><path
           id="rect99"
           d="m 10.599609,180.40039 0,53 c 0,4.4 3.6,8 8,8 l 40.59961,0 0,-61 -48.59961,0 z"
           style="fill:#f7ebe3"
           inkscape:connector-curvature="0" /><path
           id="rect101"
           d="m 108.19922,68.5 0,56.09961 48.40039,0 0,-56.09961 -48.40039,0 z"
           style="fill:#e2b5a5"
           inkscape:connector-curvature="0" /><path
           d="m 142.7,107.89999 c 3.2,-2.8 5.2,-6.8 5.2,-11.299996 0,-4.5 -2,-8.6 -5.2,-11.4 l -9.9,11.3 9.9,11.399996 z"
           id="path105"
           inkscape:connector-curvature="0"
           style="fill:#f7ebe3" /><path
           id="path107"
           d="m 156.59961,69.183594 -12.79883,14.617187 c 3.6,3.1 5.79883,7.698828 5.79883,12.798828 0,5.100001 -2.29883,9.700781 -5.79883,12.800781 l 12.79883,14.72461 0,-54.941406 z"
           style="fill:#f7ebe3"
           inkscape:connector-curvature="0" /><path
           d="m 115.8,96.599994 c 0,-5.1 2.3,-9.7 5.8,-12.8 l -13.3,-15.3 0,56.099996 13.4,-15.3 c -3.7,-3.1 -5.9,-7.6 -5.9,-12.699996 z"
           id="path109"
           inkscape:connector-curvature="0"
           style="fill:#f7ebe3" /><path
           d="m 122.8,85.199994 c -3.2,2.8 -5.2,6.8 -5.2,11.3 0,4.499996 2,8.599996 5.2,11.399996 l 9.9,-11.299996 -9.9,-11.4 z"
           id="path111"
           inkscape:connector-curvature="0"
           style="fill:#f7ebe3" /><path
           d="m 132.7,81.499994 c 3.8,0 7.3,1.4 9.9,3.7 l 1.2,-1.4 c -3,-2.6 -6.9,-4.2 -11.1,-4.2 -4.3,0 -8.2,1.6 -11.2,4.2 l 1.2,1.4 c 2.8,-2.3 6.2,-3.7 10,-3.7 z"
           id="path113"
           inkscape:connector-curvature="0"
           style="fill:#f7ebe3" /><path
           d="m 132.7,111.69999 c -3.8,0 -7.2,-1.4 -9.9,-3.7 l -1.2,1.4 c 3,2.6 6.9,4.2 11.1,4.2 4.3,0 8.2,-1.6 11.2,-4.2 l -1.2,-1.4 c -2.7,2.2 -6.2,3.7 -10,3.7 z"
           id="path115"
           inkscape:connector-curvature="0"
           style="fill:#f7ebe3" /><path
           id="rect117"
           d="m 108.19922,7.9003906 0,60.5996094 48.40039,0 0,-52.599609 c 0,-4.4 -3.6,-8.0000004 -8,-8.0000004 l -40.40039,0 z"
           style="fill:#ba3033"
           inkscape:connector-curvature="0" /><circle
           cx="132.7"
           cy="39.099995"
           r="16"
           id="circle121"
           style="fill:#f7ebe3" /><circle
           cx="132.7"
           cy="39.099995"
           r="11.7"
           id="circle123"
           style="fill:#ba3033" /><circle
           cx="132.7"
           cy="39.099995"
           r="7"
           id="circle125"
           style="fill:#f7ebe3" /><circle
           cx="132.7"
           cy="39.099995"
           r="3.3"
           id="circle127"
           style="fill:#ba3033" /><path
           id="rect129"
           d="m 59.199219,180.40039 0,61 49.000001,0 0,-61 -49.000001,0 z"
           style="fill:#f7ebe3"
           inkscape:connector-curvature="0" /><path
           id="polygon131"
           d="m 108.19922,180.80078 -24.500001,30.29883 24.339841,30.30078 0.16016,0 0,-60.59961 z"
           style="fill:#0e1226"
           inkscape:connector-curvature="0" /><path
           id="polygon133"
           d="m 59.199219,180.80078 0,60.59961 0.160156,0 24.339844,-30.20117 -24.5,-30.39844 z"
           style="fill:#0e1226"
           inkscape:connector-curvature="0" /><circle
           style="fill:none;stroke:#f5eae2;stroke-width:2;stroke-miterlimit:10"
           id="circle135"
           r="16"
           cy="210.2"
           cx="83.699997"
           stroke-miterlimit="10" /><path
           d="m 31.5,199.49999 c -1.9,-1.1 -3.7,-2.1 -5.4,-3.2 -5,2.7 -8.3,7.9 -8.3,13.9 0,6 3.4,11.2 8.3,13.9 1.7,-1.1 3.5,-2.2 5.4,-3.2 5.5,-3.1 12.2,-5.7 17.6,-7.5 0.2,-1 0.3,-2 0.3,-3.1 0,-1.1 -0.1,-2.1 -0.3,-3.1 -5.4,-2 -12.1,-4.6 -17.6,-7.7 z"
           id="path139"
           inkscape:connector-curvature="0"
           style="fill:#0e1226" /><path
           id="path141"
           d="m 10.599609,181.30469 0,52.0957 c 0,1.42611 0.381934,2.76504 1.042969,3.92773 3.645884,-5.28038 7.162675,-8.59187 12.556641,-12.1289 -5.1,-3.1 -8.5,-8.69961 -8.5,-15.09961 0,-6.4 3.4,-11.89961 8.5,-15.09961 -5.892917,-3.86421 -9.823221,-7.8413 -13.59961,-13.69531 z"
           style="fill:#0e1226"
           inkscape:connector-curvature="0" /><path
           d="m 51.4,210.19999 c 0,0.8 -0.1,1.6 -0.2,2.4 4.7,-1.5 8.1,-2.4 8.1,-2.4 l 0,0 0,0 c 0,0 -3.3,-0.9 -8.1,-2.4 0.1,0.7 0.2,1.5 0.2,2.4 z"
           id="path143"
           inkscape:connector-curvature="0"
           style="fill:#0e1226" /><path
           d="m 33.6,192.39999 c -3.4,0 -6.6,1 -9.3,2.7 0.6,0.4 1.2,0.8 1.9,1.2 2.2,-1.2 4.8,-1.9 7.5,-1.9 7.7,0 14,5.4 15.5,12.6 0.7,0.2 1.4,0.5 2.1,0.7 -1.3,-8.6 -8.7,-15.3 -17.7,-15.3 z"
           id="path145"
           inkscape:connector-curvature="0"
           style="fill:#ba3033" /><path
           d="m 33.6,225.89999 c -2.7,0 -5.3,-0.7 -7.5,-1.9 -0.6,0.4 -1.2,0.8 -1.9,1.2 2.7,1.7 5.9,2.7 9.3,2.7 9,0 16.4,-6.7 17.6,-15.3 -0.7,0.2 -1.4,0.5 -2.1,0.7 -1.4,7.2 -7.8,12.6 -15.4,12.6 z"
           id="path147"
           inkscape:connector-curvature="0"
           style="fill:#ba3033" /><rect
           x="59.200001"
           y="124.59999"
           width="49"
           height="56.099998"
           id="rect151"
           style="fill:#e2b5a5" /><polygon
           transform="translate(0,-0.1000061)"
           points="108.2,180.9 108.2,124.7 59.2,124.7 "
           id="polygon153"
           style="fill:#ba3033" /><path
           id="rect155"
           d="m 108.19922,124.59961 0,56.09961 48.40039,0 0,-56.09961 -48.40039,0 z"
           style="fill:#0e1226"
           inkscape:connector-curvature="0" /><circle
           style="fill:none;stroke:#ffffff;stroke-width:2;stroke-miterlimit:10"
           id="circle157"
           r="16"
           cy="152.7"
           cx="83.699997"
           stroke-miterlimit="10" /><circle
           style="fill:none;stroke:#ffffff;stroke-width:2;stroke-miterlimit:10"
           id="circle159"
           r="16"
           cy="152.7"
           cx="132.7"
           stroke-miterlimit="10" /><circle
           style="fill:none;stroke:#ffffff;stroke-width:2;stroke-miterlimit:10"
           id="circle161"
           r="11.1"
           cy="152.7"
           cx="132.7"
           stroke-miterlimit="10" /><line
           style="fill:none;stroke:#ffffff;stroke-width:2;stroke-miterlimit:10"
           id="line163"
           y2="152.7"
           x2="99.099998"
           y1="152.7"
           x1="143.7"
           stroke-miterlimit="10" /><path
           id="rect165"
           d="m 10.599609,68.5 0,56.09961 48.59961,0 0,-56.09961 -48.59961,0 z"
           style="fill:#e2b5a5"
           inkscape:connector-curvature="0" /><line
           style="fill:none;stroke:#ffffff;stroke-width:2;stroke-miterlimit:10"
           id="line167"
           y2="111.99999"
           x2="34.700001"
           y1="128.59999"
           x1="34.700001"
           stroke-miterlimit="10" /><path
           id="rect169"
           d="m 18.599609,7.9003906 c -4.4,0 -8,3.6000004 -8,8.0000004 l 0,52.599609 48.59961,0 0,-60.5996094 -40.59961,0 z"
           style="fill:#ba3033"
           inkscape:connector-curvature="0" /><path
           style="fill:#ba3033"
           inkscape:connector-curvature="0"
           id="path171"
           d="m 59.2,68.499994 c -11.6,0.8 -15.7,1.2 -24.5,7.5 -9.5,-6.5 -13.2,-6.8 -24.5,-7.5 l 49,0 z" /><circle
           style="fill:none;stroke:#ffffff;stroke-width:2;stroke-miterlimit:10"
           id="circle173"
           r="16"
           cy="96.599991"
           cx="34.700001"
           stroke-miterlimit="10" /><path
           d="m 22.7,49.599994 12.1,-10.5 12,10.5 c 2.5,-2.8 4,-6.5 4,-10.5 0,-4 -1.5,-7.7 -4,-10.5 l -12.1,10.5 -12,-10.5 c -2.5,2.8 -4,6.5 -4,10.5 0,4 1.5,7.7 4,10.5 z"
           id="path177"
           inkscape:connector-curvature="0"
           style="fill:#f7ebe3" /><path
           d="m 46.8,28.599994 c -2.9,-3.4 -7.2,-5.5 -12.1,-5.5 -4.8,0 -9.1,2.1 -12.1,5.5 l 12,10.5 12.2,-10.5 z"
           id="path179"
           inkscape:connector-curvature="0"
           style="fill:#e2b5a5" /><path
           d="m 46.8,49.599994 -12,-10.5 -12.1,10.5 c 2.9,3.4 7.2,5.5 12.1,5.5 4.8,0 9.1,-2.1 12,-5.5 z"
           id="path181"
           inkscape:connector-curvature="0"
           style="fill:#e2b5a5" /><line
           stroke-miterlimit="10"
           x1="42.599998"
           y1="101.39999"
           x2="34.400002"
           y2="86.999992"
           id="line185"
           style="fill:none;stroke:#ffffff;stroke-width:2;stroke-miterlimit:10" /><line
           stroke-miterlimit="10"
           x1="35.099998"
           y1="106.09999"
           x2="26.9"
           y2="91.699997"
           id="line187"
           style="fill:none;stroke:#ffffff;stroke-width:2;stroke-miterlimit:10" /><path
           style="fill:#f7ebe3"
           inkscape:connector-curvature="0"
           id="path189"
           d="m 144.1,198.79999 0,0 -11.4,-10.4 -10.2,9.3 c -3.6,2.9 -5.9,7.4 -5.9,12.4 0,8.9 7.2,16 16,16 8.9,0 16,-7.2 16,-16 0.2,-4.4 -1.6,-8.4 -4.5,-11.3 z" /><path
           id="rect191"
           d="m 59.199219,7.9003906 0,60.5996094 49.000001,0 0,-60.5996094 -49.000001,0 z"
           style="fill:#e2b5a5"
           inkscape:connector-curvature="0" /><rect
           style="fill:#0e1226"
           id="rect193"
           height="56.099998"
           width="49"
           y="68.499992"
           x="59.200001" /><circle
           style="fill:#ba3033"
           id="circle195"
           r="16"
           cy="96.599991"
           cx="83.699997" /><path
           d="m 83.7,25.099994 c 7.7,0 14,6.3 14,14 0,4.2 -1.9,8.2 -5.2,10.9 -5.3,4.6 -7.8,7 -8.9,8.4 -1.2,-1.4 -3.9,-4.1 -9.9,-9.4 -2.6,-2.6 -4.1,-6.1 -4.1,-9.9 0.1,-7.7 6.4,-14 14.1,-14 m 0,-2 c -8.9,0 -16,7.2 -16,16 0,4.4 1.8,8.4 4.7,11.3 0,0 10.2,9.1 10.4,10.1 0.1,0.9 0.9,2.2 0.9,2.2 0,0 0.9,-1.5 0.9,-2.2 0.1,-1.1 9.2,-9 9.2,-9 3.6,-2.9 5.9,-7.4 5.9,-12.4 0.1,-8.9 -7.1,-16 -16,-16 l 0,0 z"
           id="path199"
           inkscape:connector-curvature="0"
           style="fill:#ffffff" /><line
           style="fill:#d1d3d4;stroke:#ffffff;stroke-width:2;stroke-miterlimit:10"
           id="line201"
           y2="59.999992"
           x2="83.699997"
           y1="106.3"
           x1="83.699997"
           stroke-miterlimit="10" /><path
           id="rect203"
           d="m 10.599609,124.59961 0,56.09961 48.59961,0 0,-56.09961 -48.59961,0 z"
           style="fill:#ba3033"
           inkscape:connector-curvature="0" /><path
           id="path207"
           d="m 10.599609,124.69922 0,55.64453 13.59961,-15.54297 c -3.4,-3 -5.5,-7.30156 -5.5,-12.10156 0,-8.9 7.2,-16 16,-16 4,0 7.7,1.5 10.5,4 l 14,-16 -48.59961,0 z"
           style="fill:#f7ebe3"
           inkscape:connector-curvature="0" /><path
           d="m 45.3,140.59999 -21.1,24.1 c 2.8,2.5 6.5,4 10.5,4 8.9,0 16,-7.2 16,-16 0.1,-4.8 -2.1,-9.1 -5.4,-12.1 z"
           id="path209"
           inkscape:connector-curvature="0"
           style="fill:#f7ebe3" /><line
           style="fill:#d1d3d4;stroke:#ffffff;stroke-width:2;stroke-miterlimit:10"
           id="line211"
           y2="103.49999"
           x2="90.699997"
           y1="89.599991"
           x1="76.800003"
           stroke-miterlimit="10" /><line
           style="fill:#d1d3d4;stroke:#ffffff;stroke-width:2;stroke-miterlimit:10"
           id="line213"
           y2="96.599991"
           x2="93.599998"
           y1="96.599991"
           x1="73.900002"
           stroke-miterlimit="10" /><line
           style="fill:#d1d3d4;stroke:#ffffff;stroke-width:2;stroke-miterlimit:10"
           id="line215"
           y2="89.599991"
           x2="90.699997"
           y1="103.49999"
           x1="76.800003"
           stroke-miterlimit="10" /><polygon
           transform="translate(0,-0.1000061)"
           style="fill:#f7ebe3"
           id="polygon217"
           points="83.7,16.7 59.2,9.2 108.2,9.2 " /><path
           stroke-miterlimit="10"
           d="m 148.5,244.89999 -129.6,0 c -6.2,0 -11.3,-5.1 -11.3,-11.3 L 7.6,15.699994 C 7.6,9.4999939 12.7,4.3999939 18.9,4.3999939 l 129.7,0 c 6.2,0 11.3,5.1 11.3,11.3000001 l 0,217.899996 c 0,6.2 -5.1,11.3 -11.4,11.3 z"
           id="path221"
           inkscape:connector-curvature="0"
           style="fill:none;stroke:#ba3033;stroke-miterlimit:10" /></g></g></g></svg>