<?xml version="1.0" encoding="utf-8"?>
<!-- Generator: Adobe Illustrator 18.1.1, SVG Export Plug-In . SVG Version: 6.00 Build 0)  -->
<!DOCTYPE svg PUBLIC "-//W3C//DTD SVG 1.1//EN" "http://www.w3.org/Graphics/SVG/1.1/DTD/svg11.dtd">
<svg version="1.1" id="Layer_1" xmlns="http://www.w3.org/2000/svg" xmlns:xlink="http://www.w3.org/1999/xlink" x="0px" y="0px"
	 viewBox="0 0 167.2 249.4" enable-background="new 0 0 167.2 249.4" xml:space="preserve">
<g>
	<g>
		<defs>
			<rect id="SVGID_9_" x="-5.7" y="-274.3" width="178.6" height="260.8"/>
		</defs>
		<clipPath id="SVGID_2_">
			<use xlink:href="#SVGID_9_"  overflow="visible"/>
		</clipPath>
		<g clip-path="url(#SVGID_2_)">
			<line fill="none" stroke="#FFFFFF" stroke-width="0.5" stroke-miterlimit="10" x1="1.9" y1="7.1" x2="10.8" y2="-2"/>
			<path fill="#FFFFFF" d="M41.8,16.2c0.2-0.2,0.3-0.5,0.2-0.7l0.9-0.9c0.2,0.1,0.5,0,0.7-0.2c0.2-0.2,0.3-0.5,0.2-0.7l0.9-0.9
				c0.2,0.1,0.5,0,0.7-0.2c0.3-0.3,0.3-0.7,0.1-1c0.2-1.1-0.1-2.2-0.8-3s-1.9-1.1-3-0.9c-0.3-0.2-0.7-0.2-1,0.1
				c-0.2,0.2-0.3,0.5-0.2,0.7l-0.9,0.9c-0.2-0.1-0.5,0-0.7,0.2c-0.2,0.2-0.3,0.5-0.2,0.7l-0.9,0.9c-0.2-0.1-0.5,0-0.7,0.2
				c-0.2,0.2-0.3,0.5-0.2,0.7L36,13.1c-0.2-0.1-0.5,0-0.7,0.2c-0.3,0.3-0.3,0.8,0,1.1c0.2,0.2,0.5,0.3,0.7,0.2l0.9,1
				c-0.1,0.3,0,0.5,0.2,0.7c0.2,0.2,0.5,0.3,0.7,0.2l0.9,0.9c-0.1,0.3,0,0.5,0.2,0.7c0.3,0.3,0.8,0.3,1.1,0c0.2-0.2,0.3-0.5,0.2-0.7
				l0.9-0.9C41.4,16.5,41.6,16.4,41.8,16.2z M39.3,16.8l-0.9-0.9c0-0.1,0-0.3,0-0.4l0.9-0.9c0.1,0,0.3,0,0.4,0l0.9,0.9
				c0,0.1,0,0.3,0,0.4l-0.9,0.9C39.5,16.8,39.4,16.8,39.3,16.8z M36.5,13.6l0.9-0.9c0.1,0,0.3,0,0.4,0l0.9,1c0,0.1,0,0.2,0,0.4
				l-0.9,1c-0.1,0-0.2,0-0.4,0l-0.9-1C36.5,13.9,36.5,13.7,36.5,13.6z M41.5,8.9l0.9,1c0,0.1,0,0.2,0,0.4l-0.9,1c-0.1,0-0.2,0-0.4,0
				l-0.9-1c0-0.1,0-0.3,0-0.4l0.9-0.9C41.2,9,41.4,9,41.5,8.9z M44.3,11.8c0,0.1,0,0.3,0,0.4l-0.9,0.9c-0.1,0-0.3,0-0.4,0L42,12.2
				c0-0.1,0-0.3,0-0.4l0.9-0.9c0.1,0,0.3,0,0.4,0L44.3,11.8z M41.1,14.9L40.2,14c0-0.1,0-0.3,0-0.4l0.9-0.9c0.1,0,0.3,0,0.4,0
				l0.9,0.9c0,0.1,0,0.3,0,0.4l-0.9,0.9C41.4,14.9,41.2,14.9,41.1,14.9z M39.6,10.8l0.9,1c0,0.1,0,0.2,0,0.4l-0.9,1
				c-0.1,0-0.2,0-0.4,0l-0.9-1c0-0.1,0-0.3,0-0.4l0.9-0.9C39.4,10.8,39.5,10.8,39.6,10.8z M44.2,9c0.6,0.6,0.8,1.4,0.7,2.2
				c0,0,0,0-0.1,0l-0.9-0.9c0.1-0.3,0-0.5-0.2-0.7c-0.2-0.2-0.5-0.3-0.7-0.2l-0.9-1c0,0,0,0,0-0.1C42.8,8.2,43.6,8.4,44.2,9z"/>
			<line fill="none" stroke="#FFFFFF" stroke-width="0.5" stroke-miterlimit="10" x1="25.6" y1="-3.1" x2="34.6" y2="5.9"/>
			<path fill="#FFFFFF" d="M17.2,41.1c0.2-0.2,0.3-0.5,0.2-0.7l0.9-0.9c0.2,0.1,0.5,0,0.7-0.2c0.2-0.2,0.3-0.5,0.2-0.7l0.9-0.9
				c0.2,0.1,0.5,0,0.7-0.2c0.3-0.3,0.3-0.7,0.1-1c0.2-1.1-0.1-2.2-0.8-3c-0.8-0.8-1.9-1.1-3-0.9c-0.3-0.2-0.7-0.2-1,0.1
				c-0.2,0.2-0.3,0.5-0.2,0.7L15,34.2c-0.2-0.1-0.5,0-0.7,0.2c-0.2,0.2-0.3,0.5-0.2,0.7l-0.9,0.9c-0.2-0.1-0.5,0-0.7,0.2
				c-0.2,0.2-0.3,0.5-0.2,0.7L11.3,38c-0.2-0.1-0.5,0-0.7,0.2c-0.3,0.3-0.3,0.8,0,1.1c0.2,0.2,0.5,0.3,0.7,0.2l0.9,1
				c-0.1,0.3,0,0.5,0.2,0.7c0.2,0.2,0.5,0.3,0.7,0.2l0.9,0.9c-0.1,0.3,0,0.5,0.2,0.7c0.3,0.3,0.8,0.3,1.1,0c0.2-0.2,0.3-0.5,0.2-0.7
				l0.9-0.9C16.7,41.3,17,41.3,17.2,41.1z M14.6,41.7l-0.9-0.9c0-0.1,0-0.3,0-0.4l0.9-0.9c0.1,0,0.3,0,0.4,0l0.9,0.9
				c0,0.1,0,0.3,0,0.4L15,41.7C14.9,41.7,14.7,41.7,14.6,41.7z M11.8,38.5l0.9-0.9c0.1,0,0.3,0,0.4,0l0.9,1c0,0.1,0,0.2,0,0.4
				l-0.9,1c-0.1,0-0.2,0-0.4,0l-0.9-1C11.8,38.8,11.8,38.6,11.8,38.5z M16.8,33.8l0.9,1c0,0.1,0,0.2,0,0.4l-0.9,1
				c-0.1,0-0.2,0-0.4,0l-0.9-1c0-0.1,0-0.3,0-0.4l0.9-0.9C16.6,33.9,16.7,33.9,16.8,33.8z M19.6,36.6c0,0.1,0,0.3,0,0.4L18.7,38
				c-0.1,0-0.3,0-0.4,0L17.4,37c0-0.1,0-0.3,0-0.4l0.9-0.9c0.1,0,0.3,0,0.4,0L19.6,36.6z M16.4,39.8l-0.9-0.9c0-0.1,0-0.3,0-0.4
				l0.9-0.9c0.1,0,0.3,0,0.4,0l0.9,0.9c0,0.1,0,0.3,0,0.4l-0.9,0.9C16.7,39.8,16.6,39.8,16.4,39.8z M15,35.7l0.9,1
				c0,0.1,0,0.2,0,0.4L15,38c-0.1,0-0.2,0-0.4,0l-0.9-1c0-0.1,0-0.3,0-0.4l0.9-0.9C14.7,35.7,14.9,35.7,15,35.7z M19.5,33.9
				c0.6,0.6,0.8,1.4,0.7,2.2c0,0,0,0-0.1,0l-0.9-0.9c0.1-0.3,0-0.5-0.2-0.7s-0.5-0.3-0.7-0.2l-0.9-1c0,0,0,0,0-0.1
				C18.1,33.1,18.9,33.3,19.5,33.9z"/>
			<line fill="none" stroke="#FFFFFF" stroke-width="0.5" stroke-miterlimit="10" x1="0.9" y1="21.8" x2="9.9" y2="30.8"/>
			<line fill="none" stroke="#FFFFFF" stroke-width="0.5" stroke-miterlimit="10" x1="48.7" y1="4.5" x2="57.7" y2="-4.6"/>
			<line fill="none" stroke="#FFFFFF" stroke-width="0.5" stroke-miterlimit="10" x1="24" y1="29.4" x2="33" y2="20.3"/>
			<path fill="#FFFFFF" d="M66.1,40.7c0.2-0.2,0.3-0.5,0.2-0.7l0.9-0.9c0.2,0.1,0.5,0,0.7-0.2c0.2-0.2,0.3-0.5,0.2-0.7l0.9-0.9
				c0.2,0.1,0.5,0,0.7-0.2c0.3-0.3,0.3-0.7,0.1-1c0.2-1.1-0.1-2.2-0.8-3c-0.8-0.8-1.9-1.1-3-0.9c-0.3-0.2-0.7-0.2-1,0.1
				c-0.2,0.2-0.3,0.5-0.2,0.7L64,33.9c-0.2-0.1-0.5,0-0.7,0.2C63,34.3,63,34.5,63,34.8l-0.9,0.9c-0.2-0.1-0.5,0-0.7,0.2
				c-0.2,0.2-0.3,0.5-0.2,0.7l-0.9,0.9c-0.2-0.1-0.5,0-0.7,0.2c-0.3,0.3-0.3,0.8,0,1.1c0.2,0.2,0.5,0.3,0.7,0.2l0.9,1
				c-0.1,0.3,0,0.5,0.2,0.7c0.2,0.2,0.5,0.3,0.7,0.2l0.9,0.9c-0.1,0.3,0,0.5,0.2,0.7c0.3,0.3,0.8,0.3,1.1,0c0.2-0.2,0.3-0.5,0.2-0.7
				l0.9-0.9C65.7,41,65.9,40.9,66.1,40.7z M63.6,41.3l-0.9-0.9c0-0.1,0-0.3,0-0.4l0.9-0.9c0.1,0,0.3,0,0.4,0l0.9,0.9
				c0,0.1,0,0.3,0,0.4L64,41.3C63.8,41.3,63.7,41.3,63.6,41.3z M60.8,38.1l0.9-0.9c0.1,0,0.3,0,0.4,0l0.9,1c0,0.1,0,0.2,0,0.4
				l-0.9,1c-0.1,0-0.2,0-0.4,0l-0.9-1C60.8,38.4,60.8,38.3,60.8,38.1z M65.8,33.5l0.9,1c0,0.1,0,0.2,0,0.4l-0.9,1
				c-0.1,0-0.2,0-0.4,0l-0.9-1c0-0.1,0-0.3,0-0.4l0.9-0.9C65.5,33.5,65.7,33.5,65.8,33.5z M68.6,36.3c0,0.1,0,0.3,0,0.4l-0.9,0.9
				c-0.1,0-0.3,0-0.4,0l-0.9-0.9c0-0.1,0-0.3,0-0.4l0.9-0.9c0.1,0,0.3,0,0.4,0L68.6,36.3z M65.4,39.5l-0.9-0.9c0-0.1,0-0.3,0-0.4
				l0.9-0.9c0.1,0,0.3,0,0.4,0l0.9,0.9c0,0.1,0,0.3,0,0.4l-0.9,0.9C65.7,39.4,65.5,39.4,65.4,39.5z M64,35.3l0.9,1
				c0,0.1,0,0.2,0,0.4l-0.9,1c-0.1,0-0.2,0-0.4,0l-0.9-1c0-0.1,0-0.3,0-0.4l0.9-0.9C63.7,35.4,63.8,35.4,64,35.3z M68.5,33.5
				c0.6,0.6,0.8,1.4,0.7,2.2c0,0,0,0-0.1,0l-0.9-0.9c0.1-0.3,0-0.5-0.2-0.7s-0.5-0.3-0.7-0.2l-0.9-1c0,0,0,0,0-0.1
				C67.1,32.7,67.9,33,68.5,33.5z"/>
			<path fill="#FFFFFF" d="M41.5,65.6c0.2-0.2,0.3-0.5,0.2-0.7l0.9-0.9c0.2,0.1,0.5,0,0.7-0.2c0.2-0.2,0.3-0.5,0.2-0.7l0.9-0.9
				c0.2,0.1,0.5,0,0.7-0.2c0.3-0.3,0.3-0.7,0.1-1c0.2-1.1-0.1-2.2-0.8-3c-0.8-0.8-1.9-1.1-3-0.9c-0.3-0.2-0.7-0.2-1,0.1
				c-0.2,0.2-0.3,0.5-0.2,0.7l-0.9,0.9c-0.2-0.1-0.5,0-0.7,0.2c-0.2,0.2-0.3,0.5-0.2,0.7l-0.9,0.9c-0.2-0.1-0.5,0-0.7,0.2
				s-0.3,0.5-0.2,0.7l-0.9,0.9c-0.2-0.1-0.5,0-0.7,0.2c-0.3,0.3-0.3,0.8,0,1.1c0.2,0.2,0.5,0.3,0.7,0.2l0.9,1
				c-0.1,0.3,0,0.5,0.2,0.7c0.2,0.2,0.5,0.3,0.7,0.2l0.9,0.9c-0.1,0.3,0,0.5,0.2,0.7c0.3,0.3,0.8,0.3,1.1,0c0.2-0.2,0.3-0.5,0.2-0.7
				l0.9-0.9C41,65.9,41.3,65.8,41.5,65.6z M38.9,66.2L38,65.3c0-0.1,0-0.3,0-0.4l0.9-0.9c0.1,0,0.3,0,0.4,0l0.9,0.9
				c0,0.1,0,0.3,0,0.4l-0.9,0.9C39.2,66.2,39,66.2,38.9,66.2z M36.1,63l0.9-0.9c0.1,0,0.3,0,0.4,0l0.9,1c0,0.1,0,0.2,0,0.4l-0.9,1
				c-0.1,0-0.2,0-0.4,0l-0.9-1C36.2,63.3,36.2,63.1,36.1,63z M41.1,58.4l0.9,1c0,0.1,0,0.2,0,0.4l-0.9,1c-0.1,0-0.2,0-0.4,0l-0.9-1
				c0-0.1,0-0.3,0-0.4l0.9-0.9C40.9,58.4,41,58.4,41.1,58.4z M43.9,61.2c0,0.1,0,0.3,0,0.4L43,62.5c-0.1,0-0.3,0-0.4,0l-0.9-0.9
				c0-0.1,0-0.3,0-0.4l0.9-0.9c0.1,0,0.3,0,0.4,0L43.9,61.2z M40.7,64.4l-0.9-0.9c0-0.1,0-0.3,0-0.4l0.9-0.9c0.1,0,0.3,0,0.4,0
				l0.9,0.9c0,0.1,0,0.3,0,0.4l-0.9,0.9C41,64.3,40.9,64.3,40.7,64.4z M39.3,60.2l0.9,1c0,0.1,0,0.2,0,0.4l-0.9,1
				c-0.1,0-0.2,0-0.4,0l-0.9-1c0-0.1,0-0.3,0-0.4l0.9-0.9C39,60.3,39.2,60.3,39.3,60.2z M43.8,58.4c0.6,0.6,0.8,1.4,0.7,2.2
				c0,0,0,0-0.1,0l-0.9-0.9c0.1-0.3,0-0.5-0.2-0.7c-0.2-0.2-0.5-0.3-0.7-0.2l-0.9-1c0,0,0,0,0-0.1C42.4,57.6,43.3,57.8,43.8,58.4z"
				/>
			<path fill="#FFFFFF" d="M90.7,15.9c0.2-0.2,0.3-0.5,0.2-0.7l0.9-0.9c0.2,0.1,0.5,0,0.7-0.2c0.2-0.2,0.3-0.5,0.2-0.7l0.9-0.9
				c0.2,0.1,0.5,0,0.7-0.2c0.3-0.3,0.3-0.7,0.1-1c0.2-1.1-0.1-2.2-0.8-3c-0.8-0.8-1.9-1.1-3-0.9c-0.3-0.2-0.7-0.2-1,0.1
				c-0.2,0.2-0.3,0.5-0.2,0.7l-0.9,0.9c-0.2-0.1-0.5,0-0.7,0.2c-0.2,0.2-0.3,0.5-0.2,0.7l-0.9,0.9c-0.2-0.1-0.5,0-0.7,0.2
				c-0.2,0.2-0.3,0.5-0.2,0.7l-0.9,0.9c-0.2-0.1-0.5,0-0.7,0.2c-0.3,0.3-0.3,0.8,0,1.1c0.2,0.2,0.5,0.3,0.7,0.2l0.9,1
				c-0.1,0.3,0,0.5,0.2,0.7c0.2,0.2,0.5,0.3,0.7,0.2l0.9,0.9c-0.1,0.3,0,0.5,0.2,0.7c0.3,0.3,0.8,0.3,1.1,0c0.2-0.2,0.3-0.5,0.2-0.7
				l0.9-0.9C90.3,16.2,90.5,16.1,90.7,15.9z M88.2,16.5l-0.9-0.9c0-0.1,0-0.3,0-0.4l0.9-0.9c0.1,0,0.3,0,0.4,0l0.9,0.9
				c0,0.1,0,0.3,0,0.4l-0.9,0.9C88.4,16.5,88.3,16.5,88.2,16.5z M85.4,13.3l0.9-0.9c0.1,0,0.3,0,0.4,0l0.9,1c0,0.1,0,0.2,0,0.4
				l-0.9,1c-0.1,0-0.2,0-0.4,0l-0.9-1C85.4,13.6,85.4,13.4,85.4,13.3z M90.4,8.7l0.9,1c0,0.1,0,0.2,0,0.4l-0.9,1c-0.1,0-0.2,0-0.4,0
				l-0.9-1c0-0.1,0-0.3,0-0.4L90,8.7C90.1,8.7,90.3,8.7,90.4,8.7z M93.2,11.5c0,0.1,0,0.3,0,0.4l-0.9,0.9c-0.1,0-0.3,0-0.4,0
				l-0.9-0.9c0-0.1,0-0.3,0-0.4l0.9-0.9c0.1,0,0.3,0,0.4,0L93.2,11.5z M90,14.6l-0.9-0.9c0-0.1,0-0.3,0-0.4l0.9-0.9
				c0.1,0,0.3,0,0.4,0l0.9,0.9c0,0.1,0,0.3,0,0.4l-0.9,0.9C90.3,14.6,90.1,14.6,90,14.6z M88.6,10.5l0.9,1c0,0.1,0,0.2,0,0.4l-0.9,1
				c-0.1,0-0.2,0-0.4,0l-0.9-1c0-0.1,0-0.3,0-0.4l0.9-0.9C88.3,10.5,88.4,10.5,88.6,10.5z M93.1,8.7c0.6,0.6,0.8,1.4,0.7,2.2
				c0,0,0,0-0.1,0L92.8,10c0.1-0.3,0-0.5-0.2-0.7c-0.2-0.2-0.5-0.3-0.7-0.2l-0.9-1c0,0,0,0,0-0.1C91.7,7.9,92.5,8.1,93.1,8.7z"/>
			<path fill="#FFFFFF" d="M89.3,64c0.2-0.2,0.3-0.5,0.2-0.7l0.9-0.9c0.2,0.1,0.5,0,0.7-0.2c0.2-0.2,0.3-0.5,0.2-0.7l0.9-0.9
				c0.2,0.1,0.5,0,0.7-0.2c0.3-0.3,0.3-0.7,0.1-1c0.2-1.1-0.1-2.2-0.8-3c-0.8-0.8-1.9-1.1-3-0.9c-0.3-0.2-0.7-0.2-1,0.1
				C88,55.7,87.9,56,88,56.3l-0.9,0.9c-0.2-0.1-0.5,0-0.7,0.2s-0.3,0.5-0.2,0.7l-0.9,0.9c-0.2-0.1-0.5,0-0.7,0.2
				c-0.2,0.2-0.3,0.5-0.2,0.7l-0.9,0.9c-0.2-0.1-0.5,0-0.7,0.2c-0.3,0.3-0.3,0.8,0,1.1c0.2,0.2,0.5,0.3,0.7,0.2l0.9,1
				c-0.1,0.3,0,0.5,0.2,0.7c0.2,0.2,0.5,0.3,0.7,0.2l0.9,0.9c-0.1,0.3,0,0.5,0.2,0.7c0.3,0.3,0.8,0.3,1.1,0c0.2-0.2,0.3-0.5,0.2-0.7
				l0.9-0.9C88.8,64.3,89.1,64.2,89.3,64z M86.7,64.6l-0.9-0.9c0-0.1,0-0.3,0-0.4l0.9-0.9c0.1,0,0.3,0,0.4,0l0.9,0.9
				c0,0.1,0,0.3,0,0.4l-0.9,0.9C86.9,64.6,86.8,64.6,86.7,64.6z M83.9,61.5l0.9-0.9c0.1,0,0.3,0,0.4,0l0.9,1c0,0.1,0,0.2,0,0.4
				l-0.9,1c-0.1,0-0.2,0-0.4,0l-0.9-1C83.9,61.7,83.9,61.6,83.9,61.5z M88.9,56.8l0.9,1c0,0.1,0,0.2,0,0.4l-0.9,1
				c-0.1,0-0.2,0-0.4,0l-0.9-1c0-0.1,0-0.3,0-0.4l0.9-0.9C88.7,56.8,88.8,56.8,88.9,56.8z M91.7,59.6c0,0.1,0,0.3,0,0.4l-0.9,0.9
				c-0.1,0-0.3,0-0.4,0L89.5,60c0-0.1,0-0.3,0-0.4l0.9-0.9c0.1,0,0.3,0,0.4,0L91.7,59.6z M88.5,62.8l-0.9-0.9c0-0.1,0-0.3,0-0.4
				l0.9-0.9c0.1,0,0.3,0,0.4,0l0.9,0.9c0,0.1,0,0.3,0,0.4l-0.9,0.9C88.8,62.8,88.7,62.8,88.5,62.8z M87.1,58.7l0.9,1
				c0,0.1,0,0.2,0,0.4l-0.9,1c-0.1,0-0.2,0-0.4,0l-0.9-1c0-0.1,0-0.3,0-0.4l0.9-0.9C86.8,58.7,86.9,58.7,87.1,58.7z M91.6,56.9
				c0.6,0.6,0.8,1.4,0.7,2.2c0,0,0,0-0.1,0l-0.9-0.9c0.1-0.3,0-0.5-0.2-0.7c-0.2-0.2-0.5-0.3-0.7-0.2l-0.9-1c0,0,0,0,0-0.1
				C90.2,56,91,56.3,91.6,56.9z"/>
			<line fill="none" stroke="#FFFFFF" stroke-width="0.5" stroke-miterlimit="10" x1="73" y1="29" x2="82" y2="20"/>
			<line fill="none" stroke="#FFFFFF" stroke-width="0.5" stroke-miterlimit="10" x1="48.3" y1="53.9" x2="57.3" y2="44.9"/>
			<line fill="none" stroke="#FFFFFF" stroke-width="0.5" stroke-miterlimit="10" x1="73" y1="44.8" x2="82" y2="53.8"/>
			<line fill="none" stroke="#FFFFFF" stroke-width="0.5" stroke-miterlimit="10" x1="48.3" y1="19.8" x2="57.3" y2="28.9"/>
			<path fill="#FFFFFF" d="M113.9,39.2c0.2-0.2,0.3-0.5,0.2-0.7l0.9-0.9c0.2,0.1,0.5,0,0.7-0.2c0.2-0.2,0.3-0.5,0.2-0.7l0.9-0.9
				c0.2,0.1,0.5,0,0.7-0.2c0.3-0.3,0.3-0.7,0.1-1c0.2-1.1-0.1-2.2-0.8-3c-0.8-0.8-1.9-1.1-3-0.9c-0.3-0.2-0.7-0.2-1,0.1
				c-0.2,0.2-0.3,0.5-0.2,0.7l-0.9,0.9c-0.2-0.1-0.5,0-0.7,0.2c-0.2,0.2-0.3,0.5-0.2,0.7l-0.9,0.9c-0.2-0.1-0.5,0-0.7,0.2
				c-0.2,0.2-0.3,0.5-0.2,0.7l-0.9,0.9c-0.2-0.1-0.5,0-0.7,0.2c-0.3,0.3-0.3,0.8,0,1.1c0.2,0.2,0.5,0.3,0.7,0.2l0.9,1
				c-0.1,0.3,0,0.5,0.2,0.7s0.5,0.3,0.7,0.2l0.9,0.9c-0.1,0.3,0,0.5,0.2,0.7c0.3,0.3,0.8,0.3,1.1,0c0.2-0.2,0.3-0.5,0.2-0.7l0.9-0.9
				C113.4,39.5,113.7,39.4,113.9,39.2z M111.3,39.8l-0.9-0.9c0-0.1,0-0.3,0-0.4l0.9-0.9c0.1,0,0.3,0,0.4,0l0.9,0.9
				c0,0.1,0,0.3,0,0.4l-0.9,0.9C111.6,39.8,111.4,39.8,111.3,39.8z M108.5,36.6l0.9-0.9c0.1,0,0.3,0,0.4,0l0.9,1c0,0.1,0,0.2,0,0.4
				l-0.9,1c-0.1,0-0.2,0-0.4,0l-0.9-1C108.5,36.9,108.5,36.8,108.5,36.6z M113.5,32l0.9,1c0,0.1,0,0.2,0,0.4l-0.9,1
				c-0.1,0-0.2,0-0.4,0l-0.9-1c0-0.1,0-0.3,0-0.4l0.9-0.9C113.3,32,113.4,32,113.5,32z M116.3,34.8c0,0.1,0,0.3,0,0.4l-0.9,0.9
				c-0.1,0-0.3,0-0.4,0l-0.9-0.9c0-0.1,0-0.3,0-0.4l0.9-0.9c0.1,0,0.3,0,0.4,0L116.3,34.8z M113.1,38l-0.9-0.9c0-0.1,0-0.3,0-0.4
				l0.9-0.9c0.1,0,0.3,0,0.4,0l0.9,0.9c0,0.1,0,0.3,0,0.4l-0.9,0.9C113.4,37.9,113.3,37.9,113.1,38z M111.7,33.8l0.9,1
				c0,0.1,0,0.2,0,0.4l-0.9,1c-0.1,0-0.2,0-0.4,0l-0.9-1c0-0.1,0-0.3,0-0.4l0.9-0.9C111.4,33.9,111.6,33.9,111.7,33.8z M116.2,32
				c0.6,0.6,0.8,1.4,0.7,2.2c0,0,0,0-0.1,0l-0.9-0.9c0.1-0.3,0-0.5-0.2-0.7c-0.2-0.2-0.5-0.3-0.7-0.2l-0.9-1c0,0,0,0,0-0.1
				C114.8,31.2,115.6,31.5,116.2,32z"/>
			<line fill="none" stroke="#FFFFFF" stroke-width="0.5" stroke-miterlimit="10" x1="97.6" y1="19.9" x2="106.6" y2="29"/>
			<line fill="none" stroke="#FFFFFF" stroke-width="0.5" stroke-miterlimit="10" x1="72.9" y1="-5" x2="81.9" y2="4.1"/>
			<path fill="#FFFFFF" d="M64.6,88.9c0.2-0.2,0.3-0.5,0.2-0.7l0.9-0.9c0.2,0.1,0.5,0,0.7-0.2c0.2-0.2,0.3-0.5,0.2-0.7l0.9-0.9
				c0.2,0.1,0.5,0,0.7-0.2c0.3-0.3,0.3-0.7,0.1-1c0.2-1.1-0.1-2.2-0.8-3c-0.8-0.8-1.9-1.1-3-0.9c-0.3-0.2-0.7-0.2-1,0.1
				c-0.2,0.2-0.3,0.5-0.2,0.7l-0.9,0.9c-0.2-0.1-0.5,0-0.7,0.2c-0.2,0.2-0.3,0.5-0.2,0.7L60.6,84c-0.2-0.1-0.5,0-0.7,0.2
				c-0.2,0.2-0.3,0.5-0.2,0.7l-0.9,0.9c-0.2-0.1-0.5,0-0.7,0.2c-0.3,0.3-0.3,0.8,0,1.1c0.2,0.2,0.5,0.3,0.7,0.2l0.9,1
				c-0.1,0.3,0,0.5,0.2,0.7c0.2,0.2,0.5,0.3,0.7,0.2l0.9,0.9c-0.1,0.3,0,0.5,0.2,0.7c0.3,0.3,0.8,0.3,1.1,0c0.2-0.2,0.3-0.5,0.2-0.7
				l0.9-0.9C64.1,89.2,64.4,89.1,64.6,88.9z M62,89.5l-0.9-0.9c0-0.1,0-0.3,0-0.4l0.9-0.9c0.1,0,0.3,0,0.4,0l0.9,0.9
				c0,0.1,0,0.3,0,0.4l-0.9,0.9C62.3,89.5,62.1,89.5,62,89.5z M59.2,86.3l0.9-0.9c0.1,0,0.3,0,0.4,0l0.9,1c0,0.1,0,0.2,0,0.4l-0.9,1
				c-0.1,0-0.2,0-0.4,0l-0.9-1C59.3,86.6,59.3,86.5,59.2,86.3z M64.2,81.7l0.9,1c0,0.1,0,0.2,0,0.4l-0.9,1c-0.1,0-0.2,0-0.4,0
				l-0.9-1c0-0.1,0-0.3,0-0.4l0.9-0.9C64,81.7,64.1,81.7,64.2,81.7z M67,84.5c0,0.1,0,0.3,0,0.4l-0.9,0.9c-0.1,0-0.3,0-0.4,0
				l-0.9-0.9c0-0.1,0-0.3,0-0.4l0.9-0.9c0.1,0,0.3,0,0.4,0L67,84.5z M63.9,87.7l-0.9-0.9c0-0.1,0-0.3,0-0.4l0.9-0.9
				c0.1,0,0.3,0,0.4,0l0.9,0.9c0,0.1,0,0.3,0,0.4l-0.9,0.9C64.1,87.6,64,87.6,63.9,87.7z M62.4,83.5l0.9,1c0,0.1,0,0.2,0,0.4l-0.9,1
				c-0.1,0-0.2,0-0.4,0l-0.9-1c0-0.1,0-0.3,0-0.4l0.9-0.9C62.1,83.6,62.3,83.6,62.4,83.5z M67,81.8c0.6,0.6,0.8,1.4,0.7,2.2
				c0,0,0,0-0.1,0L66.6,83c0.1-0.3,0-0.5-0.2-0.7c-0.2-0.2-0.5-0.3-0.7-0.2l-0.9-1c0,0,0,0,0-0.1C65.6,80.9,66.4,81.2,67,81.8z"/>
			<line fill="none" stroke="#FFFFFF" stroke-width="0.5" stroke-miterlimit="10" x1="48.4" y1="69.6" x2="57.3" y2="78.7"/>
			<line fill="none" stroke="#FFFFFF" stroke-width="0.5" stroke-miterlimit="10" x1="23.7" y1="44.7" x2="32.6" y2="53.8"/>
			<line fill="none" stroke="#FFFFFF" stroke-width="0.5" stroke-miterlimit="10" x1="96.1" y1="52.3" x2="105.1" y2="43.3"/>
			<line fill="none" stroke="#FFFFFF" stroke-width="0.5" stroke-miterlimit="10" x1="97.5" y1="4.3" x2="106.5" y2="-4.8"/>
			<path fill="#FFFFFF" d="M138.4,14.5c0.2-0.2,0.3-0.5,0.2-0.7l0.9-0.9c0.2,0.1,0.5,0,0.7-0.2c0.2-0.2,0.3-0.5,0.2-0.7l0.9-0.9
				c0.2,0.1,0.5,0,0.7-0.2c0.3-0.3,0.3-0.7,0.1-1c0.2-1.1-0.1-2.2-0.8-3c-0.8-0.8-1.9-1.1-3-0.9c-0.3-0.2-0.7-0.2-1,0.1
				c-0.2,0.2-0.3,0.5-0.2,0.7l-0.9,0.9c-0.2-0.1-0.5,0-0.7,0.2c-0.2,0.2-0.3,0.5-0.2,0.7l-0.9,0.9c-0.2-0.1-0.5,0-0.7,0.2
				c-0.2,0.2-0.3,0.5-0.2,0.7l-0.9,0.9c-0.2-0.1-0.5,0-0.7,0.2c-0.3,0.3-0.3,0.8,0,1.1c0.2,0.2,0.5,0.3,0.7,0.2l0.9,1
				c-0.1,0.3,0,0.5,0.2,0.7s0.5,0.3,0.7,0.2l0.9,0.9c-0.1,0.3,0,0.5,0.2,0.7c0.3,0.3,0.8,0.3,1.1,0c0.2-0.2,0.3-0.5,0.2-0.7l0.9-0.9
				C137.9,14.8,138.2,14.7,138.4,14.5z M135.8,15.1l-0.9-0.9c0-0.1,0-0.3,0-0.4l0.9-0.9c0.1,0,0.3,0,0.4,0l0.9,0.9
				c0,0.1,0,0.3,0,0.4l-0.9,0.9C136.1,15.1,135.9,15.1,135.8,15.1z M133,11.9L134,11c0.1,0,0.3,0,0.4,0l0.9,1c0,0.1,0,0.2,0,0.4
				l-0.9,1c-0.1,0-0.2,0-0.4,0l-0.9-1C133.1,12.2,133.1,12,133,11.9z M138,7.3l0.9,1c0,0.1,0,0.2,0,0.4l-0.9,1c-0.1,0-0.2,0-0.4,0
				l-0.9-1c0-0.1,0-0.3,0-0.4l0.9-0.9C137.8,7.3,137.9,7.3,138,7.3z M140.8,10.1c0,0.1,0,0.3,0,0.4l-0.9,0.9c-0.1,0-0.3,0-0.4,0
				l-0.9-0.9c0-0.1,0-0.3,0-0.4l0.9-0.9c0.1,0,0.3,0,0.4,0L140.8,10.1z M137.6,13.2l-0.9-0.9c0-0.1,0-0.3,0-0.4l0.9-0.9
				c0.1,0,0.3,0,0.4,0l0.9,0.9c0,0.1,0,0.3,0,0.4l-0.9,0.9C137.9,13.2,137.8,13.2,137.6,13.2z M136.2,9.1l0.9,1c0,0.1,0,0.2,0,0.4
				l-0.9,1c-0.1,0-0.2,0-0.4,0l-0.9-1c0-0.1,0-0.3,0-0.4l0.9-0.9C135.9,9.1,136.1,9.1,136.2,9.1z M140.7,7.3
				c0.6,0.6,0.8,1.4,0.7,2.2c0,0,0,0-0.1,0l-0.9-0.9c0.1-0.3,0-0.5-0.2-0.7c-0.2-0.2-0.5-0.3-0.7-0.2l-0.9-1c0,0,0,0,0-0.1
				C139.3,6.5,140.2,6.7,140.7,7.3z"/>
			<line fill="none" stroke="#FFFFFF" stroke-width="0.5" stroke-miterlimit="10" x1="122.1" y1="-4.8" x2="131.1" y2="4.3"/>
			<line fill="none" stroke="#FFFFFF" stroke-width="0.5" stroke-miterlimit="10" x1="120.6" y1="27.6" x2="129.6" y2="18.6"/>
			<line fill="none" stroke="#FFFFFF" stroke-width="0.5" stroke-miterlimit="10" x1="145.9" y1="2.1" x2="154.9" y2="-7"/>
			<line fill="none" stroke="#FFFFFF" stroke-width="0.5" stroke-miterlimit="10" x1="71.4" y1="77.2" x2="80.4" y2="68.2"/>
			<path fill="#FFFFFF" d="M111.4,86.4c0.2-0.2,0.3-0.5,0.2-0.7l0.9-0.9c0.2,0.1,0.5,0,0.7-0.2c0.2-0.2,0.3-0.5,0.2-0.7l0.9-0.9
				c0.2,0.1,0.5,0,0.7-0.2c0.3-0.3,0.3-0.7,0.1-1c0.2-1.1-0.1-2.2-0.8-3c-0.8-0.8-1.9-1.1-3-0.9c-0.3-0.2-0.7-0.2-1,0.1
				c-0.2,0.2-0.3,0.5-0.2,0.7l-0.9,0.9c-0.2-0.1-0.5,0-0.7,0.2c-0.2,0.2-0.3,0.5-0.2,0.7l-0.9,0.9c-0.2-0.1-0.5,0-0.7,0.2
				c-0.2,0.2-0.3,0.5-0.2,0.7l-0.9,0.9c-0.2-0.1-0.5,0-0.7,0.2c-0.3,0.3-0.3,0.8,0,1.1c0.2,0.2,0.5,0.3,0.7,0.2l0.9,1
				c-0.1,0.3,0,0.5,0.2,0.7c0.2,0.2,0.5,0.3,0.7,0.2l0.9,0.9c-0.1,0.3,0,0.5,0.2,0.7c0.3,0.3,0.8,0.3,1.1,0c0.2-0.2,0.3-0.5,0.2-0.7
				l0.9-0.9C110.9,86.6,111.2,86.6,111.4,86.4z M108.8,87l-0.9-0.9c0-0.1,0-0.3,0-0.4l0.9-0.9c0.1,0,0.3,0,0.4,0l0.9,0.9
				c0,0.1,0,0.3,0,0.4l-0.9,0.9C109.1,86.9,108.9,86.9,108.8,87z M106,83.8l0.9-0.9c0.1,0,0.3,0,0.4,0l0.9,1c0,0.1,0,0.2,0,0.4
				l-0.9,1c-0.1,0-0.2,0-0.4,0l-0.9-1C106.1,84,106.1,83.9,106,83.8z M111.1,79.1l0.9,1c0,0.1,0,0.2,0,0.4l-0.9,1
				c-0.1,0-0.2,0-0.4,0l-0.9-1c0-0.1,0-0.3,0-0.4l0.9-0.9C110.8,79.2,110.9,79.2,111.1,79.1z M113.8,81.9c0,0.1,0,0.3,0,0.4
				l-0.9,0.9c-0.1,0-0.3,0-0.4,0l-0.9-0.9c0-0.1,0-0.3,0-0.4l0.9-0.9c0.1,0,0.3,0,0.4,0L113.8,81.9z M110.7,85.1l-0.9-0.9
				c0-0.1,0-0.3,0-0.4l0.9-0.9c0.1,0,0.3,0,0.4,0l0.9,0.9c0,0.1,0,0.3,0,0.4l-0.9,0.9C110.9,85.1,110.8,85.1,110.7,85.1z M109.2,81
				l0.9,1c0,0.1,0,0.2,0,0.4l-0.9,1c-0.1,0-0.2,0-0.4,0l-0.9-1c0-0.1,0-0.3,0-0.4l0.9-0.9C108.9,81,109.1,81,109.2,81z M113.8,79.2
				c0.6,0.6,0.8,1.4,0.7,2.2c0,0,0,0-0.1,0l-0.9-0.9c0.1-0.3,0-0.5-0.2-0.7c-0.2-0.2-0.5-0.3-0.7-0.2l-0.9-1c0,0,0,0,0-0.1
				C112.4,78.4,113.2,78.6,113.8,79.2z"/>
			<line fill="none" stroke="#FFFFFF" stroke-width="0.5" stroke-miterlimit="10" x1="95.2" y1="67.1" x2="104.1" y2="76.1"/>
			<path fill="#FFFFFF" d="M136,61.6c0.2-0.2,0.3-0.5,0.2-0.7l0.9-0.9c0.2,0.1,0.5,0,0.7-0.2c0.2-0.2,0.3-0.5,0.2-0.7L139,58
				c0.2,0.1,0.5,0,0.7-0.2c0.3-0.3,0.3-0.7,0.1-1c0.2-1.1-0.1-2.2-0.8-3c-0.8-0.8-1.9-1.1-3-0.9c-0.3-0.2-0.7-0.2-1,0.1
				c-0.2,0.2-0.3,0.5-0.2,0.7l-0.9,0.9c-0.2-0.1-0.5,0-0.7,0.2c-0.2,0.2-0.3,0.5-0.2,0.7l-0.9,0.9c-0.2-0.1-0.5,0-0.7,0.2
				s-0.3,0.5-0.2,0.7l-0.9,0.9c-0.2-0.1-0.5,0-0.7,0.2c-0.3,0.3-0.3,0.8,0,1.1c0.2,0.2,0.5,0.3,0.7,0.2l0.9,1
				c-0.1,0.3,0,0.5,0.2,0.7s0.5,0.3,0.7,0.2l0.9,0.9c-0.1,0.3,0,0.5,0.2,0.7c0.3,0.3,0.8,0.3,1.1,0c0.2-0.2,0.3-0.5,0.2-0.7l0.9-0.9
				C135.5,61.8,135.8,61.8,136,61.6z M133.4,62.2l-0.9-0.9c0-0.1,0-0.3,0-0.4l0.9-0.9c0.1,0,0.3,0,0.4,0l0.9,0.9c0,0.1,0,0.3,0,0.4
				l-0.9,0.9C133.7,62.1,133.6,62.1,133.4,62.2z M130.6,59l0.9-0.9c0.1,0,0.3,0,0.4,0l0.9,1c0,0.1,0,0.2,0,0.4l-0.9,1
				c-0.1,0-0.2,0-0.4,0l-0.9-1C130.7,59.2,130.7,59.1,130.6,59z M135.7,54.3l0.9,1c0,0.1,0,0.2,0,0.4l-0.9,1c-0.1,0-0.2,0-0.4,0
				l-0.9-1c0-0.1,0-0.3,0-0.4l0.9-0.9C135.4,54.3,135.5,54.3,135.7,54.3z M138.4,57.1c0,0.1,0,0.3,0,0.4l-0.9,0.9
				c-0.1,0-0.3,0-0.4,0l-0.9-0.9c0-0.1,0-0.3,0-0.4l0.9-0.9c0.1,0,0.3,0,0.4,0L138.4,57.1z M135.3,60.3l-0.9-0.9c0-0.1,0-0.3,0-0.4
				l0.9-0.9c0.1,0,0.3,0,0.4,0l0.9,0.9c0,0.1,0,0.3,0,0.4l-0.9,0.9C135.5,60.3,135.4,60.3,135.3,60.3z M133.8,56.2l0.9,1
				c0,0.1,0,0.2,0,0.4l-0.9,1c-0.1,0-0.2,0-0.4,0l-0.9-1c0-0.1,0-0.3,0-0.4l0.9-0.9C133.6,56.2,133.7,56.2,133.8,56.2z M138.4,54.4
				c0.6,0.6,0.8,1.4,0.7,2.2c0,0,0,0-0.1,0l-0.9-0.9c0.1-0.3,0-0.5-0.2-0.7s-0.5-0.3-0.7-0.2l-0.9-1c0,0,0,0,0-0.1
				C137,53.6,137.8,53.8,138.4,54.4z"/>
			<line fill="none" stroke="#FFFFFF" stroke-width="0.5" stroke-miterlimit="10" x1="119.8" y1="42.3" x2="128.7" y2="51.3"/>
			<path fill="#FFFFFF" d="M86.7,111.3c0.2-0.2,0.3-0.5,0.2-0.7l0.9-0.9c0.2,0.1,0.5,0,0.7-0.2c0.2-0.2,0.3-0.5,0.2-0.7l0.9-0.9
				c0.2,0.1,0.5,0,0.7-0.2c0.3-0.3,0.3-0.7,0.1-1c0.2-1.1-0.1-2.2-0.8-3c-0.8-0.8-1.9-1.1-3-0.9c-0.3-0.2-0.7-0.2-1,0.1
				c-0.2,0.2-0.3,0.5-0.2,0.7l-0.9,0.9c-0.2-0.1-0.5,0-0.7,0.2s-0.3,0.5-0.2,0.7l-0.9,0.9c-0.2-0.1-0.5,0-0.7,0.2
				c-0.2,0.2-0.3,0.5-0.2,0.7l-0.9,0.9c-0.2-0.1-0.5,0-0.7,0.2c-0.3,0.3-0.3,0.8,0,1.1c0.2,0.2,0.5,0.3,0.7,0.2l0.9,1
				c-0.1,0.3,0,0.5,0.2,0.7c0.2,0.2,0.5,0.3,0.7,0.2l0.9,0.9c-0.1,0.3,0,0.5,0.2,0.7c0.3,0.3,0.8,0.3,1.1,0c0.2-0.2,0.3-0.5,0.2-0.7
				l0.9-0.9C86.2,111.5,86.5,111.5,86.7,111.3z M84.2,111.9l-0.9-0.9c0-0.1,0-0.3,0-0.4l0.9-0.9c0.1,0,0.3,0,0.4,0l0.9,0.9
				c0,0.1,0,0.3,0,0.4l-0.9,0.9C84.4,111.8,84.3,111.8,84.2,111.9z M81.4,108.7l0.9-0.9c0.1,0,0.3,0,0.4,0l0.9,1c0,0.1,0,0.2,0,0.4
				l-0.9,1c-0.1,0-0.2,0-0.4,0l-0.9-1C81.4,108.9,81.4,108.8,81.4,108.7z M86.4,104l0.9,1c0,0.1,0,0.2,0,0.4l-0.9,1
				c-0.1,0-0.2,0-0.4,0l-0.9-1c0-0.1,0-0.3,0-0.4L86,104C86.1,104,86.3,104,86.4,104z M89.2,106.8c0,0.1,0,0.3,0,0.4l-0.9,0.9
				c-0.1,0-0.3,0-0.4,0l-0.9-0.9c0-0.1,0-0.3,0-0.4l0.9-0.9c0.1,0,0.3,0,0.4,0L89.2,106.8z M86,110l-0.9-0.9c0-0.1,0-0.3,0-0.4
				l0.9-0.9c0.1,0,0.3,0,0.4,0l0.9,0.9c0,0.1,0,0.3,0,0.4l-0.9,0.9C86.3,110,86.1,110,86,110z M84.5,105.9l0.9,1c0,0.1,0,0.2,0,0.4
				l-0.9,1c-0.1,0-0.2,0-0.4,0l-0.9-1c0-0.1,0-0.3,0-0.4l0.9-0.9C84.3,105.9,84.4,105.9,84.5,105.9z M89.1,104.1
				c0.6,0.6,0.8,1.4,0.7,2.2c0,0,0,0-0.1,0l-0.9-0.9c0.1-0.3,0-0.5-0.2-0.7c-0.2-0.2-0.5-0.3-0.7-0.2l-0.9-1c0,0,0,0,0-0.1
				C87.7,103.3,88.5,103.5,89.1,104.1z"/>
			<line fill="none" stroke="#FFFFFF" stroke-width="0.5" stroke-miterlimit="10" x1="70.5" y1="92" x2="79.5" y2="101"/>
			<line fill="none" stroke="#FFFFFF" stroke-width="0.5" stroke-miterlimit="10" x1="118.3" y1="74.6" x2="127.2" y2="65.6"/>
			<path fill="#FFFFFF" d="M160.5,36.8c0.2-0.2,0.3-0.5,0.2-0.7l0.9-0.9c0.2,0.1,0.5,0,0.7-0.2c0.2-0.2,0.3-0.5,0.2-0.7l0.9-0.9
				c0.2,0.1,0.5,0,0.7-0.2c0.3-0.3,0.3-0.7,0.1-1c0.2-1.1-0.1-2.2-0.8-3c-0.8-0.8-1.9-1.1-3-0.9c-0.3-0.2-0.7-0.2-1,0.1
				c-0.2,0.2-0.3,0.5-0.2,0.7l-0.9,0.9c-0.2-0.1-0.5,0-0.7,0.2c-0.2,0.2-0.3,0.5-0.2,0.7l-0.9,0.9c-0.2-0.1-0.5,0-0.7,0.2
				c-0.2,0.2-0.3,0.5-0.2,0.7l-0.9,0.9c-0.2-0.1-0.5,0-0.7,0.2c-0.3,0.3-0.3,0.8,0,1.1c0.2,0.2,0.5,0.3,0.7,0.2l0.9,1
				c-0.1,0.3,0,0.5,0.2,0.7s0.5,0.3,0.7,0.2l0.9,0.9c-0.1,0.3,0,0.5,0.2,0.7c0.3,0.3,0.8,0.3,1.1,0c0.2-0.2,0.3-0.5,0.2-0.7l0.9-0.9
				C160,37.1,160.3,37,160.5,36.8z M157.9,37.4l-0.9-0.9c0-0.1,0-0.3,0-0.4l0.9-0.9c0.1,0,0.3,0,0.4,0l0.9,0.9c0,0.1,0,0.3,0,0.4
				l-0.9,0.9C158.2,37.4,158.1,37.4,157.9,37.4z M155.2,34.2l0.9-0.9c0.1,0,0.3,0,0.4,0l0.9,1c0,0.1,0,0.2,0,0.4l-0.9,1
				c-0.1,0-0.2,0-0.4,0l-0.9-1C155.2,34.5,155.2,34.4,155.2,34.2z M160.2,29.6l0.9,1c0,0.1,0,0.2,0,0.4l-0.9,1c-0.1,0-0.2,0-0.4,0
				l-0.9-1c0-0.1,0-0.3,0-0.4l0.9-0.9C159.9,29.6,160,29.6,160.2,29.6z M162.9,32.4c0,0.1,0,0.3,0,0.4l-0.9,0.9c-0.1,0-0.3,0-0.4,0
				l-0.9-0.9c0-0.1,0-0.3,0-0.4l0.9-0.9c0.1,0,0.3,0,0.4,0L162.9,32.4z M159.8,35.6l-0.9-0.9c0-0.1,0-0.3,0-0.4l0.9-0.9
				c0.1,0,0.3,0,0.4,0l0.9,0.9c0,0.1,0,0.3,0,0.4l-0.9,0.9C160,35.5,159.9,35.5,159.8,35.6z M158.3,31.4l0.9,1c0,0.1,0,0.2,0,0.4
				l-0.9,1c-0.1,0-0.2,0-0.4,0l-0.9-1c0-0.1,0-0.3,0-0.4l0.9-0.9C158.1,31.5,158.2,31.5,158.3,31.4z M162.9,29.7
				c0.6,0.6,0.8,1.4,0.7,2.2c0,0,0,0-0.1,0l-0.9-0.9c0.1-0.3,0-0.5-0.2-0.7c-0.2-0.2-0.5-0.3-0.7-0.2l-0.9-1c0,0,0,0,0-0.1
				C161.5,28.8,162.3,29.1,162.9,29.7z"/>
			<line fill="none" stroke="#FFFFFF" stroke-width="0.5" stroke-miterlimit="10" x1="144.3" y1="17.5" x2="153.2" y2="26.6"/>
			<line fill="none" stroke="#FFFFFF" stroke-width="0.5" stroke-miterlimit="10" x1="142.8" y1="49.9" x2="151.7" y2="40.9"/>
			<line fill="none" stroke="#FFFFFF" stroke-width="0.5" stroke-miterlimit="10" x1="93.6" y1="99.6" x2="102.5" y2="90.5"/>
		</g>
	</g>
</g>
<g>
	<g>
		<rect x="108.2" y="180.5" fill="#BA3033" width="49" height="61.5"/>
		<rect x="10.2" y="180.5" fill="#F7EBE3" width="49" height="61.5"/>
		<rect x="108.2" y="68.6" fill="#E2B5A5" width="49" height="56.1"/>
		<g>
			<path fill="#F7EBE3" d="M142.7,108c3.2-2.8,5.2-6.8,5.2-11.3c0-4.5-2-8.6-5.2-11.4l-9.9,11.3L142.7,108z"/>
			<path fill="#F7EBE3" d="M157.2,68.6l-13.4,15.3c3.6,3.1,5.8,7.7,5.8,12.8c0,5.1-2.3,9.7-5.8,12.8l13.3,15.3V68.6z"/>
			<path fill="#F7EBE3" d="M115.8,96.7c0-5.1,2.3-9.7,5.8-12.8l-13.3-15.3v56.1l13.4-15.3C118,106.3,115.8,101.8,115.8,96.7z"/>
			<path fill="#F7EBE3" d="M122.8,85.3c-3.2,2.8-5.2,6.8-5.2,11.3c0,4.5,2,8.6,5.2,11.4l9.9-11.3L122.8,85.3z"/>
			<path fill="#F7EBE3" d="M132.7,81.6c3.8,0,7.3,1.4,9.9,3.7l1.2-1.4c-3-2.6-6.9-4.2-11.1-4.2c-4.3,0-8.2,1.6-11.2,4.2l1.2,1.4
				C125.5,83,128.9,81.6,132.7,81.6z"/>
			<path fill="#F7EBE3" d="M132.7,111.8c-3.8,0-7.2-1.4-9.9-3.7l-1.2,1.4c3,2.6,6.9,4.2,11.1,4.2c4.3,0,8.2-1.6,11.2-4.2l-1.2-1.4
				C140,110.3,136.5,111.8,132.7,111.8z"/>
		</g>
		<rect x="108.2" y="7" fill="#BA3033" width="49" height="61.6"/>
		<g>
			<circle fill="#F7EBE3" cx="132.7" cy="39.2" r="16"/>
			<circle fill="#BA3033" cx="132.7" cy="39.2" r="11.7"/>
			<circle fill="#F7EBE3" cx="132.7" cy="39.2" r="7"/>
			<circle fill="#BA3033" cx="132.7" cy="39.2" r="3.3"/>
		</g>
		<rect x="59.2" y="180.5" fill="#F7EBE3" width="49" height="61.5"/>
		<polygon fill="#0E1226" points="108.2,241.7 83.7,211.2 108.2,180.9 		"/>
		<polygon fill="#0E1226" points="59.2,180.9 83.7,211.3 59.2,241.7 		"/>
		<circle fill="none" stroke="#F5EAE2" stroke-width="2" stroke-miterlimit="10" cx="83.7" cy="210.3" r="16"/>
		<g>
			<path fill="#0E1226" d="M31.5,199.6c-1.9-1.1-3.7-2.1-5.4-3.2c-5,2.7-8.3,7.9-8.3,13.9c0,6,3.4,11.2,8.3,13.9
				c1.7-1.1,3.5-2.2,5.4-3.2c5.5-3.1,12.2-5.7,17.6-7.5c0.2-1,0.3-2,0.3-3.1c0-1.1-0.1-2.1-0.3-3.1C43.7,205.3,37,202.7,31.5,199.6z
				"/>
			<path fill="#0E1226" d="M24.2,225.3c-5.1-3.1-8.5-8.7-8.5-15.1c0-6.4,3.4-11.9,8.5-15.1c-6.1-4-10.1-8.1-14-14.3v58.8
				C14.4,233,18.1,229.3,24.2,225.3z"/>
			<path fill="#0E1226" d="M51.4,210.3c0,0.8-0.1,1.6-0.2,2.4c4.7-1.5,8.1-2.4,8.1-2.4l0,0l0,0c0,0-3.3-0.9-8.1-2.4
				C51.3,208.6,51.4,209.4,51.4,210.3z"/>
			<path fill="#BA3033" d="M33.6,192.5c-3.4,0-6.6,1-9.3,2.7c0.6,0.4,1.2,0.8,1.9,1.2c2.2-1.2,4.8-1.9,7.5-1.9
				c7.7,0,14,5.4,15.5,12.6c0.7,0.2,1.4,0.5,2.1,0.7C50,199.2,42.6,192.5,33.6,192.5z"/>
			<path fill="#BA3033" d="M33.6,226c-2.7,0-5.3-0.7-7.5-1.9c-0.6,0.4-1.2,0.8-1.9,1.2c2.7,1.7,5.9,2.7,9.3,2.7
				c9,0,16.4-6.7,17.6-15.3c-0.7,0.2-1.4,0.5-2.1,0.7C47.6,220.6,41.2,226,33.6,226z"/>
		</g>
		<g>
			<rect x="59.2" y="124.7" fill="#E2B5A5" width="49" height="56.1"/>
			<polygon fill="#BA3033" points="108.2,180.9 108.2,124.7 59.2,124.7 			"/>
		</g>
		<rect x="108.2" y="124.7" fill="#0E1226" width="49" height="56.1"/>
		<circle fill="none" stroke="#FFFFFF" stroke-width="2" stroke-miterlimit="10" cx="83.7" cy="152.8" r="16"/>
		<circle fill="none" stroke="#FFFFFF" stroke-width="2" stroke-miterlimit="10" cx="132.7" cy="152.8" r="16"/>
		<circle fill="none" stroke="#FFFFFF" stroke-width="2" stroke-miterlimit="10" cx="132.7" cy="152.8" r="11.1"/>
		<line fill="none" stroke="#FFFFFF" stroke-width="2" stroke-miterlimit="10" x1="143.7" y1="152.8" x2="99.1" y2="152.8"/>
		<rect x="10.2" y="68.6" fill="#E2B5A5" width="49" height="56.1"/>
		<line fill="none" stroke="#FFFFFF" stroke-width="2" stroke-miterlimit="10" x1="34.7" y1="128.7" x2="34.7" y2="112.1"/>
		<rect x="10.2" y="7" fill="#BA3033" width="49" height="61.6"/>
		<path fill="#BA3033" d="M59.2,68.6c-11.6,0.8-15.7,1.2-24.5,7.5c-9.5-6.5-13.2-6.8-24.5-7.5H59.2z"/>
		<circle fill="none" stroke="#FFFFFF" stroke-width="2" stroke-miterlimit="10" cx="34.7" cy="96.7" r="16"/>
		<g>
			<path fill="#F7EBE3" d="M22.7,49.7l12.1-10.5l12,10.5c2.5-2.8,4-6.5,4-10.5c0-4-1.5-7.7-4-10.5L34.7,39.2l-12-10.5
				c-2.5,2.8-4,6.5-4,10.5C18.7,43.2,20.2,46.9,22.7,49.7z"/>
			<path fill="#E2B5A5" d="M46.8,28.7c-2.9-3.4-7.2-5.5-12.1-5.5c-4.8,0-9.1,2.1-12.1,5.5l12,10.5L46.8,28.7z"/>
			<path fill="#E2B5A5" d="M46.8,49.7l-12-10.5L22.7,49.7c2.9,3.4,7.2,5.5,12.1,5.5C39.6,55.2,43.9,53.1,46.8,49.7z"/>
		</g>
		<g>
			<line fill="none" stroke="#FFFFFF" stroke-width="2" stroke-miterlimit="10" x1="42.6" y1="101.5" x2="34.4" y2="87.1"/>
			<line fill="none" stroke="#FFFFFF" stroke-width="2" stroke-miterlimit="10" x1="35.1" y1="106.2" x2="26.9" y2="91.8"/>
		</g>
		<path fill="#F7EBE3" d="M144.1,198.9L144.1,198.9l-11.4-10.4l-10.2,9.3c-3.6,2.9-5.9,7.4-5.9,12.4c0,8.9,7.2,16,16,16
			c8.9,0,16-7.2,16-16C148.8,205.8,147,201.8,144.1,198.9z"/>
		<rect x="59.2" y="7" fill="#E2B5A5" width="49" height="61.6"/>
		<rect x="59.2" y="68.6" fill="#0E1226" width="49" height="56.1"/>
		<circle fill="#BA3033" cx="83.7" cy="96.7" r="16"/>
		<g>
			<path fill="#FFFFFF" d="M83.7,25.2c7.7,0,14,6.3,14,14c0,4.2-1.9,8.2-5.2,10.9c-5.3,4.6-7.8,7-8.9,8.4c-1.2-1.4-3.9-4.1-9.9-9.4
				c-2.6-2.6-4.1-6.1-4.1-9.9C69.7,31.5,76,25.2,83.7,25.2 M83.7,23.2c-8.9,0-16,7.2-16,16c0,4.4,1.8,8.4,4.7,11.3
				c0,0,10.2,9.1,10.4,10.1c0.1,0.9,0.9,2.2,0.9,2.2s0.9-1.5,0.9-2.2c0.1-1.1,9.2-9,9.2-9c3.6-2.9,5.9-7.4,5.9-12.4
				C99.8,30.3,92.6,23.2,83.7,23.2L83.7,23.2z"/>
		</g>
		<line fill="#D1D3D4" stroke="#FFFFFF" stroke-width="2" stroke-miterlimit="10" x1="83.7" y1="106.4" x2="83.7" y2="60.1"/>
		<rect x="10.2" y="124.7" fill="#BA3033" width="49" height="56.1"/>
		<g>
			<path fill="#F7EBE3" d="M18.7,152.8c0-8.9,7.2-16,16-16c4,0,7.7,1.5,10.5,4l14-16h-49v56.1l14-16
				C20.8,161.9,18.7,157.6,18.7,152.8z"/>
			<path fill="#F7EBE3" d="M45.3,140.7l-21.1,24.1c2.8,2.5,6.5,4,10.5,4c8.9,0,16-7.2,16-16C50.8,148,48.6,143.7,45.3,140.7z"/>
		</g>
		<line fill="#D1D3D4" stroke="#FFFFFF" stroke-width="2" stroke-miterlimit="10" x1="76.8" y1="89.7" x2="90.7" y2="103.6"/>
		<line fill="#D1D3D4" stroke="#FFFFFF" stroke-width="2" stroke-miterlimit="10" x1="73.9" y1="96.7" x2="93.6" y2="96.7"/>
		<line fill="#D1D3D4" stroke="#FFFFFF" stroke-width="2" stroke-miterlimit="10" x1="76.8" y1="103.6" x2="90.7" y2="89.7"/>
		<polygon fill="#F7EBE3" points="108.2,9.2 83.7,16.7 59.2,9.2 		"/>
	</g>
	<path fill="#FFFFFF" d="M149.1,1.8h-131c-5.9,0-13.5,7.5-13.5,13.4v219.2c0,5.9,7.6,13.4,13.5,13.4h131c5.9,0,13.5-7.5,13.5-13.4
		V15.1C162.6,9.3,155,1.8,149.1,1.8z M156.6,233.5c0,4.4-3.6,8-8,8h-130c-4.4,0-8-3.6-8-8V16c0-4.4,3.6-8,8-8h130c4.4,0,8,3.6,8,8
		V233.5z"/>
	<path fill="none" stroke="#BA3033" stroke-miterlimit="10" d="M148.5,245H18.9c-6.2,0-11.3-5.1-11.3-11.3V15.8
		c0-6.2,5.1-11.3,11.3-11.3h129.7c6.2,0,11.3,5.1,11.3,11.3v217.9C159.9,239.9,154.8,245,148.5,245z"/>
</g>
</svg>
