<?xml version="1.0" encoding="utf-8"?>
<!-- Generator: Adobe Illustrator 18.1.1, SVG Export Plug-In . SVG Version: 6.00 Build 0)  -->
<!DOCTYPE svg PUBLIC "-//W3C//DTD SVG 1.1//EN" "http://www.w3.org/Graphics/SVG/1.1/DTD/svg11.dtd">
<svg version="1.1" id="Layer_1" xmlns="http://www.w3.org/2000/svg" xmlns:xlink="http://www.w3.org/1999/xlink" x="0px" y="0px"
	 viewBox="0 0 167.2 249.4" enable-background="new 0 0 167.2 249.4" xml:space="preserve">
<g>
	<rect x="-5.7" y="-5.7" fill="#BA3033" width="178.6" height="260.8"/>
	<g>
		<defs>
			<rect id="SVGID_9_" x="-5.7" y="-5.7" width="178.6" height="260.8"/>
		</defs>
		<clipPath id="SVGID_2_">
			<use xlink:href="#SVGID_9_"  overflow="visible"/>
		</clipPath>
		<g clip-path="url(#SVGID_2_)">
			<path fill="#FFFFFF" d="M7.6-1.6c0.2-0.2,0.3-0.5,0.2-0.7l0.9-0.9c0.2,0.1,0.5,0,0.7-0.2C9.7-3.7,9.7-4,9.7-4.2l0.9-0.9
				c0.2,0.1,0.5,0,0.7-0.2c0.3-0.3,0.3-0.7,0.1-1c0.2-1.1-0.1-2.2-0.8-3c-0.8-0.8-1.9-1.1-3-0.9c-0.3-0.2-0.7-0.2-1,0.1
				C6.4-9.9,6.3-9.7,6.4-9.4L5.5-8.5c-0.2-0.1-0.5,0-0.7,0.2C4.5-8.1,4.5-7.8,4.5-7.5L3.6-6.6c-0.2-0.1-0.5,0-0.7,0.2
				C2.7-6.2,2.6-5.9,2.7-5.7L1.8-4.7C1.5-4.8,1.2-4.7,1-4.5C0.8-4.3,0.8-3.8,1-3.5c0.2,0.2,0.5,0.3,0.7,0.2l0.9,1
				c-0.1,0.3,0,0.5,0.2,0.7s0.5,0.3,0.7,0.2l0.9,0.9C4.5-0.2,4.5,0,4.7,0.2c0.3,0.3,0.8,0.3,1.1,0C6,0,6.1-0.2,6-0.5l0.9-0.9
				C7.2-1.4,7.4-1.4,7.6-1.6z M5.1-1L4.2-2c0-0.1,0-0.3,0-0.4l0.9-0.9c0.1,0,0.3,0,0.4,0l0.9,0.9c0,0.1,0,0.3,0,0.4L5.5-1
				C5.3-1.1,5.2-1.1,5.1-1z M2.3-4.2l0.9-0.9c0.1,0,0.3,0,0.4,0l0.9,1c0,0.1,0,0.2,0,0.4l-0.9,1c-0.1,0-0.2,0-0.4,0l-0.9-1
				C2.3-4,2.3-4.1,2.3-4.2z M7.3-8.9l0.9,1c0,0.1,0,0.2,0,0.4l-0.9,1c-0.1,0-0.2,0-0.4,0L6-7.5c0-0.1,0-0.3,0-0.4l0.9-0.9
				C7-8.8,7.2-8.8,7.3-8.9z M10.1-6.1c0,0.1,0,0.3,0,0.4L9.1-4.7c-0.1,0-0.3,0-0.4,0L7.8-5.7c0-0.1,0-0.3,0-0.4L8.8-7
				C8.9-7,9-7,9.2-7L10.1-6.1z M6.9-2.9L6-3.8c0-0.1,0-0.3,0-0.4l0.9-0.9c0.1,0,0.3,0,0.4,0l0.9,0.9c0,0.1,0,0.3,0,0.4L7.3-2.9
				C7.2-2.9,7-2.9,6.9-2.9z M5.5-7l0.9,1c0,0.1,0,0.2,0,0.4l-0.9,1c-0.1,0-0.2,0-0.4,0l-0.9-1c0-0.1,0-0.3,0-0.4L5.1-7
				C5.2-7,5.3-7,5.5-7z M10-8.8c0.6,0.6,0.8,1.4,0.7,2.2c0,0,0,0-0.1,0L9.7-7.5c0.1-0.3,0-0.5-0.2-0.7S9-8.5,8.8-8.5l-0.9-1
				c0,0,0,0,0-0.1C8.6-9.6,9.4-9.4,10-8.8z"/>
			<path fill="#FFFFFF" d="M30.8,21.7C31,21.5,31,21.2,31,21l0.9-0.9c0.2,0.1,0.5,0,0.7-0.2c0.2-0.2,0.3-0.5,0.2-0.7l0.9-0.9
				c0.2,0.1,0.5,0,0.7-0.2c0.3-0.3,0.3-0.7,0.1-1c0.2-1.1-0.1-2.2-0.8-3c-0.8-0.8-1.9-1.1-3-0.9c-0.3-0.2-0.7-0.2-1,0.1
				c-0.2,0.2-0.3,0.5-0.2,0.7l-0.9,0.9c-0.2-0.1-0.5,0-0.7,0.2c-0.2,0.2-0.3,0.5-0.2,0.7l-0.9,0.9c-0.2-0.1-0.5,0-0.7,0.2
				c-0.2,0.2-0.3,0.5-0.2,0.7l-0.9,0.9c-0.2-0.1-0.5,0-0.7,0.2c-0.3,0.3-0.3,0.8,0,1.1c0.2,0.2,0.5,0.3,0.7,0.2l0.9,1
				c-0.1,0.3,0,0.5,0.2,0.7c0.2,0.2,0.5,0.3,0.7,0.2l0.9,0.9c-0.1,0.3,0,0.5,0.2,0.7c0.3,0.3,0.8,0.3,1.1,0c0.2-0.2,0.3-0.5,0.2-0.7
				l0.9-0.9C30.3,22,30.6,21.9,30.8,21.7z M28.2,22.3l-0.9-0.9c0-0.1,0-0.3,0-0.4l0.9-0.9c0.1,0,0.3,0,0.4,0l0.9,0.9
				c0,0.1,0,0.3,0,0.4l-0.9,0.9C28.5,22.3,28.3,22.3,28.2,22.3z M25.4,19.1l0.9-0.9c0.1,0,0.3,0,0.4,0l0.9,1c0,0.1,0,0.2,0,0.4
				l-0.9,1c-0.1,0-0.2,0-0.4,0l-0.9-1C25.5,19.4,25.5,19.2,25.4,19.1z M30.4,14.5l0.9,1c0,0.1,0,0.2,0,0.4l-0.9,1
				c-0.1,0-0.2,0-0.4,0l-0.9-1c0-0.1,0-0.3,0-0.4l0.9-0.9C30.2,14.5,30.3,14.5,30.4,14.5z M33.2,17.3c0,0.1,0,0.3,0,0.4l-0.9,0.9
				c-0.1,0-0.3,0-0.4,0L31,17.7c0-0.1,0-0.3,0-0.4l0.9-0.9c0.1,0,0.3,0,0.4,0L33.2,17.3z M30,20.4l-0.9-0.9c0-0.1,0-0.3,0-0.4
				l0.9-0.9c0.1,0,0.3,0,0.4,0l0.9,0.9c0,0.1,0,0.3,0,0.4l-0.9,0.9C30.3,20.4,30.2,20.4,30,20.4z M28.6,16.3l0.9,1
				c0,0.1,0,0.2,0,0.4l-0.9,1c-0.1,0-0.2,0-0.4,0l-0.9-1c0-0.1,0-0.3,0-0.4l0.9-0.9C28.3,16.3,28.5,16.3,28.6,16.3z M33.1,14.5
				c0.6,0.6,0.8,1.4,0.7,2.2c0,0,0,0-0.1,0l-0.9-0.9c0.1-0.3,0-0.5-0.2-0.7c-0.2-0.2-0.5-0.3-0.7-0.2l-0.9-1c0,0,0,0,0-0.1
				C31.7,13.7,32.6,13.9,33.1,14.5z"/>
			<line fill="none" stroke="#FFFFFF" stroke-width="0.5" stroke-miterlimit="10" x1="14.5" y1="2.4" x2="23.5" y2="11.5"/>
			<path fill="#FFFFFF" d="M6.1,46.6c0.2-0.2,0.3-0.5,0.2-0.7l0.9-0.9c0.2,0.1,0.5,0,0.7-0.2c0.2-0.2,0.3-0.5,0.2-0.7l0.9-0.9
				c0.2,0.1,0.5,0,0.7-0.2c0.3-0.3,0.3-0.7,0.1-1c0.2-1.1-0.1-2.2-0.8-3S7.1,37.8,6,38c-0.3-0.2-0.7-0.2-1,0.1
				c-0.2,0.2-0.3,0.5-0.2,0.7l-0.9,0.9c-0.2-0.1-0.5,0-0.7,0.2C3,40.1,2.9,40.4,3,40.7l-0.9,0.9c-0.2-0.1-0.5,0-0.7,0.2
				c-0.2,0.2-0.3,0.5-0.2,0.7l-0.9,0.9c-0.2-0.1-0.5,0-0.7,0.2c-0.3,0.3-0.3,0.8,0,1.1c0.2,0.2,0.5,0.3,0.7,0.2l0.9,1
				c-0.1,0.3,0,0.5,0.2,0.7c0.2,0.2,0.5,0.3,0.7,0.2L3,47.7c-0.1,0.3,0,0.5,0.2,0.7c0.3,0.3,0.8,0.3,1.1,0c0.2-0.2,0.3-0.5,0.2-0.7
				l0.9-0.9C5.6,46.8,5.9,46.8,6.1,46.6z M3.5,47.2l-0.9-0.9c0-0.1,0-0.3,0-0.4l0.9-0.9c0.1,0,0.3,0,0.4,0l0.9,0.9
				c0,0.1,0,0.3,0,0.4l-0.9,0.9C3.8,47.2,3.7,47.2,3.5,47.2z M0.7,44l0.9-0.9c0.1,0,0.3,0,0.4,0L3,44c0,0.1,0,0.2,0,0.4l-0.9,1
				c-0.1,0-0.2,0-0.4,0l-0.9-1C0.8,44.3,0.8,44.1,0.7,44z M5.8,39.3l0.9,1c0,0.1,0,0.2,0,0.4l-0.9,1c-0.1,0-0.2,0-0.4,0l-0.9-1
				c0-0.1,0-0.3,0-0.4l0.9-0.9C5.5,39.4,5.6,39.4,5.8,39.3z M8.5,42.1c0,0.1,0,0.3,0,0.4l-0.9,0.9c-0.1,0-0.3,0-0.4,0l-0.9-0.9
				c0-0.1,0-0.3,0-0.4l0.9-0.9c0.1,0,0.3,0,0.4,0L8.5,42.1z M5.4,45.3l-0.9-0.9c0-0.1,0-0.3,0-0.4l0.9-0.9c0.1,0,0.3,0,0.4,0L6.7,44
				c0,0.1,0,0.3,0,0.4l-0.9,0.9C5.6,45.3,5.5,45.3,5.4,45.3z M3.9,41.2l0.9,1c0,0.1,0,0.2,0,0.4l-0.9,1c-0.1,0-0.2,0-0.4,0l-0.9-1
				c0-0.1,0-0.3,0-0.4l0.9-0.9C3.7,41.2,3.8,41.2,3.9,41.2z M8.5,39.4C9,40,9.3,40.8,9.1,41.6c0,0,0,0-0.1,0l-0.9-0.9
				c0.1-0.3,0-0.5-0.2-0.7c-0.2-0.2-0.5-0.3-0.7-0.2l-0.9-1c0,0,0,0,0-0.1C7.1,38.6,7.9,38.8,8.5,39.4z"/>
			<line fill="none" stroke="#FFFFFF" stroke-width="0.5" stroke-miterlimit="10" x1="37.6" y1="10" x2="46.6" y2="0.9"/>
			<line fill="none" stroke="#FFFFFF" stroke-width="0.5" stroke-miterlimit="10" x1="12.9" y1="34.9" x2="21.9" y2="25.9"/>
			<path fill="#FFFFFF" d="M52.9,44c0.2-0.2,0.3-0.5,0.2-0.7l0.9-0.9c0.2,0.1,0.5,0,0.7-0.2c0.2-0.2,0.3-0.5,0.2-0.7l0.9-0.9
				c0.2,0.1,0.5,0,0.7-0.2c0.3-0.3,0.3-0.7,0.1-1c0.2-1.1-0.1-2.2-0.8-3c-0.8-0.8-1.9-1.1-3-0.9c-0.3-0.2-0.7-0.2-1,0.1
				c-0.2,0.2-0.3,0.5-0.2,0.7l-0.9,0.9c-0.2-0.1-0.5,0-0.7,0.2c-0.2,0.2-0.3,0.5-0.2,0.7l-0.9,0.9c-0.2-0.1-0.5,0-0.7,0.2
				C48,39.4,47.9,39.7,48,40L47,40.9c-0.2-0.1-0.5,0-0.7,0.2c-0.3,0.3-0.3,0.8,0,1.1c0.2,0.2,0.5,0.3,0.7,0.2l0.9,1
				c-0.1,0.3,0,0.5,0.2,0.7c0.2,0.2,0.5,0.3,0.7,0.2l0.9,0.9c-0.1,0.3,0,0.5,0.2,0.7c0.3,0.3,0.8,0.3,1.1,0c0.2-0.2,0.3-0.5,0.2-0.7
				l0.9-0.9C52.4,44.3,52.7,44.2,52.9,44z M50.3,44.6l-0.9-0.9c0-0.1,0-0.3,0-0.4l0.9-0.9c0.1,0,0.3,0,0.4,0l0.9,0.9
				c0,0.1,0,0.3,0,0.4l-0.9,0.9C50.6,44.6,50.5,44.6,50.3,44.6z M47.6,41.4l0.9-0.9c0.1,0,0.3,0,0.4,0l0.9,1c0,0.1,0,0.2,0,0.4
				l-0.9,1c-0.1,0-0.2,0-0.4,0l-0.9-1C47.6,41.7,47.6,41.6,47.6,41.4z M52.6,36.8l0.9,1c0,0.1,0,0.2,0,0.4l-0.9,1
				c-0.1,0-0.2,0-0.4,0l-0.9-1c0-0.1,0-0.3,0-0.4l0.9-0.9C52.3,36.8,52.4,36.8,52.6,36.8z M55.3,39.6c0,0.1,0,0.3,0,0.4l-0.9,0.9
				c-0.1,0-0.3,0-0.4,0L53.1,40c0-0.1,0-0.3,0-0.4l0.9-0.9c0.1,0,0.3,0,0.4,0L55.3,39.6z M52.2,42.8l-0.9-0.9c0-0.1,0-0.3,0-0.4
				l0.9-0.9c0.1,0,0.3,0,0.4,0l0.9,0.9c0,0.1,0,0.3,0,0.4l-0.9,0.9C52.4,42.7,52.3,42.7,52.2,42.8z M50.7,38.6l0.9,1
				c0,0.1,0,0.2,0,0.4l-0.9,1c-0.1,0-0.2,0-0.4,0l-0.9-1c0-0.1,0-0.3,0-0.4l0.9-0.9C50.5,38.7,50.6,38.7,50.7,38.6z M55.3,36.9
				c0.6,0.6,0.8,1.4,0.7,2.2c0,0,0,0-0.1,0l-0.9-0.9c0.1-0.3,0-0.5-0.2-0.7s-0.5-0.3-0.7-0.2l-0.9-1c0,0,0,0,0-0.1
				C53.9,36,54.7,36.3,55.3,36.9z"/>
			<line fill="none" stroke="#FFFFFF" stroke-width="0.5" stroke-miterlimit="10" x1="36.7" y1="24.7" x2="45.6" y2="33.8"/>
			<path fill="#FFFFFF" d="M77.5,19.2c0.2-0.2,0.3-0.5,0.2-0.7l0.9-0.9c0.2,0.1,0.5,0,0.7-0.2c0.2-0.2,0.3-0.5,0.2-0.7l0.9-0.9
				c0.2,0.1,0.5,0,0.7-0.2c0.3-0.3,0.3-0.7,0.1-1c0.2-1.1-0.1-2.2-0.8-3c-0.8-0.8-1.9-1.1-3-0.9c-0.3-0.2-0.7-0.2-1,0.1
				c-0.2,0.2-0.3,0.5-0.2,0.7l-0.9,0.9c-0.2-0.1-0.5,0-0.7,0.2c-0.2,0.2-0.3,0.5-0.2,0.7l-0.9,0.9c-0.2-0.1-0.5,0-0.7,0.2
				c-0.2,0.2-0.3,0.5-0.2,0.7l-0.9,0.9c-0.2-0.1-0.5,0-0.7,0.2c-0.3,0.3-0.3,0.8,0,1.1c0.2,0.2,0.5,0.3,0.7,0.2l0.9,1
				c-0.1,0.3,0,0.5,0.2,0.7s0.5,0.3,0.7,0.2l0.9,0.9c-0.1,0.3,0,0.5,0.2,0.7c0.3,0.3,0.8,0.3,1.1,0c0.2-0.2,0.3-0.5,0.2-0.7l0.9-0.9
				C77,19.5,77.3,19.4,77.5,19.2z M74.9,19.8L74,18.9c0-0.1,0-0.3,0-0.4l0.9-0.9c0.1,0,0.3,0,0.4,0l0.9,0.9c0,0.1,0,0.3,0,0.4
				l-0.9,0.9C75.2,19.8,75.1,19.8,74.9,19.8z M72.2,16.6l0.9-0.9c0.1,0,0.3,0,0.4,0l0.9,1c0,0.1,0,0.2,0,0.4l-0.9,1
				c-0.1,0-0.2,0-0.4,0l-0.9-1C72.2,16.9,72.2,16.7,72.2,16.6z M77.2,12l0.9,1c0,0.1,0,0.2,0,0.4l-0.9,1c-0.1,0-0.2,0-0.4,0l-0.9-1
				c0-0.1,0-0.3,0-0.4l0.9-0.9C76.9,12,77,12,77.2,12z M79.9,14.8c0,0.1,0,0.3,0,0.4L79,16.1c-0.1,0-0.3,0-0.4,0l-0.9-0.9
				c0-0.1,0-0.3,0-0.4l0.9-0.9c0.1,0,0.3,0,0.4,0L79.9,14.8z M76.8,18L75.9,17c0-0.1,0-0.3,0-0.4l0.9-0.9c0.1,0,0.3,0,0.4,0l0.9,0.9
				c0,0.1,0,0.3,0,0.4L77.2,18C77,17.9,76.9,17.9,76.8,18z M75.3,13.8l0.9,1c0,0.1,0,0.2,0,0.4l-0.9,1c-0.1,0-0.2,0-0.4,0l-0.9-1
				c0-0.1,0-0.3,0-0.4l0.9-0.9C75.1,13.9,75.2,13.9,75.3,13.8z M79.9,12c0.6,0.6,0.8,1.4,0.7,2.2c0,0,0,0-0.1,0l-0.9-0.9
				c0.1-0.3,0-0.5-0.2-0.7c-0.2-0.2-0.5-0.3-0.7-0.2l-0.9-1c0,0,0,0,0-0.1C78.5,11.2,79.3,11.4,79.9,12z"/>
			<line fill="none" stroke="#FFFFFF" stroke-width="0.5" stroke-miterlimit="10" x1="61.3" y1="-0.1" x2="70.2" y2="9"/>
			<path fill="#FFFFFF" d="M28.2,68.9c0.2-0.2,0.3-0.5,0.2-0.7l0.9-0.9c0.2,0.1,0.5,0,0.7-0.2c0.2-0.2,0.3-0.5,0.2-0.7l0.9-0.9
				c0.2,0.1,0.5,0,0.7-0.2c0.3-0.3,0.3-0.7,0.1-1c0.2-1.1-0.1-2.2-0.8-3c-0.8-0.8-1.9-1.1-3-0.9c-0.3-0.2-0.7-0.2-1,0.1
				c-0.2,0.2-0.3,0.5-0.2,0.7L26,62.1c-0.2-0.1-0.5,0-0.7,0.2c-0.2,0.2-0.3,0.5-0.2,0.7l-0.9,0.9c-0.2-0.1-0.5,0-0.7,0.2
				c-0.2,0.2-0.3,0.5-0.2,0.7l-0.9,0.9c-0.2-0.1-0.5,0-0.7,0.2c-0.3,0.3-0.3,0.8,0,1.1c0.2,0.2,0.5,0.3,0.7,0.2l0.9,1
				c-0.1,0.3,0,0.5,0.2,0.7c0.2,0.2,0.5,0.3,0.7,0.2l0.9,0.9c-0.1,0.3,0,0.5,0.2,0.7c0.3,0.3,0.8,0.3,1.1,0c0.2-0.2,0.3-0.5,0.2-0.7
				l0.9-0.9C27.8,69.2,28,69.1,28.2,68.9z M25.7,69.5l-0.9-0.9c0-0.1,0-0.3,0-0.4l0.9-0.9c0.1,0,0.3,0,0.4,0l0.9,0.9
				c0,0.1,0,0.3,0,0.4L26,69.5C25.9,69.5,25.8,69.5,25.7,69.5z M22.9,66.3l0.9-0.9c0.1,0,0.3,0,0.4,0l0.9,1c0,0.1,0,0.2,0,0.4
				l-0.9,1c-0.1,0-0.2,0-0.4,0l-0.9-1C22.9,66.6,22.9,66.5,22.9,66.3z M27.9,61.7l0.9,1c0,0.1,0,0.2,0,0.4l-0.9,1
				c-0.1,0-0.2,0-0.4,0l-0.9-1c0-0.1,0-0.3,0-0.4l0.9-0.9C27.6,61.7,27.8,61.7,27.9,61.7z M30.7,64.5c0,0.1,0,0.3,0,0.4l-0.9,0.9
				c-0.1,0-0.3,0-0.4,0l-0.9-0.9c0-0.1,0-0.3,0-0.4l0.9-0.9c0.1,0,0.3,0,0.4,0L30.7,64.5z M27.5,67.7l-0.9-0.9c0-0.1,0-0.3,0-0.4
				l0.9-0.9c0.1,0,0.3,0,0.4,0l0.9,0.9c0,0.1,0,0.3,0,0.4l-0.9,0.9C27.8,67.6,27.6,67.6,27.5,67.7z M26,63.5l0.9,1
				c0,0.1,0,0.2,0,0.4l-0.9,1c-0.1,0-0.2,0-0.4,0l-0.9-1c0-0.1,0-0.3,0-0.4l0.9-0.9C25.8,63.6,25.9,63.6,26,63.5z M30.6,61.7
				c0.6,0.6,0.8,1.4,0.7,2.2c0,0,0,0-0.1,0L30.3,63c0.1-0.3,0-0.5-0.2-0.7s-0.5-0.3-0.7-0.2l-0.9-1c0,0,0,0,0-0.1
				C29.2,60.9,30,61.2,30.6,61.7z"/>
			<line fill="none" stroke="#FFFFFF" stroke-width="0.5" stroke-miterlimit="10" x1="12" y1="49.6" x2="21" y2="58.7"/>
			<line fill="none" stroke="#FFFFFF" stroke-width="0.5" stroke-miterlimit="10" x1="59.8" y1="32.3" x2="68.7" y2="23.3"/>
			<line fill="none" stroke="#FFFFFF" stroke-width="0.5" stroke-miterlimit="10" x1="84.3" y1="7.6" x2="93.2" y2="-1.5"/>
			<line fill="none" stroke="#FFFFFF" stroke-width="0.5" stroke-miterlimit="10" x1="35.1" y1="57.2" x2="44" y2="48.2"/>
			<path fill="#FFFFFF" d="M77.2,68.6c0.2-0.2,0.3-0.5,0.2-0.7l0.9-0.9c0.2,0.1,0.5,0,0.7-0.2c0.2-0.2,0.3-0.5,0.2-0.7l0.9-0.9
				c0.2,0.1,0.5,0,0.7-0.2c0.3-0.3,0.3-0.7,0.1-1c0.2-1.1-0.1-2.2-0.8-3c-0.8-0.8-1.9-1.1-3-0.9c-0.3-0.2-0.7-0.2-1,0.1
				c-0.2,0.2-0.3,0.5-0.2,0.7L75,61.7c-0.2-0.1-0.5,0-0.7,0.2c-0.2,0.2-0.3,0.5-0.2,0.7l-0.9,0.9c-0.2-0.1-0.5,0-0.7,0.2
				c-0.2,0.2-0.3,0.5-0.2,0.7l-0.9,0.9c-0.2-0.1-0.5,0-0.7,0.2c-0.3,0.3-0.3,0.8,0,1.1c0.2,0.2,0.5,0.3,0.7,0.2l0.9,1
				c-0.1,0.3,0,0.5,0.2,0.7c0.2,0.2,0.5,0.3,0.7,0.2l0.9,0.9c-0.1,0.3,0,0.5,0.2,0.7c0.3,0.3,0.8,0.3,1.1,0c0.2-0.2,0.3-0.5,0.2-0.7
				l0.9-0.9C76.7,68.8,77,68.7,77.2,68.6z M74.6,69.2l-0.9-0.9c0-0.1,0-0.3,0-0.4l0.9-0.9c0.1,0,0.3,0,0.4,0l0.9,0.9
				c0,0.1,0,0.3,0,0.4L75,69.2C74.9,69.1,74.8,69.1,74.6,69.2z M71.9,66l0.9-0.9c0.1,0,0.3,0,0.4,0l0.9,1c0,0.1,0,0.2,0,0.4l-0.9,1
				c-0.1,0-0.2,0-0.4,0l-0.9-1C71.9,66.2,71.9,66.1,71.9,66z M76.9,61.3l0.9,1c0,0.1,0,0.2,0,0.4l-0.9,1c-0.1,0-0.2,0-0.4,0l-0.9-1
				c0-0.1,0-0.3,0-0.4l0.9-0.9C76.6,61.3,76.7,61.3,76.9,61.3z M79.6,64.1c0,0.1,0,0.3,0,0.4l-0.9,0.9c-0.1,0-0.3,0-0.4,0l-0.9-0.9
				c0-0.1,0-0.3,0-0.4l0.9-0.9c0.1,0,0.3,0,0.4,0L79.6,64.1z M76.5,67.3l-0.9-0.9c0-0.1,0-0.3,0-0.4l0.9-0.9c0.1,0,0.3,0,0.4,0
				l0.9,0.9c0,0.1,0,0.3,0,0.4l-0.9,0.9C76.7,67.3,76.6,67.3,76.5,67.3z M75,63.2l0.9,1c0,0.1,0,0.2,0,0.4l-0.9,1
				c-0.1,0-0.2,0-0.4,0l-0.9-1c0-0.1,0-0.3,0-0.4l0.9-0.9C74.8,63.2,74.9,63.2,75,63.2z M79.6,61.4c0.6,0.6,0.8,1.4,0.7,2.2
				c0,0,0,0-0.1,0l-0.9-0.9c0.1-0.3,0-0.5-0.2-0.7c-0.2-0.2-0.5-0.3-0.7-0.2l-0.9-1c0,0,0,0,0-0.1C78.2,60.6,79,60.8,79.6,61.4z"/>
			<path fill="#FFFFFF" d="M52.5,93.4c0.2-0.2,0.3-0.5,0.2-0.7l0.9-0.9c0.2,0.1,0.5,0,0.7-0.2s0.3-0.5,0.2-0.7l0.9-0.9
				c0.2,0.1,0.5,0,0.7-0.2c0.3-0.3,0.3-0.7,0.1-1c0.2-1.1-0.1-2.2-0.8-3c-0.8-0.8-1.9-1.1-3-0.9c-0.3-0.2-0.7-0.2-1,0.1
				c-0.2,0.2-0.3,0.5-0.2,0.7l-0.9,0.9c-0.2-0.1-0.5,0-0.7,0.2s-0.3,0.5-0.2,0.7l-0.9,0.9c-0.2-0.1-0.5,0-0.7,0.2
				c-0.2,0.2-0.3,0.5-0.2,0.7l-0.9,0.9c-0.2-0.1-0.5,0-0.7,0.2c-0.3,0.3-0.3,0.8,0,1.1c0.2,0.2,0.5,0.3,0.7,0.2l0.9,1
				c-0.1,0.3,0,0.5,0.2,0.7c0.2,0.2,0.5,0.3,0.7,0.2l0.9,0.9c-0.1,0.3,0,0.5,0.2,0.7c0.3,0.3,0.8,0.3,1.1,0c0.2-0.2,0.3-0.5,0.2-0.7
				l0.9-0.9C52.1,93.7,52.3,93.6,52.5,93.4z M50,94L49,93.1c0-0.1,0-0.3,0-0.4l0.9-0.9c0.1,0,0.3,0,0.4,0l0.9,0.9c0,0.1,0,0.3,0,0.4
				L50.3,94C50.2,94,50.1,94,50,94z M47.2,90.9l0.9-0.9c0.1,0,0.3,0,0.4,0l0.9,1c0,0.1,0,0.2,0,0.4l-0.9,1c-0.1,0-0.2,0-0.4,0
				l-0.9-1C47.2,91.1,47.2,91,47.2,90.9z M52.2,86.2l0.9,1c0,0.1,0,0.2,0,0.4l-0.9,1c-0.1,0-0.2,0-0.4,0l-0.9-1c0-0.1,0-0.3,0-0.4
				l0.9-0.9C51.9,86.2,52.1,86.2,52.2,86.2z M55,89c0,0.1,0,0.3,0,0.4L54,90.3c-0.1,0-0.3,0-0.4,0l-0.9-0.9c0-0.1,0-0.3,0-0.4
				l0.9-0.9c0.1,0,0.3,0,0.4,0L55,89z M51.8,92.2l-0.9-0.9c0-0.1,0-0.3,0-0.4l0.9-0.9c0.1,0,0.3,0,0.4,0l0.9,0.9c0,0.1,0,0.3,0,0.4
				l-0.9,0.9C52.1,92.1,51.9,92.1,51.8,92.2z M50.3,88.1l0.9,1c0,0.1,0,0.2,0,0.4l-0.9,1c-0.1,0-0.2,0-0.4,0l-0.9-1
				c0-0.1,0-0.3,0-0.4l0.9-0.9C50.1,88.1,50.2,88.1,50.3,88.1z M54.9,86.3c0.6,0.6,0.8,1.4,0.7,2.2c0,0,0,0-0.1,0l-0.9-0.9
				c0.1-0.3,0-0.5-0.2-0.7c-0.2-0.2-0.5-0.3-0.7-0.2l-0.9-1c0,0,0,0,0-0.1C53.5,85.4,54.3,85.7,54.9,86.3z"/>
			<path fill="#FFFFFF" d="M101.8,43.7c0.2-0.2,0.3-0.5,0.2-0.7l0.9-0.9c0.2,0.1,0.5,0,0.7-0.2c0.2-0.2,0.3-0.5,0.2-0.7l0.9-0.9
				c0.2,0.1,0.5,0,0.7-0.2c0.3-0.3,0.3-0.7,0.1-1c0.2-1.1-0.1-2.2-0.8-3c-0.8-0.8-1.9-1.1-3-0.9c-0.3-0.2-0.7-0.2-1,0.1
				c-0.2,0.2-0.3,0.5-0.2,0.7l-0.9,0.9c-0.2-0.1-0.5,0-0.7,0.2c-0.2,0.2-0.3,0.5-0.2,0.7l-0.9,0.9c-0.2-0.1-0.5,0-0.7,0.2
				c-0.2,0.2-0.3,0.5-0.2,0.7l-0.9,0.9c-0.2-0.1-0.5,0-0.7,0.2c-0.3,0.3-0.3,0.8,0,1.1c0.2,0.2,0.5,0.3,0.7,0.2l0.9,1
				c-0.1,0.3,0,0.5,0.2,0.7c0.2,0.2,0.5,0.3,0.7,0.2l0.9,0.9c-0.1,0.3,0,0.5,0.2,0.7c0.3,0.3,0.8,0.3,1.1,0c0.2-0.2,0.3-0.5,0.2-0.7
				l0.9-0.9C101.3,44,101.6,43.9,101.8,43.7z M99.2,44.3l-0.9-0.9c0-0.1,0-0.3,0-0.4l0.9-0.9c0.1,0,0.3,0,0.4,0l0.9,0.9
				c0,0.1,0,0.3,0,0.4l-0.9,0.9C99.5,44.3,99.4,44.3,99.2,44.3z M96.5,41.1l0.9-0.9c0.1,0,0.3,0,0.4,0l0.9,1c0,0.1,0,0.2,0,0.4
				l-0.9,1c-0.1,0-0.2,0-0.4,0l-0.9-1C96.5,41.4,96.5,41.3,96.5,41.1z M101.5,36.5l0.9,1c0,0.1,0,0.2,0,0.4l-0.9,1
				c-0.1,0-0.2,0-0.4,0l-0.9-1c0-0.1,0-0.3,0-0.4l0.9-0.9C101.2,36.5,101.3,36.5,101.5,36.5z M104.2,39.3c0,0.1,0,0.3,0,0.4
				l-0.9,0.9c-0.1,0-0.3,0-0.4,0l-0.9-0.9c0-0.1,0-0.3,0-0.4l0.9-0.9c0.1,0,0.3,0,0.4,0L104.2,39.3z M101.1,42.5l-0.9-0.9
				c0-0.1,0-0.3,0-0.4l0.9-0.9c0.1,0,0.3,0,0.4,0l0.9,0.9c0,0.1,0,0.3,0,0.4l-0.9,0.9C101.3,42.4,101.2,42.4,101.1,42.5z M99.6,38.3
				l0.9,1c0,0.1,0,0.2,0,0.4l-0.9,1c-0.1,0-0.2,0-0.4,0l-0.9-1c0-0.1,0-0.3,0-0.4l0.9-0.9C99.4,38.4,99.5,38.4,99.6,38.3z
				 M104.2,36.6c0.6,0.6,0.8,1.4,0.7,2.2c0,0,0,0-0.1,0l-0.9-0.9c0.1-0.3,0-0.5-0.2-0.7s-0.5-0.3-0.7-0.2l-0.9-1c0,0,0,0,0-0.1
				C102.8,35.7,103.6,36,104.2,36.6z"/>
			<path fill="#FFFFFF" d="M100.3,91.9c0.2-0.2,0.3-0.5,0.2-0.7l0.9-0.9c0.2,0.1,0.5,0,0.7-0.2c0.2-0.2,0.3-0.5,0.2-0.7l0.9-0.9
				c0.2,0.1,0.5,0,0.7-0.2c0.3-0.3,0.3-0.7,0.1-1c0.2-1.1-0.1-2.2-0.8-3c-0.8-0.8-1.9-1.1-3-0.9c-0.3-0.2-0.7-0.2-1,0.1
				c-0.2,0.2-0.3,0.5-0.2,0.7L98.1,85c-0.2-0.1-0.5,0-0.7,0.2c-0.2,0.2-0.3,0.5-0.2,0.7l-0.9,0.9c-0.2-0.1-0.5,0-0.7,0.2
				c-0.2,0.2-0.3,0.5-0.2,0.7l-0.9,0.9c-0.2-0.1-0.5,0-0.7,0.2c-0.3,0.3-0.3,0.8,0,1.1c0.2,0.2,0.5,0.3,0.7,0.2l0.9,1
				c-0.1,0.3,0,0.5,0.2,0.7c0.2,0.2,0.5,0.3,0.7,0.2l0.9,0.9c-0.1,0.3,0,0.5,0.2,0.7c0.3,0.3,0.8,0.3,1.1,0c0.2-0.2,0.3-0.5,0.2-0.7
				l0.9-0.9C99.8,92.1,100.1,92.1,100.3,91.9z M97.8,92.5l-0.9-0.9c0-0.1,0-0.3,0-0.4l0.9-0.9c0.1,0,0.3,0,0.4,0l0.9,0.9
				c0,0.1,0,0.3,0,0.4l-0.9,0.9C98,92.4,97.9,92.4,97.8,92.5z M95,89.3l0.9-0.9c0.1,0,0.3,0,0.4,0l0.9,1c0,0.1,0,0.2,0,0.4l-0.9,1
				c-0.1,0-0.2,0-0.4,0l-0.9-1C95,89.6,95,89.4,95,89.3z M100,84.6l0.9,1c0,0.1,0,0.2,0,0.4l-0.9,1c-0.1,0-0.2,0-0.4,0l-0.9-1
				c0-0.1,0-0.3,0-0.4l0.9-0.9C99.7,84.7,99.9,84.7,100,84.6z M102.8,87.4c0,0.1,0,0.3,0,0.4l-0.9,0.9c-0.1,0-0.3,0-0.4,0l-0.9-0.9
				c0-0.1,0-0.3,0-0.4l0.9-0.9c0.1,0,0.3,0,0.4,0L102.8,87.4z M99.6,90.6l-0.9-0.9c0-0.1,0-0.3,0-0.4l0.9-0.9c0.1,0,0.3,0,0.4,0
				l0.9,0.9c0,0.1,0,0.3,0,0.4l-0.9,0.9C99.9,90.6,99.7,90.6,99.6,90.6z M98.1,86.5l0.9,1c0,0.1,0,0.2,0,0.4l-0.9,1
				c-0.1,0-0.2,0-0.4,0l-0.9-1c0-0.1,0-0.3,0-0.4l0.9-0.9C97.9,86.5,98,86.5,98.1,86.5z M102.7,84.7c0.6,0.6,0.8,1.4,0.7,2.2
				c0,0,0,0-0.1,0l-0.9-0.9c0.1-0.3,0-0.5-0.2-0.7c-0.2-0.2-0.5-0.3-0.7-0.2l-0.9-1c0,0,0,0,0-0.1C101.3,83.9,102.1,84.1,102.7,84.7
				z"/>
			<line fill="none" stroke="#FFFFFF" stroke-width="0.5" stroke-miterlimit="10" x1="84.1" y1="56.8" x2="93" y2="47.8"/>
			<line fill="none" stroke="#FFFFFF" stroke-width="0.5" stroke-miterlimit="10" x1="59.4" y1="81.7" x2="68.3" y2="72.7"/>
			<line fill="none" stroke="#FFFFFF" stroke-width="0.5" stroke-miterlimit="10" x1="84.1" y1="72.6" x2="93.1" y2="81.6"/>
			<line fill="none" stroke="#FFFFFF" stroke-width="0.5" stroke-miterlimit="10" x1="59.4" y1="47.7" x2="68.4" y2="56.7"/>
			<path fill="#FFFFFF" d="M124.9,67.1c0.2-0.2,0.3-0.5,0.2-0.7l0.9-0.9c0.2,0.1,0.5,0,0.7-0.2c0.2-0.2,0.3-0.5,0.2-0.7l0.9-0.9
				c0.2,0.1,0.5,0,0.7-0.2c0.3-0.3,0.3-0.7,0.1-1c0.2-1.1-0.1-2.2-0.8-3c-0.8-0.8-1.9-1.1-3-0.9c-0.3-0.2-0.7-0.2-1,0.1
				c-0.2,0.2-0.3,0.5-0.2,0.7l-0.9,0.9c-0.2-0.1-0.5,0-0.7,0.2c-0.2,0.2-0.3,0.5-0.2,0.7l-0.9,0.9c-0.2-0.1-0.5,0-0.7,0.2
				c-0.2,0.2-0.3,0.5-0.2,0.7l-0.9,0.9c-0.2-0.1-0.5,0-0.7,0.2c-0.3,0.3-0.3,0.8,0,1.1c0.2,0.2,0.5,0.3,0.7,0.2l0.9,1
				c-0.1,0.3,0,0.5,0.2,0.7c0.2,0.2,0.5,0.3,0.7,0.2l0.9,0.9c-0.1,0.3,0,0.5,0.2,0.7c0.3,0.3,0.8,0.3,1.1,0c0.2-0.2,0.3-0.5,0.2-0.7
				l0.9-0.9C124.5,67.3,124.7,67.3,124.9,67.1z M122.4,67.7l-0.9-0.9c0-0.1,0-0.3,0-0.4l0.9-0.9c0.1,0,0.3,0,0.4,0l0.9,0.9
				c0,0.1,0,0.3,0,0.4l-0.9,0.9C122.6,67.6,122.5,67.6,122.4,67.7z M119.6,64.5l0.9-0.9c0.1,0,0.3,0,0.4,0l0.9,1c0,0.1,0,0.2,0,0.4
				l-0.9,1c-0.1,0-0.2,0-0.4,0l-0.9-1C119.6,64.7,119.6,64.6,119.6,64.5z M124.6,59.8l0.9,1c0,0.1,0,0.2,0,0.4l-0.9,1
				c-0.1,0-0.2,0-0.4,0l-0.9-1c0-0.1,0-0.3,0-0.4l0.9-0.9C124.3,59.8,124.5,59.8,124.6,59.8z M127.4,62.6c0,0.1,0,0.3,0,0.4
				l-0.9,0.9c-0.1,0-0.3,0-0.4,0l-0.9-0.9c0-0.1,0-0.3,0-0.4l0.9-0.9c0.1,0,0.3,0,0.4,0L127.4,62.6z M124.2,65.8l-0.9-0.9
				c0-0.1,0-0.3,0-0.4l0.9-0.9c0.1,0,0.3,0,0.4,0l0.9,0.9c0,0.1,0,0.3,0,0.4l-0.9,0.9C124.5,65.8,124.3,65.8,124.2,65.8z
				 M122.7,61.7l0.9,1c0,0.1,0,0.2,0,0.4l-0.9,1c-0.1,0-0.2,0-0.4,0l-0.9-1c0-0.1,0-0.3,0-0.4l0.9-0.9
				C122.5,61.7,122.6,61.7,122.7,61.7z M127.3,59.9c0.6,0.6,0.8,1.4,0.7,2.2c0,0,0,0-0.1,0l-0.9-0.9c0.1-0.3,0-0.5-0.2-0.7
				c-0.2-0.2-0.5-0.3-0.7-0.2l-0.9-1c0,0,0,0,0-0.1C125.9,59.1,126.7,59.3,127.3,59.9z"/>
			<line fill="none" stroke="#FFFFFF" stroke-width="0.5" stroke-miterlimit="10" x1="108.7" y1="47.8" x2="117.7" y2="56.8"/>
			<line fill="none" stroke="#FFFFFF" stroke-width="0.5" stroke-miterlimit="10" x1="84" y1="22.8" x2="93" y2="31.9"/>
			<path fill="#FFFFFF" d="M75.6,116.8c0.2-0.2,0.3-0.5,0.2-0.7l0.9-0.9c0.2,0.1,0.5,0,0.7-0.2c0.2-0.2,0.3-0.5,0.2-0.7l0.9-0.9
				c0.2,0.1,0.5,0,0.7-0.2c0.3-0.3,0.3-0.7,0.1-1c0.2-1.1-0.1-2.2-0.8-3c-0.8-0.8-1.9-1.1-3-0.9c-0.3-0.2-0.7-0.2-1,0.1
				c-0.2,0.2-0.3,0.5-0.2,0.7l-0.9,0.9c-0.2-0.1-0.5,0-0.7,0.2c-0.2,0.2-0.3,0.5-0.2,0.7l-0.9,0.9c-0.2-0.1-0.5,0-0.7,0.2
				c-0.2,0.2-0.3,0.5-0.2,0.7l-0.9,0.9c-0.2-0.1-0.5,0-0.7,0.2c-0.3,0.3-0.3,0.8,0,1.1c0.2,0.2,0.5,0.3,0.7,0.2l0.9,1
				c-0.1,0.3,0,0.5,0.2,0.7c0.2,0.2,0.5,0.3,0.7,0.2l0.9,0.9c-0.1,0.3,0,0.5,0.2,0.7c0.3,0.3,0.8,0.3,1.1,0c0.2-0.2,0.3-0.5,0.2-0.7
				l0.9-0.9C75.2,117,75.5,117,75.6,116.8z M73.1,117.4l-0.9-0.9c0-0.1,0-0.3,0-0.4l0.9-0.9c0.1,0,0.3,0,0.4,0l0.9,0.9
				c0,0.1,0,0.3,0,0.4l-0.9,0.9C73.3,117.3,73.2,117.3,73.1,117.4z M70.3,114.2l0.9-0.9c0.1,0,0.3,0,0.4,0l0.9,1c0,0.1,0,0.2,0,0.4
				l-0.9,1c-0.1,0-0.2,0-0.4,0l-0.9-1C70.3,114.4,70.3,114.3,70.3,114.2z M75.3,109.5l0.9,1c0,0.1,0,0.2,0,0.4l-0.9,1
				c-0.1,0-0.2,0-0.4,0l-0.9-1c0-0.1,0-0.3,0-0.4l0.9-0.9C75.1,109.6,75.2,109.6,75.3,109.5z M78.1,112.3c0,0.1,0,0.3,0,0.4
				l-0.9,0.9c-0.1,0-0.3,0-0.4,0l-0.9-0.9c0-0.1,0-0.3,0-0.4l0.9-0.9c0.1,0,0.3,0,0.4,0L78.1,112.3z M74.9,115.5l-0.9-0.9
				c0-0.1,0-0.3,0-0.4l0.9-0.9c0.1,0,0.3,0,0.4,0l0.9,0.9c0,0.1,0,0.3,0,0.4l-0.9,0.9C75.2,115.5,75.1,115.5,74.9,115.5z
				 M73.5,111.4l0.9,1c0,0.1,0,0.2,0,0.4l-0.9,1c-0.1,0-0.2,0-0.4,0l-0.9-1c0-0.1,0-0.3,0-0.4l0.9-0.9
				C73.2,111.4,73.3,111.4,73.5,111.4z M78,109.6c0.6,0.6,0.8,1.4,0.7,2.2c0,0,0,0-0.1,0l-0.9-0.9c0.1-0.3,0-0.5-0.2-0.7
				c-0.2-0.2-0.5-0.3-0.7-0.2l-0.9-1c0,0,0,0,0-0.1C76.6,108.8,77.4,109,78,109.6z"/>
			<line fill="none" stroke="#FFFFFF" stroke-width="0.5" stroke-miterlimit="10" x1="59.4" y1="97.5" x2="68.4" y2="106.5"/>
			<line fill="none" stroke="#FFFFFF" stroke-width="0.5" stroke-miterlimit="10" x1="34.7" y1="72.6" x2="43.7" y2="81.6"/>
			<line fill="none" stroke="#FFFFFF" stroke-width="0.5" stroke-miterlimit="10" x1="107.2" y1="80.2" x2="116.2" y2="71.1"/>
			<path fill="#FFFFFF" d="M126.3,19c0.2-0.2,0.3-0.5,0.2-0.7l0.9-0.9c0.2,0.1,0.5,0,0.7-0.2c0.2-0.2,0.3-0.5,0.2-0.7l0.9-0.9
				c0.2,0.1,0.5,0,0.7-0.2c0.3-0.3,0.3-0.7,0.1-1c0.2-1.1-0.1-2.2-0.8-3c-0.8-0.8-1.9-1.1-3-0.9c-0.3-0.2-0.7-0.2-1,0.1
				c-0.2,0.2-0.3,0.5-0.2,0.7l-0.9,0.9c-0.2-0.1-0.5,0-0.7,0.2c-0.2,0.2-0.3,0.5-0.2,0.7l-0.9,0.9c-0.2-0.1-0.5,0-0.7,0.2
				c-0.2,0.2-0.3,0.5-0.2,0.7l-0.9,0.9c-0.2-0.1-0.5,0-0.7,0.2c-0.3,0.3-0.3,0.8,0,1.1c0.2,0.2,0.5,0.3,0.7,0.2l0.9,1
				c-0.1,0.3,0,0.5,0.2,0.7c0.2,0.2,0.5,0.3,0.7,0.2l0.9,0.9c-0.1,0.3,0,0.5,0.2,0.7c0.3,0.3,0.8,0.3,1.1,0c0.2-0.2,0.3-0.5,0.2-0.7
				l0.9-0.9C125.8,19.3,126.1,19.2,126.3,19z M123.7,19.6l-0.9-0.9c0-0.1,0-0.3,0-0.4l0.9-0.9c0.1,0,0.3,0,0.4,0l0.9,0.9
				c0,0.1,0,0.3,0,0.4l-0.9,0.9C124,19.6,123.9,19.6,123.7,19.6z M121,16.4l0.9-0.9c0.1,0,0.3,0,0.4,0l0.9,1c0,0.1,0,0.2,0,0.4
				l-0.9,1c-0.1,0-0.2,0-0.4,0l-0.9-1C121,16.7,121,16.6,121,16.4z M126,11.8l0.9,1c0,0.1,0,0.2,0,0.4l-0.9,1c-0.1,0-0.2,0-0.4,0
				l-0.9-1c0-0.1,0-0.3,0-0.4l0.9-0.9C125.7,11.8,125.8,11.8,126,11.8z M128.7,14.6c0,0.1,0,0.3,0,0.4l-0.9,0.9c-0.1,0-0.3,0-0.4,0
				l-0.9-0.9c0-0.1,0-0.3,0-0.4l0.9-0.9c0.1,0,0.3,0,0.4,0L128.7,14.6z M125.6,17.8l-0.9-0.9c0-0.1,0-0.3,0-0.4l0.9-0.9
				c0.1,0,0.3,0,0.4,0l0.9,0.9c0,0.1,0,0.3,0,0.4l-0.9,0.9C125.8,17.7,125.7,17.7,125.6,17.8z M124.1,13.6l0.9,1c0,0.1,0,0.2,0,0.4
				l-0.9,1c-0.1,0-0.2,0-0.4,0l-0.9-1c0-0.1,0-0.3,0-0.4l0.9-0.9C123.9,13.7,124,13.7,124.1,13.6z M128.7,11.8
				c0.6,0.6,0.8,1.4,0.7,2.2c0,0,0,0-0.1,0l-0.9-0.9c0.1-0.3,0-0.5-0.2-0.7c-0.2-0.2-0.5-0.3-0.7-0.2l-0.9-1c0,0,0,0,0-0.1
				C127.3,11,128.1,11.2,128.7,11.8z"/>
			<line fill="none" stroke="#FFFFFF" stroke-width="0.5" stroke-miterlimit="10" x1="108.6" y1="32.1" x2="117.5" y2="23.1"/>
			<path fill="#FFFFFF" d="M149.4,42.3c0.2-0.2,0.3-0.5,0.2-0.7l0.9-0.9c0.2,0.1,0.5,0,0.7-0.2c0.2-0.2,0.3-0.5,0.2-0.7l0.9-0.9
				c0.2,0.1,0.5,0,0.7-0.2c0.3-0.3,0.3-0.7,0.1-1c0.2-1.1-0.1-2.2-0.8-3c-0.8-0.8-1.9-1.1-3-0.9c-0.3-0.2-0.7-0.2-1,0.1
				c-0.2,0.2-0.3,0.5-0.2,0.7l-0.9,0.9c-0.2-0.1-0.5,0-0.7,0.2c-0.2,0.2-0.3,0.5-0.2,0.7l-0.9,0.9c-0.2-0.1-0.5,0-0.7,0.2
				c-0.2,0.2-0.3,0.5-0.2,0.7l-0.9,0.9c-0.2-0.1-0.5,0-0.7,0.2c-0.3,0.3-0.3,0.8,0,1.1c0.2,0.2,0.5,0.3,0.7,0.2l0.9,1
				c-0.1,0.3,0,0.5,0.2,0.7s0.5,0.3,0.7,0.2l0.9,0.9c-0.1,0.3,0,0.5,0.2,0.7c0.3,0.3,0.8,0.3,1.1,0c0.2-0.2,0.3-0.5,0.2-0.7l0.9-0.9
				C149,42.6,149.2,42.5,149.4,42.3z M146.9,42.9l-0.9-0.9c0-0.1,0-0.3,0-0.4l0.9-0.9c0.1,0,0.3,0,0.4,0l0.9,0.9c0,0.1,0,0.3,0,0.4
				l-0.9,0.9C147.1,42.9,147,42.9,146.9,42.9z M144.1,39.7l0.9-0.9c0.1,0,0.3,0,0.4,0l0.9,1c0,0.1,0,0.2,0,0.4l-0.9,1
				c-0.1,0-0.2,0-0.4,0l-0.9-1C144.1,40,144.1,39.9,144.1,39.7z M149.1,35.1l0.9,1c0,0.1,0,0.2,0,0.4l-0.9,1c-0.1,0-0.2,0-0.4,0
				l-0.9-1c0-0.1,0-0.3,0-0.4l0.9-0.9C148.8,35.1,149,35.1,149.1,35.1z M151.9,37.9c0,0.1,0,0.3,0,0.4l-0.9,0.9c-0.1,0-0.3,0-0.4,0
				l-0.9-0.9c0-0.1,0-0.3,0-0.4l0.9-0.9c0.1,0,0.3,0,0.4,0L151.9,37.9z M148.7,41.1l-0.9-0.9c0-0.1,0-0.3,0-0.4l0.9-0.9
				c0.1,0,0.3,0,0.4,0l0.9,0.9c0,0.1,0,0.3,0,0.4l-0.9,0.9C149,41,148.8,41,148.7,41.1z M147.2,36.9l0.9,1c0,0.1,0,0.2,0,0.4l-0.9,1
				c-0.1,0-0.2,0-0.4,0l-0.9-1c0-0.1,0-0.3,0-0.4l0.9-0.9C147,37,147.1,37,147.2,36.9z M151.8,35.2c0.6,0.6,0.8,1.4,0.7,2.2
				c0,0,0,0-0.1,0l-0.9-0.9c0.1-0.3,0-0.5-0.2-0.7s-0.5-0.3-0.7-0.2l-0.9-1c0,0,0,0,0-0.1C150.4,34.3,151.2,34.6,151.8,35.2z"/>
			<line fill="none" stroke="#FFFFFF" stroke-width="0.5" stroke-miterlimit="10" x1="133.2" y1="23" x2="142.2" y2="32.1"/>
			<line fill="none" stroke="#FFFFFF" stroke-width="0.5" stroke-miterlimit="10" x1="108.5" y1="-1.9" x2="117.5" y2="7.2"/>
			<line fill="none" stroke="#FFFFFF" stroke-width="0.5" stroke-miterlimit="10" x1="131.7" y1="55.4" x2="140.7" y2="46.4"/>
			<line fill="none" stroke="#FFFFFF" stroke-width="0.5" stroke-miterlimit="10" x1="133.9" y1="6.6" x2="142.8" y2="-2.5"/>
			<line fill="none" stroke="#FFFFFF" stroke-width="0.5" stroke-miterlimit="10" x1="158.5" y1="-2.5" x2="167.5" y2="6.6"/>
			<line fill="none" stroke="#FFFFFF" stroke-width="0.5" stroke-miterlimit="10" x1="157" y1="29.9" x2="166" y2="20.9"/>
			<line fill="none" stroke="#FFFFFF" stroke-width="0.5" stroke-miterlimit="10" x1="82.5" y1="105.1" x2="91.5" y2="96"/>
			<path fill="#FFFFFF" d="M122.5,114.2c0.2-0.2,0.3-0.5,0.2-0.7l0.9-0.9c0.2,0.1,0.5,0,0.7-0.2c0.2-0.2,0.3-0.5,0.2-0.7l0.9-0.9
				c0.2,0.1,0.5,0,0.7-0.2c0.3-0.3,0.3-0.7,0.1-1c0.2-1.1-0.1-2.2-0.8-3c-0.8-0.8-1.9-1.1-3-0.9c-0.3-0.2-0.7-0.2-1,0.1
				c-0.2,0.2-0.3,0.5-0.2,0.7l-0.9,0.9c-0.2-0.1-0.5,0-0.7,0.2c-0.2,0.2-0.3,0.5-0.2,0.7l-0.9,0.9c-0.2-0.1-0.5,0-0.7,0.2
				s-0.3,0.5-0.2,0.7l-0.9,0.9c-0.2-0.1-0.5,0-0.7,0.2c-0.3,0.3-0.3,0.8,0,1.1c0.2,0.2,0.5,0.3,0.7,0.2l0.9,1
				c-0.1,0.3,0,0.5,0.2,0.7c0.2,0.2,0.5,0.3,0.7,0.2l0.9,0.9c-0.1,0.3,0,0.5,0.2,0.7c0.3,0.3,0.8,0.3,1.1,0c0.2-0.2,0.3-0.5,0.2-0.7
				l0.9-0.9C122,114.5,122.3,114.4,122.5,114.2z M119.9,114.8l-0.9-0.9c0-0.1,0-0.3,0-0.4l0.9-0.9c0.1,0,0.3,0,0.4,0l0.9,0.9
				c0,0.1,0,0.3,0,0.4l-0.9,0.9C120.1,114.8,120,114.8,119.9,114.8z M117.1,111.6l0.9-0.9c0.1,0,0.3,0,0.4,0l0.9,1
				c0,0.1,0,0.2,0,0.4l-0.9,1c-0.1,0-0.2,0-0.4,0l-0.9-1C117.1,111.9,117.1,111.7,117.1,111.6z M122.1,107l0.9,1c0,0.1,0,0.2,0,0.4
				l-0.9,1c-0.1,0-0.2,0-0.4,0l-0.9-1c0-0.1,0-0.3,0-0.4l0.9-0.9C121.9,107,122,107,122.1,107z M124.9,109.8c0,0.1,0,0.3,0,0.4
				l-0.9,0.9c-0.1,0-0.3,0-0.4,0l-0.9-0.9c0-0.1,0-0.3,0-0.4l0.9-0.9c0.1,0,0.3,0,0.4,0L124.9,109.8z M121.7,112.9l-0.9-0.9
				c0-0.1,0-0.3,0-0.4l0.9-0.9c0.1,0,0.3,0,0.4,0l0.9,0.9c0,0.1,0,0.3,0,0.4l-0.9,0.9C122,112.9,121.9,112.9,121.7,112.9z
				 M120.3,108.8l0.9,1c0,0.1,0,0.2,0,0.4l-0.9,1c-0.1,0-0.2,0-0.4,0l-0.9-1c0-0.1,0-0.3,0-0.4l0.9-0.9
				C120,108.9,120.1,108.9,120.3,108.8z M124.8,107c0.6,0.6,0.8,1.4,0.7,2.2c0,0,0,0-0.1,0l-0.9-0.9c0.1-0.3,0-0.5-0.2-0.7
				c-0.2-0.2-0.5-0.3-0.7-0.2l-0.9-1c0,0,0,0,0-0.1C123.4,106.2,124.2,106.4,124.8,107z"/>
			<line fill="none" stroke="#FFFFFF" stroke-width="0.5" stroke-miterlimit="10" x1="106.2" y1="94.9" x2="115.2" y2="104"/>
			<path fill="#FFFFFF" d="M147.1,89.4c0.2-0.2,0.3-0.5,0.2-0.7l0.9-0.9c0.2,0.1,0.5,0,0.7-0.2c0.2-0.2,0.3-0.5,0.2-0.7l0.9-0.9
				c0.2,0.1,0.5,0,0.7-0.2c0.3-0.3,0.3-0.7,0.1-1c0.2-1.1-0.1-2.2-0.8-3c-0.8-0.8-1.9-1.1-3-0.9c-0.3-0.2-0.7-0.2-1,0.1
				c-0.2,0.2-0.3,0.5-0.2,0.7l-0.9,0.9c-0.2-0.1-0.5,0-0.7,0.2c-0.2,0.2-0.3,0.5-0.2,0.7l-0.9,0.9c-0.2-0.1-0.5,0-0.7,0.2
				c-0.2,0.2-0.3,0.5-0.2,0.7l-0.9,0.9c-0.2-0.1-0.5,0-0.7,0.2c-0.3,0.3-0.3,0.8,0,1.1c0.2,0.2,0.5,0.3,0.7,0.2l0.9,1
				c-0.1,0.3,0,0.5,0.2,0.7c0.2,0.2,0.5,0.3,0.7,0.2l0.9,0.9c-0.1,0.3,0,0.5,0.2,0.7c0.3,0.3,0.8,0.3,1.1,0c0.2-0.2,0.3-0.5,0.2-0.7
				l0.9-0.9C146.6,89.6,146.9,89.6,147.1,89.4z M144.5,90l-0.9-0.9c0-0.1,0-0.3,0-0.4l0.9-0.9c0.1,0,0.3,0,0.4,0l0.9,0.9
				c0,0.1,0,0.3,0,0.4l-0.9,0.9C144.8,90,144.6,90,144.5,90z M141.7,86.8l0.9-0.9c0.1,0,0.3,0,0.4,0l0.9,1c0,0.1,0,0.2,0,0.4l-0.9,1
				c-0.1,0-0.2,0-0.4,0l-0.9-1C141.7,87.1,141.7,86.9,141.7,86.8z M146.7,82.1l0.9,1c0,0.1,0,0.2,0,0.4l-0.9,1c-0.1,0-0.2,0-0.4,0
				l-0.9-1c0-0.1,0-0.3,0-0.4l0.9-0.9C146.5,82.2,146.6,82.2,146.7,82.1z M149.5,84.9c0,0.1,0,0.3,0,0.4l-0.9,0.9
				c-0.1,0-0.3,0-0.4,0l-0.9-0.9c0-0.1,0-0.3,0-0.4l0.9-0.9c0.1,0,0.3,0,0.4,0L149.5,84.9z M146.3,88.1l-0.9-0.9c0-0.1,0-0.3,0-0.4
				l0.9-0.9c0.1,0,0.3,0,0.4,0l0.9,0.9c0,0.1,0,0.3,0,0.4l-0.9,0.9C146.6,88.1,146.5,88.1,146.3,88.1z M144.9,84l0.9,1
				c0,0.1,0,0.2,0,0.4l-0.9,1c-0.1,0-0.2,0-0.4,0l-0.9-1c0-0.1,0-0.3,0-0.4l0.9-0.9C144.6,84,144.8,84,144.9,84z M149.4,82.2
				c0.6,0.6,0.8,1.4,0.7,2.2c0,0,0,0-0.1,0l-0.9-0.9c0.1-0.3,0-0.5-0.2-0.7c-0.2-0.2-0.5-0.3-0.7-0.2l-0.9-1c0,0,0,0,0-0.1
				C148,81.4,148.8,81.6,149.4,82.2z"/>
			<line fill="none" stroke="#FFFFFF" stroke-width="0.5" stroke-miterlimit="10" x1="130.8" y1="70.1" x2="139.8" y2="79.1"/>
			<path fill="#FFFFFF" d="M97.8,139.1c0.2-0.2,0.3-0.5,0.2-0.7l0.9-0.9c0.2,0.1,0.5,0,0.7-0.2c0.2-0.2,0.3-0.5,0.2-0.7l0.9-0.9
				c0.2,0.1,0.5,0,0.7-0.2c0.3-0.3,0.3-0.7,0.1-1c0.2-1.1-0.1-2.2-0.8-3c-0.8-0.8-1.9-1.1-3-0.9c-0.3-0.2-0.7-0.2-1,0.1
				c-0.2,0.2-0.3,0.5-0.2,0.7l-0.9,0.9c-0.2-0.1-0.5,0-0.7,0.2c-0.2,0.2-0.3,0.5-0.2,0.7l-0.9,0.9c-0.2-0.1-0.5,0-0.7,0.2
				c-0.2,0.2-0.3,0.5-0.2,0.7l-0.9,0.9c-0.2-0.1-0.5,0-0.7,0.2c-0.3,0.3-0.3,0.8,0,1.1c0.2,0.2,0.5,0.3,0.7,0.2l0.9,1
				c-0.1,0.3,0,0.5,0.2,0.7c0.2,0.2,0.5,0.3,0.7,0.2l0.9,0.9c-0.1,0.3,0,0.5,0.2,0.7c0.3,0.3,0.8,0.3,1.1,0c0.2-0.2,0.3-0.5,0.2-0.7
				l0.9-0.9C97.3,139.4,97.6,139.3,97.8,139.1z M95.2,139.7l-0.9-0.9c0-0.1,0-0.3,0-0.4l0.9-0.9c0.1,0,0.3,0,0.4,0l0.9,0.9
				c0,0.1,0,0.3,0,0.4l-0.9,0.9C95.5,139.7,95.3,139.7,95.2,139.7z M92.4,136.5l0.9-0.9c0.1,0,0.3,0,0.4,0l0.9,1c0,0.1,0,0.2,0,0.4
				l-0.9,1c-0.1,0-0.2,0-0.4,0l-0.9-1C92.5,136.8,92.5,136.6,92.4,136.5z M97.4,131.8l0.9,1c0,0.1,0,0.2,0,0.4l-0.9,1
				c-0.1,0-0.2,0-0.4,0l-0.9-1c0-0.1,0-0.3,0-0.4l0.9-0.9C97.2,131.9,97.3,131.9,97.4,131.8z M100.2,134.6c0,0.1,0,0.3,0,0.4
				l-0.9,0.9c-0.1,0-0.3,0-0.4,0L98,135c0-0.1,0-0.3,0-0.4l0.9-0.9c0.1,0,0.3,0,0.4,0L100.2,134.6z M97.1,137.8l-0.9-0.9
				c0-0.1,0-0.3,0-0.4l0.9-0.9c0.1,0,0.3,0,0.4,0l0.9,0.9c0,0.1,0,0.3,0,0.4l-0.9,0.9C97.3,137.8,97.2,137.8,97.1,137.8z
				 M95.6,133.7l0.9,1c0,0.1,0,0.2,0,0.4l-0.9,1c-0.1,0-0.2,0-0.4,0l-0.9-1c0-0.1,0-0.3,0-0.4l0.9-0.9
				C95.3,133.7,95.5,133.7,95.6,133.7z M100.2,131.9c0.6,0.6,0.8,1.4,0.7,2.2c0,0,0,0-0.1,0l-0.9-0.9c0.1-0.3,0-0.5-0.2-0.7
				s-0.5-0.3-0.7-0.2l-0.9-1c0,0,0,0,0-0.1C98.8,131.1,99.6,131.3,100.2,131.9z"/>
			<line fill="none" stroke="#FFFFFF" stroke-width="0.5" stroke-miterlimit="10" x1="81.6" y1="119.8" x2="90.5" y2="128.8"/>
			<line fill="none" stroke="#FFFFFF" stroke-width="0.5" stroke-miterlimit="10" x1="129.3" y1="102.5" x2="138.3" y2="93.4"/>
			<path fill="#FFFFFF" d="M171.6,64.7c0.2-0.2,0.3-0.5,0.2-0.7l0.9-0.9c0.2,0.1,0.5,0,0.7-0.2s0.3-0.5,0.2-0.7l0.9-0.9
				c0.2,0.1,0.5,0,0.7-0.2c0.3-0.3,0.3-0.7,0.1-1c0.2-1.1-0.1-2.2-0.8-3c-0.8-0.8-1.9-1.1-3-0.9c-0.3-0.2-0.7-0.2-1,0.1
				c-0.2,0.2-0.3,0.5-0.2,0.7l-0.9,0.9c-0.2-0.1-0.5,0-0.7,0.2s-0.3,0.5-0.2,0.7l-0.9,0.9c-0.2-0.1-0.5,0-0.7,0.2
				c-0.2,0.2-0.3,0.5-0.2,0.7l-0.9,0.9c-0.2-0.1-0.5,0-0.7,0.2c-0.3,0.3-0.3,0.8,0,1.1c0.2,0.2,0.5,0.3,0.7,0.2l0.9,1
				c-0.1,0.3,0,0.5,0.2,0.7c0.2,0.2,0.5,0.3,0.7,0.2l0.9,0.9c-0.1,0.3,0,0.5,0.2,0.7c0.3,0.3,0.8,0.3,1.1,0c0.2-0.2,0.3-0.5,0.2-0.7
				l0.9-0.9C171.1,64.9,171.4,64.9,171.6,64.7z M169,65.3l-0.9-0.9c0-0.1,0-0.3,0-0.4L169,63c0.1,0,0.3,0,0.4,0l0.9,0.9
				c0,0.1,0,0.3,0,0.4l-0.9,0.9C169.3,65.2,169.1,65.2,169,65.3z M166.2,62.1l0.9-0.9c0.1,0,0.3,0,0.4,0l0.9,1c0,0.1,0,0.2,0,0.4
				l-0.9,1c-0.1,0-0.2,0-0.4,0l-0.9-1C166.3,62.3,166.3,62.2,166.2,62.1z M171.2,57.4l0.9,1c0,0.1,0,0.2,0,0.4l-0.9,1
				c-0.1,0-0.2,0-0.4,0l-0.9-1c0-0.1,0-0.3,0-0.4l0.9-0.9C171,57.4,171.1,57.4,171.2,57.4z M174,60.2c0,0.1,0,0.3,0,0.4l-0.9,0.9
				c-0.1,0-0.3,0-0.4,0l-0.9-0.9c0-0.1,0-0.3,0-0.4l0.9-0.9c0.1,0,0.3,0,0.4,0L174,60.2z M170.8,63.4l-0.9-0.9c0-0.1,0-0.3,0-0.4
				l0.9-0.9c0.1,0,0.3,0,0.4,0l0.9,0.9c0,0.1,0,0.3,0,0.4l-0.9,0.9C171.1,63.4,171,63.4,170.8,63.4z M169.4,59.3l0.9,1
				c0,0.1,0,0.2,0,0.4l-0.9,1c-0.1,0-0.2,0-0.4,0l-0.9-1c0-0.1,0-0.3,0-0.4l0.9-0.9C169.1,59.3,169.3,59.3,169.4,59.3z M173.9,57.5
				c0.6,0.6,0.8,1.4,0.7,2.2c0,0,0,0-0.1,0l-0.9-0.9c0.1-0.3,0-0.5-0.2-0.7c-0.2-0.2-0.5-0.3-0.7-0.2l-0.9-1c0,0,0,0,0-0.1
				C172.5,56.7,173.4,56.9,173.9,57.5z"/>
			<line fill="none" stroke="#FFFFFF" stroke-width="0.5" stroke-miterlimit="10" x1="155.3" y1="45.4" x2="164.3" y2="54.4"/>
			<line fill="none" stroke="#FFFFFF" stroke-width="0.5" stroke-miterlimit="10" x1="153.8" y1="77.8" x2="162.8" y2="68.7"/>
			<line fill="none" stroke="#FFFFFF" stroke-width="0.5" stroke-miterlimit="10" x1="104.6" y1="127.4" x2="113.6" y2="118.4"/>
			<path fill="#FFFFFF" d="M2.4,95c0.2-0.2,0.3-0.5,0.2-0.7l0.9-0.9c0.2,0.1,0.5,0,0.7-0.2c0.2-0.2,0.3-0.5,0.2-0.7l0.9-0.9
				c0.2,0.1,0.5,0,0.7-0.2c0.3-0.3,0.3-0.7,0.1-1c0.2-1.1-0.1-2.2-0.8-3c-0.8-0.8-1.9-1.1-3-0.9c-0.3-0.2-0.7-0.2-1,0.1
				c-0.2,0.2-0.3,0.5-0.2,0.7l-0.9,0.9c-0.2-0.1-0.5,0-0.7,0.2c-0.2,0.2-0.3,0.5-0.2,0.7L-1.6,90c-0.2-0.1-0.5,0-0.7,0.2
				c-0.2,0.2-0.3,0.5-0.2,0.7l-0.9,0.9c-0.2-0.1-0.5,0-0.7,0.2c-0.3,0.3-0.3,0.8,0,1.1c0.2,0.2,0.5,0.3,0.7,0.2l0.9,1
				c-0.1,0.3,0,0.5,0.2,0.7c0.2,0.2,0.5,0.3,0.7,0.2l0.9,0.9c-0.1,0.3,0,0.5,0.2,0.7c0.3,0.3,0.8,0.3,1.1,0c0.2-0.2,0.3-0.5,0.2-0.7
				l0.9-0.9C1.9,95.2,2.2,95.2,2.4,95z M-0.2,95.6l-0.9-0.9c0-0.1,0-0.3,0-0.4l0.9-0.9c0.1,0,0.3,0,0.4,0l0.9,0.9c0,0.1,0,0.3,0,0.4
				l-0.9,0.9C0.1,95.5,0,95.5-0.2,95.6z M-2.9,92.4l0.9-0.9c0.1,0,0.3,0,0.4,0l0.9,1c0,0.1,0,0.2,0,0.4l-0.9,1c-0.1,0-0.2,0-0.4,0
				l-0.9-1C-2.9,92.6-2.9,92.5-2.9,92.4z M2.1,87.7l0.9,1c0,0.1,0,0.2,0,0.4l-0.9,1c-0.1,0-0.2,0-0.4,0l-0.9-1c0-0.1,0-0.3,0-0.4
				l0.9-0.9C1.8,87.8,1.9,87.8,2.1,87.7z M4.8,90.5c0,0.1,0,0.3,0,0.4l-0.9,0.9c-0.1,0-0.3,0-0.4,0l-0.9-0.9c0-0.1,0-0.3,0-0.4
				l0.9-0.9c0.1,0,0.3,0,0.4,0L4.8,90.5z M1.7,93.7l-0.9-0.9c0-0.1,0-0.3,0-0.4l0.9-0.9c0.1,0,0.3,0,0.4,0L3,92.4c0,0.1,0,0.3,0,0.4
				l-0.9,0.9C1.9,93.7,1.8,93.7,1.7,93.7z M0.2,89.6l0.9,1c0,0.1,0,0.2,0,0.4l-0.9,1c-0.1,0-0.2,0-0.4,0l-0.9-1c0-0.1,0-0.3,0-0.4
				l0.9-0.9C0,89.6,0.1,89.6,0.2,89.6z M4.8,87.8c0.6,0.6,0.8,1.4,0.7,2.2c0,0,0,0-0.1,0l-0.9-0.9c0.1-0.3,0-0.5-0.2-0.7
				c-0.2-0.2-0.5-0.3-0.7-0.2l-0.9-1c0,0,0,0,0-0.1C3.4,87,4.2,87.2,4.8,87.8z"/>
			<line fill="none" stroke="#FFFFFF" stroke-width="0.5" stroke-miterlimit="10" x1="10" y1="82.5" x2="18.9" y2="73.5"/>
			<path fill="#FFFFFF" d="M0,193.1c0.2-0.2,0.3-0.5,0.2-0.7l0.9-0.9c0.2,0.1,0.5,0,0.7-0.2c0.2-0.2,0.3-0.5,0.2-0.7l0.9-0.9
				c0.2,0.1,0.5,0,0.7-0.2c0.3-0.3,0.3-0.7,0.1-1c0.2-1.1-0.1-2.2-0.8-3c-0.8-0.8-1.9-1.1-3-0.9c-0.3-0.2-0.7-0.2-1,0.1
				c-0.2,0.2-0.3,0.5-0.2,0.7l-0.9,0.9c-0.2-0.1-0.5,0-0.7,0.2c-0.2,0.2-0.3,0.5-0.2,0.7l-0.9,0.9c-0.2-0.1-0.5,0-0.7,0.2
				c-0.2,0.2-0.3,0.5-0.2,0.7l-0.9,0.9c-0.2-0.1-0.5,0-0.7,0.2c-0.3,0.3-0.3,0.8,0,1.1c0.2,0.2,0.5,0.3,0.7,0.2l0.9,1
				c-0.1,0.3,0,0.5,0.2,0.7c0.2,0.2,0.5,0.3,0.7,0.2l0.9,0.9c-0.1,0.3,0,0.5,0.2,0.7c0.3,0.3,0.8,0.3,1.1,0c0.2-0.2,0.3-0.5,0.2-0.7
				l0.9-0.9C-0.4,193.3-0.2,193.3,0,193.1z M-2.5,193.7l-0.9-0.9c0-0.1,0-0.3,0-0.4l0.9-0.9c0.1,0,0.3,0,0.4,0l0.9,0.9
				c0,0.1,0,0.3,0,0.4l-0.9,0.9C-2.3,193.6-2.4,193.6-2.5,193.7z M-5.3,190.5l0.9-0.9c0.1,0,0.3,0,0.4,0l0.9,1c0,0.1,0,0.2,0,0.4
				l-0.9,1c-0.1,0-0.2,0-0.4,0l-0.9-1C-5.3,190.7-5.3,190.6-5.3,190.5z M-0.3,185.8l0.9,1c0,0.1,0,0.2,0,0.4l-0.9,1
				c-0.1,0-0.2,0-0.4,0l-0.9-1c0-0.1,0-0.3,0-0.4l0.9-0.9C-0.6,185.8-0.4,185.8-0.3,185.8z M2.5,188.6c0,0.1,0,0.3,0,0.4l-0.9,0.9
				c-0.1,0-0.3,0-0.4,0L0.2,189c0-0.1,0-0.3,0-0.4l0.9-0.9c0.1,0,0.3,0,0.4,0L2.5,188.6z M-0.7,191.8l-0.9-0.9c0-0.1,0-0.3,0-0.4
				l0.9-0.9c0.1,0,0.3,0,0.4,0l0.9,0.9c0,0.1,0,0.3,0,0.4l-0.9,0.9C-0.4,191.8-0.6,191.8-0.7,191.8z M-2.2,187.7l0.9,1
				c0,0.1,0,0.2,0,0.4l-0.9,1c-0.1,0-0.2,0-0.4,0l-0.9-1c0-0.1,0-0.3,0-0.4l0.9-0.9C-2.4,187.7-2.3,187.7-2.2,187.7z M2.4,185.9
				c0.6,0.6,0.8,1.4,0.7,2.2c0,0,0,0-0.1,0l-0.9-0.9c0.1-0.3,0-0.5-0.2-0.7s-0.5-0.3-0.7-0.2l-0.9-1c0,0,0,0,0-0.1
				C1,185.1,1.8,185.3,2.4,185.9z"/>
			<path fill="#FFFFFF" d="M1.4,145c0.2-0.2,0.3-0.5,0.2-0.7l0.9-0.9c0.2,0.1,0.5,0,0.7-0.2c0.2-0.2,0.3-0.5,0.2-0.7l0.9-0.9
				c0.2,0.1,0.5,0,0.7-0.2c0.3-0.3,0.3-0.7,0.1-1c0.2-1.1-0.1-2.2-0.8-3s-1.9-1.1-3-0.9c-0.3-0.2-0.7-0.2-1,0.1
				c-0.2,0.2-0.3,0.5-0.2,0.7l-0.9,0.9c-0.2-0.1-0.5,0-0.7,0.2c-0.2,0.2-0.3,0.5-0.2,0.7l-0.9,0.9c-0.2-0.1-0.5,0-0.7,0.2
				c-0.2,0.2-0.3,0.5-0.2,0.7l-0.9,0.9c-0.2-0.1-0.5,0-0.7,0.2c-0.3,0.3-0.3,0.8,0,1.1c0.2,0.2,0.5,0.3,0.7,0.2l0.9,1
				c-0.1,0.3,0,0.5,0.2,0.7c0.2,0.2,0.5,0.3,0.7,0.2l0.9,0.9c-0.1,0.3,0,0.5,0.2,0.7c0.3,0.3,0.8,0.3,1.1,0c0.2-0.2,0.3-0.5,0.2-0.7
				l0.9-0.9C0.9,145.3,1.2,145.2,1.4,145z M-1.2,145.6l-0.9-0.9c0-0.1,0-0.3,0-0.4l0.9-0.9c0.1,0,0.3,0,0.4,0l0.9,0.9
				c0,0.1,0,0.3,0,0.4l-0.9,0.9C-0.9,145.6-1,145.6-1.2,145.6z M-3.9,142.4l0.9-0.9c0.1,0,0.3,0,0.4,0l0.9,1c0,0.1,0,0.2,0,0.4
				l-0.9,1c-0.1,0-0.2,0-0.4,0l-0.9-1C-3.9,142.7-3.9,142.5-3.9,142.4z M1.1,137.8l0.9,1c0,0.1,0,0.2,0,0.4l-0.9,1
				c-0.1,0-0.2,0-0.4,0l-0.9-1c0-0.1,0-0.3,0-0.4l0.9-0.9C0.8,137.8,1,137.8,1.1,137.8z M3.9,140.6c0,0.1,0,0.3,0,0.4l-0.9,0.9
				c-0.1,0-0.3,0-0.4,0L1.6,141c0-0.1,0-0.3,0-0.4l0.9-0.9c0.1,0,0.3,0,0.4,0L3.9,140.6z M0.7,143.8l-0.9-0.9c0-0.1,0-0.3,0-0.4
				l0.9-0.9c0.1,0,0.3,0,0.4,0l0.9,0.9c0,0.1,0,0.3,0,0.4l-0.9,0.9C1,143.7,0.8,143.7,0.7,143.8z M-0.8,139.6l0.9,1
				c0,0.1,0,0.2,0,0.4l-0.9,1c-0.1,0-0.2,0-0.4,0l-0.9-1c0-0.1,0-0.3,0-0.4l0.9-0.9C-1,139.7-0.9,139.7-0.8,139.6z M3.8,137.8
				c0.6,0.6,0.8,1.4,0.7,2.2c0,0,0,0-0.1,0l-0.9-0.9c0.1-0.3,0-0.5-0.2-0.7c-0.2-0.2-0.5-0.3-0.7-0.2l-0.9-1c0,0,0,0,0-0.1
				C2.4,137,3.2,137.2,3.8,137.8z"/>
			<path fill="#FFFFFF" d="M24.5,168.3c0.2-0.2,0.3-0.5,0.2-0.7l0.9-0.9c0.2,0.1,0.5,0,0.7-0.2c0.2-0.2,0.3-0.5,0.2-0.7l0.9-0.9
				c0.2,0.1,0.5,0,0.7-0.2c0.3-0.3,0.3-0.7,0.1-1c0.2-1.1-0.1-2.2-0.8-3c-0.8-0.8-1.9-1.1-3-0.9c-0.3-0.2-0.7-0.2-1,0.1
				c-0.2,0.2-0.3,0.5-0.2,0.7l-0.9,0.9c-0.2-0.1-0.5,0-0.7,0.2c-0.2,0.2-0.3,0.5-0.2,0.7l-0.9,0.9c-0.2-0.1-0.5,0-0.7,0.2
				c-0.2,0.2-0.3,0.5-0.2,0.7l-0.9,0.9c-0.2-0.1-0.5,0-0.7,0.2c-0.3,0.3-0.3,0.8,0,1.1c0.2,0.2,0.5,0.3,0.7,0.2l0.9,1
				c-0.1,0.3,0,0.5,0.2,0.7s0.5,0.3,0.7,0.2l0.9,0.9c-0.1,0.3,0,0.5,0.2,0.7c0.3,0.3,0.8,0.3,1.1,0c0.2-0.2,0.3-0.5,0.2-0.7l0.9-0.9
				C24.1,168.6,24.3,168.5,24.5,168.3z M22,168.9L21,168c0-0.1,0-0.3,0-0.4l0.9-0.9c0.1,0,0.3,0,0.4,0l0.9,0.9c0,0.1,0,0.3,0,0.4
				l-0.9,0.9C22.2,168.9,22.1,168.9,22,168.9z M19.2,165.7l0.9-0.9c0.1,0,0.3,0,0.4,0l0.9,1c0,0.1,0,0.2,0,0.4l-0.9,1
				c-0.1,0-0.2,0-0.4,0l-0.9-1C19.2,166,19.2,165.9,19.2,165.7z M24.2,161.1l0.9,1c0,0.1,0,0.2,0,0.4l-0.9,1c-0.1,0-0.2,0-0.4,0
				l-0.9-1c0-0.1,0-0.3,0-0.4l0.9-0.9C23.9,161.1,24.1,161.1,24.2,161.1z M27,163.9c0,0.1,0,0.3,0,0.4l-0.9,0.9c-0.1,0-0.3,0-0.4,0
				l-0.9-0.9c0-0.1,0-0.3,0-0.4l0.9-0.9c0.1,0,0.3,0,0.4,0L27,163.9z M23.8,167.1l-0.9-0.9c0-0.1,0-0.3,0-0.4l0.9-0.9
				c0.1,0,0.3,0,0.4,0l0.9,0.9c0,0.1,0,0.3,0,0.4l-0.9,0.9C24.1,167,23.9,167,23.8,167.1z M22.4,162.9l0.9,1c0,0.1,0,0.2,0,0.4
				l-0.9,1c-0.1,0-0.2,0-0.4,0l-0.9-1c0-0.1,0-0.3,0-0.4l0.9-0.9C22.1,163,22.2,163,22.4,162.9z M26.9,161.2
				c0.6,0.6,0.8,1.4,0.7,2.2c0,0,0,0-0.1,0l-0.9-0.9c0.1-0.3,0-0.5-0.2-0.7c-0.2-0.2-0.5-0.3-0.7-0.2l-0.9-1c0,0,0,0,0-0.1
				C25.5,160.3,26.3,160.6,26.9,161.2z"/>
			<line fill="none" stroke="#FFFFFF" stroke-width="0.5" stroke-miterlimit="10" x1="8.3" y1="149" x2="17.3" y2="158.1"/>
			<line fill="none" stroke="#FFFFFF" stroke-width="0.5" stroke-miterlimit="10" x1="6.8" y1="181.4" x2="15.8" y2="172.4"/>
			<path fill="#FFFFFF" d="M26.7,119.5c0.2-0.2,0.3-0.5,0.2-0.7l0.9-0.9c0.2,0.1,0.5,0,0.7-0.2c0.2-0.2,0.3-0.5,0.2-0.7l0.9-0.9
				c0.2,0.1,0.5,0,0.7-0.2c0.3-0.3,0.3-0.7,0.1-1c0.2-1.1-0.1-2.2-0.8-3c-0.8-0.8-1.9-1.1-3-0.9c-0.3-0.2-0.7-0.2-1,0.1
				c-0.2,0.2-0.3,0.5-0.2,0.7l-0.9,0.9c-0.2-0.1-0.5,0-0.7,0.2c-0.2,0.2-0.3,0.5-0.2,0.7l-0.9,0.9c-0.2-0.1-0.5,0-0.7,0.2
				c-0.2,0.2-0.3,0.5-0.2,0.7l-0.9,0.9c-0.2-0.1-0.5,0-0.7,0.2c-0.3,0.3-0.3,0.8,0,1.1c0.2,0.2,0.5,0.3,0.7,0.2l0.9,1
				c-0.1,0.3,0,0.5,0.2,0.7c0.2,0.2,0.5,0.3,0.7,0.2l0.9,0.9c-0.1,0.3,0,0.5,0.2,0.7c0.3,0.3,0.8,0.3,1.1,0c0.2-0.2,0.3-0.5,0.2-0.7
				l0.9-0.9C26.2,119.8,26.5,119.7,26.7,119.5z M24.1,120.1l-0.9-0.9c0-0.1,0-0.3,0-0.4l0.9-0.9c0.1,0,0.3,0,0.4,0l0.9,0.9
				c0,0.1,0,0.3,0,0.4l-0.9,0.9C24.4,120.1,24.3,120.1,24.1,120.1z M21.4,116.9l0.9-0.9c0.1,0,0.3,0,0.4,0l0.9,1c0,0.1,0,0.2,0,0.4
				l-0.9,1c-0.1,0-0.2,0-0.4,0l-0.9-1C21.4,117.2,21.4,117,21.4,116.9z M26.4,112.2l0.9,1c0,0.1,0,0.2,0,0.4l-0.9,1
				c-0.1,0-0.2,0-0.4,0l-0.9-1c0-0.1,0-0.3,0-0.4l0.9-0.9C26.1,112.3,26.2,112.3,26.4,112.2z M29.1,115c0,0.1,0,0.3,0,0.4l-0.9,0.9
				c-0.1,0-0.3,0-0.4,0l-0.9-0.9c0-0.1,0-0.3,0-0.4l0.9-0.9c0.1,0,0.3,0,0.4,0L29.1,115z M26,118.2l-0.9-0.9c0-0.1,0-0.3,0-0.4
				L26,116c0.1,0,0.3,0,0.4,0l0.9,0.9c0,0.1,0,0.3,0,0.4l-0.9,0.9C26.2,118.2,26.1,118.2,26,118.2z M24.5,114.1l0.9,1
				c0,0.1,0,0.2,0,0.4l-0.9,1c-0.1,0-0.2,0-0.4,0l-0.9-1c0-0.1,0-0.3,0-0.4l0.9-0.9C24.3,114.1,24.4,114.1,24.5,114.1z M29.1,112.3
				c0.6,0.6,0.8,1.4,0.7,2.2c0,0,0,0-0.1,0l-0.9-0.9c0.1-0.3,0-0.5-0.2-0.7c-0.2-0.2-0.5-0.3-0.7-0.2l-0.9-1c0,0,0,0,0-0.1
				C27.7,111.5,28.5,111.7,29.1,112.3z"/>
			<line fill="none" stroke="#FFFFFF" stroke-width="0.5" stroke-miterlimit="10" x1="9" y1="132.6" x2="17.9" y2="123.5"/>
			<path fill="#FFFFFF" d="M49.8,142.8c0.2-0.2,0.3-0.5,0.2-0.7l0.9-0.9c0.2,0.1,0.5,0,0.7-0.2s0.3-0.5,0.2-0.7l0.9-0.9
				c0.2,0.1,0.5,0,0.7-0.2c0.3-0.3,0.3-0.7,0.1-1c0.2-1.1-0.1-2.2-0.8-3c-0.8-0.8-1.9-1.1-3-0.9c-0.3-0.2-0.7-0.2-1,0.1
				c-0.2,0.2-0.3,0.5-0.2,0.7l-0.9,0.9c-0.2-0.1-0.5,0-0.7,0.2s-0.3,0.5-0.2,0.7l-0.9,0.9c-0.2-0.1-0.5,0-0.7,0.2s-0.3,0.5-0.2,0.7
				l-0.9,0.9c-0.2-0.1-0.5,0-0.7,0.2c-0.3,0.3-0.3,0.8,0,1.1c0.2,0.2,0.5,0.3,0.7,0.2l0.9,1c-0.1,0.3,0,0.5,0.2,0.7
				c0.2,0.2,0.5,0.3,0.7,0.2l0.9,0.9c-0.1,0.3,0,0.5,0.2,0.7c0.3,0.3,0.8,0.3,1.1,0c0.2-0.2,0.3-0.5,0.2-0.7l0.9-0.9
				C49.4,143.1,49.6,143,49.8,142.8z M47.3,143.4l-0.9-0.9c0-0.1,0-0.3,0-0.4l0.9-0.9c0.1,0,0.3,0,0.4,0l0.9,0.9c0,0.1,0,0.3,0,0.4
				l-0.9,0.9C47.5,143.4,47.4,143.4,47.3,143.4z M44.5,140.2l0.9-0.9c0.1,0,0.3,0,0.4,0l0.9,1c0,0.1,0,0.2,0,0.4l-0.9,1
				c-0.1,0-0.2,0-0.4,0l-0.9-1C44.5,140.5,44.5,140.4,44.5,140.2z M49.5,135.6l0.9,1c0,0.1,0,0.2,0,0.4l-0.9,1c-0.1,0-0.2,0-0.4,0
				l-0.9-1c0-0.1,0-0.3,0-0.4l0.9-0.9C49.2,135.6,49.4,135.6,49.5,135.6z M52.3,138.4c0,0.1,0,0.3,0,0.4l-0.9,0.9
				c-0.1,0-0.3,0-0.4,0l-0.9-0.9c0-0.1,0-0.3,0-0.4l0.9-0.9c0.1,0,0.3,0,0.4,0L52.3,138.4z M49.1,141.6l-0.9-0.9c0-0.1,0-0.3,0-0.4
				l0.9-0.9c0.1,0,0.3,0,0.4,0l0.9,0.9c0,0.1,0,0.3,0,0.4l-0.9,0.9C49.4,141.5,49.2,141.5,49.1,141.6z M47.6,137.4l0.9,1
				c0,0.1,0,0.2,0,0.4l-0.9,1c-0.1,0-0.2,0-0.4,0l-0.9-1c0-0.1,0-0.3,0-0.4l0.9-0.9C47.4,137.5,47.5,137.5,47.6,137.4z M52.2,135.6
				c0.6,0.6,0.8,1.4,0.7,2.2c0,0,0,0-0.1,0l-0.9-0.9c0.1-0.3,0-0.5-0.2-0.7c-0.2-0.2-0.5-0.3-0.7-0.2l-0.9-1c0,0,0,0,0-0.1
				C50.8,134.8,51.6,135.1,52.2,135.6z"/>
			<line fill="none" stroke="#FFFFFF" stroke-width="0.5" stroke-miterlimit="10" x1="33.6" y1="123.5" x2="42.6" y2="132.6"/>
			<line fill="none" stroke="#FFFFFF" stroke-width="0.5" stroke-miterlimit="10" x1="8.9" y1="98.6" x2="17.9" y2="107.6"/>
			<line fill="none" stroke="#FFFFFF" stroke-width="0.5" stroke-miterlimit="10" x1="32.1" y1="155.9" x2="41.1" y2="146.9"/>
			<line fill="none" stroke="#FFFFFF" stroke-width="0.5" stroke-miterlimit="10" x1="34.3" y1="107.1" x2="43.2" y2="98"/>
			<line fill="none" stroke="#FFFFFF" stroke-width="0.5" stroke-miterlimit="10" x1="57.4" y1="130.4" x2="66.4" y2="121.3"/>
			<path fill="#FFFFFF" d="M-2.4,240.2c0.2-0.2,0.3-0.5,0.2-0.7l0.9-0.9c0.2,0.1,0.5,0,0.7-0.2c0.2-0.2,0.3-0.5,0.2-0.7l0.9-0.9
				c0.2,0.1,0.5,0,0.7-0.2c0.3-0.3,0.3-0.7,0.1-1c0.2-1.1-0.1-2.2-0.8-3s-1.9-1.1-3-0.9c-0.3-0.2-0.7-0.2-1,0.1
				c-0.2,0.2-0.3,0.5-0.2,0.7l-0.9,0.9c-0.2-0.1-0.5,0-0.7,0.2c-0.2,0.2-0.3,0.5-0.2,0.7l-0.9,0.9c-0.2-0.1-0.5,0-0.7,0.2
				c-0.2,0.2-0.3,0.5-0.2,0.7l-0.9,0.9c-0.2-0.1-0.5,0-0.7,0.2c-0.3,0.3-0.3,0.8,0,1.1c0.2,0.2,0.5,0.3,0.7,0.2l0.9,1
				c-0.1,0.3,0,0.5,0.2,0.7c0.2,0.2,0.5,0.3,0.7,0.2l0.9,0.9c-0.1,0.3,0,0.5,0.2,0.7c0.3,0.3,0.8,0.3,1.1,0c0.2-0.2,0.3-0.5,0.2-0.7
				l0.9-0.9C-2.9,240.5-2.6,240.4-2.4,240.2z M-5,240.8l-0.9-0.9c0-0.1,0-0.3,0-0.4l0.9-0.9c0.1,0,0.3,0,0.4,0l0.9,0.9
				c0,0.1,0,0.3,0,0.4l-0.9,0.9C-4.7,240.8-4.9,240.8-5,240.8z M-7.8,237.6l0.9-0.9c0.1,0,0.3,0,0.4,0l0.9,1c0,0.1,0,0.2,0,0.4
				l-0.9,1c-0.1,0-0.2,0-0.4,0l-0.9-1C-7.7,237.9-7.7,237.7-7.8,237.6z M-2.8,233l0.9,1c0,0.1,0,0.2,0,0.4l-0.9,1
				c-0.1,0-0.2,0-0.4,0l-0.9-1c0-0.1,0-0.3,0-0.4l0.9-0.9C-3,233-2.9,233-2.8,233z M0,235.8c0,0.1,0,0.3,0,0.4l-0.9,0.9
				c-0.1,0-0.3,0-0.4,0l-0.9-0.9c0-0.1,0-0.3,0-0.4l0.9-0.9c0.1,0,0.3,0,0.4,0L0,235.8z M-3.2,238.9l-0.9-0.9c0-0.1,0-0.3,0-0.4
				l0.9-0.9c0.1,0,0.3,0,0.4,0l0.9,0.9c0,0.1,0,0.3,0,0.4l-0.9,0.9C-2.9,238.9-3,238.9-3.2,238.9z M-4.6,234.8l0.9,1
				c0,0.1,0,0.2,0,0.4l-0.9,1c-0.1,0-0.2,0-0.4,0l-0.9-1c0-0.1,0-0.3,0-0.4l0.9-0.9C-4.9,234.9-4.7,234.9-4.6,234.8z M-0.1,233
				c0.6,0.6,0.8,1.4,0.7,2.2c0,0,0,0-0.1,0l-0.9-0.9c0.1-0.3,0-0.5-0.2-0.7c-0.2-0.2-0.5-0.3-0.7-0.2l-0.9-1c0,0,0,0,0-0.1
				C-1.5,232.2-0.6,232.4-0.1,233z"/>
			<path fill="#FFFFFF" d="M22.2,215.4c0.2-0.2,0.3-0.5,0.2-0.7l0.9-0.9c0.2,0.1,0.5,0,0.7-0.2c0.2-0.2,0.3-0.5,0.2-0.7l0.9-0.9
				c0.2,0.1,0.5,0,0.7-0.2c0.3-0.3,0.3-0.7,0.1-1c0.2-1.1-0.1-2.2-0.8-3c-0.8-0.8-1.9-1.1-3-0.9c-0.3-0.2-0.7-0.2-1,0.1
				c-0.2,0.2-0.3,0.5-0.2,0.7l-0.9,0.9c-0.2-0.1-0.5,0-0.7,0.2c-0.2,0.2-0.3,0.5-0.2,0.7l-0.9,0.9c-0.2-0.1-0.5,0-0.7,0.2
				s-0.3,0.5-0.2,0.7l-0.9,0.9c-0.2-0.1-0.5,0-0.7,0.2c-0.3,0.3-0.3,0.8,0,1.1c0.2,0.2,0.5,0.3,0.7,0.2l0.9,1
				c-0.1,0.3,0,0.5,0.2,0.7c0.2,0.2,0.5,0.3,0.7,0.2l0.9,0.9c-0.1,0.3,0,0.5,0.2,0.7c0.3,0.3,0.8,0.3,1.1,0c0.2-0.2,0.3-0.5,0.2-0.7
				l0.9-0.9C21.7,215.6,22,215.6,22.2,215.4z M19.6,216l-0.9-0.9c0-0.1,0-0.3,0-0.4l0.9-0.9c0.1,0,0.3,0,0.4,0l0.9,0.9
				c0,0.1,0,0.3,0,0.4L20,216C19.9,216,19.7,216,19.6,216z M16.8,212.8l0.9-0.9c0.1,0,0.3,0,0.4,0l0.9,1c0,0.1,0,0.2,0,0.4l-0.9,1
				c-0.1,0-0.2,0-0.4,0l-0.9-1C16.9,213.1,16.9,212.9,16.8,212.8z M21.8,208.1l0.9,1c0,0.1,0,0.2,0,0.4l-0.9,1c-0.1,0-0.2,0-0.4,0
				l-0.9-1c0-0.1,0-0.3,0-0.4l0.9-0.9C21.6,208.2,21.7,208.2,21.8,208.1z M24.6,210.9c0,0.1,0,0.3,0,0.4l-0.9,0.9
				c-0.1,0-0.3,0-0.4,0l-0.9-0.9c0-0.1,0-0.3,0-0.4l0.9-0.9c0.1,0,0.3,0,0.4,0L24.6,210.9z M21.4,214.1l-0.9-0.9c0-0.1,0-0.3,0-0.4
				l0.9-0.9c0.1,0,0.3,0,0.4,0l0.9,0.9c0,0.1,0,0.3,0,0.4l-0.9,0.9C21.7,214.1,21.6,214.1,21.4,214.1z M20,210l0.9,1
				c0,0.1,0,0.2,0,0.4l-0.9,1c-0.1,0-0.2,0-0.4,0l-0.9-1c0-0.1,0-0.3,0-0.4l0.9-0.9C19.7,210,19.9,210,20,210z M24.5,208.2
				c0.6,0.6,0.8,1.4,0.7,2.2c0,0,0,0-0.1,0l-0.9-0.9c0.1-0.3,0-0.5-0.2-0.7c-0.2-0.2-0.5-0.3-0.7-0.2l-0.9-1c0,0,0,0,0-0.1
				C23.1,207.4,24,207.6,24.5,208.2z"/>
			<line fill="none" stroke="#FFFFFF" stroke-width="0.5" stroke-miterlimit="10" x1="5.9" y1="196.1" x2="14.9" y2="205.1"/>
			<line fill="none" stroke="#FFFFFF" stroke-width="0.5" stroke-miterlimit="10" x1="4.4" y1="228.5" x2="13.4" y2="219.4"/>
			<path fill="#FFFFFF" d="M46.7,190.7c0.2-0.2,0.3-0.5,0.2-0.7l0.9-0.9c0.2,0.1,0.5,0,0.7-0.2s0.3-0.5,0.2-0.7l0.9-0.9
				c0.2,0.1,0.5,0,0.7-0.2c0.3-0.3,0.3-0.7,0.1-1c0.2-1.1-0.1-2.2-0.8-3c-0.8-0.8-1.9-1.1-3-0.9c-0.3-0.2-0.7-0.2-1,0.1
				c-0.2,0.2-0.3,0.5-0.2,0.7l-0.9,0.9c-0.2-0.1-0.5,0-0.7,0.2c-0.2,0.2-0.3,0.5-0.2,0.7l-0.9,0.9c-0.2-0.1-0.5,0-0.7,0.2
				c-0.2,0.2-0.3,0.5-0.2,0.7l-0.9,0.9c-0.2-0.1-0.5,0-0.7,0.2c-0.3,0.3-0.3,0.8,0,1.1c0.2,0.2,0.5,0.3,0.7,0.2l0.9,1
				c-0.1,0.3,0,0.5,0.2,0.7c0.2,0.2,0.5,0.3,0.7,0.2l0.9,0.9c-0.1,0.3,0,0.5,0.2,0.7c0.3,0.3,0.8,0.3,1.1,0c0.2-0.2,0.3-0.5,0.2-0.7
				l0.9-0.9C46.2,190.9,46.5,190.9,46.7,190.7z M44.1,191.3l-0.9-0.9c0-0.1,0-0.3,0-0.4l0.9-0.9c0.1,0,0.3,0,0.4,0l0.9,0.9
				c0,0.1,0,0.3,0,0.4l-0.9,0.9C44.4,191.2,44.2,191.2,44.1,191.3z M41.3,188.1l0.9-0.9c0.1,0,0.3,0,0.4,0l0.9,1c0,0.1,0,0.2,0,0.4
				l-0.9,1c-0.1,0-0.2,0-0.4,0l-0.9-1C41.4,188.3,41.4,188.2,41.3,188.1z M46.3,183.4l0.9,1c0,0.1,0,0.2,0,0.4l-0.9,1
				c-0.1,0-0.2,0-0.4,0l-0.9-1c0-0.1,0-0.3,0-0.4l0.9-0.9C46.1,183.4,46.2,183.4,46.3,183.4z M49.1,186.2c0,0.1,0,0.3,0,0.4
				l-0.9,0.9c-0.1,0-0.3,0-0.4,0l-0.9-0.9c0-0.1,0-0.3,0-0.4l0.9-0.9c0.1,0,0.3,0,0.4,0L49.1,186.2z M45.9,189.4l-0.9-0.9
				c0-0.1,0-0.3,0-0.4l0.9-0.9c0.1,0,0.3,0,0.4,0l0.9,0.9c0,0.1,0,0.3,0,0.4l-0.9,0.9C46.2,189.4,46.1,189.4,45.9,189.4z
				 M44.5,185.3l0.9,1c0,0.1,0,0.2,0,0.4l-0.9,1c-0.1,0-0.2,0-0.4,0l-0.9-1c0-0.1,0-0.3,0-0.4l0.9-0.9
				C44.2,185.3,44.4,185.3,44.5,185.3z M49,183.5c0.6,0.6,0.8,1.4,0.7,2.2c0,0,0,0-0.1,0l-0.9-0.9c0.1-0.3,0-0.5-0.2-0.7
				c-0.2-0.2-0.5-0.3-0.7-0.2l-0.9-1c0,0,0,0,0-0.1C47.6,182.7,48.5,182.9,49,183.5z"/>
			<line fill="none" stroke="#FFFFFF" stroke-width="0.5" stroke-miterlimit="10" x1="30.4" y1="171.4" x2="39.4" y2="180.4"/>
			<line fill="none" stroke="#FFFFFF" stroke-width="0.5" stroke-miterlimit="10" x1="28.9" y1="203.8" x2="37.9" y2="194.7"/>
			<path fill="#FFFFFF" d="M72,165.1c0.2-0.2,0.3-0.5,0.2-0.7l0.9-0.9c0.2,0.1,0.5,0,0.7-0.2c0.2-0.2,0.3-0.5,0.2-0.7l0.9-0.9
				c0.2,0.1,0.5,0,0.7-0.2c0.3-0.3,0.3-0.7,0.1-1c0.2-1.1-0.1-2.2-0.8-3c-0.8-0.8-1.9-1.1-3-0.9c-0.3-0.2-0.7-0.2-1,0.1
				c-0.2,0.2-0.3,0.5-0.2,0.7l-0.9,0.9c-0.2-0.1-0.5,0-0.7,0.2c-0.2,0.2-0.3,0.5-0.2,0.7l-0.9,0.9c-0.2-0.1-0.5,0-0.7,0.2
				c-0.2,0.2-0.3,0.5-0.2,0.7l-0.9,0.9c-0.2-0.1-0.5,0-0.7,0.2c-0.3,0.3-0.3,0.8,0,1.1c0.2,0.2,0.5,0.3,0.7,0.2l0.9,1
				c-0.1,0.3,0,0.5,0.2,0.7s0.5,0.3,0.7,0.2l0.9,0.9c-0.1,0.3,0,0.5,0.2,0.7c0.3,0.3,0.8,0.3,1.1,0c0.2-0.2,0.3-0.5,0.2-0.7l0.9-0.9
				C71.5,165.4,71.8,165.3,72,165.1z M69.4,165.7l-0.9-0.9c0-0.1,0-0.3,0-0.4l0.9-0.9c0.1,0,0.3,0,0.4,0l0.9,0.9c0,0.1,0,0.3,0,0.4
				l-0.9,0.9C69.7,165.7,69.5,165.7,69.4,165.7z M66.6,162.6l0.9-0.9c0.1,0,0.3,0,0.4,0l0.9,1c0,0.1,0,0.2,0,0.4l-0.9,1
				c-0.1,0-0.2,0-0.4,0l-0.9-1C66.7,162.8,66.7,162.7,66.6,162.6z M71.6,157.9l0.9,1c0,0.1,0,0.2,0,0.4l-0.9,1c-0.1,0-0.2,0-0.4,0
				l-0.9-1c0-0.1,0-0.3,0-0.4l0.9-0.9C71.4,157.9,71.5,157.9,71.6,157.9z M74.4,160.7c0,0.1,0,0.3,0,0.4l-0.9,0.9
				c-0.1,0-0.3,0-0.4,0l-0.9-0.9c0-0.1,0-0.3,0-0.4l0.9-0.9c0.1,0,0.3,0,0.4,0L74.4,160.7z M71.2,163.9l-0.9-0.9c0-0.1,0-0.3,0-0.4
				l0.9-0.9c0.1,0,0.3,0,0.4,0l0.9,0.9c0,0.1,0,0.3,0,0.4l-0.9,0.9C71.5,163.9,71.4,163.9,71.2,163.9z M69.8,159.8l0.9,1
				c0,0.1,0,0.2,0,0.4l-0.9,1c-0.1,0-0.2,0-0.4,0l-0.9-1c0-0.1,0-0.3,0-0.4l0.9-0.9C69.5,159.8,69.7,159.8,69.8,159.8z M74.3,158
				c0.6,0.6,0.8,1.4,0.7,2.2c0,0,0,0-0.1,0l-0.9-0.9c0.1-0.3,0-0.5-0.2-0.7s-0.5-0.3-0.7-0.2l-0.9-1c0,0,0,0,0-0.1
				C72.9,157.1,73.8,157.4,74.3,158z"/>
			<line fill="none" stroke="#FFFFFF" stroke-width="0.5" stroke-miterlimit="10" x1="55.7" y1="145.9" x2="64.7" y2="154.9"/>
			<line fill="none" stroke="#FFFFFF" stroke-width="0.5" stroke-miterlimit="10" x1="54.2" y1="178.2" x2="63.2" y2="169.2"/>
			<line fill="none" stroke="#FFFFFF" stroke-width="0.5" stroke-miterlimit="10" x1="79.5" y1="152.7" x2="88.5" y2="143.7"/>
			<path fill="#FFFFFF" d="M144.6,136.5c0.2-0.2,0.3-0.5,0.2-0.7l0.9-0.9c0.2,0.1,0.5,0,0.7-0.2s0.3-0.5,0.2-0.7l0.9-0.9
				c0.2,0.1,0.5,0,0.7-0.2c0.3-0.3,0.3-0.7,0.1-1c0.2-1.1-0.1-2.2-0.8-3s-1.9-1.1-3-0.9c-0.3-0.2-0.7-0.2-1,0.1
				c-0.2,0.2-0.3,0.5-0.2,0.7l-0.9,0.9c-0.2-0.1-0.5,0-0.7,0.2s-0.3,0.5-0.2,0.7l-0.9,0.9c-0.2-0.1-0.5,0-0.7,0.2s-0.3,0.5-0.2,0.7
				l-0.9,0.9c-0.2-0.1-0.5,0-0.7,0.2c-0.3,0.3-0.3,0.8,0,1.1c0.2,0.2,0.5,0.3,0.7,0.2l0.9,1c-0.1,0.3,0,0.5,0.2,0.7
				c0.2,0.2,0.5,0.3,0.7,0.2l0.9,0.9c-0.1,0.3,0,0.5,0.2,0.7c0.3,0.3,0.8,0.3,1.1,0c0.2-0.2,0.3-0.5,0.2-0.7l0.9-0.9
				C144.1,136.8,144.4,136.7,144.6,136.5z M142,137.1l-0.9-0.9c0-0.1,0-0.3,0-0.4l0.9-0.9c0.1,0,0.3,0,0.4,0l0.9,0.9
				c0,0.1,0,0.3,0,0.4l-0.9,0.9C142.3,137.1,142.1,137.1,142,137.1z M139.2,133.9l0.9-0.9c0.1,0,0.3,0,0.4,0l0.9,1
				c0,0.1,0,0.2,0,0.4l-0.9,1c-0.1,0-0.2,0-0.4,0l-0.9-1C139.3,134.2,139.3,134.1,139.2,133.9z M144.3,129.3l0.9,1
				c0,0.1,0,0.2,0,0.4l-0.9,1c-0.1,0-0.2,0-0.4,0l-0.9-1c0-0.1,0-0.3,0-0.4l0.9-0.9C144,129.3,144.1,129.3,144.3,129.3z M147,132.1
				c0,0.1,0,0.3,0,0.4l-0.9,0.9c-0.1,0-0.3,0-0.4,0l-0.9-0.9c0-0.1,0-0.3,0-0.4l0.9-0.9c0.1,0,0.3,0,0.4,0L147,132.1z M143.9,135.3
				l-0.9-0.9c0-0.1,0-0.3,0-0.4l0.9-0.9c0.1,0,0.3,0,0.4,0l0.9,0.9c0,0.1,0,0.3,0,0.4l-0.9,0.9C144.1,135.2,144,135.2,143.9,135.3z
				 M142.4,131.1l0.9,1c0,0.1,0,0.2,0,0.4l-0.9,1c-0.1,0-0.2,0-0.4,0l-0.9-1c0-0.1,0-0.3,0-0.4l0.9-0.9
				C142.1,131.2,142.3,131.2,142.4,131.1z M147,129.4c0.6,0.6,0.8,1.4,0.7,2.2c0,0,0,0-0.1,0l-0.9-0.9c0.1-0.3,0-0.5-0.2-0.7
				c-0.2-0.2-0.5-0.3-0.7-0.2l-0.9-1c0,0,0,0,0-0.1C145.6,128.5,146.4,128.8,147,129.4z"/>
			<line fill="none" stroke="#FFFFFF" stroke-width="0.5" stroke-miterlimit="10" x1="128.4" y1="117.2" x2="137.3" y2="126.3"/>
			<path fill="#FFFFFF" d="M169.2,111.7c0.2-0.2,0.3-0.5,0.2-0.7l0.9-0.9c0.2,0.1,0.5,0,0.7-0.2s0.3-0.5,0.2-0.7l0.9-0.9
				c0.2,0.1,0.5,0,0.7-0.2c0.3-0.3,0.3-0.7,0.1-1c0.2-1.1-0.1-2.2-0.8-3c-0.8-0.8-1.9-1.1-3-0.9c-0.3-0.2-0.7-0.2-1,0.1
				c-0.2,0.2-0.3,0.5-0.2,0.7l-0.9,0.9c-0.2-0.1-0.5,0-0.7,0.2s-0.3,0.5-0.2,0.7l-0.9,0.9c-0.2-0.1-0.5,0-0.7,0.2
				c-0.2,0.2-0.3,0.5-0.2,0.7l-0.9,0.9c-0.2-0.1-0.5,0-0.7,0.2c-0.3,0.3-0.3,0.8,0,1.1c0.2,0.2,0.5,0.3,0.7,0.2l0.9,1
				c-0.1,0.3,0,0.5,0.2,0.7c0.2,0.2,0.5,0.3,0.7,0.2l0.9,0.9c-0.1,0.3,0,0.5,0.2,0.7c0.3,0.3,0.8,0.3,1.1,0c0.2-0.2,0.3-0.5,0.2-0.7
				l0.9-0.9C168.7,112,169,111.9,169.2,111.7z M166.6,112.3l-0.9-0.9c0-0.1,0-0.3,0-0.4l0.9-0.9c0.1,0,0.3,0,0.4,0l0.9,0.9
				c0,0.1,0,0.3,0,0.4l-0.9,0.9C166.9,112.3,166.8,112.3,166.6,112.3z M163.8,109.1l0.9-0.9c0.1,0,0.3,0,0.4,0l0.9,1
				c0,0.1,0,0.2,0,0.4l-0.9,1c-0.1,0-0.2,0-0.4,0l-0.9-1C163.9,109.4,163.9,109.3,163.8,109.1z M168.9,104.5l0.9,1
				c0,0.1,0,0.2,0,0.4l-0.9,1c-0.1,0-0.2,0-0.4,0l-0.9-1c0-0.1,0-0.3,0-0.4l0.9-0.9C168.6,104.5,168.7,104.5,168.9,104.5z
				 M171.6,107.3c0,0.1,0,0.3,0,0.4l-0.9,0.9c-0.1,0-0.3,0-0.4,0l-0.9-0.9c0-0.1,0-0.3,0-0.4l0.9-0.9c0.1,0,0.3,0,0.4,0L171.6,107.3
				z M168.5,110.5l-0.9-0.9c0-0.1,0-0.3,0-0.4l0.9-0.9c0.1,0,0.3,0,0.4,0l0.9,0.9c0,0.1,0,0.3,0,0.4l-0.9,0.9
				C168.7,110.4,168.6,110.4,168.5,110.5z M167,106.3l0.9,1c0,0.1,0,0.2,0,0.4l-0.9,1c-0.1,0-0.2,0-0.4,0l-0.9-1c0-0.1,0-0.3,0-0.4
				l0.9-0.9C166.8,106.4,166.9,106.4,167,106.3z M171.6,104.5c0.6,0.6,0.8,1.4,0.7,2.2c0,0,0,0-0.1,0l-0.9-0.9
				c0.1-0.3,0-0.5-0.2-0.7c-0.2-0.2-0.5-0.3-0.7-0.2l-0.9-1c0,0,0,0,0-0.1C170.2,103.7,171,104,171.6,104.5z"/>
			<line fill="none" stroke="#FFFFFF" stroke-width="0.5" stroke-miterlimit="10" x1="153" y1="92.4" x2="161.9" y2="101.5"/>
			<path fill="#FFFFFF" d="M119.9,161.4c0.2-0.2,0.3-0.5,0.2-0.7l0.9-0.9c0.2,0.1,0.5,0,0.7-0.2c0.2-0.2,0.3-0.5,0.2-0.7l0.9-0.9
				c0.2,0.1,0.5,0,0.7-0.2c0.3-0.3,0.3-0.7,0.1-1c0.2-1.1-0.1-2.2-0.8-3c-0.8-0.8-1.9-1.1-3-0.9c-0.3-0.2-0.7-0.2-1,0.1
				c-0.2,0.2-0.3,0.5-0.2,0.7l-0.9,0.9c-0.2-0.1-0.5,0-0.7,0.2s-0.3,0.5-0.2,0.7l-0.9,0.9c-0.2-0.1-0.5,0-0.7,0.2
				c-0.2,0.2-0.3,0.5-0.2,0.7l-0.9,0.9c-0.2-0.1-0.5,0-0.7,0.2c-0.3,0.3-0.3,0.8,0,1.1c0.2,0.2,0.5,0.3,0.7,0.2l0.9,1
				c-0.1,0.3,0,0.5,0.2,0.7c0.2,0.2,0.5,0.3,0.7,0.2l0.9,0.9c-0.1,0.3,0,0.5,0.2,0.7c0.3,0.3,0.8,0.3,1.1,0c0.2-0.2,0.3-0.5,0.2-0.7
				l0.9-0.9C119.4,161.7,119.7,161.6,119.9,161.4z M117.4,162l-0.9-0.9c0-0.1,0-0.3,0-0.4l0.9-0.9c0.1,0,0.3,0,0.4,0l0.9,0.9
				c0,0.1,0,0.3,0,0.4l-0.9,0.9C117.6,162,117.5,162,117.4,162z M114.6,158.8l0.9-0.9c0.1,0,0.3,0,0.4,0l0.9,1c0,0.1,0,0.2,0,0.4
				l-0.9,1c-0.1,0-0.2,0-0.4,0l-0.9-1C114.6,159.1,114.6,159,114.6,158.8z M119.6,154.2l0.9,1c0,0.1,0,0.2,0,0.4l-0.9,1
				c-0.1,0-0.2,0-0.4,0l-0.9-1c0-0.1,0-0.3,0-0.4l0.9-0.9C119.3,154.2,119.5,154.2,119.6,154.2z M122.4,157c0,0.1,0,0.3,0,0.4
				l-0.9,0.9c-0.1,0-0.3,0-0.4,0l-0.9-0.9c0-0.1,0-0.3,0-0.4l0.9-0.9c0.1,0,0.3,0,0.4,0L122.4,157z M119.2,160.2l-0.9-0.9
				c0-0.1,0-0.3,0-0.4l0.9-0.9c0.1,0,0.3,0,0.4,0l0.9,0.9c0,0.1,0,0.3,0,0.4l-0.9,0.9C119.5,160.1,119.3,160.1,119.2,160.2z
				 M117.7,156l0.9,1c0,0.1,0,0.2,0,0.4l-0.9,1c-0.1,0-0.2,0-0.4,0l-0.9-1c0-0.1,0-0.3,0-0.4l0.9-0.9
				C117.5,156.1,117.6,156.1,117.7,156z M122.3,154.2c0.6,0.6,0.8,1.4,0.7,2.2c0,0,0,0-0.1,0l-0.9-0.9c0.1-0.3,0-0.5-0.2-0.7
				c-0.2-0.2-0.5-0.3-0.7-0.2l-0.9-1c0,0,0,0,0-0.1C120.9,153.4,121.7,153.7,122.3,154.2z"/>
			<line fill="none" stroke="#FFFFFF" stroke-width="0.5" stroke-miterlimit="10" x1="103.7" y1="142.1" x2="112.7" y2="151.2"/>
			<line fill="none" stroke="#FFFFFF" stroke-width="0.5" stroke-miterlimit="10" x1="151.5" y1="124.8" x2="160.4" y2="115.8"/>
			<line fill="none" stroke="#FFFFFF" stroke-width="0.5" stroke-miterlimit="10" x1="126.8" y1="149.7" x2="135.7" y2="140.7"/>
			<path fill="#FFFFFF" d="M166.7,158.9c0.2-0.2,0.3-0.5,0.2-0.7l0.9-0.9c0.2,0.1,0.5,0,0.7-0.2s0.3-0.5,0.2-0.7l0.9-0.9
				c0.2,0.1,0.5,0,0.7-0.2c0.3-0.3,0.3-0.7,0.1-1c0.2-1.1-0.1-2.2-0.8-3c-0.8-0.8-1.9-1.1-3-0.9c-0.3-0.2-0.7-0.2-1,0.1
				c-0.2,0.2-0.3,0.5-0.2,0.7l-0.9,0.9c-0.2-0.1-0.5,0-0.7,0.2s-0.3,0.5-0.2,0.7l-0.9,0.9c-0.2-0.1-0.5,0-0.7,0.2s-0.3,0.5-0.2,0.7
				l-0.9,0.9c-0.2-0.1-0.5,0-0.7,0.2c-0.3,0.3-0.3,0.8,0,1.1c0.2,0.2,0.5,0.3,0.7,0.2l0.9,1c-0.1,0.3,0,0.5,0.2,0.7
				c0.2,0.2,0.5,0.3,0.7,0.2l0.9,0.9c-0.1,0.3,0,0.5,0.2,0.7c0.3,0.3,0.8,0.3,1.1,0c0.2-0.2,0.3-0.5,0.2-0.7l0.9-0.9
				C166.2,159.1,166.5,159.1,166.7,158.9z M164.2,159.5l-0.9-0.9c0-0.1,0-0.3,0-0.4l0.9-0.9c0.1,0,0.3,0,0.4,0l0.9,0.9
				c0,0.1,0,0.3,0,0.4l-0.9,0.9C164.4,159.4,164.3,159.4,164.2,159.5z M161.4,156.3l0.9-0.9c0.1,0,0.3,0,0.4,0l0.9,1
				c0,0.1,0,0.2,0,0.4l-0.9,1c-0.1,0-0.2,0-0.4,0l-0.9-1C161.4,156.5,161.4,156.4,161.4,156.3z M166.4,151.6l0.9,1
				c0,0.1,0,0.2,0,0.4l-0.9,1c-0.1,0-0.2,0-0.4,0l-0.9-1c0-0.1,0-0.3,0-0.4l0.9-0.9C166.1,151.7,166.3,151.7,166.4,151.6z
				 M169.2,154.4c0,0.1,0,0.3,0,0.4l-0.9,0.9c-0.1,0-0.3,0-0.4,0l-0.9-0.9c0-0.1,0-0.3,0-0.4l0.9-0.9c0.1,0,0.3,0,0.4,0L169.2,154.4
				z M166,157.6l-0.9-0.9c0-0.1,0-0.3,0-0.4l0.9-0.9c0.1,0,0.3,0,0.4,0l0.9,0.9c0,0.1,0,0.3,0,0.4l-0.9,0.9
				C166.3,157.6,166.1,157.6,166,157.6z M164.5,153.5l0.9,1c0,0.1,0,0.2,0,0.4l-0.9,1c-0.1,0-0.2,0-0.4,0l-0.9-1c0-0.1,0-0.3,0-0.4
				l0.9-0.9C164.3,153.5,164.4,153.5,164.5,153.5z M169.1,151.7c0.6,0.6,0.8,1.4,0.7,2.2c0,0,0,0-0.1,0l-0.9-0.9
				c0.1-0.3,0-0.5-0.2-0.7c-0.2-0.2-0.5-0.3-0.7-0.2l-0.9-1c0,0,0,0,0-0.1C167.7,150.9,168.5,151.1,169.1,151.7z"/>
			<line fill="none" stroke="#FFFFFF" stroke-width="0.5" stroke-miterlimit="10" x1="150.5" y1="139.6" x2="159.5" y2="148.6"/>
			<path fill="#FFFFFF" d="M142,183.8c0.2-0.2,0.3-0.5,0.2-0.7l0.9-0.9c0.2,0.1,0.5,0,0.7-0.2c0.2-0.2,0.3-0.5,0.2-0.7l0.9-0.9
				c0.2,0.1,0.5,0,0.7-0.2c0.3-0.3,0.3-0.7,0.1-1c0.2-1.1-0.1-2.2-0.8-3c-0.8-0.8-1.9-1.1-3-0.9c-0.3-0.2-0.7-0.2-1,0.1
				c-0.2,0.2-0.3,0.5-0.2,0.7l-0.9,0.9c-0.2-0.1-0.5,0-0.7,0.2c-0.2,0.2-0.3,0.5-0.2,0.7l-0.9,0.9c-0.2-0.1-0.5,0-0.7,0.2
				c-0.2,0.2-0.3,0.5-0.2,0.7l-0.9,0.9c-0.2-0.1-0.5,0-0.7,0.2c-0.3,0.3-0.3,0.8,0,1.1c0.2,0.2,0.5,0.3,0.7,0.2l0.9,1
				c-0.1,0.3,0,0.5,0.2,0.7s0.5,0.3,0.7,0.2l0.9,0.9c-0.1,0.3,0,0.5,0.2,0.7c0.3,0.3,0.8,0.3,1.1,0c0.2-0.2,0.3-0.5,0.2-0.7l0.9-0.9
				C141.6,184,141.9,183.9,142,183.8z M139.5,184.4l-0.9-0.9c0-0.1,0-0.3,0-0.4l0.9-0.9c0.1,0,0.3,0,0.4,0l0.9,0.9
				c0,0.1,0,0.3,0,0.4l-0.9,0.9C139.7,184.3,139.6,184.3,139.5,184.4z M136.7,181.2l0.9-0.9c0.1,0,0.3,0,0.4,0l0.9,1
				c0,0.1,0,0.2,0,0.4l-0.9,1c-0.1,0-0.2,0-0.4,0l-0.9-1C136.7,181.4,136.7,181.3,136.7,181.2z M141.7,176.5l0.9,1
				c0,0.1,0,0.2,0,0.4l-0.9,1c-0.1,0-0.2,0-0.4,0l-0.9-1c0-0.1,0-0.3,0-0.4l0.9-0.9C141.5,176.5,141.6,176.5,141.7,176.5z
				 M144.5,179.3c0,0.1,0,0.3,0,0.4l-0.9,0.9c-0.1,0-0.3,0-0.4,0l-0.9-0.9c0-0.1,0-0.3,0-0.4l0.9-0.9c0.1,0,0.3,0,0.4,0L144.5,179.3
				z M141.3,182.5l-0.9-0.9c0-0.1,0-0.3,0-0.4l0.9-0.9c0.1,0,0.3,0,0.4,0l0.9,0.9c0,0.1,0,0.3,0,0.4l-0.9,0.9
				C141.6,182.5,141.5,182.5,141.3,182.5z M139.9,178.4l0.9,1c0,0.1,0,0.2,0,0.4l-0.9,1c-0.1,0-0.2,0-0.4,0l-0.9-1
				c0-0.1,0-0.3,0-0.4l0.9-0.9C139.6,178.4,139.7,178.4,139.9,178.4z M144.4,176.6c0.6,0.6,0.8,1.4,0.7,2.2c0,0,0,0-0.1,0l-0.9-0.9
				c0.1-0.3,0-0.5-0.2-0.7s-0.5-0.3-0.7-0.2l-0.9-1c0,0,0,0,0-0.1C143,175.8,143.8,176,144.4,176.6z"/>
			<line fill="none" stroke="#FFFFFF" stroke-width="0.5" stroke-miterlimit="10" x1="125.8" y1="164.5" x2="134.8" y2="173.5"/>
			<line fill="none" stroke="#FFFFFF" stroke-width="0.5" stroke-miterlimit="10" x1="148.9" y1="172.1" x2="157.9" y2="163"/>
			<path fill="#FFFFFF" d="M166.4,208.3c0.2-0.2,0.3-0.5,0.2-0.7l0.9-0.9c0.2,0.1,0.5,0,0.7-0.2s0.3-0.5,0.2-0.7l0.9-0.9
				c0.2,0.1,0.5,0,0.7-0.2c0.3-0.3,0.3-0.7,0.1-1c0.2-1.1-0.1-2.2-0.8-3s-1.9-1.1-3-0.9c-0.3-0.2-0.7-0.2-1,0.1
				c-0.2,0.2-0.3,0.5-0.2,0.7l-0.9,0.9c-0.2-0.1-0.5,0-0.7,0.2c-0.2,0.2-0.3,0.5-0.2,0.7l-0.9,0.9c-0.2-0.1-0.5,0-0.7,0.2
				c-0.2,0.2-0.3,0.5-0.2,0.7l-0.9,0.9c-0.2-0.1-0.5,0-0.7,0.2c-0.3,0.3-0.3,0.8,0,1.1c0.2,0.2,0.5,0.3,0.7,0.2l0.9,1
				c-0.1,0.3,0,0.5,0.2,0.7c0.2,0.2,0.5,0.3,0.7,0.2l0.9,0.9c-0.1,0.3,0,0.5,0.2,0.7c0.3,0.3,0.8,0.3,1.1,0c0.2-0.2,0.3-0.5,0.2-0.7
				l0.9-0.9C165.9,208.5,166.2,208.5,166.4,208.3z M163.8,208.9l-0.9-0.9c0-0.1,0-0.3,0-0.4l0.9-0.9c0.1,0,0.3,0,0.4,0l0.9,0.9
				c0,0.1,0,0.3,0,0.4l-0.9,0.9C164.1,208.8,163.9,208.8,163.8,208.9z M161,205.7l0.9-0.9c0.1,0,0.3,0,0.4,0l0.9,1
				c0,0.1,0,0.2,0,0.4l-0.9,1c-0.1,0-0.2,0-0.4,0l-0.9-1C161,205.9,161,205.8,161,205.7z M166,201l0.9,1c0,0.1,0,0.2,0,0.4l-0.9,1
				c-0.1,0-0.2,0-0.4,0l-0.9-1c0-0.1,0-0.3,0-0.4l0.9-0.9C165.8,201.1,165.9,201.1,166,201z M168.8,203.8c0,0.1,0,0.3,0,0.4
				l-0.9,0.9c-0.1,0-0.3,0-0.4,0l-0.9-0.9c0-0.1,0-0.3,0-0.4l0.9-0.9c0.1,0,0.3,0,0.4,0L168.8,203.8z M165.6,207l-0.9-0.9
				c0-0.1,0-0.3,0-0.4l0.9-0.9c0.1,0,0.3,0,0.4,0l0.9,0.9c0,0.1,0,0.3,0,0.4L166,207C165.9,207,165.8,207,165.6,207z M164.2,202.9
				l0.9,1c0,0.1,0,0.2,0,0.4l-0.9,1c-0.1,0-0.2,0-0.4,0l-0.9-1c0-0.1,0-0.3,0-0.4l0.9-0.9C163.9,202.9,164.1,202.9,164.2,202.9z
				 M168.7,201.1c0.6,0.6,0.8,1.4,0.7,2.2c0,0,0,0-0.1,0l-0.9-0.9c0.1-0.3,0-0.5-0.2-0.7c-0.2-0.2-0.5-0.3-0.7-0.2l-0.9-1
				c0,0,0,0,0-0.1C167.3,200.3,168.1,200.5,168.7,201.1z"/>
			<line fill="none" stroke="#FFFFFF" stroke-width="0.5" stroke-miterlimit="10" x1="148.6" y1="187.4" x2="157.5" y2="196.4"/>
			<line fill="none" stroke="#FFFFFF" stroke-width="0.5" stroke-miterlimit="10" x1="3.5" y1="243.2" x2="12.4" y2="252.3"/>
			<path fill="#FFFFFF" d="M44.3,237.7c0.2-0.2,0.3-0.5,0.2-0.7l0.9-0.9c0.2,0.1,0.5,0,0.7-0.2s0.3-0.5,0.2-0.7l0.9-0.9
				c0.2,0.1,0.5,0,0.7-0.2c0.3-0.3,0.3-0.7,0.1-1c0.2-1.1-0.1-2.2-0.8-3s-1.9-1.1-3-0.9c-0.3-0.2-0.7-0.2-1,0.1
				c-0.2,0.2-0.3,0.5-0.2,0.7l-0.9,0.9c-0.2-0.1-0.5,0-0.7,0.2c-0.2,0.2-0.3,0.5-0.2,0.7l-0.9,0.9c-0.2-0.1-0.5,0-0.7,0.2
				c-0.2,0.2-0.3,0.5-0.2,0.7l-0.9,0.9c-0.2-0.1-0.5,0-0.7,0.2c-0.3,0.3-0.3,0.8,0,1.1c0.2,0.2,0.5,0.3,0.7,0.2l0.9,1
				c-0.1,0.3,0,0.5,0.2,0.7c0.2,0.2,0.5,0.3,0.7,0.2l0.9,0.9c-0.1,0.3,0,0.5,0.2,0.7c0.3,0.3,0.8,0.3,1.1,0c0.2-0.2,0.3-0.5,0.2-0.7
				l0.9-0.9C43.8,238,44.1,237.9,44.3,237.7z M41.7,238.3l-0.9-0.9c0-0.1,0-0.3,0-0.4l0.9-0.9c0.1,0,0.3,0,0.4,0L43,237
				c0,0.1,0,0.3,0,0.4l-0.9,0.9C42,238.3,41.9,238.3,41.7,238.3z M39,235.1l0.9-0.9c0.1,0,0.3,0,0.4,0l0.9,1c0,0.1,0,0.2,0,0.4
				l-0.9,1c-0.1,0-0.2,0-0.4,0l-0.9-1C39,235.4,39,235.3,39,235.1z M44,230.5l0.9,1c0,0.1,0,0.2,0,0.4l-0.9,1c-0.1,0-0.2,0-0.4,0
				l-0.9-1c0-0.1,0-0.3,0-0.4l0.9-0.9C43.7,230.5,43.8,230.5,44,230.5z M46.7,233.3c0,0.1,0,0.3,0,0.4l-0.9,0.9c-0.1,0-0.3,0-0.4,0
				l-0.9-0.9c0-0.1,0-0.3,0-0.4l0.9-0.9c0.1,0,0.3,0,0.4,0L46.7,233.3z M43.6,236.5l-0.9-0.9c0-0.1,0-0.3,0-0.4l0.9-0.9
				c0.1,0,0.3,0,0.4,0l0.9,0.9c0,0.1,0,0.3,0,0.4l-0.9,0.9C43.8,236.4,43.7,236.4,43.6,236.5z M42.1,232.3l0.9,1c0,0.1,0,0.2,0,0.4
				l-0.9,1c-0.1,0-0.2,0-0.4,0l-0.9-1c0-0.1,0-0.3,0-0.4l0.9-0.9C41.9,232.4,42,232.4,42.1,232.3z M46.7,230.5
				c0.6,0.6,0.8,1.4,0.7,2.2c0,0,0,0-0.1,0l-0.9-0.9c0.1-0.3,0-0.5-0.2-0.7c-0.2-0.2-0.5-0.3-0.7-0.2l-0.9-1c0,0,0,0,0-0.1
				C45.3,229.7,46.1,230,46.7,230.5z"/>
			<line fill="none" stroke="#FFFFFF" stroke-width="0.5" stroke-miterlimit="10" x1="28.1" y1="218.4" x2="37" y2="227.5"/>
			<line fill="none" stroke="#FFFFFF" stroke-width="0.5" stroke-miterlimit="10" x1="26.6" y1="250.8" x2="35.5" y2="241.8"/>
			<path fill="#FFFFFF" d="M68.8,213c0.2-0.2,0.3-0.5,0.2-0.7l0.9-0.9c0.2,0.1,0.5,0,0.7-0.2c0.2-0.2,0.3-0.5,0.2-0.7l0.9-0.9
				c0.2,0.1,0.5,0,0.7-0.2c0.3-0.3,0.3-0.7,0.1-1c0.2-1.1-0.1-2.2-0.8-3c-0.8-0.8-1.9-1.1-3-0.9c-0.3-0.2-0.7-0.2-1,0.1
				c-0.2,0.2-0.3,0.5-0.2,0.7l-0.9,0.9c-0.2-0.1-0.5,0-0.7,0.2c-0.2,0.2-0.3,0.5-0.2,0.7l-0.9,0.9c-0.2-0.1-0.5,0-0.7,0.2
				c-0.2,0.2-0.3,0.5-0.2,0.7l-0.9,0.9c-0.2-0.1-0.5,0-0.7,0.2c-0.3,0.3-0.3,0.8,0,1.1c0.2,0.2,0.5,0.3,0.7,0.2l0.9,1
				c-0.1,0.3,0,0.5,0.2,0.7c0.2,0.2,0.5,0.3,0.7,0.2l0.9,0.9c-0.1,0.3,0,0.5,0.2,0.7c0.3,0.3,0.8,0.3,1.1,0c0.2-0.2,0.3-0.5,0.2-0.7
				l0.9-0.9C68.3,213.3,68.6,213.2,68.8,213z M66.2,213.6l-0.9-0.9c0-0.1,0-0.3,0-0.4l0.9-0.9c0.1,0,0.3,0,0.4,0l0.9,0.9
				c0,0.1,0,0.3,0,0.4l-0.9,0.9C66.5,213.6,66.4,213.6,66.2,213.6z M63.5,210.4l0.9-0.9c0.1,0,0.3,0,0.4,0l0.9,1c0,0.1,0,0.2,0,0.4
				l-0.9,1c-0.1,0-0.2,0-0.4,0l-0.9-1C63.5,210.7,63.5,210.5,63.5,210.4z M68.5,205.7l0.9,1c0,0.1,0,0.2,0,0.4l-0.9,1
				c-0.1,0-0.2,0-0.4,0l-0.9-1c0-0.1,0-0.3,0-0.4l0.9-0.9C68.2,205.8,68.3,205.8,68.5,205.7z M71.2,208.5c0,0.1,0,0.3,0,0.4
				l-0.9,0.9c-0.1,0-0.3,0-0.4,0l-0.9-0.9c0-0.1,0-0.3,0-0.4l0.9-0.9c0.1,0,0.3,0,0.4,0L71.2,208.5z M68.1,211.7l-0.9-0.9
				c0-0.1,0-0.3,0-0.4l0.9-0.9c0.1,0,0.3,0,0.4,0l0.9,0.9c0,0.1,0,0.3,0,0.4l-0.9,0.9C68.3,211.7,68.2,211.7,68.1,211.7z
				 M66.6,207.6l0.9,1c0,0.1,0,0.2,0,0.4l-0.9,1c-0.1,0-0.2,0-0.4,0l-0.9-1c0-0.1,0-0.3,0-0.4l0.9-0.9
				C66.4,207.6,66.5,207.6,66.6,207.6z M71.2,205.8c0.6,0.6,0.8,1.4,0.7,2.2c0,0,0,0-0.1,0l-0.9-0.9c0.1-0.3,0-0.5-0.2-0.7
				s-0.5-0.3-0.7-0.2l-0.9-1c0,0,0,0,0-0.1C69.8,205,70.6,205.2,71.2,205.8z"/>
			<line fill="none" stroke="#FFFFFF" stroke-width="0.5" stroke-miterlimit="10" x1="52.6" y1="193.7" x2="61.5" y2="202.7"/>
			<line fill="none" stroke="#FFFFFF" stroke-width="0.5" stroke-miterlimit="10" x1="51.1" y1="226.1" x2="60" y2="217"/>
			<path fill="#FFFFFF" d="M94.1,187.5c0.2-0.2,0.3-0.5,0.2-0.7l0.9-0.9c0.2,0.1,0.5,0,0.7-0.2c0.2-0.2,0.3-0.5,0.2-0.7l0.9-0.9
				c0.2,0.1,0.5,0,0.7-0.2c0.3-0.3,0.3-0.7,0.1-1c0.2-1.1-0.1-2.2-0.8-3c-0.8-0.8-1.9-1.1-3-0.9c-0.3-0.2-0.7-0.2-1,0.1
				c-0.2,0.2-0.3,0.5-0.2,0.7l-0.9,0.9c-0.2-0.1-0.5,0-0.7,0.2c-0.2,0.2-0.3,0.5-0.2,0.7l-0.9,0.9c-0.2-0.1-0.5,0-0.7,0.2
				c-0.2,0.2-0.3,0.5-0.2,0.7l-0.9,0.9c-0.2-0.1-0.5,0-0.7,0.2c-0.3,0.3-0.3,0.8,0,1.1c0.2,0.2,0.5,0.3,0.7,0.2l0.9,1
				c-0.1,0.3,0,0.5,0.2,0.7c0.2,0.2,0.5,0.3,0.7,0.2l0.9,0.9c-0.1,0.3,0,0.5,0.2,0.7c0.3,0.3,0.8,0.3,1.1,0c0.2-0.2,0.3-0.5,0.2-0.7
				l0.9-0.9C93.6,187.7,93.9,187.7,94.1,187.5z M91.5,188.1l-0.9-0.9c0-0.1,0-0.3,0-0.4l0.9-0.9c0.1,0,0.3,0,0.4,0l0.9,0.9
				c0,0.1,0,0.3,0,0.4l-0.9,0.9C91.8,188,91.7,188,91.5,188.1z M88.8,184.9l0.9-0.9c0.1,0,0.3,0,0.4,0l0.9,1c0,0.1,0,0.2,0,0.4
				l-0.9,1c-0.1,0-0.2,0-0.4,0l-0.9-1C88.8,185.1,88.8,185,88.8,184.9z M93.8,180.2l0.9,1c0,0.1,0,0.2,0,0.4l-0.9,1
				c-0.1,0-0.2,0-0.4,0l-0.9-1c0-0.1,0-0.3,0-0.4l0.9-0.9C93.5,180.3,93.6,180.3,93.8,180.2z M96.5,183c0,0.1,0,0.3,0,0.4l-0.9,0.9
				c-0.1,0-0.3,0-0.4,0l-0.9-0.9c0-0.1,0-0.3,0-0.4l0.9-0.9c0.1,0,0.3,0,0.4,0L96.5,183z M93.4,186.2l-0.9-0.9c0-0.1,0-0.3,0-0.4
				l0.9-0.9c0.1,0,0.3,0,0.4,0l0.9,0.9c0,0.1,0,0.3,0,0.4l-0.9,0.9C93.6,186.2,93.5,186.2,93.4,186.2z M91.9,182.1l0.9,1
				c0,0.1,0,0.2,0,0.4l-0.9,1c-0.1,0-0.2,0-0.4,0l-0.9-1c0-0.1,0-0.3,0-0.4l0.9-0.9C91.7,182.1,91.8,182.1,91.9,182.1z M96.5,180.3
				c0.6,0.6,0.8,1.4,0.7,2.2c0,0,0,0-0.1,0l-0.9-0.9c0.1-0.3,0-0.5-0.2-0.7c-0.2-0.2-0.5-0.3-0.7-0.2l-0.9-1c0,0,0,0,0-0.1
				C95.1,179.5,95.9,179.7,96.5,180.3z"/>
			<line fill="none" stroke="#FFFFFF" stroke-width="0.5" stroke-miterlimit="10" x1="77.9" y1="168.2" x2="86.8" y2="177.2"/>
			<line fill="none" stroke="#FFFFFF" stroke-width="0.5" stroke-miterlimit="10" x1="76.4" y1="200.6" x2="85.3" y2="191.5"/>
			<line fill="none" stroke="#FFFFFF" stroke-width="0.5" stroke-miterlimit="10" x1="101.7" y1="175" x2="110.6" y2="166"/>
			<line fill="none" stroke="#FFFFFF" stroke-width="0.5" stroke-miterlimit="10" x1="50.2" y1="240.8" x2="59.2" y2="249.8"/>
			<path fill="#FFFFFF" d="M90.9,235.3c0.2-0.2,0.3-0.5,0.2-0.7l0.9-0.9c0.2,0.1,0.5,0,0.7-0.2c0.2-0.2,0.3-0.5,0.2-0.7l0.9-0.9
				c0.2,0.1,0.5,0,0.7-0.2c0.3-0.3,0.3-0.7,0.1-1c0.2-1.1-0.1-2.2-0.8-3c-0.8-0.8-1.9-1.1-3-0.9c-0.3-0.2-0.7-0.2-1,0.1
				c-0.2,0.2-0.3,0.5-0.2,0.7l-0.9,0.9c-0.2-0.1-0.5,0-0.7,0.2c-0.2,0.2-0.3,0.5-0.2,0.7l-0.9,0.9c-0.2-0.1-0.5,0-0.7,0.2
				s-0.3,0.5-0.2,0.7l-0.9,0.9c-0.2-0.1-0.5,0-0.7,0.2c-0.3,0.3-0.3,0.8,0,1.1c0.2,0.2,0.5,0.3,0.7,0.2l0.9,1
				c-0.1,0.3,0,0.5,0.2,0.7c0.2,0.2,0.5,0.3,0.7,0.2l0.9,0.9c-0.1,0.3,0,0.5,0.2,0.7c0.3,0.3,0.8,0.3,1.1,0c0.2-0.2,0.3-0.5,0.2-0.7
				l0.9-0.9C90.5,235.6,90.7,235.5,90.9,235.3z M88.4,235.9l-0.9-0.9c0-0.1,0-0.3,0-0.4l0.9-0.9c0.1,0,0.3,0,0.4,0l0.9,0.9
				c0,0.1,0,0.3,0,0.4l-0.9,0.9C88.6,235.9,88.5,235.9,88.4,235.9z M85.6,232.7l0.9-0.9c0.1,0,0.3,0,0.4,0l0.9,1c0,0.1,0,0.2,0,0.4
				l-0.9,1c-0.1,0-0.2,0-0.4,0l-0.9-1C85.6,233,85.6,232.9,85.6,232.7z M90.6,228.1l0.9,1c0,0.1,0,0.2,0,0.4l-0.9,1
				c-0.1,0-0.2,0-0.4,0l-0.9-1c0-0.1,0-0.3,0-0.4l0.9-0.9C90.3,228.1,90.5,228.1,90.6,228.1z M93.4,230.9c0,0.1,0,0.3,0,0.4
				l-0.9,0.9c-0.1,0-0.3,0-0.4,0l-0.9-0.9c0-0.1,0-0.3,0-0.4l0.9-0.9c0.1,0,0.3,0,0.4,0L93.4,230.9z M90.2,234.1l-0.9-0.9
				c0-0.1,0-0.3,0-0.4l0.9-0.9c0.1,0,0.3,0,0.4,0l0.9,0.9c0,0.1,0,0.3,0,0.4l-0.9,0.9C90.5,234,90.3,234,90.2,234.1z M88.8,229.9
				l0.9,1c0,0.1,0,0.2,0,0.4l-0.9,1c-0.1,0-0.2,0-0.4,0l-0.9-1c0-0.1,0-0.3,0-0.4l0.9-0.9C88.5,230,88.6,230,88.8,229.9z
				 M93.3,228.1c0.6,0.6,0.8,1.4,0.7,2.2c0,0,0,0-0.1,0l-0.9-0.9c0.1-0.3,0-0.5-0.2-0.7c-0.2-0.2-0.5-0.3-0.7-0.2l-0.9-1
				c0,0,0,0,0-0.1C91.9,227.3,92.7,227.6,93.3,228.1z"/>
			<line fill="none" stroke="#FFFFFF" stroke-width="0.5" stroke-miterlimit="10" x1="74.7" y1="216" x2="83.7" y2="225.1"/>
			<line fill="none" stroke="#FFFFFF" stroke-width="0.5" stroke-miterlimit="10" x1="73.2" y1="248.4" x2="82.2" y2="239.4"/>
			<path fill="#FFFFFF" d="M116.2,209.8c0.2-0.2,0.3-0.5,0.2-0.7l0.9-0.9c0.2,0.1,0.5,0,0.7-0.2s0.3-0.5,0.2-0.7l0.9-0.9
				c0.2,0.1,0.5,0,0.7-0.2c0.3-0.3,0.3-0.7,0.1-1c0.2-1.1-0.1-2.2-0.8-3c-0.8-0.8-1.9-1.1-3-0.9c-0.3-0.2-0.7-0.2-1,0.1
				c-0.2,0.2-0.3,0.5-0.2,0.7L114,203c-0.2-0.1-0.5,0-0.7,0.2c-0.2,0.2-0.3,0.5-0.2,0.7l-0.9,0.9c-0.2-0.1-0.5,0-0.7,0.2
				c-0.2,0.2-0.3,0.5-0.2,0.7l-0.9,0.9c-0.2-0.1-0.5,0-0.7,0.2c-0.3,0.3-0.3,0.8,0,1.1c0.2,0.2,0.5,0.3,0.7,0.2l0.9,1
				c-0.1,0.3,0,0.5,0.2,0.7c0.2,0.2,0.5,0.3,0.7,0.2l0.9,0.9c-0.1,0.3,0,0.5,0.2,0.7c0.3,0.3,0.8,0.3,1.1,0c0.2-0.2,0.3-0.5,0.2-0.7
				l0.9-0.9C115.8,210.1,116,210,116.2,209.8z M113.7,210.4l-0.9-0.9c0-0.1,0-0.3,0-0.4l0.9-0.9c0.1,0,0.3,0,0.4,0l0.9,0.9
				c0,0.1,0,0.3,0,0.4l-0.9,0.9C113.9,210.4,113.8,210.4,113.7,210.4z M110.9,207.2l0.9-0.9c0.1,0,0.3,0,0.4,0l0.9,1
				c0,0.1,0,0.2,0,0.4l-0.9,1c-0.1,0-0.2,0-0.4,0l-0.9-1C110.9,207.5,110.9,207.3,110.9,207.2z M115.9,202.6l0.9,1
				c0,0.1,0,0.2,0,0.4l-0.9,1c-0.1,0-0.2,0-0.4,0l-0.9-1c0-0.1,0-0.3,0-0.4l0.9-0.9C115.6,202.6,115.8,202.6,115.9,202.6z
				 M118.7,205.4c0,0.1,0,0.3,0,0.4l-0.9,0.9c-0.1,0-0.3,0-0.4,0l-0.9-0.9c0-0.1,0-0.3,0-0.4l0.9-0.9c0.1,0,0.3,0,0.4,0L118.7,205.4
				z M115.5,208.5l-0.9-0.9c0-0.1,0-0.3,0-0.4l0.9-0.9c0.1,0,0.3,0,0.4,0l0.9,0.9c0,0.1,0,0.3,0,0.4l-0.9,0.9
				C115.8,208.5,115.6,208.5,115.5,208.5z M114,204.4l0.9,1c0,0.1,0,0.2,0,0.4l-0.9,1c-0.1,0-0.2,0-0.4,0l-0.9-1c0-0.1,0-0.3,0-0.4
				l0.9-0.9C113.8,204.4,113.9,204.4,114,204.4z M118.6,202.6c0.6,0.6,0.8,1.4,0.7,2.2c0,0,0,0-0.1,0l-0.9-0.9
				c0.1-0.3,0-0.5-0.2-0.7c-0.2-0.2-0.5-0.3-0.7-0.2l-0.9-1c0,0,0,0,0-0.1C117.2,201.8,118,202,118.6,202.6z"/>
			<line fill="none" stroke="#FFFFFF" stroke-width="0.5" stroke-miterlimit="10" x1="100" y1="190.5" x2="109" y2="199.6"/>
			<line fill="none" stroke="#FFFFFF" stroke-width="0.5" stroke-miterlimit="10" x1="98.5" y1="222.9" x2="107.5" y2="213.9"/>
			<line fill="none" stroke="#FFFFFF" stroke-width="0.5" stroke-miterlimit="10" x1="123.8" y1="197.4" x2="132.8" y2="188.3"/>
			<line fill="none" stroke="#FFFFFF" stroke-width="0.5" stroke-miterlimit="10" x1="97.4" y1="239" x2="106.4" y2="248"/>
			<path fill="#FFFFFF" d="M140.5,234.3c0.2-0.2,0.3-0.5,0.2-0.7l0.9-0.9c0.2,0.1,0.5,0,0.7-0.2c0.2-0.2,0.3-0.5,0.2-0.7l0.9-0.9
				c0.2,0.1,0.5,0,0.7-0.2c0.3-0.3,0.3-0.7,0.1-1c0.2-1.1-0.1-2.2-0.8-3c-0.8-0.8-1.9-1.1-3-0.9c-0.3-0.2-0.7-0.2-1,0.1
				c-0.2,0.2-0.3,0.5-0.2,0.7l-0.9,0.9c-0.2-0.1-0.5,0-0.7,0.2c-0.2,0.2-0.3,0.5-0.2,0.7l-0.9,0.9c-0.2-0.1-0.5,0-0.7,0.2
				c-0.2,0.2-0.3,0.5-0.2,0.7l-0.9,0.9c-0.2-0.1-0.5,0-0.7,0.2c-0.3,0.3-0.3,0.8,0,1.1c0.2,0.2,0.5,0.3,0.7,0.2l0.9,1
				c-0.1,0.3,0,0.5,0.2,0.7c0.2,0.2,0.5,0.3,0.7,0.2l0.9,0.9c-0.1,0.3,0,0.5,0.2,0.7c0.3,0.3,0.8,0.3,1.1,0c0.2-0.2,0.3-0.5,0.2-0.7
				l0.9-0.9C140.1,234.6,140.3,234.5,140.5,234.3z M138,234.9L137,234c0-0.1,0-0.3,0-0.4l0.9-0.9c0.1,0,0.3,0,0.4,0l0.9,0.9
				c0,0.1,0,0.3,0,0.4l-0.9,0.9C138.2,234.9,138.1,234.9,138,234.9z M135.2,231.7l0.9-0.9c0.1,0,0.3,0,0.4,0l0.9,1
				c0,0.1,0,0.2,0,0.4l-0.9,1c-0.1,0-0.2,0-0.4,0l-0.9-1C135.2,232,135.2,231.9,135.2,231.7z M140.2,227.1l0.9,1c0,0.1,0,0.2,0,0.4
				l-0.9,1c-0.1,0-0.2,0-0.4,0l-0.9-1c0-0.1,0-0.3,0-0.4l0.9-0.9C139.9,227.1,140.1,227.1,140.2,227.1z M143,229.9
				c0,0.1,0,0.3,0,0.4l-0.9,0.9c-0.1,0-0.3,0-0.4,0l-0.9-0.9c0-0.1,0-0.3,0-0.4l0.9-0.9c0.1,0,0.3,0,0.4,0L143,229.9z M139.8,233.1
				l-0.9-0.9c0-0.1,0-0.3,0-0.4l0.9-0.9c0.1,0,0.3,0,0.4,0l0.9,0.9c0,0.1,0,0.3,0,0.4l-0.9,0.9C140.1,233,139.9,233,139.8,233.1z
				 M138.4,228.9l0.9,1c0,0.1,0,0.2,0,0.4l-0.9,1c-0.1,0-0.2,0-0.4,0l-0.9-1c0-0.1,0-0.3,0-0.4l0.9-0.9
				C138.1,229,138.2,229,138.4,228.9z M142.9,227.1c0.6,0.6,0.8,1.4,0.7,2.2c0,0,0,0-0.1,0l-0.9-0.9c0.1-0.3,0-0.5-0.2-0.7
				s-0.5-0.3-0.7-0.2l-0.9-1c0,0,0,0,0-0.1C141.5,226.3,142.3,226.6,142.9,227.1z"/>
			<line fill="none" stroke="#FFFFFF" stroke-width="0.5" stroke-miterlimit="10" x1="122.8" y1="247.4" x2="131.8" y2="238.4"/>
			<path fill="#FFFFFF" d="M163.7,257.7c0.2-0.2,0.3-0.5,0.2-0.7l0.9-0.9c0.2,0.1,0.5,0,0.7-0.2s0.3-0.5,0.2-0.7l0.9-0.9
				c0.2,0.1,0.5,0,0.7-0.2c0.3-0.3,0.3-0.7,0.1-1c0.2-1.1-0.1-2.2-0.8-3s-1.9-1.1-3-0.9c-0.3-0.2-0.7-0.2-1,0.1
				c-0.2,0.2-0.3,0.5-0.2,0.7l-0.9,0.9c-0.2-0.1-0.5,0-0.7,0.2c-0.2,0.2-0.3,0.5-0.2,0.7l-0.9,0.9c-0.2-0.1-0.5,0-0.7,0.2
				c-0.2,0.2-0.3,0.5-0.2,0.7l-0.9,0.9c-0.2-0.1-0.5,0-0.7,0.2c-0.3,0.3-0.3,0.8,0,1.1c0.2,0.2,0.5,0.3,0.7,0.2l0.9,1
				c-0.1,0.3,0,0.5,0.2,0.7s0.5,0.3,0.7,0.2l0.9,0.9c-0.1,0.3,0,0.5,0.2,0.7c0.3,0.3,0.8,0.3,1.1,0c0.2-0.2,0.3-0.5,0.2-0.7l0.9-0.9
				C163.2,257.9,163.5,257.8,163.7,257.7z M161.1,258.3l-0.9-0.9c0-0.1,0-0.3,0-0.4l0.9-0.9c0.1,0,0.3,0,0.4,0l0.9,0.9
				c0,0.1,0,0.3,0,0.4l-0.9,0.9C161.4,258.2,161.2,258.2,161.1,258.3z M158.3,255.1l0.9-0.9c0.1,0,0.3,0,0.4,0l0.9,1
				c0,0.1,0,0.2,0,0.4l-0.9,1c-0.1,0-0.2,0-0.4,0l-0.9-1C158.3,255.3,158.3,255.2,158.3,255.1z M163.3,250.4l0.9,1
				c0,0.1,0,0.2,0,0.4l-0.9,1c-0.1,0-0.2,0-0.4,0l-0.9-1c0-0.1,0-0.3,0-0.4l0.9-0.9C163.1,250.4,163.2,250.4,163.3,250.4z
				 M166.1,253.2c0,0.1,0,0.3,0,0.4l-0.9,0.9c-0.1,0-0.3,0-0.4,0l-0.9-0.9c0-0.1,0-0.3,0-0.4l0.9-0.9c0.1,0,0.3,0,0.4,0L166.1,253.2
				z M162.9,256.4l-0.9-0.9c0-0.1,0-0.3,0-0.4l0.9-0.9c0.1,0,0.3,0,0.4,0l0.9,0.9c0,0.1,0,0.3,0,0.4l-0.9,0.9
				C163.2,256.4,163.1,256.4,162.9,256.4z M161.5,252.3l0.9,1c0,0.1,0,0.2,0,0.4l-0.9,1c-0.1,0-0.2,0-0.4,0l-0.9-1
				c0-0.1,0-0.3,0-0.4l0.9-0.9C161.2,252.3,161.4,252.3,161.5,252.3z M166,250.5c0.6,0.6,0.8,1.4,0.7,2.2c0,0,0,0-0.1,0l-0.9-0.9
				c0.1-0.3,0-0.5-0.2-0.7c-0.2-0.2-0.5-0.3-0.7-0.2l-0.9-1c0,0,0,0,0-0.1C164.6,249.7,165.4,249.9,166,250.5z"/>
			<line fill="none" stroke="#FFFFFF" stroke-width="0.5" stroke-miterlimit="10" x1="147.4" y1="238.4" x2="156.4" y2="247.4"/>
			<line fill="none" stroke="#FFFFFF" stroke-width="0.5" stroke-miterlimit="10" x1="122.7" y1="213.4" x2="131.7" y2="222.5"/>
			<line fill="none" stroke="#FFFFFF" stroke-width="0.5" stroke-miterlimit="10" x1="148.1" y1="221.9" x2="157.1" y2="212.9"/>
		</g>
	</g>
</g>
</svg>
