<svg xmlns="http://www.w3.org/2000/svg" xml:space="preserve" style="fill-rule:evenodd;clip-rule:evenodd;stroke-miterlimit:1.41421" viewBox="0 0 168 250">
    <g transform="translate(-.1 .2)">
        <path d="M108.2 180.5h49V242h-49z" style="fill:#ba3033"/>
        <path d="M10.2 180.5h49V242h-49z" style="fill:#f7ebe3"/>
        <path d="M108.2 68.6h49v56.1h-49z" style="fill:#e2b5a5"/>
        <path d="M142.7 108c3.2-2.8 5.2-6.8 5.2-11.3s-2-8.6-5.2-11.4l-9.9 11.3z" style="fill:#f7ebe3;fill-rule:nonzero"/>
        <path d="m157.2 68.6-13.4 15.3c3.6 3.1 5.8 7.7 5.8 12.8s-2.3 9.7-5.8 12.8l13.3 15.3V68.6zm-41.4 28.1c0-5.1 2.3-9.7 5.8-12.8l-13.3-15.3v56.1l13.4-15.3c-3.7-3.1-5.9-7.6-5.9-12.7" style="fill:#f7ebe3;fill-rule:nonzero"/>
        <path d="M122.8 85.3c-3.2 2.8-5.2 6.8-5.2 11.3s2 8.6 5.2 11.4l9.9-11.3zm9.9-3.7c3.8 0 7.3 1.4 9.9 3.7l1.2-1.4c-3-2.6-6.9-4.2-11.1-4.2-4.3 0-8.2 1.6-11.2 4.2l1.2 1.4c2.8-2.3 6.2-3.7 10-3.7m0 30.2c-3.8 0-7.2-1.4-9.9-3.7l-1.2 1.4c3 2.6 6.9 4.2 11.1 4.2 4.3 0 8.2-1.6 11.2-4.2l-1.2-1.4c-2.7 2.2-6.2 3.7-10 3.7" style="fill:#f7ebe3;fill-rule:nonzero"/>
        <path d="M108.2 7h49v61.6h-49z" style="fill:#ba3033"/>
        <circle cx="132.7" cy="39.2" r="16" style="fill:#f7ebe3"/>
        <circle cx="132.7" cy="39.2" r="11.7" style="fill:#ba3033"/>
        <circle cx="132.7" cy="39.2" r="7" style="fill:#f7ebe3"/>
        <circle cx="132.7" cy="39.2" r="3.3" style="fill:#ba3033"/>
        <path d="M59.2 180.5h49V242h-49z" style="fill:#f7ebe3"/>
        <path d="m108.2 241.7-24.5-30.5 24.5-30.3zm-49-60.8 24.5 30.4-24.5 30.4z" style="fill:#0e1226;fill-rule:nonzero"/>
        <circle cx="83.7" cy="210.3" r="16" style="fill:none;stroke-width:2px;stroke:#f5eae2"/>
        <path d="M31.5 199.6c-1.9-1.1-3.7-2.1-5.4-3.2-5 2.7-8.3 7.9-8.3 13.9s3.4 11.2 8.3 13.9c1.7-1.1 3.5-2.2 5.4-3.2 5.5-3.1 12.2-5.7 17.6-7.5.2-1 .3-2 .3-3.1s-.1-2.1-.3-3.1c-5.4-2-12.1-4.6-17.6-7.7" style="fill:#0e1226;fill-rule:nonzero"/>
        <path d="M24.2 225.3c-5.1-3.1-8.5-8.7-8.5-15.1s3.4-11.9 8.5-15.1c-6.1-4-10.1-8.1-14-14.3v58.8c4.2-6.6 7.9-10.3 14-14.3m27.2-15c0 .8-.1 1.6-.2 2.4 4.7-1.5 8.1-2.4 8.1-2.4s-3.3-.9-8.1-2.4c.1.7.2 1.5.2 2.4" style="fill:#0e1226;fill-rule:nonzero"/>
        <path d="M33.6 192.5c-3.4 0-6.6 1-9.3 2.7.6.4 1.2.8 1.9 1.2 2.2-1.2 4.8-1.9 7.5-1.9 7.7 0 14 5.4 15.5 12.6.7.2 1.4.5 2.1.7-1.3-8.6-8.7-15.3-17.7-15.3m0 33.5c-2.7 0-5.3-.7-7.5-1.9-.6.4-1.2.8-1.9 1.2 2.7 1.7 5.9 2.7 9.3 2.7 9 0 16.4-6.7 17.6-15.3-.7.2-1.4.5-2.1.7-1.4 7.2-7.8 12.6-15.4 12.6" style="fill:#ba3033;fill-rule:nonzero"/>
        <path d="M59.2 124.7h49v56.1h-49z" style="fill:#e2b5a5"/>
        <path d="M108.2 180.9v-56.2h-49z" style="fill:#ba3033;fill-rule:nonzero"/>
        <path d="M108.2 124.7h49v56.1h-49z" style="fill:#0e1226"/>
        <circle cx="83.7" cy="152.8" r="16" style="fill:none;stroke-width:2px;stroke:#fff"/>
        <circle cx="132.7" cy="152.8" r="16" style="fill:none;stroke-width:2px;stroke:#fff"/>
        <circle cx="132.7" cy="152.8" r="11.1" style="fill:none;stroke-width:2px;stroke:#fff"/>
        <path d="M143.7 152.8H99.1" style="fill:none;stroke-width:2px;stroke:#fff"/>
        <path d="M10.2 68.6h49v56.1h-49z" style="fill:#e2b5a5"/>
        <path d="M34.7 128.7v-16.6" style="fill:none;stroke-width:2px;stroke:#fff"/>
        <path d="M10.2 7h49v61.6h-49z" style="fill:#ba3033"/>
        <path d="M59.2 68.6c-11.6.8-15.7 1.2-24.5 7.5-9.5-6.5-13.2-6.8-24.5-7.5z" style="fill:#ba3033;fill-rule:nonzero"/>
        <circle cx="34.7" cy="96.7" r="16" style="fill:none;stroke-width:2px;stroke:#fff"/>
        <path d="m22.7 49.7 12.1-10.5 12 10.5c2.5-2.8 4-6.5 4-10.5s-1.5-7.7-4-10.5L34.7 39.2l-12-10.5c-2.5 2.8-4 6.5-4 10.5s1.5 7.7 4 10.5" style="fill:#f7ebe3;fill-rule:nonzero"/>
        <path d="M46.8 28.7c-2.9-3.4-7.2-5.5-12.1-5.5-4.8 0-9.1 2.1-12.1 5.5l12 10.5zm0 21-12-10.5-12.1 10.5c2.9 3.4 7.2 5.5 12.1 5.5 4.8 0 9.1-2.1 12-5.5" style="fill:#e2b5a5;fill-rule:nonzero"/>
        <path d="m42.6 101.5-8.2-14.4m.7 19.1-8.2-14.4" style="fill:none;stroke-width:2px;stroke:#fff"/>
        <path d="m144.1 198.9-11.4-10.4-10.2 9.3c-3.6 2.9-5.9 7.4-5.9 12.4 0 8.9 7.2 16 16 16 8.9 0 16-7.2 16-16 .2-4.4-1.6-8.4-4.5-11.3" style="fill:#f7ebe3;fill-rule:nonzero"/>
        <path d="M59.2 7h49v61.6h-49z" style="fill:#e2b5a5"/>
        <path d="M59.2 68.6h49v56.1h-49z" style="fill:#0e1226"/>
        <circle cx="83.7" cy="96.7" r="16" style="fill:#ba3033"/>
        <path d="M83.7 25.2c7.7 0 14 6.3 14 14 0 4.2-1.9 8.2-5.2 10.9-5.3 4.6-7.8 7-8.9 8.4-1.2-1.4-3.9-4.1-9.9-9.4-2.6-2.6-4.1-6.1-4.1-9.9.1-7.7 6.4-14 14.1-14m0-2c-8.9 0-16 7.2-16 16 0 4.4 1.8 8.4 4.7 11.3 0 0 10.2 9.1 10.4 10.1.1.9.9 2.2.9 2.2s.9-1.5.9-2.2c.1-1.1 9.2-9 9.2-9 3.6-2.9 5.9-7.4 5.9-12.4.1-8.9-7.1-16-16-16" style="fill:#fff;fill-rule:nonzero"/>
        <path d="M83.7 106.4V60.1" style="fill:#d1d3d4;fill-rule:nonzero;stroke-width:2px;stroke:#fff"/>
        <path d="M10.2 124.7h49v56.1h-49z" style="fill:#ba3033"/>
        <path d="M18.7 152.8c0-8.9 7.2-16 16-16 4 0 7.7 1.5 10.5 4l14-16h-49v56.1l14-16c-3.4-3-5.5-7.3-5.5-12.1" style="fill:#f7ebe3;fill-rule:nonzero"/>
        <path d="m45.3 140.7-21.1 24.1c2.8 2.5 6.5 4 10.5 4 8.9 0 16-7.2 16-16 .1-4.8-2.1-9.1-5.4-12.1" style="fill:#f7ebe3;fill-rule:nonzero"/>
        <path d="m76.8 89.7 13.9 13.9m-16.8-6.9h19.7m-16.8 6.9 13.9-13.9" style="fill:#d1d3d4;fill-rule:nonzero;stroke-width:2px;stroke:#fff"/>
        <path d="m108.2 9.2-24.5 7.5-24.5-7.5z" style="fill:#f7ebe3;fill-rule:nonzero"/>
    </g>
    <path d="M149.1 1.8h-131c-5.9 0-13.5 7.5-13.5 13.4v219.2c0 5.9 7.6 13.4 13.5 13.4h131c5.9 0 13.5-7.5 13.5-13.4V15.1c0-5.8-7.6-13.3-13.5-13.3m7.5 231.7c0 4.4-3.6 8-8 8h-130c-4.4 0-8-3.6-8-8V16c0-4.4 3.6-8 8-8h130c4.4 0 8 3.6 8 8z" style="fill:#fff;fill-rule:nonzero" transform="translate(0 -.1)"/>
    <path d="M148.5 245H18.9c-6.2 0-11.3-5.1-11.3-11.3V15.8c0-6.2 5.1-11.3 11.3-11.3h129.7c6.2 0 11.3 5.1 11.3 11.3v217.9c0 6.2-5.1 11.3-11.4 11.3Z" style="fill:none;stroke-width:1px;stroke:#ba3033" transform="translate(-.15 -.05)"/>
</svg>
