<svg xmlns="http://www.w3.org/2000/svg" xmlns:xlink="http://www.w3.org/1999/xlink" xml:space="preserve" viewBox="0 0 167.2 249.4">
    <path fill="#F5E6B5" d="M-5.7-5.7h178.6v260.8H-5.7z"/>
    <circle cx="20.8" cy="39.2" r="2.6" fill="#BA3033"/>
    <path d="M14.175 28.609v-.98l1.75-.22v-8.53l-1.79.03v-.96l3.33-.71v10.17l1.75.22v.98Zm9.78.16q-1.03 0-1.85-.37-.82-.38-1.27-1.08t-.43-1.66l.02-.05h1.47q0 .59.25 1.04.25.44.71.68t1.1.24q.98 0 1.54-.53.55-.53.55-1.57 0-1.06-.49-1.56t-1.56-.5h-1.34v-1.2h1.34q.69 0 1.1-.23t.59-.66q.19-.44.19-1.05 0-.97-.49-1.48-.48-.51-1.43-.51-.59 0-1.04.24t-.69.67q-.25.44-.25 1.02h-1.48l-.01-.05q-.03-.85.41-1.56.43-.7 1.22-1.11.8-.42 1.84-.42 1.58 0 2.52.84t.94 2.4q0 .7-.43 1.4-.42.7-1.28 1.06 1.03.34 1.45 1.06.43.72.43 1.61 0 1.03-.47 1.78-.46.75-1.28 1.15-.81.4-1.88.4"/>
    <circle cx="146.4" cy="210.3" r="2.6" fill="#BA3033"/>
    <path d="M153.083 220.843v.98l-1.75.22v8.53l1.79-.03v.96l-3.33.71v-10.17l-1.75-.22v-.98Zm-9.78-.16q1.03 0 1.85.37.82.38 1.27 1.08t.43 1.66l-.02.05h-1.47q0-.59-.25-1.04-.25-.44-.71-.68t-1.1-.24q-.98 0-1.54.53-.55.53-.55 1.57 0 1.06.49 1.56t1.56.5h1.34v1.2h-1.34q-.69 0-1.1.23t-.59.66q-.19.44-.19 1.05 0 .97.49 1.48.48.51 1.43.51.59 0 1.04-.24t.69-.67q.25-.44.25-1.02h1.48l.01.05q.03.85-.41 1.56-.43.7-1.22 1.11-.8.42-1.84.42-1.58 0-2.52-.84t-.94-2.4q0-.7.43-1.4.42-.7 1.28-1.06-1.03-.34-1.45-1.06-.43-.72-.43-1.61 0-1.03.47-1.78.46-.75 1.28-1.15.81-.4 1.88-.4"/>
    <path fill="#D9C8C1" d="M98.4 186.9c-.4-10-6.7-14.8-12.3-19-5-3.8-9.3-7-9.6-13.8s2.9-10.8 7.5-14.9c5.2-4.6 10.4-8.5 10-18.5-.1-1.9 0-4.2-1.8-4.2-1.9.1-1.9 2.2-1.8 4 .3 6.8-5.3 9.8-10 14-5.2 4.6-11.2 9.9-10.8 19.9s6.7 14.8 12.3 19c.9.7 1.7 1.3 2.5 1.9 0 0 8.9 8.1 4 17.4-1.5 2.9-6.6 5.9-7.6 6.8-5.2 4.6 2.1 11.4 6.8 7.3 5.2-4.6 11.2-9.9 10.8-19.9"/>
    <path d="M35.805 170.332v-3.03h16.46v-75.92l-18.98 4.27v-2.81l22.01-4.72v79.18h16.45v3.03Zm70.31 1.18q-6.91 0-12.95-2.75-6.03-2.75-9.65-8.03-3.63-5.28-3.46-12.8l.11-.34h2.59q0 6.06 3.03 10.78t8.34 7.41q5.31 2.7 11.99 2.7 10.1 0 15.72-5.2 5.62-5.19 5.62-14.4 0-9.55-6.43-14.12-6.43-4.58-17.44-4.58h-6.23v-3.14h6.23q6.85 0 11.79-2.36t7.61-6.38q2.67-4.01 2.67-8.95 0-8.26-5.08-13.59-5.09-5.33-14.97-5.33-6.06 0-10.84 2.41-4.77 2.41-7.52 6.79t-2.75 10.34h-2.58l-.12-.34q-.17-6.63 2.95-11.62 3.12-5 8.59-7.81 5.48-2.81 12.27-2.81 10.56 0 16.82 5.98t6.26 16.2q0 6.46-4.07 11.57t-10.98 7.36q7.98 1.96 12.41 7.13 4.44 5.16 4.44 13.03 0 7.07-3.09 12.21t-8.59 7.89q-5.51 2.75-12.69 2.75"/>
    <path fill="#D9C8C1" d="M121.8 223.7c0-20.8-16.8-37.8-37.7-37.8-20.8 0-37.8 16.8-37.8 37.7 0 25.6 25.9 54.2 37.7 54.2s37.8-30.5 37.8-54.1"/>
    <path fill="#D18C52" d="M103.9 75.6H62.7L57.1-27.6h52.3z"/>
    <g fill="#D18C52">
        <circle cx="63.9" cy="77.5" r="11.6"/>
        <circle cx="83.6" cy="77.5" r="11.6"/>
        <circle cx="102.6" cy="77.5" r="11.6"/>
    </g>
    <path fill="#522B10" d="M65.7 97.7 67 84.3l-6.6 1zm17 .1L86 84.7h-6.7zm17.8-.1 5.3-12.4-6.7-1z"/>
    <circle cx="62.9" cy="81.1" r="4.7" fill="#D18C52"/>
    <circle cx="82.6" cy="81.1" r="4.7" fill="#D18C52"/>
    <circle cx="103" cy="81.1" r="4.7" fill="#D18C52"/>
    <path fill="#D55627" d="m59.5 15.8.2 4.9 32.6-4.9zm-.6-11 .1 2.5 16.6-2.5z"/>
    <path fill="#C96928" d="M90.9 31.1h15.4l.1-2.7z"/>
    <path fill="#D18C52" d="M104.7 61.3c0 1.8.6 3.8 3.9 6.3 3.2 2.5-6.4 3.9-6.4 3.9l-1.9-7.5c-.1-.1 4.4-4.5 4.4-2.7m-42.9-.8c.1 2.8-1.4 5.7-3.5 6.8-2.1 1 5.2 4.3 5.2 4.3L68.8 61z"/>
    <defs>
        <path id="a" d="M98.4 186.9c-.4-10-6.7-14.8-12.3-19-5-3.8-9.3-7-9.6-13.8s2.9-10.8 7.5-14.9c5.2-4.6 10.4-8.5 10-18.5-.1-1.9 0-4.2-1.8-4.2-1.9.1-1.9 2.2-1.8 4 .3 6.8-5.3 9.8-10 14-5.2 4.6-11.2 9.9-10.8 19.9s6.7 14.8 12.3 19c.9.7 1.7 1.3 2.5 1.9 0 0 8.9 8.1 4 17.4-1.5 2.9-6.6 5.9-7.6 6.8-5.2 4.6 2.1 11.4 6.8 7.3 5.2-4.6 11.2-9.9 10.8-19.9"/>
    </defs>
    <clipPath id="b">
        <use xlink:href="#a" overflow="visible"/>
    </clipPath>
    <g clip-path="url(#b)" opacity=".08">
        <path d="m90.5 125.1-1.2-1.3-1.4 1.2-1.2-1.4-1.3 1.2-1.2-1.3-1.4 1.2-1.2-1.4-1.4 1.2-1.2-1.3-1.3 1.2-1.2-1.4-1.4 1.2-1.2-1.3-1.8 1.6 2.6.1.8.1 1.7.1h.9l1.7.1.8.1 1.8.1h.8l1.7.1.9.1 1.7.1h.8l1.7.1.9.1 2.5.1-1.6-1.8zm3.1-10.1-1.2-1.3-1.3 1.2-1.2-1.4-1.4 1.2-1.2-1.3-1.3 1.2-1.3-1.4-1.3 1.2-1.2-1.3-1.4 1.2-1.2-1.4-1.3 1.2-1.2-1.3-1.8 1.6 2.5.1.9.1 1.7.1h.8l1.7.1.9.1 1.7.1h.9l1.7.1.8.1 1.7.1h.9l1.7.1.8.1 2.6.1-1.6-1.8zm-6.2 26.6-1.4 1.2-1.2-1.3-1.3 1.2-1.2-1.4-1.4 1.2-1.2-1.3-1.3 1.2-1.2-1.4-1.4 1.2-1.2-1.3-1.4 1.2-1.2-1.4-1.8 1.7 2.6.1.8.1h1.7l.9.1 1.7.1h.9l1.7.1.8.1 1.7.1h.9l1.7.1.8.1 1.7.1h.9l2.6.2-1.6-1.8-1.4 1.2zm14.4 3.4-1.4 1.2-1.2-1.3-1.4 1.2-1.2-1.4-1.3 1.2-1.2-1.3-1.4 1.2-1.2-1.4-1.3 1.2-1.2-1.3-1.4 1.2-1.2-1.4-1.4 1.2-1.2-1.3-1.3 1.2-1.2-1.4-1.4 1.3-1.2-1.4-1.3 1.2-1.2-1.3-1.4 1.2-1.2-1.4-1.8 1.6 2.5.2h.9l1.7.1.9.1 1.7.1h.8l1.7.1.9.1 1.7.1h.8l1.7.1h.9l1.7.1.9.1 1.7.1h.8l1.7.1.9.1 1.7.1h.8l1.8.1.8.1 2.6.1zm-4.2-2.8-1.3 1.2-1.2-1.3-1.8 1.6 2.5.1.9.1 1.7.1h.8l2.6.2-1.6-1.8-1.4 1.2zm-2.4-2.7-1.8 1.6 2.6.2h.8l2.6.2-1.6-1.8-1.4 1.2zm-7.4-5.6-1.3 1.3-1.2-1.4-1.4 1.2-1.2-1.3-1.3 1.2-1.2-1.4-1.4 1.2-1.2-1.3-1.4 1.2-1.2-1.4-1.3 1.2-1.2-1.3-1.4 1.2-1.2-1.4-1.8 1.6 2.6.2h.8l1.7.1.9.1 1.7.1h.8l1.7.1.9.1 1.7.1h.9l1.7.1.8.1 1.7.1h.9l1.7.1.8.1 1.8.1h.8l1.7.1h.9l2.5.2-1.6-1.8-1.3 1.2-1.2-1.4-1.4 1.2-1.2-1.3-1.4 1.2zm6.7-3.4-1.2-1.4-1.4 1.2-1.2-1.3-1.4 1.2-1.2-1.4-1.3 1.2-1.2-1.3-1.4 1.2-1.2-1.4-1.3 1.2-1.3-1.3-1.3 1.2-1.2-1.4-1.4 1.2-1.2-1.3-1.3 1.2-1.2-1.4-1.4 1.2-1.2-1.3-1.8 1.6 2.6.2h.8l1.7.1h.9l1.7.1.8.1 1.7.1h.9l1.7.1.9.1 1.7.1h.8l1.7.1.9.1 1.7.1h.8l1.7.1.9.1 1.7.1h.9l2.5.2-1.6-1.8zm-4.6-2.4 2.5.1.9.1 2.6.1-1.6-1.8-1.4 1.2-1.2-1.3zm2.8 10.4 2.6.2-1.6-1.8-1.4 1.2-1.2-1.4-1.8 1.6 2.6.2zm.3-5.1 2.6.1-1.6-1.8-1.4 1.2-1.2-1.3-1.8 1.6 2.6.1zm-22.7-6.5 1.7.1.8.1 1.7.1h.9l1.7.1.8.1 1.7.1h.9l1.7.1.9.1 1.7.1h.8l2.6.2-1.6-1.8-1.4 1.2L84 126l-1.3 1.2-1.2-1.3-1.4 1.2-1.2-1.4-1.4 1.2-1.2-1.3-1.3 1.2-1.2-1.4-1.4 1.2-1.2-1.3-1.3 1.2-1.3-1.4-1.8 1.6 2.6.2zM74 122l1.7.1.8.1 1.7.1h.9l1.7.1.8.1 1.8.1h.8l1.7.1.9.1 1.7.1h.8l2.6.1-1.6-1.8-1.4 1.2-1.2-1.3-1.3 1.2-1.2-1.4-1.4 1.3-1.2-1.4-1.4 1.2-1.2-1.3-1.3 1.2-1.2-1.4-1.4 1.2-1.2-1.3-1.3 1.2-1.2-1.4-1.9 1.6 2.6.2zm1.8-2.4 1.7.1h.9l1.7.1h.8l1.7.1.9.1 1.7.1h.9l1.7.1.8.1 1.7.1h.9l2.5.2-1.6-1.8-1.3 1.2-1.2-1.4-1.4 1.2-1.2-1.3-1.3 1.2-1.2-1.4-1.4 1.2-1.2-1.3-1.4 1.2-1.2-1.4-1.3 1.2-1.2-1.3-1.4 1.2-1.2-1.4-1.8 1.7 2.6.1zm1-2.6 1.7.1.9.1 1.7.1h.8l1.7.1.9.1 1.7.1h.9l1.7.1.8.1 1.7.1h.9l2.5.2-1.6-1.8-1.3 1.2-1.2-1.4-1.4 1.2L88 116l-1.3 1.2-1.2-1.4-1.4 1.2-1.2-1.3-1.4 1.2-1.2-1.4-1.3 1.2-1.2-1.3-1.4 1.2-1.2-1.4-1.8 1.6 2.6.2zm.3-5.1 1.7.1.9.1 1.7.1h.8l1.7.1.9.1 1.7.1h.9l1.7.1.8.1 1.7.1h.9l2.5.2-1.6-1.9-1.3 1.3-1.2-1.4-1.4 1.2-1.2-1.3-1.3 1.2-1.3-1.4-1.3 1.2-1.2-1.3-1.4 1.2-1.2-1.4-1.3 1.2-1.2-1.3-1.4 1.2-1.2-1.4-1.8 1.6 2.6.2zm-2.2 38.4 1.7.1.9.1 1.7.1h.8l1.7.1.9.1 1.7.1h.8l1.8.1.8.1 1.7.1h.9l1.7.1.8.1 1.7.1h.9l2.6.2-1.7-1.8-1.3 1.2-1.2-1.4-1.4 1.2-1.2-1.3-1.3 1.2-1.2-1.4-1.4 1.2-1.2-1.3-1.4 1.2-1.2-1.4-1.3 1.2L81 149l-1.4 1.2-1.2-1.4-1.3 1.2-1.2-1.3-1.4 1.2-1.2-1.4-1.8 1.6 2.6.2zm-2.4-2.7.8.1 1.8.1h.8l1.7.1.9.1 1.7.1h.8l1.7.1.9.1 1.7.1h.8l1.8.1.8.1 1.7.1h.9l1.7.1.8.1 2.6.1-1.6-1.8-1.4 1.2-1.2-1.4-1.3 1.3-1.2-1.4-1.4 1.2-1.2-1.3-1.4 1.2-1.2-1.4-1.3 1.2-1.2-1.3-1.4 1.2-1.2-1.4-1.3 1.2-1.2-1.3-1.4 1.2-1.2-1.4-1.4 1.2-1.2-1.3-1.8 1.6zm-1.3-7.8 1.7.1.9.1 1.7.1h.8l1.8.1.8.1 1.7.1h.9l1.7.1.8.1 1.7.1h.9l2.6.2-1.7-1.8-1.3 1.2-1.2-1.4-1.4 1.2-1.2-1.3-1.3 1.2-1.2-1.4-1.4 1.2-1.2-1.3-1.4 1.2-1.2-1.4-1.3 1.2-1.2-1.3-1.4 1.2-1.2-1.4-1.8 1.6 2.6.2zm-1.5-2.6 1.7.1h.8l1.7.1.9.1 1.7.1h.8l1.8.1.8.1 1.7.1h.9l1.7.1.8.1 2.6.1-1.6-1.8-1.4 1.2-1.2-1.3-1.3 1.2-1.2-1.4-1.4 1.2-1.2-1.3-1.4 1.2-1.2-1.4-1.3 1.2-1.2-1.3-1.4 1.2-1.2-1.4-1.3 1.2-1.2-1.3-1.8 1.6 2.5.1zm.3-5.1 1.7.1h.8l1.7.1.9.1 1.7.1h.8l1.7.1.9.1h1.7l.9.1 1.7.1h.8l2.6.2-1.6-1.8-1.4 1.2-1.2-1.4-1.3 1.2-1.2-1.3-1.4 1.2-1.2-1.4-1.4 1.3-1.2-1.4-1.3 1.2-1.2-1.3-1.4 1.2-1.2-1.4-1.3 1.2-1.2-1.3-1.9 1.6 2.6.1zm5.4 38.8 1.7.1.9.1 1.7.1h.9l1.7.1.8.1 1.7.1h.9l1.7.1.8.1 1.7.1h.9l1.7.1h.9l1.7.1.8.1 2.6.1-1.6-1.8-1.4 1.2-1.2-1.3-1.3 1.2-1.3-1.4-1.3 1.2-1.2-1.3-1.4 1.2-1.2-1.4-1.3 1.3-1.2-1.4-1.4 1.2-1.2-1.3-1.3 1.2-1.3-1.4-1.3 1.2-1.2-1.3-1.4 1.2-1.2-1.4-1.8 1.6 2.6.2zm-1.5-2.6 1.7.1h.8l1.7.1.9.1 1.7.1h.9l1.7.1h.8l1.7.1.9.1 1.7.1h.8l1.7.1.9.1 1.7.1h.9l2.5.2-1.6-1.8L94 169l-1.3-1.4-1.3 1.2-1.2-1.3-1.4 1.2-1.2-1.4-1.3 1.2-1.2-1.3-1.4 1.2-1.2-1.4-1.3 1.2-1.3-1.3-1.3 1.2-1.2-1.4L76 168l-1.2-1.4-1.3 1.2-1.2-1.3-1.8 1.6 2.5.1zm1.8-2.5 1.7.1h.9l1.7.1.8.1 1.8.1h.8l1.7.1.9.1 1.7.1h.8l1.7.1.9.1 1.7.1h.9l1.7.1.8.1 2.6.1-1.6-1.8-1.4 1.2-1.2-1.3-1.4 1.2L92 165l-1.3 1.2-1.2-1.3-1.4 1.2-1.2-1.4-1.3 1.2-1.2-1.3-1.4 1.2-1.2-1.4-1.4 1.2-1.2-1.3-1.3 1.2-1.2-1.4-1.4 1.2-1.2-1.3-1.8 1.6 2.6.1zm-2.4-2.7h.9l1.7.1.8.1 1.7.1h.9l1.7.1.8.1 1.8.1h.8l1.7.1.9.1 1.7.1h.8l1.7.1.9.1 1.7.1h.9l2.5.2-1.6-1.8-1.3 1.2-1.3-1.4-1.3 1.2-1.2-1.3-1.4 1.2-1.2-1.4-1.3 1.2-1.2-1.3-1.4 1.2-1.2-1.4-1.4 1.2-1.2-1.3-1.3 1.2-1.2-1.4-1.4 1.2-1.2-1.3-1.3 1.2-1.2-1.4-1.8 1.6zm1.2-5.1 1.7.1.8.1 1.7.1h.9l1.7.1.8.1 1.8.1h.8l1.7.1.9.1H89l.8.1 1.7.1h.9l1.7.1.8.1 2.6.1-1.6-1.8-1.4 1.2-1.2-1.3-1.3 1.2-1.2-1.4-1.4 1.2-1.2-1.3-1.3 1.2-1.2-1.4-1.4 1.3-1.2-1.4-1.4 1.2-1.2-1.3-1.3 1.2-1.2-1.4-1.4 1.2-1.2-1.3-1.3 1.2-1.2-1.4-1.9 1.6 2.6.2zm-1.5-5.2 1.8.1h.8l1.7.1.9.1 1.7.1h.8l1.7.1.9.1 1.7.1h.9l1.7.1.8.1 1.7.1h.9l1.7.1.8.1 2.6.1-1.6-1.8-1.4 1.2-1.2-1.3-1.3 1.2-1.2-1.4-1.4 1.2-1.2-1.3-1.3 1.2-1.3-1.4-1.3 1.2-1.2-1.3-1.4 1.2-1.2-1.4-1.3 1.2-1.2-1.3-1.4 1.2-1.2-1.4-1.4 1.2-1.2-1.3-1.8 1.6 2.6.1zm25 28-1.4 1.2-1.2-1.4-1.3 1.2-1.2-1.3-1.4 1.2-1.2-1.4-1.3 1.2-1.3-1.3-1.3 1.2-1.2-1.4-1.4 1.2-1.2-1.3-1.3 1.2-1.2-1.4-1.8 1.7 2.5.1.9.1 1.7.1h.8l1.7.1h.9l1.7.1.9.1 1.7.1h.8l1.7.1.9.1 1.7.1h.8l2.6.2zm-.5-20.6-1.4 1.2-1.2-1.4-1.4 1.3-1.2-1.4-1.3 1.2-1.2-1.3-1.4 1.2-1.2-1.4-1.3 1.2-1.2-1.3-1.4 1.2-1.2-1.4-1.4 1.2-1.2-1.3-1.3 1.2L77 159l-1.4 1.2-1.2-1.3-1.8 1.6 2.6.1.8.1 1.7.1h.9l1.7.1.8.1 1.7.1h.9l1.7.1.9.1 1.7.1h.8l1.7.1.9.1 1.7.1h.8l1.8.1.8.1 2.6.1zm.3-5.1-1.4 1.2-1.2-1.4-1.4 1.2-1.2-1.3-1.3 1.2-1.2-1.4-1.4 1.2-1.2-1.3-1.3 1.2-1.2-1.4-1.4 1.2-1.2-1.3-1.4 1.2-1.2-1.4-1.3 1.2-1.2-1.3-1.4 1.2-1.2-1.4-1.8 1.7 2.6.1.8.1H78l.9.1 1.7.1h.8l1.7.1.9.1 1.7.1h.9l1.7.1.8.1 1.7.1h.9l1.7.1.8.1 1.7.1h.9l2.6.2zm-.9 52.6-1.2-1.4-1.4 1.2-1.2-1.3-1.4 1.2-1.2-1.4-1.3 1.2-1.2-1.3-1.4 1.2-1.2-1.4-1.3 1.3-1.2-1.4-1.4 1.2-1.2-1.3-1.8 1.6 2.6.1.8.1 1.7.1h.9l1.7.1.8.1 1.7.1h.9l1.7.1h.8l1.8.1.8.1 1.7.1h.9l2.5.2-1.6-1.8zm.3-5.1-1.2-1.4-1.4 1.2-1.2-1.3-1.4 1.2-1.2-1.4-1.3 1.2-1.2-1.3-1.4 1.2-1.2-1.4-1.3 1.2-1.2-1.3-1.4 1.2-1.2-1.4-1.8 1.6 2.5.2h.9l1.7.1.9.1 1.7.1h.8l1.7.1.9.1 1.7.1h.8l1.7.1.9.1 1.7.1h.9l2.5.2-1.6-1.8zm.3-5.2-1.3-1.3-1.3 1.2-1.2-1.4-1.4 1.3-1.2-1.4-1.3 1.2-1.2-1.3-1.4 1.2-1.2-1.4-1.3 1.2-1.3-1.3-1.3 1.2-1.2-1.4-1.8 1.6 2.5.2h.9l1.7.1.9.1 1.7.1h.8l1.7.1.9.1 1.7.1h.8l1.7.1.9.1 1.7.1h.9l2.5.1-1.6-1.8zm.3-5.1-1.3-1.3-1.3 1.2-1.2-1.4-1.4 1.2-1.2-1.3-1.3 1.2-1.2-1.4-1.4 1.2-1.2-1.3-1.4 1.2-1.2-1.4-1.3 1.2-1.2-1.3-1.8 1.6 2.5.1.9.1 1.7.1h.8l1.8.1.8.1 1.7.1h.9l1.7.1.8.1 1.7.1h.9l1.7.1.9.1 2.5.1-1.6-1.8zm-16.4-5.6 1.7.1h.8l1.7.1.9.1 1.7.1h.9l1.7.1.8.1 1.7.1h.9l1.7.1.8.1 2.6.1-1.6-1.8-1.4 1.2-1.2-1.3-1.3 1.2-1.2-1.4-1.4 1.2-1.2-1.3-1.3 1.2-1.3-1.4-1.3 1.2-1.2-1.3-1.4 1.2-1.2-1.4-1.3 1.2-1.2-1.3-1.8 1.6 2.5.1zM79 184h.8l1.7.1.9.1 1.7.1h.8l1.7.1.9.1 1.7.1h.9l1.7.1.8.1 1.7.1h.9l2.5.1-1.6-1.8-1.3 1.2-1.2-1.3-1.4 1.2-1.2-1.4-1.3 1.3-1.2-1.4-1.4 1.2-1.2-1.3-1.4 1.2-1.2-1.4-1.3 1.2-1.2-1.3-1.4 1.2-1.2-1.4-1.8 1.6zm1.1-5.1 1.7.1h.9l1.7.1.8.1 1.7.1h.9l1.7.1.9.1 1.7.1h.8l1.7.1.9.1 2.5.1-1.6-1.8-1.3 1.2-1.2-1.3-1.4 1.2-1.2-1.4L90 179l-1.3-1.3-1.3 1.2-1.2-1.4-1.4 1.2-1.2-1.3-1.3 1.2-1.2-1.4-1.4 1.2-1.2-1.3-1.8 1.6 2.6.1zm-2.4-2.7 1.7.1h.9l1.7.1.8.1 1.7.1h.9l1.7.1.8.1 1.7.1h.9l1.7.1.9.1 2.5.1-1.6-1.8-1.3 1.2-1.2-1.3-1.4 1.2-1.2-1.4-1.4 1.2-1.2-1.3-1.3 1.2-1.2-1.4-1.4 1.2-1.2-1.3-1.3 1.2-1.3-1.4-1.3 1.2-1.2-1.3-1.8 1.6 2.5.1zm-1.6-2.7 1.7.1.9.1 1.7.1h.9l1.7.1.8.1 1.7.1h.9l1.7.1.8.1 1.7.1h.9l1.7.1.9.1 1.7.1h.8l2.6.2-1.6-1.9-1.4 1.3-1.2-1.4-1.3 1.2-1.2-1.3-1.4 1.2-1.2-1.4-1.4 1.2-1.2-1.3-1.3 1.2-1.2-1.4-1.4 1.2-1.2-1.3-1.3 1.2-1.2-1.4-1.4 1.2-1.2-1.3-1.4 1.2-1.2-1.4-1.8 1.6 2.6.2zm4.2 31.1 1.8.1h.8l1.7.1.9.1 1.7.1h.8l1.7.1.9.1 1.7.1h.8l1.8.1.8.1 2.6.1-1.6-1.8-1.4 1.2-1.2-1.3-1.4 1.2-1.2-1.4-1.3 1.2-1.2-1.3-1.4 1.2-1.2-1.4-1.3 1.2-1.2-1.3-1.4 1.2-1.2-1.4-1.4 1.2-1.2-1.3-1.8 1.6 2.6.2zm-.5-5.2.8.1 1.7.1h.9l1.7.1.9.1 1.7.1h.8l1.7.1.9.1 1.7.1h.8l1.7.1.9.1 2.6.1-1.6-1.8-1.4 1.2-1.2-1.3-1.4 1.2-1.2-1.4-1.3 1.2-1.2-1.3-1.4 1.2-1.2-1.4-1.3 1.2-1.2-1.3-1.4 1.2-1.2-1.4-1.4 1.2-1.2-1.3-1.8 1.6zm1.1-5 1.7.1h.9l1.7.1.9.1h1.7l.8.1 1.7.1h.9l1.7.1.8.1 1.7.1h.9l2.6.2-1.6-1.8-1.4 1.2-1.2-1.4-1.4 1.2-1.2-1.3-1.3 1.2-1.2-1.4-1.4 1.2L87 193l-1.3 1.2-1.3-1.4-1.3 1.3-1.2-1.4-1.4 1.2-1.2-1.3-1.8 1.6 2.6.1zm-1.4-5.3 1.7.1.9.1 1.7.1h.8l1.8.1.8.1 1.7.1h.9l1.7.1.8.1 1.7.1h.9l2.5.2-1.6-1.8-1.3 1.2-1.2-1.4-1.4 1.2-1.2-1.3-1.3 1.2-1.2-1.4-1.4 1.2-1.2-1.3-1.4 1.2-1.2-1.4-1.3 1.2-1.2-1.3-1.4 1.2-1.2-1.4-1.8 1.6 2.6.2z"/>
    </g>
</svg>
