<svg xmlns="http://www.w3.org/2000/svg" xml:space="preserve" viewBox="0 0 167.2 249.4">
    <path fill="#AFC3CF" d="M-5.7-5.7h178.6v260.8H-5.7z"/>
    <circle cx="125.9" cy="245.1" r="6.1" fill="#FFF"/>
    <circle cx="134.7" cy="236.6" r="7.9" fill="#FFF"/>
    <circle cx="140.1" cy="229.8" r="3.2" fill="#FFF"/>
    <circle cx="146.6" cy="224" r="6.5" fill="#FFF"/>
    <circle cx="160.5" cy="209.4" r="7.9" fill="#FFF"/>
    <circle cx="160" cy="218.5" r="9.6" fill="#FFF"/>
    <circle cx="20.8" cy="39.2" r="2.6" fill="#BA3033"/>
    <path d="M20.622 29.927q-1.3 0-2.32-.48-1.02-.47-1.59-1.35-.57-.87-.54-2.07l.03-.06h1.84q0 .74.31 1.29.31.56.89.86t1.38.3q1.22 0 1.91-.66.69-.67.69-1.97 0-1.31-.61-1.94-.62-.62-1.95-.62h-1.68v-1.51h1.68q.86 0 1.38-.29.51-.28.74-.83.23-.54.23-1.3 0-1.22-.61-1.86-.6-.63-1.78-.63-.75 0-1.31.3t-.87.84q-.3.54-.3 1.27h-1.85l-.02-.06q-.03-1.07.51-1.95t1.54-1.4q.99-.51 2.3-.51 1.97 0 3.14 1.05t1.17 2.99q0 .88-.53 1.75-.53.88-1.6 1.34 1.28.41 1.81 1.31.54.9.54 2.02 0 1.28-.58 2.22-.59.94-1.61 1.44-1.02.51-2.34.51"/>
    <circle cx="146.4" cy="210.3" r="2.6" fill="#BA3033"/>
    <circle cx="115.1" cy="64.8" r="90" fill="none" stroke="#484C57" stroke-dasharray="6.0161,6.0161" stroke-miterlimit="10"/>
    <path fill="none" stroke="#BE5338" stroke-miterlimit="10" d="M-2.3 166.9 191-23.6"/>
    <path d="M83.943 178.078q-8.41 0-15.76-3.35t-11.76-9.78-4.2-15.59l.13-.41h3.15q0 7.39 3.69 13.13t10.15 9.02 14.6 3.28q12.3 0 19.14-6.32 6.83-6.32 6.83-17.53 0-11.62-7.82-17.2-7.83-5.57-21.23-5.57h-7.59v-3.83h7.59q8.34 0 14.35-2.87 6.02-2.87 9.27-7.75 3.24-4.89 3.24-10.91 0-10.05-6.18-16.54-6.19-6.5-18.22-6.5-7.38 0-13.19 2.94t-9.16 8.28q-3.35 5.33-3.35 12.57h-3.15l-.13-.41q-.21-8.06 3.58-14.15 3.8-6.08 10.46-9.5 6.67-3.42 14.94-3.42 12.85 0 20.47 7.28 7.63 7.28 7.63 19.73 0 7.86-4.96 14.08t-13.36 8.95q9.7 2.39 15.1 8.68t5.4 15.86q0 8.62-3.76 14.87-3.76 6.26-10.46 9.61-6.69 3.35-15.44 3.35"/>
    <g fill="#5C7F8E">
        <path d="m33.5 214.3 1.2-11 1.3 11zm2.5 0-1.3 11-1.2-11z"/>
        <path d="m34.7 213.2 6.4 1.1-6.4 1.1zm0 2.2-6.3-1.1 6.3-1.1z"/>
    </g>
    <g fill="#5C7F8E">
        <path d="m139 92.7 1-9 1 9zm2 0-1 8.9-1-8.9z"/>
        <path d="m140 91.8 5.1.9-5.1.9zm0 1.8-5.2-.9 5.2-.9z"/>
    </g>
    <g fill="#5C7F8E">
        <path d="m46.9 25.1.7-6.3.7 6.3zm1.4 0-.7 6.4-.7-6.4z"/>
        <path d="m47.6 24.5 3.6.6-3.6.7zm0 1.3-3.7-.7 3.7-.6z"/>
    </g>
    <circle cx=".2" cy="154.8" r="18.7" fill="#5C7F8E"/>
    <circle cx="5.9" cy="147.8" r="4.7" fill="#4E5459" opacity=".3"/>
    <circle cx="11.6" cy="159.2" r="1.7" fill="#4E5459" opacity=".3"/>
    <circle cx="3.7" cy="166" r="2.2" fill="#4E5459" opacity=".3"/>
    <path fill="#FFF" stroke="#FFF" stroke-linecap="round" stroke-miterlimit="10" d="m135.4 215.4-6.6-6.6m6.9 11.6-8.1-8.1m4.7 9.3-8.5-8.5"/>
    <path fill="#A01D20" d="m110.1 201.2 4 15.6-10.9-10.9s-1-1.1-.9-2.6c0-1.3 2.2-7.8 2.2-7.8zm6.2-6.2 15.6 4-10.9-11s-1.1-1-2.6-.9c-1.3 0-7.8 2.2-7.8 2.2z"/>
    <path fill="#BA3033" d="M82 166.6s-4 16.2 6.5 26.8c8.7 8.7 34.6 14.4 34.6 14.4s-5.7-25.9-14.4-34.6c-10.4-10.6-26.7-6.6-26.7-6.6"/>
    <path fill="#A01D20" d="M123.1 207.7s-.8-3.6-2.2-8.6l-6.3 6.3c5 1.5 8.5 2.3 8.5 2.3"/>
    <circle cx="95.3" cy="179.7" r="6.6" fill="#A01D20"/>
    <path fill="none" stroke="#E4E3E7" stroke-miterlimit="10" d="M86.8 33.2c3.2-2.4 8.8-2 11.4-4.9 2.7-2.9 1.8-8.5 3.8-11.8 2-3.4 7.3-5.2 8.7-8.9 1.3-3.7-1.6-8.5-1-12.4s4.8-7.6 4.6-11.5-4.7-7.2-5.7-11.1c-.9-3.8 1.5-8.8-.2-12.4-1.6-3.5-7.1-4.8-9.5-8.1"/>
    <path fill="#E5E3E8" d="M100 34.4c-1.6 1.1-3.7.6-4.8-.9l-3.4-5.1c-1.1-1.6-.6-3.7.9-4.8 1.6-1.1 3.7-.6 4.8.9l3.4 5.1c1.1 1.6.7 3.8-.9 4.8"/>
    <path fill="#898596" d="m98.7 32.6-10 6.7 6.6 9.8 3.3-2.2-3.8-5.7c-.6-1-.4-2.3.6-2.9s2.3-.4 2.9.6l3.8 5.7 3.3-2.2z"/>
    <path fill="#5B5C5F" d="m83.379 31.47 9.96-6.693 5.298 7.885-9.96 6.692z"/>
    <path fill="#898596" d="M90.9 21c-1.8-2.7-5.6-3.5-8.3-1.6-2.7 1.8-3.5 5.6-1.6 8.3l2.5 3.7 10-6.7z"/>
    <circle cx="85.8" cy="24.4" r="3.6" fill="#C8C7D0"/>
    <path fill="none" stroke="#FFF" stroke-linecap="round" stroke-miterlimit="10" d="M84 23.2c-.5.6-.7 1.4-.4 2.1"/>
    <path fill="#898596" d="M99.3 48.1 94.9 51s-2.1-2.4-.4-3.6l3-2zm6.7-4.5-4.4 2.9s-2.1-2.4-.4-3.6l3-2z"/>
    <g fill="#5B5C5F">
        <path d="M75.9 31.9c.1-.2.8-1.1 1.7-.7 5.6 2.6 8.2.8 9.1-1.7.1-.2.3-.3.4-.2.2.1 2.7 1.5 2.9 1.6s.3.3.2.4c-1.7 4.3-6.6 6.2-13.6 3.1-1.6-.8-.8-2.3-.7-2.5"/>
        <path d="M78.6 33.3c-.3 0-.5-.2-.4-.5l.1-1.8c0-.3.2-.5.5-.4.3 0 .5.2.4.5l-.1 1.8c0 .2-.2.4-.5.4"/>
    </g>
    <g fill="#5B5C5F">
        <path d="M96.9 18.3c-.2 0-1.3.2-1.3 1.3 0 6.2-2.6 7.8-5.3 7.6q-.3 0-.3.3c0 .2.3 3.1.3 3.3q0 .3.3.3c4.6.2 8.3-3.5 8.4-11.1-.1-1.8-1.9-1.7-2.1-1.7"/>
        <path d="M97.1 21.3c.1-.2 0-.5-.3-.6l-1.7-.6c-.2-.1-.5 0-.6.3-.1.2 0 .5.3.6l1.7.6c.2.1.5 0 .6-.3"/>
    </g>
    <circle cx="87.1" cy="33.3" r=".6" fill="#434249"/>
    <circle cx="88.4" cy="32.4" r=".6" fill="#434249"/>
    <path fill="#434249" d="m91.581 30.112.332-.223 1.673 2.49-.332.223zm.701-.442.332-.224 1.673 2.49-.332.224zm.618-.388.333-.223 1.673 2.49-.332.223zm.619-.387.332-.223 1.673 2.49-.332.223z"/>
    <path fill="#FFF" d="M164.9 204.7h7.7v50.4h-51.7v-8.4l23.7-19.7z"/>
    <path d="M146.621 219.522q1.3 0 2.32.48 1.02.47 1.59 1.35.57.87.54 2.07l-.03.06h-1.84q0-.74-.31-1.29-.31-.56-.89-.86t-1.38-.3q-1.22 0-1.91.66-.69.67-.69 1.97 0 1.31.61 1.94.62.62 1.95.62h1.68v1.51h-1.68q-.86 0-1.38.29-.51.28-.74.83-.23.54-.23 1.3 0 1.22.61 1.86.6.63 1.78.63.75 0 1.31-.3t.87-.84q.3-.54.3-1.27h1.85l.02.06q.03 1.07-.51 1.95t-1.54 1.4q-.99.51-2.3.51-1.97 0-3.14-1.05t-1.17-2.99q0-.88.53-1.75.53-.88 1.6-1.34-1.28-.41-1.81-1.31-.54-.9-.54-2.02 0-1.28.58-2.22.59-.94 1.61-1.44 1.02-.51 2.34-.51"/>
</svg>
