<svg xmlns="http://www.w3.org/2000/svg" xmlns:xlink="http://www.w3.org/1999/xlink" xml:space="preserve" viewBox="0 0 167.2 249.4">
    <path fill="#FCDCCD" d="M-5.7-5.7h178.6v260.8H-5.7z"/>
    <circle cx="20.8" cy="39.2" r="2.6" fill="#BA3033"/>
    <path d="M12.622 28.608v-1.05l3.72-4.15q.68-.75 1.05-1.27t.52-.96q.15-.43.15-.88 0-.85-.52-1.44-.52-.58-1.48-.58-1 0-1.56.6-.55.61-.55 1.71h-1.48l-.02-.05q-.02-.98.42-1.77.44-.78 1.27-1.24t1.98-.46q1.08 0 1.85.41.78.41 1.2 1.12t.42 1.63q0 .63-.24 1.25-.25.61-.72 1.26t-1.14 1.37l-2.99 3.26.02.04h4.04l.12-1.31h1.31v2.51Zm12.65.16q-1.68 0-2.65-1.16-.98-1.16-.98-3.34v-2.69q0-2.17.97-3.34t2.64-1.17q1.68 0 2.66 1.17.97 1.17.97 3.34v2.69q0 2.18-.97 3.34-.96 1.16-2.64 1.16m0-1.2q1.02 0 1.55-.75.52-.75.52-2.23v-3.34q0-1.48-.53-2.22-.54-.75-1.56-.75-1.01 0-1.54.75-.53.74-.53 2.22v3.34q0 1.47.54 2.23.54.75 1.55.75"/>
    <circle cx="146.4" cy="210.3" r="2.6" fill="#BA3033"/>
    <path d="M154.625 220.843v1.05l-3.72 4.15q-.68.75-1.05 1.27t-.52.96q-.15.43-.15.88 0 .85.52 1.44.52.58 1.48.58 1 0 1.56-.6.55-.61.55-1.71h1.48l.02.05q.02.98-.42 1.77-.44.78-1.27 1.24t-1.98.46q-1.08 0-1.85-.41-.78-.41-1.2-1.12t-.42-1.63q0-.63.24-1.25.25-.61.72-1.26t1.14-1.37l2.99-3.26-.02-.04h-4.04l-.12 1.31h-1.31v-2.51Zm-12.65-.16q1.68 0 2.65 1.16.98 1.16.98 3.34v2.69q0 2.17-.97 3.34t-2.64 1.17q-1.68 0-2.66-1.17-.97-1.17-.97-3.34v-2.69q0-2.18.97-3.34.96-1.16 2.64-1.16m0 1.2q-1.02 0-1.55.75-.52.75-.52 2.23v3.34q0 1.48.53 2.22.54.75 1.56.75 1.01 0 1.54-.75.53-.74.53-2.22v-3.34q0-1.47-.54-2.23-.54-.75-1.55-.75"/>
    <path fill="#EACAAE" d="M77.2 102.6C78.1 96.4 66 91.9 63 91.4a9 9 0 0 0-10.2 7.5 9 9 0 0 0 7.5 10.2c3.1.5 16-.2 16.9-6.5"/>
    <path fill="#F3E2D2" d="M74.3 103.7c-5.7 1.9-5.3 17.9-4.1 21.4 1.9 5.6 8 8.6 13.6 6.7s8.6-8 6.7-13.6c-1.1-3.5-10.3-16.5-16.2-14.5m53.1 15.5c3.3-4.4-5.2-16.3-7.9-18.4-4.4-3.3-10.5-2.4-13.8 1.9-3.3 4.4-2.4 10.5 1.9 13.8 2.7 2.1 16.4 7.2 19.8 2.7M48 98.6c-8 .2-10.6 15.3-10.6 19.1.1 5.9 4.9 10.7 10.8 10.6s10.7-4.9 10.6-10.8c.1-3.8-2.5-19.2-10.8-18.9"/>
    <path fill="#FFF" d="M76.7 102.4c-.9 6.2 9.1 9.6 11.7 10.1 4.1.8 8.1-1.9 9-6s-1.9-8.1-6-9c-2.6-.4-13.8-1-14.7 4.9m-33.9 19.7c1.9 6.2 19.1 6.4 23 5.3 6.2-1.8 9.7-8.3 7.8-14.5-1.8-6.2-8.3-9.7-14.5-7.8-3.9 1.1-18.3 10.6-16.3 17"/>
    <path fill="#EACAAE" d="M104.7 101.6c-6.3-4.5-17.5 6.5-19.6 9.5-3.4 4.9-2.1 11.6 2.8 14.9s11.6 2.1 14.9-2.8c2.2-3 8.9-16.6 1.9-21.6"/>
    <path fill="#FFF" d="M106.7 106.1c-6.5 3.5-3.1 17.5-1.6 20.8 2.4 5.1 8.5 7.4 13.7 5s7.4-8.5 5-13.7c-1.6-3.3-10.4-15.8-17.1-12.1"/>
    <path fill="#D2A592" d="M129.4 117.7v-11c0-25.8-21-46.8-46.8-46.8s-46.8 21-46.8 46.8v36.8c0 25.9 20.9 46.8 46.8 46.8s46.8-21 46.8-46.8c0-.3.1-25.4 0-25.8m-89 0v-10.9c0-23.3 18.9-42.2 42.2-42.2s42.2 18.9 42.2 42.2v10.9z"/>
    <g opacity=".2">
        <defs>
            <path id="a" d="M129.4 117.7v-11c0-25.8-21-46.8-46.8-46.8s-46.8 21-46.8 46.8v36.8c0 25.9 20.9 46.8 46.8 46.8s46.8-21 46.8-46.8c0-.3.1-25.4 0-25.8m-89 0v-10.9c0-23.3 18.9-42.2 42.2-42.2s42.2 18.9 42.2 42.2v10.9z" opacity=".2"/>
        </defs>
        <clipPath id="b">
            <use xlink:href="#a" overflow="visible"/>
        </clipPath>
        <path fill="#B2644B" d="m183.4 111.1-1.1-1.1-13.4 13.4-3.4-3.4 13.4-13.4-1.1-1.1-13.4 13.4-3.4-3.4 13.4-13.4-1.1-1.1-13.4 13.4-3.4-3.4 13.4-13.4-1.1-1.1-13.4 13.4-3.4-3.4L165.3 93l-1.1-1.1-13.4 13.4-3.4-3.4 13.4-13.4-1.1-1.1-13.4 13.4-3.4-3.4L156.3 84l-1.1-1.1-13.4 13.4-3.4-3.4 13.4-13.4-1.1-1.1-13.4 13.4-3.4-3.4L147.3 75l-1.1-1.1-13.4 13.4-3.4-3.4 13.4-13.4-1.1-1.1-13.4 13.4-3.4-3.4L138.3 66l-1.1-1.1L123.5 78l-3.4-3.4 13.4-13.4-1.1-1.1L119 73.5l-3.4-3.4L129 56.7l-1.1-1.1L114.4 69l-3.4-3.4 13.4-13.4-1.1-1.1-13.4 13.4-3.4-3.4 13.4-13.4-1.1-1.1L105.4 60l-3.4-3.4 13.4-13.4-1.1-1.1-13.4 13.4-3.4-3.4 13.4-13.4-1.1-1.1-13.5 13.2-3.4-3.4L106.3 34l-1.1-1.1-13.4 13.4-3.4-3.4 13.4-13.4-1.1-1.1-13.5 13.3-3.4-3.4 13.4-13.4-1.1-1.1-13.4 13.4-13.4-13.4-1.1 1.1 13.4 13.4-3.4 3.4-13.4-13.4-1.1 1.1L77 42.9l-3.4 3.4-13.4-13.4-1.1 1.1 13.4 13.4-3.4 3.4-13.4-13.4-1.1 1.1L68 51.9l-3.4 3.4-13.5-13.4-1.1 1.2 13.4 13.4-3.4 3.4-13.4-13.4-1.1 1.1L58.9 61l-3.4 3.4L42.1 51 41 52.1l13.4 13.4L51 69 37.5 55.5l-1.1 1.1L49.8 70l-3.4 3.4L33 60.1l-1.1 1.1 13.4 13.4-3.4 3.4-13.4-13.4-1.1 1.1 13.4 13.4-3.4 3.4-13.5-13.4-1.1 1.1 13.4 13.4-3.4 3.4-13.4-13.3-1.1 1.1 13.4 13.4-3.4 3.4-13.4-13.4-1.1 1.1 13.4 13.4-3.4 3.4-13.5-13.4-1.1 1.1 13.4 13.4-3.4 3.4L5.8 87.3l-1.1 1.1 13.4 13.4-3.4 3.4L1.3 91.8.1 93l13.4 13.4-3.4 3.4-13.4-13.4-1.1 1.1L9 110.9l-3.4 3.4-13.4-13.4-1.1 1.1 13.4 13.4-3.4 3.4-13.4-13.4-1.1 1.1L-.1 120l-3.4 3.4-13.4-13.4-1.1 1.1 13.4 13.4-13.4 13.4 1.1 1.1 13.4-13.4 3.4 3.4-13.4 13.4 1.1 1.1L1 130.1l3.4 3.4L-8.9 147l1.1 1.1 13.4-13.4 3.4 3.4-13.4 13.4 1.1 1.1 13.4-13.4 3.4 3.4L.1 156.1l1.1 1.1 13.4-13.4 3.4 3.4-13.3 13.4 1.1 1.1 13.4-13.4 3.4 3.4-13.4 13.4 1.1 1.1 13.4-13.4 3.4 3.4-13.4 13.4 1.1 1.1 13.4-13.4 3.4 3.4-13.4 13.4 1.1 1.1 13.4-13.4 3.4 3.4-13.4 13.4 1.1 1.1 13.4-13.4 3.4 3.4-13.4 13.4 1.1 1.1L41.9 171l3.4 3.4-13.4 13.4L33 189l13.4-13.4 3.4 3.4-13.4 13.4 1.1 1.1L51 180.1l3.4 3.4L41 196.9l1.1 1.1 13.4-13.4 3.4 3.4-13.4 13.4 1.1 1.1L60 189.1l3.4 3.4L50 206l1.1 1.1 13.4-13.4 3.4 3.4-13.4 13.4 1.1 1.1L69 198.2l3.4 3.4L59.1 215l1.1 1.1 13.4-13.4 3.4 3.4-13.4 13.4 1.1 1.1 13.4-13.4 3.4 3.4L68.1 224l1.1 1.1 13.4-13.4L96 225.1l1.1-1.1-13.4-13.4 3.4-3.4 13.4 13.4 1.1-1.1-13.4-13.4 3.4-3.4 13.4 13.4 1.1-1.1-13.4-13.4 3.4-3.4 13.4 13.4 1.1-1.1-13.4-13.4 3.4-3.4 13.4 13.4 1.1-1.1-13.1-13.5 3.4-3.4 13.4 13.4 1.1-1.1-13.4-13.4 3.4-3.4 13.4 13.4 1.1-1.1-13.4-13.4 3.4-3.4 13.4 13.4 1.1-1.1-13.4-13.4 3.4-3.4 13.4 13.4 1.1-1.1-13.4-13.4 3.4-3.4 13.4 13.4 1.1-1.1-13.4-13.4 3.4-3.4 13.4 13.4 1.1-1.1-13.4-13.4 3.4-3.4 13.4 13.4 1.1-1.1-13.4-13.4 3.4-3.4 13.4 13.4 1.1-1.1-13.4-13.4 3.4-3.4 13.4 13.4 1.1-1.1-13.4-13.4 3.4-3.4 13.4 13.4 1.1-1.1-13.4-13.4 3.4-3.4 13.4 13.4 1.1-1.1-13.4-13.4 3.4-3.4 13.4 13.4 1.1-1.1-13.4-13.4 3.4-3.4 13.4 13.4 1.1-1.1-13.4-13.4 3.4-3.4 13.4 13.4 1.1-1.1-12.9-13.9 3.4-3.4 13.4 13.4 1.1-1.1-13.4-13.4zm-20.2 8.9-3.4 3.4-3.4-3.4 3.4-3.4zm-79.4 0 3.4-3.4 3.4 3.4-3.4 3.4zm2.3 4.5-3.4 3.4-3.4-3.4 3.4-3.4zm-3.4-5.7-3.4-3.4 3.4-3.4 3.4 3.4zm-1.1 1.2-3.4 3.4-3.4-3.4 3.4-3.4zm-4.6 4.5-3.4 3.4-3.4-3.4 3.4-3.4zm1.2 1.1 3.4 3.4-3.4 3.4-3.4-3.4zm4.5 4.6 3.4 3.4-3.4 3.4-3.4-3.4zm1.1-1.2 3.4-3.4 3.4 3.4-3.4 3.4zm4.6-4.5 3.4-3.4 3.4 3.4-3.4 3.4zm4.5-4.5 3.4-3.4 3.4 3.4-3.4 3.4zm-1.1-1.2-3.4-3.4 3.4-3.4 3.4 3.4zm-4.6-4.5-3.4-3.4 3.4-3.4 3.4 3.4zm-4.5-4.5-3.4-3.4 3.4-3.4 3.4 3.4zm-1.1 1.1-3.4 3.4-3.4-3.4 3.4-3.4zm-4.6 4.5-3.4 3.4-3.4-3.4 3.4-3.4zm-4.5 4.6-3.4 3.4-3.4-3.4 3.4-3.4zm-4.5 4.5-3.4 3.4-3.4-3.4 3.4-3.4zm1.1 1.1 3.4 3.4-3.4 3.4-3.4-3.4zm4.5 4.6 3.4 3.4-3.4 3.4-3.4-3.4zm4.6 4.5 3.4 3.4-3.4 3.4-3.4-3.4zm4.5 4.6 3.4 3.4-3.4 3.4-3.4-3.4zm1.1-1.2 3.4-3.4 3.4 3.4-3.4 3.4zm4.6-4.5 3.4-3.4 3.4 3.4-3.4 3.4zm4.5-4.6 3.4-3.4 3.4 3.4-3.4 3.4zm4.5-4.5 3.4-3.4 3.4 3.4-3.4 3.4zm4.6-4.5 3.4-3.4 3.4 3.4-3.4 3.4zm-1.2-1.2-3.4-3.4 3.4-3.4 3.4 3.4zm-4.5-4.5-3.4-3.4 3.4-3.4 3.4 3.4zm-4.5-4.5-3.4-3.4 3.4-3.4 3.4 3.4zm-4.6-4.6-3.4-3.4 3.4-3.4 3.4 3.4zm-4.5-4.5-3.4-3.4 3.4-3.4 3.4 3.4zm-1.1 1.1-3.4 3.4-3.4-3.4 3.4-3.4zm-4.6 4.6-3.4 3.4-3.4-3.4 3.4-3.4zm-4.5 4.5-3.4 3.4-3.4-3.4 3.4-3.4zm-4.5 4.5-3.4 3.4-3.4-3.4 3.4-3.4zm-4.6 4.6-3.4 3.4-3.4-3.4 3.4-3.4zm-4.5 4.5-3.4 3.4-3.4-3.4 3.4-3.4zm1.1 1.1 3.4 3.4-3.4 3.4-3.4-3.4zm4.6 4.6 3.4 3.4-3.4 3.4-3.4-3.4zm4.5 4.5 3.4 3.4-3.4 3.4-3.4-3.4zm4.5 4.6 3.4 3.4-3.4 3.4-3.4-3.4zm4.6 4.5 3.4 3.4-3.4 3.4-3.4-3.4zm4.5 4.5 3.4 3.4-3.4 3.4-3.4-3.4zm1.1-1.1 3.4-3.4 3.4 3.4-3.4 3.4zm4.6-4.5 3.4-3.4 3.4 3.4-3.4 3.4zm4.5-4.6 3.4-3.4 3.4 3.4-3.4 3.4zm4.5-4.5 3.4-3.4 3.4 3.4-3.4 3.4zm4.6-4.6 3.4-3.4 3.4 3.4-3.4 3.4zm4.5-4.5 3.4-3.4 3.4 3.4-3.4 3.4zm4.5-4.5 3.4-3.4 3.4 3.4-3.4 3.4zm-1.1-1.2-3.4-3.4 3.4-3.4 3.4 3.4zm-4.5-4.5-3.4-3.4 3.4-3.4 3.4 3.4zm-4.6-4.5-3.4-3.4 3.4-3.4 3.4 3.4zm-4.5-4.6-3.4-3.4 3.4-3.4 3.4 3.4zm-4.5-4.5-3.4-3.4 3.4-3.4 3.4 3.4zm-4.6-4.5-3.4-3.4 3.4-3.4 3.4 3.4zm-4.5-4.6-3.4-3.4 3.4-3.4 3.4 3.4zm-1.1 1.2-3.4 3.4-3.4-3.4 3.4-3.4zM77 97.3l-3.4 3.4-3.4-3.4 3.4-3.4zm-4.5 4.5-3.4 3.4-3.4-3.4 3.4-3.4zm-4.5 4.6-3.4 3.4-3.4-3.4 3.4-3.4zm-4.6 4.5-3.4 3.4-3.4-3.4 3.4-3.4zm-4.5 4.5-3.4 3.4-3.4-3.4 3.4-3.4zm-4.5 4.6-3.4 3.4-3.4-3.4 3.4-3.4zm-4.6 4.5-3.4 3.4-3.4-3.4 3.4-3.4zm1.2 1.1 3.4 3.4-3.4 3.4-3.4-3.4zm4.5 4.6 3.4 3.4-3.4 3.4-3.4-3.4zm4.5 4.5 3.4 3.4-3.4 3.4-3.4-3.4zm4.6 4.6 3.4 3.4-3.4 3.4-3.4-3.4zm4.5 4.5 3.4 3.4-3.4 3.4-3.4-3.4zm4.5 4.5 3.4 3.4-3.4 3.4-3.4-3.4zm4.6 4.6 3.4 3.4-3.4 3.4-3.4-3.4zm4.5 4.5 3.4 3.4-3.4 3.4-3.4-3.4zm1.1-1.1 3.4-3.4 3.4 3.4-3.4 3.4zm4.6-4.6 3.4-3.4 3.4 3.4-3.4 3.4zm4.5-4.5 3.4-3.4 3.4 3.4-3.4 3.4zm4.5-4.5 3.4-3.4 3.4 3.4-3.4 3.4zm4.6-4.6 3.4-3.4 3.4 3.4-3.4 3.4zm4.5-4.5 3.4-3.4 3.4 3.4-3.4 3.4zm4.5-4.6 3.4-3.4 3.4 3.4-3.4 3.4zm4.6-4.5 3.4-3.4 3.4 3.4-3.4 3.4zm4.5-4.5 3.4-3.4 3.4 3.4-3.4 3.4zm-1.1-1.2-3.4-3.4 3.4-3.4 3.4 3.4zm-4.6-4.5-3.4-3.4 3.4-3.4 3.4 3.4zm-4.5-4.5-3.4-3.4 3.4-3.4 3.4 3.4zm-4.5-4.6-3.4-3.4 3.4-3.4 3.4 3.4zm-4.6-4.5-3.4-3.4 3.4-3.4 3.4 3.4zm-4.5-4.5-3.4-3.4 3.4-3.4 3.4 3.4zm-4.5-4.6-3.4-3.4 3.4-3.4 3.4 3.4zm-4.6-4.5-3.4-3.4 3.4-3.4 3.4 3.4zm-4.5-4.5-3.4-3.4 3.4-3.4 3.4 3.4zm-1.1 1.1-3.4 3.4-3.4-3.4 3.4-3.4zM77 88.2l-3.4 3.4-3.4-3.4 3.4-3.4zm-4.5 4.6-3.4 3.4-3.4-3.4 3.4-3.4zM68 97.3l-3.4 3.4-3.4-3.4 3.4-3.4zm-4.6 4.5-3.4 3.4-3.4-3.4 3.4-3.4zm-4.5 4.6-3.4 3.4-3.4-3.4 3.4-3.4zm-4.5 4.5-3.4 3.4-3.4-3.4 3.4-3.4zm-4.6 4.5-3.4 3.4-3.4-3.4 3.4-3.4zm-4.5 4.6-3.4 3.4-3.4-3.4 3.4-3.4zm-4.5 4.5-3.4 3.4-3.4-3.4 3.4-3.4zm1.1 1.1 3.4 3.4-3.4 3.4-3.4-3.4zm4.5 4.6 3.4 3.4-3.4 3.4-3.4-3.4zm4.6 4.5 3.4 3.4-3.4 3.4-3.4-3.4zm4.5 4.6 3.4 3.4-3.4 3.4-3.4-3.4zm4.5 4.5 3.4 3.4-3.4 3.4-3.4-3.4zm4.6 4.5 3.4 3.4-3.4 3.4-3.4-3.4zm4.5 4.6 3.4 3.4-3.4 3.4-3.4-3.4zm4.5 4.5 3.4 3.4-3.4 3.4-3.4-3.4zm4.6 4.5 3.4 3.4-3.4 3.4-3.4-3.4zm4.5 4.6 3.4 3.4-3.4 3.4-3.4-3.4zm1.1-1.2 3.4-3.4 3.4 3.4-3.4 3.4zm4.6-4.5 3.4-3.4 3.4 3.4-3.4 3.4zm4.5-4.5 3.4-3.4 3.4 3.4-3.4 3.4zm4.5-4.6 3.4-3.4 3.4 3.4-3.4 3.4zm4.6-4.5 3.4-3.4 3.4 3.4-3.4 3.4zm4.5-4.5 3.4-3.4 3.4 3.4-3.4 3.4zm4.5-4.6 3.4-3.4 3.4 3.4-3.4 3.4zm4.6-4.5 3.4-3.4 3.4 3.4-3.4 3.4zm4.5-4.6 3.4-3.4 3.4 3.4-3.4 3.4zm4.6-4.5 3.4-3.4 3.4 3.4-3.4 3.4zm4.5-4.5 3.4-3.4 3.4 3.4-3.4 3.4zm-1.1-1.2-3.4-3.4 3.4-3.4 3.4 3.4zm-4.6-4.5-3.4-3.4 3.4-3.4 3.4 3.4zm-4.5-4.5-3.4-3.4 3.4-3.4 3.4 3.4zm-4.6-4.6-3.4-3.4 3.4-3.4 3.4 3.4zm-4.5-4.5-3.4-3.4 3.4-3.4 3.4 3.4zm-4.5-4.5-3.4-3.4 3.4-3.4 3.4 3.4zm-4.6-4.6-3.4-3.4 3.4-3.4 3.4 3.4zm-4.5-4.5-3.4-3.4 3.4-3.4 3.4 3.4zm-4.5-4.5-3.4-3.4 3.4-3.4 3.4 3.4zM87.2 78l-3.4-3.4 3.4-3.4 3.4 3.4zm-4.5-4.5-3.4-3.4 3.4-3.4 3.4 3.4zm-1.1 1.1L78.2 78l-3.4-3.4 3.4-3.4zM77 79.2l-3.4 3.4-3.4-3.4 3.4-3.4zm-4.5 4.5-3.4 3.4-3.4-3.4 3.4-3.4zM68 88.2l-3.4 3.4-3.4-3.4 3.4-3.4zm-4.6 4.6L60 96.2l-3.4-3.4 3.4-3.4zm-4.5 4.5-3.4 3.4-3.4-3.4 3.4-3.4zm-4.5 4.5-3.4 3.4-3.4-3.4 3.4-3.4zm-4.6 4.6-3.4 3.4-3.4-3.4 3.4-3.4zm-4.5 4.5-3.4 3.4-3.4-3.4 3.4-3.4zm-4.5 4.5-3.4 3.4-3.4-3.4 3.4-3.4zm-4.6 4.6-3.4 3.4-3.4-3.4 3.4-3.4zm-4.5 4.5-3.4 3.4-3.4-3.4 3.4-3.4zm1.1 1.1 3.4 3.4-3.4 3.4-3.4-3.4zm4.5 4.6 3.4 3.4-3.4 3.4-3.4-3.4zm4.6 4.5 3.4 3.4-3.4 3.4-3.4-3.4zm4.5 4.6 3.4 3.4-3.4 3.4-3.4-3.4zm4.6 4.5 3.4 3.4-3.4 3.4-3.4-3.4zm4.5 4.5 3.4 3.4-3.4 3.4-3.4-3.4zm4.5 4.6 3.4 3.4-3.4 3.4-3.4-3.4zm4.6 4.5 3.4 3.4-3.4 3.4-3.4-3.4zm4.5 4.5 3.4 3.4-3.4 3.4-3.4-3.4zm4.5 4.6 3.4 3.4-3.4 3.4-3.4-3.4zm4.6 4.5 3.4 3.4-3.4 3.4-3.4-3.4zm4.5 4.5 3.4 3.4-3.4 3.4-3.4-3.4zm1.1-1.1 3.4-3.4 3.4 3.4-3.4 3.4zm4.6-4.5 3.4-3.4 3.4 3.4-3.4 3.4zm4.5-4.6 3.4-3.4 3.4 3.4-3.4 3.4zm4.5-4.5 3.4-3.4 3.4 3.4-3.4 3.4zm4.6-4.5 3.4-3.4 3.4 3.4-3.4 3.4zm4.5-4.6 3.4-3.4 3.4 3.4-3.4 3.4zm4.5-4.5 3.4-3.4 3.4 3.4-3.4 3.4zm4.6-4.5 3.4-3.4 3.4 3.4-3.4 3.4zm4.5-4.6 3.4-3.4 3.4 3.4-3.4 3.4zm4.6-4.5 3.4-3.4 3.4 3.4-3.4 3.4zm4.5-4.6 3.4-3.4 3.4 3.4-3.4 3.4zm4.5-4.5 3.4-3.4 3.4 3.4-3.4 3.4zm4.6-4.5 3.4-3.4 3.4 3.4-3.4 3.4zm-1.2-1.2-3.4-3.4 3.4-3.4 3.4 3.4zm-4.5-4.5-3.4-3.4 3.4-3.4 3.4 3.4zm-4.5-4.5-3.4-3.4 3.4-3.4 3.4 3.4zm-4.6-4.6-3.4-3.4 3.4-3.4 3.4 3.4zm-4.5-4.5-3.4-3.4 3.4-3.4 3.4 3.4zm-4.6-4.5-3.4-3.4 3.4-3.4 3.4 3.4zm-4.5-4.6-3.4-3.4 3.4-3.4 3.4 3.4zm-4.5-4.5-3.4-3.4 3.4-3.4 3.4 3.4zm-4.6-4.5-3.4-3.4 3.4-3.4 3.4 3.4zM96.3 78l-3.4-3.4 3.4-3.4 3.4 3.4zm-4.5-4.5-3.4-3.4 3.4-3.4 3.4 3.4zM87.2 69l-3.4-3.4 3.4-3.4 3.4 3.4zm-4.5-4.6L79.3 61l3.4-3.4 3.4 3.4zm-1.1 1.2L78.2 69l-3.4-3.4 3.4-3.4zM77 70.1l-3.4 3.4-3.4-3.4 3.4-3.4zm-4.5 4.5L69.1 78l-3.4-3.4 3.4-3.4zM68 79.2l-3.4 3.4-3.4-3.4 3.4-3.4zm-4.6 4.5L60 87.1l-3.4-3.4 3.4-3.4zm-4.5 4.5-3.4 3.4-3.4-3.4 3.4-3.4zm-4.5 4.6L51 96.2l-3.4-3.4 3.4-3.4zm-4.6 4.5-3.4 3.4-3.4-3.4 3.4-3.4zm-4.5 4.5-3.4 3.4-3.4-3.4 3.4-3.4zm-4.5 4.6-3.4 3.4-3.4-3.4 3.4-3.4zm-4.6 4.5-3.4 3.4-3.4-3.4 3.4-3.4zm-4.5 4.5-3.4 3.4-3.4-3.4 3.4-3.4zm-4.6 4.6-3.4 3.4-3.4-3.4 3.4-3.4zm-4.5 4.5-3.4 3.4-3.4-3.4 3.4-3.4zm1.1 1.1 3.4 3.4-3.4 3.4-3.4-3.4zm4.6 4.6 3.4 3.4-3.4 3.4-3.4-3.4zm4.5 4.5 3.4 3.4-3.4 3.4-3.4-3.4zm4.5 4.6 3.4 3.4-3.4 3.4-3.4-3.4zm4.6 4.5 3.4 3.4-3.4 3.4-3.4-3.4zm4.5 4.5 3.4 3.4-3.4 3.4-3.4-3.4zm4.6 4.6 3.4 3.4-3.4 3.4-3.4-3.4zm4.5 4.5 3.4 3.4-3.4 3.4-3.4-3.4zm4.5 4.5 3.4 3.4-3.4 3.4-3.4-3.4zm4.6 4.6 3.4 3.4-3.4 3.4-3.4-3.4zm4.5 4.5 3.4 3.4-3.4 3.4-3.4-3.4zm4.5 4.5 3.4 3.4-3.4 3.4-3.4-3.4zm4.6 4.6 3.4 3.4-3.4 3.4-3.4-3.4zm4.5 4.5 3.4 3.4-3.4 3.4-3.4-3.4zm1.1-1.1 3.4-3.4 3.4 3.4-3.4 3.4zm4.6-4.6 3.4-3.4 3.4 3.4-3.4 3.4zm4.5-4.5 3.4-3.4 3.4 3.4-3.4 3.4zm4.5-4.5 3.4-3.4 3.4 3.4-3.4 3.4zm4.6-4.6 3.4-3.4 3.4 3.4-3.4 3.4zm4.5-4.5 3.4-3.4 3.4 3.4-3.4 3.4zm4.5-4.5 3.4-3.4 3.4 3.4-3.4 3.4zm4.6-4.6 3.4-3.4 3.4 3.4-3.4 3.4zm4.5-4.5 3.4-3.4 3.4 3.4-3.4 3.4zm4.6-4.5 3.4-3.4 3.4 3.4-3.4 3.4zm4.5-4.6 3.4-3.4 3.4 3.4-3.4 3.4zm4.5-4.5 3.4-3.4 3.4 3.4-3.4 3.4zm4.6-4.6 3.4-3.4 3.4 3.4-3.4 3.4zm4.5-4.5 3.4-3.4 3.4 3.4-3.4 3.4zm4.5-4.5 3.4-3.4 3.4 3.4-3.4 3.4zm-1.1-1.2-3.4-3.4 3.4-3.4 3.4 3.4zm-4.5-4.5-3.4-3.4 3.4-3.4 3.4 3.4zm-4.6-4.5-3.4-3.4 3.4-3.4 3.4 3.4zm-4.5-4.6-3.4-3.4 3.4-3.4 3.4 3.4zm-4.5-4.5-3.4-3.4 3.4-3.4 3.4 3.4zm-4.6-4.5-3.4-3.4 3.4-3.4 3.4 3.4zm-4.5-4.6-3.4-3.4 3.4-3.4 3.4 3.4zm-4.6-4.5-3.4-3.4 3.4-3.4 3.4 3.4zm-4.5-4.5-3.4-3.4 3.4-3.4 3.4 3.4zm-4.5-4.6-3.4-3.4 3.4-3.4 3.4 3.4zm-4.6-4.5-3.4-3.4 3.4-3.4 3.4 3.4zM96.3 69l-3.4-3.4 3.4-3.4 3.4 3.4zm-4.5-4.6L88.4 61l3.4-3.4 3.4 3.4zm-4.6-4.5-3.4-3.4 3.4-3.4 3.4 3.4zm-4.5-4.6-3.4-3.4 3.4-3.4 3.4 3.4zm-1.1 1.2-3.4 3.4-3.4-3.4 3.4-3.4zM77 61l-3.4 3.4-3.4-3.4 3.4-3.4zm-4.5 4.6L69.1 69l-3.4-3.4 3.4-3.4zM68 70.1l-3.4 3.4-3.4-3.4 3.4-3.4zm-4.6 4.5L60 78l-3.4-3.4 3.4-3.4zm-4.5 4.6-3.4 3.4-3.4-3.4 3.4-3.4zm-4.5 4.5L51 87.1l-3.4-3.4 3.4-3.4zm-4.6 4.5-3.4 3.4-3.4-3.4 3.4-3.4zm-4.5 4.6-3.4 3.4-3.4-3.4 3.4-3.4zm-4.5 4.5-3.4 3.4-3.4-3.4 3.4-3.4zm-4.6 4.5-3.4 3.4-3.4-3.4 3.4-3.4zm-4.5 4.6-3.4 3.4-3.4-3.4 3.4-3.4zm-4.6 4.5-3.4 3.4-3.4-3.4 3.4-3.4zm-4.5 4.5-3.4 3.4-3.4-3.4 3.4-3.4zm-4.5 4.6-3.4 3.4-3.4-3.4 3.4-3.4zm-4.6 4.5-3.4 3.4-3.4-3.4 3.4-3.4zm1.2 1.1 3.4 3.4-3.4 3.4-3.4-3.4zm4.5 4.6 3.4 3.4-3.4 3.4-3.4-3.4zm4.5 4.5 3.4 3.4-3.4 3.4-3.4-3.4zm4.6 4.6 3.4 3.4-3.4 3.4-3.4-3.4zm4.5 4.5 3.4 3.4-3.4 3.4-3.4-3.4zm4.5 4.5 3.4 3.4-3.4 3.4-3.4-3.4zm4.6 4.6 3.4 3.4-3.4 3.4-3.4-3.4zm4.5 4.5 3.4 3.4-3.4 3.4-3.4-3.4zm4.6 4.5 3.4 3.4-3.4 3.4-3.4-3.4zm4.5 4.6 3.4 3.4-3.4 3.4-3.4-3.4zM60 171l3.4 3.4-3.4 3.4-3.4-3.4zm4.6 4.5 3.4 3.4-3.4 3.4-3.4-3.4zm4.5 4.6 3.4 3.4-3.4 3.4-3.4-3.4zm4.5 4.5L77 188l-3.4 3.4-3.4-3.4zm4.6 4.5 3.4 3.4-3.4 3.4-3.4-3.4zm4.5 4.6 3.4 3.4-3.4 3.4-3.4-3.4zm1.1-1.2 3.4-3.4 3.4 3.4-3.4 3.4zm4.6-4.5 3.4-3.4 3.4 3.4-3.4 3.4zm4.5-4.5 3.4-3.4 3.4 3.4-3.4 3.4zm4.5-4.6 3.4-3.4 3.4 3.4-3.4 3.4zm4.6-4.5 3.4-3.4 3.4 3.4-3.4 3.4zm4.5-4.5 3.4-3.4 3.4 3.4-3.4 3.4zm4.5-4.6 3.4-3.4 3.4 3.4-3.4 3.4zm4.6-4.5 3.4-3.4 3.4 3.4-3.4 3.4zm4.5-4.5 3.4-3.4 3.4 3.4-3.4 3.4zm4.6-4.6 3.4-3.4 3.4 3.4-3.4 3.4zm4.5-4.5 3.4-3.4 3.4 3.4-3.4 3.4zm4.5-4.5 3.4-3.4 3.4 3.4-3.4 3.4zm4.6-4.6 3.4-3.4 3.4 3.4-3.4 3.4zm4.5-4.5 3.4-3.4 3.4 3.4-3.4 3.4zm4.5-4.6 3.4-3.4 3.4 3.4-3.4 3.4zm4.6-4.5 3.4-3.4 3.4 3.4-3.4 3.4zm6.8-9.1-3.4 3.4-3.4-3.4 3.4-3.4zm-4.6-4.5-3.4 3.4-3.4-3.4 3.4-3.4zm-4.5-4.5-3.4 3.4-3.4-3.4 3.4-3.4zm-4.5-4.6-3.4 3.4-3.4-3.4 3.4-3.4zm-4.6-4.5-3.4 3.4-3.4-3.4 3.4-3.4zm-4.5-4.5-3.4 3.4-3.4-3.4 3.4-3.4zm-4.5-4.6-3.4 3.4-3.4-3.4 3.4-3.4zm-4.6-4.5-3.4 3.4-3.4-3.4 3.4-3.4zm-4.5-4.5-3.4 3.4-3.4-3.4 3.4-3.4zm-4.5-4.6-3.4 3.4-3.4-3.4 3.4-3.4zm-4.6-4.5-3.4 3.4-3.4-3.4 3.4-3.4zm-4.5-4.5-3.4 3.4-3.4-3.4 3.4-3.4zm-4.6-4.6-3.4 3.4-3.4-3.4 3.4-3.4zm-4.5-4.5-3.4 3.4-3.4-3.4 3.4-3.4zm-4.5-4.6-3.4 3.4-3.4-3.4 3.4-3.4zm-4.6-4.5-3.4 3.4-3.4-3.4 3.4-3.4zm-7.9-7.9 3.4 3.4-3.4 3.4-3.4-3.4zM78.2 44l3.4 3.4-3.4 3.4-3.4-3.4zm-4.6 4.5 3.4 3.4-3.4 3.4-3.4-3.4zm-4.5 4.6 3.4 3.4-3.4 3.4-3.4-3.4zm-4.5 4.5L68 61l-3.4 3.4-3.4-3.4zM60 62.2l3.4 3.4L60 69l-3.4-3.4zm-4.5 4.5 3.4 3.4-3.4 3.4-3.4-3.4zM51 71.2l3.4 3.4L51 78l-3.4-3.4zm-4.6 4.6 3.4 3.4-3.4 3.4-3.4-3.4zm-4.5 4.5 3.4 3.4-3.4 3.4-3.4-3.4zm-4.6 4.5 3.4 3.4-3.4 3.4-3.4-3.4zm-4.5 4.6 3.4 3.4-3.4 3.4-3.4-3.4zm-4.5 4.5 3.4 3.4-3.4 3.4-3.4-3.4zm-4.6 4.5 3.4 3.4-3.4 3.4-3.4-3.4zm-4.5 4.6 3.4 3.4-3.4 3.4-3.4-3.4zm-4.5 4.5 3.4 3.4-3.4 3.4-3.4-3.4zm-4.6 4.5 3.4 3.4-3.4 3.4-3.4-3.4zm-4.5 4.6L9 120l-3.4 3.4-3.4-3.4zm-7.9 7.9 3.4-3.4 3.4 3.4-3.4 3.4zm4.5 4.5 3.4-3.4L9 129l-3.4 3.4zm4.5 4.6 3.4-3.4 3.4 3.4-3.4 3.4zm4.6 4.5 3.4-3.4 3.4 3.4-3.4 3.4zm4.5 4.6 3.4-3.4 3.4 3.4-3.4 3.4zm4.5 4.5 3.4-3.4 3.4 3.4-3.4 3.4zm4.6 4.5 3.4-3.4 3.4 3.4-3.4 3.4zm4.5 4.6 3.4-3.4 3.4 3.4-3.4 3.4zm4.5 4.5 3.4-3.4 3.4 3.4-3.4 3.4zm4.6 4.5 3.4-3.4 3.4 3.4-3.4 3.4zm4.5 4.6 3.4-3.4 3.4 3.4-3.4 3.4zm4.6 4.5L51 171l3.4 3.4-3.4 3.4zm4.5 4.5 3.4-3.4 3.4 3.4-3.4 3.4zm4.5 4.6 3.4-3.4 3.4 3.4-3.4 3.4zm4.6 4.5 3.4-3.4L68 188l-3.4 3.4zm4.5 4.5 3.4-3.4 3.4 3.4-3.4 3.4zm4.5 4.6 3.4-3.4 3.4 3.4-3.4 3.4zm4.6 4.5 3.4-3.4 3.4 3.4-3.4 3.4zm7.9 7.9-3.4-3.4 3.4-3.4 3.4 3.4zm4.5-4.5-3.4-3.4 3.4-3.4 3.4 3.4zm4.6-4.5-3.4-3.4 3.4-3.4 3.4 3.4zm4.5-4.6-3.4-3.4 3.4-3.4 3.4 3.4zm4.5-4.5-3.4-3.4 3.4-3.4 3.4 3.4zm4.6-4.5-3.4-3.4 3.4-3.4 3.4 3.4zm4.5-4.6-3.4-3.4 3.4-3.4 3.4 3.4zm4.5-4.5-3.4-3.4 3.4-3.4 3.4 3.4zm4.6-4.5-3.4-3.4 3.4-3.4 3.4 3.4zm4.5-4.6-3.4-3.4 3.4-3.4 3.4 3.4zm4.6-4.5-3.4-3.4 3.4-3.4 3.4 3.4zm4.5-4.5-3.4-3.4 3.4-3.4 3.4 3.4zm4.5-4.6-3.4-3.4 3.4-3.4 3.4 3.4zm4.6-4.5-3.4-3.4 3.4-3.4 3.4 3.4zm4.5-4.5-3.4-3.4 3.4-3.4 3.4 3.4zm4.5-4.6-3.4-3.4 3.4-3.4 3.4 3.4zm4.6-4.5-3.4-3.4 3.4-3.4 3.4 3.4zm4.5-4.6-3.4-3.4 3.4-3.4 3.4 3.4zm4.5-4.5-3.4-3.4 3.4-3.4 3.4 3.4z" clip-path="url(#b)"/>
    </g>
    <path d="M26.287 169.264v-3.03l26.79-30.89q5.11-5.89 8.34-10.64 3.22-4.74 4.77-8.78 1.54-4.05 1.54-7.64 0-8.93-4.94-13.93-4.94-4.99-14.43-4.99-10.05 0-15.55 5.89-5.51 5.9-5.51 15.27h-2.58l-.11-.33q-.17-6.63 2.72-12.05t8.31-8.62 12.72-3.2q6.79 0 11.82 2.59 5.03 2.58 7.83 7.49 2.81 4.92 2.81 11.88 0 4.55-1.96 9.12-1.97 4.58-5.73 9.75-3.76 5.16-9.15 11.45l-23.42 27.35.11.28h41.5v-13.42h3.03v16.45Zm87.82 1.18q-11.84 0-18.41-8.73t-6.57-24.68v-17.3q0-15.94 6.51-24.68 6.51-8.73 18.36-8.73t18.39 8.73q6.54 8.74 6.54 24.68v17.3q0 16-6.48 24.71-6.49 8.7-18.34 8.7m0-3.03q10.62 0 16.2-8.15 5.59-8.14 5.59-22.34v-17.19q0-14.26-5.61-22.32-5.62-8.05-16.29-8.05t-16.25 8.05q-5.59 8.06-5.59 22.32v17.19q0 14.15 5.64 22.32 5.65 8.17 16.31 8.17"/>
    <path fill="#EACAAE" d="M45.7 182.3c2-7.8-13.1-15.7-17-16.7-6.3-1.7-12.7 2.1-14.4 8.3s2.1 12.7 8.3 14.4c3.9 1.1 20.7 3 23.1-6"/>
    <path fill="#F3E2D2" d="M44.4 158.2c-8 2.5-6.2 20.9-4.8 25 2.2 6.6 9.4 10.1 15.9 7.8s10.1-9.4 7.8-15.9c-1.3-4.1-9.8-19.7-18.9-16.9m43.3 18.3c0 7.6 19.2 13.6 24 13.6 7.5 0 13.6-6.1 13.6-13.6s-6.1-13.6-13.6-13.6c-4.7 0-24 5.7-24 13.6"/>
    <path fill="#FFF" d="M129.9 158.9c-7.5 2.7-3.7 20.5-1.9 24.3 2.8 6 10 8.6 16 5.8s8.6-10 5.8-16c-1.8-3.8-12.1-17-19.9-14.1"/>
    <path fill="#EACAAE" d="M144.5 184.4c1.2-8.3-15-14.4-19.1-15.1a12 12 0 0 0-13.7 10.1 12 12 0 0 0 10.1 13.7c4.1.6 21.5-.2 22.7-8.7"/>
    <path fill="#FFF" d="M70.2 187.2c2.2 8.9 22.3 7.5 26.9 6.2 7.2-2.1 11.3-9.7 9.2-16.9s-9.7-11.3-16.9-9.2c-4.6 1.4-21.6 9.8-19.2 19.9"/>
    <path fill="#EACAAE" d="M51.5 198.3c2.3 8.1 19.9 6.2 23.9 4.9 6.3-2 9.8-8.8 7.7-15.1-2-6.3-8.8-9.8-15.1-7.7-4 1.3-18.9 9.3-16.5 17.9"/>
</svg>
