<?xml version="1.0" encoding="utf-8"?>
<!-- Generator: Adobe Illustrator 18.1.1, SVG Export Plug-In . SVG Version: 6.00 Build 0)  -->
<!DOCTYPE svg PUBLIC "-//W3C//DTD SVG 1.1//EN" "http://www.w3.org/Graphics/SVG/1.1/DTD/svg11.dtd">
<svg version="1.1" id="Layer_1" xmlns="http://www.w3.org/2000/svg" xmlns:xlink="http://www.w3.org/1999/xlink" x="0px" y="0px"
	 viewBox="0 0 167.2 249.4" enable-background="new 0 0 167.2 249.4" xml:space="preserve">
<rect x="-5.7" y="-5.7" fill="#7674B1" width="178.6" height="260.8"/>
<g>
	<g>
		
			<rect x="115.6" y="112.2" transform="matrix(-0.6586 0.7525 -0.7525 -0.6586 293.9816 123.0272)" fill="#F1F2F2" width="7" height="32.1"/>
		<circle fill="#F1F2F2" cx="134.3" cy="136.3" r="5.2"/>
		<circle fill="#F1F2F2" cx="128.8" cy="142.6" r="5.2"/>
	</g>
	<g>
		<polygon fill="#E9CBBC" points="50.9,73.3 55.6,66.7 128.6,118.2 107.9,136.3 		"/>
		<polygon fill="#F1F2F2" points="50.4,73.5 55.9,66.2 87.7,88.7 74.2,101.6 		"/>
		<polygon fill="#E6E7E8" points="70.7,97.7 83.1,85.4 87.7,88.7 74.2,101.6 		"/>
		<g>
			<path fill="#51569F" d="M68.5,62.4c-0.3,1.4,0.3,3.4,1.3,4.4l5.9,5.6c1,1,0.8,2.3-0.5,2.8l-21,8.8c-1.3,0.6-3.4,0.3-4.6-0.5
				l-9.8-7c-1.2-0.8-1.5-2.5-0.6-3.7L49.8,58c0.8-1.2,2.2-3,2.9-4.2c0.8-1.1,2.1-3,2.9-4.2l15.7-22.1c0.8-1.2,2.3-1.6,3.3-0.9
				s1.5,2.4,1.2,3.8L68.5,62.4z"/>
			<path fill="#4D489E" d="M68.9,24.6L35.7,71.4c-0.6,0.8-0.4,2,0.4,2.6h0c0.8,0.6,2,0.4,2.6-0.4l33.2-46.8c0.6-0.8,0.4-2-0.4-2.6
				l0,0C70.6,23.6,69.5,23.8,68.9,24.6z"/>
			<path fill="#FFFFFF" d="M68.9,60.9l-5.2,0.9c-0.7,0.1-1.4-0.4-1.5-1.1c-0.1-0.7,0.4-1.4,1.1-1.5l6.3-1.1L68.9,60.9z"/>
			<path fill="#FFFFFF" d="M70.4,54.2L65.8,55c-0.7,0.1-1.4-0.4-1.5-1.1c-0.1-0.7,0.4-1.4,1.1-1.5l5.7-1L70.4,54.2z"/>
			<path fill="#FFFFFF" d="M71.7,48.5L68.5,49c-0.7,0.1-1.4-0.4-1.5-1.1c-0.1-0.7,0.4-1.4,1.1-1.5l4.2-0.7L71.7,48.5z"/>
		</g>
	</g>
</g>
<circle fill="#BA3033" cx="20.8" cy="39.2" r="2.6"/>
<g>
	<text transform="matrix(1 0 0 1 15.3198 29.7173)" font-family="'RobotoSlab-Regular'" font-size="20">8</text>
</g>
<circle fill="#BA3033" cx="146.4" cy="210.3" r="2.6"/>
<g>
	<text transform="matrix(-1 0 0 -1 151.9257 219.7416)" font-family="'RobotoSlab-Regular'" font-size="20">8</text>
</g>
<text transform="matrix(1 0 0 1 46.2383 166.6374)" font-family="'RobotoSlab-Thin'" font-size="140">8</text>
<g>
	<g>
		
			<rect x="46.9" y="200.2" transform="matrix(-0.8288 -0.5595 0.5595 -0.8288 -28.2999 416.5379)" fill="#F1F2F2" width="5.4" height="24.9"/>
		<circle fill="#F1F2F2" cx="44.8" cy="225.1" r="4"/>
		<circle fill="#F1F2F2" cx="39.4" cy="221.4" r="4"/>
	</g>
	<g>
		<path fill="#BF8F7E" d="M98.3,153.4c-1-0.6-2.3-0.3-2.9,0.7l-2.1,3.4c-0.4,0.7-1.8,0.2-0.9-1.3c0.5-0.8,5.4-8.7,5.4-8.7
			c0.6-1,0.3-2.3-0.7-2.9c-1-0.6-2.3-0.3-2.9,0.7l-4.7,7.6c-0.7,1.1-1.9,0.3-1.1-1c0.4-0.6,5.5-8.8,5.5-8.8c0.6-1,0.3-2.3-0.7-2.9
			c-1-0.6-2.3-0.3-2.9,0.7l-5.3,8.5c-1,1.2-1.7,0.1-1.2-0.7c0.3-0.5,3.3-5.3,3.3-5.3c0.6-1,0.3-2.3-0.7-2.9c-1-0.6-2.3-0.3-2.9,0.7
			c-2.3,3.8-8.4,14.8-9.1,12l-1.4-5.8c-0.3-1.1-1.4-1.9-2.6-1.6c-1.1,0.3-1.9,1.4-1.6,2.6l1.9,7.9c0,0,0,0,0,0c0,0,0,0,0,0
			c0.4,1.3,1,2.6,0.7,4.4c-10.5,15.9,4,36,18.9,10.1l4.6-7.4l4.3-6.9C99.6,155.3,99.3,154,98.3,153.4z"/>
		<g>
			<circle fill="#6AC7BB" cx="85" cy="142.3" r="1.8"/>
		</g>
		<g>
			<circle fill="#6AC7BB" cx="91.9" cy="142" r="1.8"/>
		</g>
		<g>
			<circle fill="#6AC7BB" cx="95.8" cy="146.5" r="1.8"/>
		</g>
		<g>
			<circle fill="#6AC7BB" cx="97.2" cy="155.3" r="1.8"/>
		</g>
		<g>
			<path fill="#6AC7BB" d="M68.7,148.2l0.2,1.1l0.2,1c0.9-0.2,1.5-1.2,1.3-2.1c-0.2-0.8-0.8-1.3-1.6-1.3
				C68.7,147.2,68.6,147.7,68.7,148.2z"/>
		</g>
	</g>
	<polyline fill="none" points="62.2,223.9 60.9,217.7 55.7,218.8 54.6,213.6 49.3,214.7 48.2,209.4 42.3,210.6 41,204.7 39.2,205.1 
		40.2,209.1 35.1,210.4 	"/>
	<polygon fill="#C55A4E" points="48.2,209.4 49.3,214.7 54.6,213.6 55.7,218.8 60.1,217.8 88.6,174.4 69.5,161.9 41.1,205.1 
		42.3,210.6 	"/>
	<g opacity="0.5">
		<defs>
			<polyline id="SVGID_7_" opacity="0.5" points="37.6,210.4 69.5,161.9 88.6,174.4 56.7,222.9 			"/>
		</defs>
		<clipPath id="SVGID_2_">
			<use xlink:href="#SVGID_7_"  overflow="visible"/>
		</clipPath>
		<path clip-path="url(#SVGID_2_)" fill="#273B83" d="M41.8,193.1l-0.7,1.1 M42.7,191.7l-0.6,1 M43.6,190.3l-0.6,1 M44.7,188.6
			l-0.8,1.2 M49.9,180.9l-3.2,4.9 M53.4,175.6l-0.6,1 M54.4,174.2l-0.6,1 M55.5,172.5l-0.8,1.2 M40.5,204.8l3.2-4.8l1,0.6l-3.2,4.9
			l-0.2-0.1l1.1,5.2l0,0l5.1-1.1l-0.2-0.2l3.2-4.9l4.9,3.2l-3.2,4.9l-3.7-2.4l1,4.5l5.3-1.1l1.1,5.2l4.3-0.9l-0.6-0.4l3.2-4.9
			l1.1,0.7l-2.9,4.4l0.1,0L74,204L88,183l1.3,0.9l1.9-2.8l-1.3-0.9l0.7-1.1l1.3,0.9l0.3-0.4l-1.3-0.9l0.6-1l1.3,0.9l0.3-0.4
			l-1.3-0.9l0.6-1l1.3,0.9l0.3-0.4l-1.3-0.9l0.8-1.2l1.3,0.9l1.9-2.8l-1.3-0.9l0.8-1.2l-2.8-1.9l-0.8,1.2l-1.1-0.7l0.8-1.2l-0.4-0.3
			l-0.8,1.2l-1-0.6l0.8-1.2l-0.4-0.3l-0.8,1.2l-1-0.6l0.8-1.2l-0.4-0.3l-0.8,1.2l-1.2-0.8l0.8-1.2L85,163l-0.8,1.2l-4.9-3.2l0.8-1.2
			l-2.8-1.9l-0.8,1.2l-1.1-0.7l0.8-1.2l-0.4-0.3l-0.8,1.2l-1-0.6l0.8-1.2l-0.4-0.3l-0.8,1.2l-1-0.6l0.8-1.2L73,155l-0.8,1.2
			l-1.2-0.8l0.8-1.2l-2.8-1.9l-0.8,1.2l-1.2-0.8l-1.9,2.8l1.2,0.8l-0.8,1.2l-1.2-0.8l-0.3,0.4l1.2,0.8l-0.6,1l-1.2-0.8l-0.3,0.4
			l1.2,0.8l-0.6,1l-1.2-0.8L62,160l1.2,0.8l-0.7,1.1l-1.2-0.8l-1.9,2.8l1.2,0.8l-3.2,4.9l-1.2-0.8 M88.2,171l1,0.6l-0.8,1.2l-1-0.6
			L88.2,171z M88.1,173.3l-0.6,1l-1-0.6l0.6-1L88.1,173.3z M84.8,175.2l-0.7,1.1l-1-0.6l0.7-1.1L84.8,175.2z M84.1,174.1l0.6-1
			l1,0.6l-0.6,1L84.1,174.1z M82.2,179.1l-3.2,4.9l-1-0.6l3.2-4.9L82.2,179.1z M77,186.8l-0.8,1.2l-1-0.6l0.8-1.2L77,186.8z
			 M75.9,188.5l-0.6,1l-1-0.6l0.6-1L75.9,188.5z M72.4,191.8l0.7-1.1l1,0.6l-0.7,1.1L72.4,191.8z M71.5,195.2l-3.2,4.9l-1-0.6
			l3.2-4.9L71.5,195.2z M73.4,190.2l0.6-1l1,0.6l-0.6,1L73.4,190.2z M74.8,187.1l-1.2-0.8l0.8-1.2l1.2,0.8L74.8,187.1z M74.5,187.6
			l-0.6,1l-1.2-0.8l0.6-1L74.5,187.6z M73.6,189l-0.6,1l-1.2-0.8l0.6-1L73.6,189z M72.7,190.4l-0.7,1.1l-1.2-0.8l0.7-1.1L72.7,190.4
			z M70.1,194.3l-3.2,4.9l-1.2-0.8l3.2-4.9L70.1,194.3z M60.6,177.6l0.8-1.2l1,0.6l-0.8,1.2L60.6,177.6z M61.2,178.7l-0.6,1l-1-0.6
			l0.6-1L61.2,178.7z M63.3,173.6l3.2-4.9l1,0.6l-3.2,4.9L63.3,173.6z M67.9,169.6l1.1,0.7l-3.2,4.9l-1.1-0.7L67.9,169.6z
			 M63.7,184.4l4.9,3.2l-0.7,1.1l-4.9-3.2L63.7,184.4z M69.5,186.3l-0.6,1L64,184l0.6-1L69.5,186.3z M65,182.6l0.6-1l4.9,3.2l-0.6,1
			L65,182.6z M62.6,202.9l1.2,0.8l-0.6,1l-1.2-0.8L62.6,202.9z M62.9,202.4l0.8-1.2l1.2,0.8l-0.8,1.2L62.9,202.4z M70.8,184.4
			l-4.9-3.2l0.8-1.2l4.9,3.2L70.8,184.4z M71.9,166l-1.1-0.7l0.6-1l1.1,0.7L71.9,166z M71.6,166.4l-0.7,1.1l-1.1-0.7l0.7-1.1
			L71.6,166.4z M70.4,165l-1-0.6l0.6-1l1,0.6L70.4,165z M70.1,165.4l-0.7,1.1l-1-0.6l0.7-1.1L70.1,165.4z M69,164l-1-0.6l0.6-1
			l1,0.6L69,164z M68.7,164.5l-0.7,1.1l-1-0.6l0.7-1.1L68.7,164.5z M66,168.4l-3.2,4.9l-1-0.6l3.2-4.9L66,168.4z M60.9,176.1
			l-0.8,1.2l-1-0.6l0.8-1.2L60.9,176.1z M59.8,177.8l-0.6,1l-1-0.6l0.6-1L59.8,177.8z M58.9,179.2l-0.6,1l-1-0.6l0.6-1L58.9,179.2z
			 M58,180.6l-0.7,1.1l-1-0.6L57,180L58,180.6z M55.3,184.5l-3.2,4.9l-1-0.6l3.2-4.9L55.3,184.5z M50.2,192.2l-0.8,1.2l-1-0.6
			l0.8-1.2L50.2,192.2z M49.1,193.9l-0.6,1l-1-0.6l0.6-1L49.1,193.9z M48.2,195.3l-0.6,1l-1-0.6l0.6-1L48.2,195.3z M47.7,197l1,0.6
			l-0.7,1.1l-1-0.6L47.7,197z M48,196.6l0.6-1l1,0.6l-0.6,1L48,196.6z M48.9,195.2l0.6-1l1,0.6l-0.6,1L48.9,195.2z M49.9,193.8
			l0.8-1.2l1,0.6l-0.8,1.2L49.9,193.8z M52.6,189.7l3.2-4.9l1,0.6l-3.2,4.9L52.6,189.7z M57.7,182l0.7-1.1l1,0.6l-0.7,1.1L57.7,182z
			 M58.7,180.4l0.6-1l1,0.6l-0.6,1L58.7,180.4z M59.8,181.8l1.1,0.7l-0.7,1.1l-1.1-0.7L59.8,181.8z M60.1,181.4l0.6-1l1.1,0.7
			l-0.6,1L60.1,181.4z M61,180l0.6-1l1.1,0.7l-0.6,1L61,180z M62,178.6l0.8-1.2l1.1,0.7l-0.8,1.2L62,178.6z M61.1,188.4l4.9,3.2
			l-3.2,4.9l-4.9-3.2L61.1,188.4z M60.7,205.7l1.2,0.8l-0.7,1.1l-1.2-0.8L60.7,205.7z M61,205.2l0.6-1l1.2,0.8l-0.6,1L61,205.2z
			 M62.4,206.8l1,0.6l-0.7,1.1l-1-0.6L62.4,206.8z M62.7,206.3l0.6-1l1,0.6l-0.6,1L62.7,206.3z M63.6,204.9l0.6-1l1,0.6l-0.6,1
			L63.6,204.9z M64.6,203.5l0.8-1.2l1,0.6l-0.8,1.2L64.6,203.5z M65.7,204.9l1,0.6l-0.6,1l-1-0.6L65.7,204.9z M66,204.5l0.8-1.2
			l1,0.6l-0.8,1.2L66,204.5z M68.7,200.4l3.2-4.9l1,0.6l-3.2,4.9L68.7,200.4z M73.8,192.7l0.7-1.1l1,0.6l-0.7,1.1L73.8,192.7z
			 M74.8,191.1l0.6-1l1,0.6l-0.6,1L74.8,191.1z M75.8,189.7l0.6-1l1,0.6l-0.6,1L75.8,189.7z M76.7,188.3l0.8-1.2l1,0.6l-0.8,1.2
			L76.7,188.3z M79.4,184.3l3.2-4.9l1,0.6l-3.2,4.9L79.4,184.3z M84.5,176.6l0.7-1.1l1,0.6l-0.7,1.1L84.5,176.6z M85.5,175l0.6-1
			l1,0.6l-0.6,1L85.5,175z M86.8,170.1l1,0.6l-0.8,1.2l-1-0.6L86.8,170.1z M86.6,172.4l-0.6,1l-1-0.6l0.6-1L86.6,172.4z M85.1,169
			l1.2,0.8l-0.8,1.2l-1.2-0.8L85.1,169z M84,170.6l1.2,0.8l-0.6,1l-1.2-0.8L84,170.6z M83.1,172l1.2,0.8l-0.6,1l-1.2-0.8L83.1,172z
			 M82.2,173.4l1.2,0.8l-0.7,1.1l-1.2-0.8L82.2,173.4z M79.5,177.4l1.2,0.8l-3.2,4.9l-1.2-0.8L79.5,177.4z M77.4,163.9l4.9,3.2
			l-0.8,1.2l-4.9-3.2L77.4,163.9z M76.3,165.5l4.9,3.2l-0.6,1l-4.9-3.2L76.3,165.5z M75.4,166.9l4.9,3.2l-0.6,1l-4.9-3.2L75.4,166.9
			z M74.5,168.3l4.9,3.2l-0.7,1.1l-4.9-3.2L74.5,168.3z M71.8,172.3l4.9,3.2l-3.2,4.9l-4.9-3.2L71.8,172.3z M73.5,161.2l1.1,0.7
			l-0.8,1.2l-1.1-0.7L73.5,161.2z M73.5,163.6l-0.6,1l-1.1-0.7l0.6-1L73.5,163.6z M72.1,160.3l1,0.6l-0.8,1.2l-1-0.6L72.1,160.3z
			 M71.9,162.6l-0.6,1l-1-0.6l0.6-1L71.9,162.6z M70.7,159.4l1,0.6l-0.8,1.2l-1-0.6L70.7,159.4z M70.5,161.7l-0.6,1l-1-0.6l0.6-1
			L70.5,161.7z M69,158.3l1.2,0.8l-0.8,1.2l-1.2-0.8L69,158.3z M67.9,159.9l1.2,0.8l-0.6,1l-1.2-0.8L67.9,159.9z M67,161.3l1.2,0.8
			l-0.6,1l-1.2-0.8L67,161.3z M66.1,162.7l1.2,0.8l-0.7,1.1l-1.2-0.8L66.1,162.7z M63.4,166.7l1.2,0.8l-3.2,4.9l-1.2-0.8L63.4,166.7
			z M58.3,174.4l1.2,0.8l-0.8,1.2l-1.2-0.8L58.3,174.4z M57.2,176l1.2,0.8l-0.6,1l-1.2-0.8L57.2,176z M56.3,177.4l1.2,0.8l-0.6,1
			l-1.2-0.8L56.3,177.4z M55.3,178.8l1.2,0.8l-0.7,1.1l-1.2-0.8L55.3,178.8z M52.7,182.8l1.2,0.8l-3.2,4.9l-1.2-0.8L52.7,182.8z
			 M47.6,190.5l1.2,0.8l-0.8,1.2l-1.2-0.8L47.6,190.5z M46.5,192.2l1.2,0.8l-0.6,1l-1.2-0.8L46.5,192.2z M40,204.6l-1.2-0.8l3.2-4.9
			l1.2,0.8L40,204.6z M45.1,196.9l-1.2-0.8l0.7-1.1l1.2,0.8L45.1,196.9z M44.9,194.5l0.6-1l1.2,0.8l-0.6,1L44.9,194.5z M45.6,197.2
			l0.7-1.1l1,0.6l-0.7,1.1L45.6,197.2z M41.8,205.8l3.2-4.9l1,0.6l-3.2,4.9L41.8,205.8z M44.3,207.5l-1.1-0.7l3.2-4.9l1.1,0.7
			L44.3,207.5z M49.5,199.8l-1.1-0.7l0.7-1.1l1.1,0.7L49.5,199.8z M50.5,198.2l-1.1-0.7l0.6-1l1.1,0.7L50.5,198.2z M51.4,196.8
			l-1.1-0.7l0.6-1l1.1,0.7L51.4,196.8z M52.3,195.4l-1.1-0.7l0.8-1.2l1.1,0.7L52.3,195.4z M55,191.3l-1.1-0.7l3.2-4.9l1.1,0.7
			L55,191.3z M57.2,204.9l-4.9-3.2l0.7-1.1l4.9,3.2L57.2,204.9z M58.2,203.3l-4.9-3.2l0.6-1l4.9,3.2L58.2,203.3z M59.1,201.9
			l-4.9-3.2l0.6-1l4.9,3.2L59.1,201.9z M55.2,197.3l0.8-1.2l4.9,3.2l-0.8,1.2L55.2,197.3z M54.9,214.5l3.2-4.9l1.2,0.8l-3.2,4.9
			L54.9,214.5z M56.6,215.6l3.2-4.9l1,0.6l-3.2,4.9L56.6,215.6z M58.9,217.2l-1-0.6l3.2-4.9l1,0.6L58.9,217.2z M64,209.4l-1-0.6
			l0.7-1.1l1,0.6L64,209.4z M64.1,207.3l0.6-1l1,0.6l-0.6,1L64.1,207.3z M65.6,210.5l-1.1-0.7l0.7-1.1l1.1,0.7L65.6,210.5z
			 M66.6,208.9l-1.1-0.7l0.6-1l1.1,0.7L66.6,208.9z M67.5,207.5l-1.1-0.7l0.6-1l1.1,0.7L67.5,207.5z M68.5,206.1l-1.1-0.7l0.8-1.2
			l1.1,0.7L68.5,206.1z M71.2,202.1l-1.1-0.7l3.2-4.9l1.1,0.7L71.2,202.1z M76.3,194.4l-1.1-0.7l0.7-1.1l1.1,0.7L76.3,194.4z
			 M77.3,192.8l-1.1-0.7l0.6-1l1.1,0.7L77.3,192.8z M78.2,191.4l-1.1-0.7l0.6-1l1.1,0.7L78.2,191.4z M79.2,190l-1.1-0.7l0.8-1.2
			l1.1,0.7L79.2,190z M81.9,185.9l-1.1-0.7l3.2-4.9l1.1,0.7L81.9,185.9z M87,178.2l-1.1-0.7l0.7-1.1l1.1,0.7L87,178.2z M88,176.7
			l-1.1-0.7l0.6-1l1.1,0.7L88,176.7z M89,175.3l-1.1-0.7l0.6-1l1.1,0.7L89,175.3z M89.9,173.9l-1.1-0.7l0.8-1.2l1.1,0.7L89.9,173.9z
			"/>
		<polygon clip-path="url(#SVGID_2_)" fill="#273B83" points="31.4,206.7 31,206.5 30.7,207 31.5,207.5 31.4,206.7 		"/>
		<polyline clip-path="url(#SVGID_2_)" fill="#273B83" points="39.3,215.2 39.2,215.2 38.7,215.9 38.1,215.4 33.4,216.4 31.7,208.3 
			31.4,208.7 30.1,207.9 29.8,208.4 31.1,209.2 30.3,210.3 29.1,209.5 27.2,212.3 28.4,213.1 27,215.3 29.8,217.2 31.3,215 
			32.5,215.8 31,218 31.5,218.3 33,216.1 33.9,216.8 32.4,219 32.9,219.3 34.4,217.1 35.3,217.7 33.8,219.9 34.3,220.2 35.8,218 
			36.9,218.7 35.4,220.9 38.2,222.8 39.7,220.6 		"/>
	</g>
</g>
</svg>
