<?xml version="1.0" encoding="utf-8"?>
<!-- Generator: Adobe Illustrator 18.1.1, SVG Export Plug-In . SVG Version: 6.00 Build 0)  -->
<!DOCTYPE svg PUBLIC "-//W3C//DTD SVG 1.1//EN" "http://www.w3.org/Graphics/SVG/1.1/DTD/svg11.dtd">
<svg version="1.1" id="Layer_1" xmlns="http://www.w3.org/2000/svg" xmlns:xlink="http://www.w3.org/1999/xlink" x="0px" y="0px"
	 viewBox="0 0 167.2 249.4" enable-background="new 0 0 167.2 249.4" xml:space="preserve">
<rect x="-5.7" y="-5.7" fill="#FCDCCD" width="178.6" height="260.8"/>
<circle fill="#BA3033" cx="20.8" cy="39.2" r="2.6"/>
<g>
	<text transform="matrix(1 0 0 1 11.8619 28.6079)" font-family="'RobotoSlab-Regular'" font-size="16">20</text>
</g>
<circle fill="#BA3033" cx="146.4" cy="210.3" r="2.6"/>
<g>
	<text transform="matrix(-1 0 0 -1 155.3845 220.8426)" font-family="'RobotoSlab-Regular'" font-size="16">20</text>
</g>
<path fill="#EACAAE" d="M77.2,102.6c0.9-6.2-11.2-10.7-14.2-11.2c-4.9-0.7-9.4,2.6-10.2,7.5c-0.7,4.9,2.6,9.4,7.5,10.2
	C63.4,109.6,76.3,108.9,77.2,102.6z"/>
<g>
	<path fill="#F3E2D2" d="M74.3,103.7c-5.7,1.9-5.3,17.9-4.1,21.4c1.9,5.6,8,8.6,13.6,6.7c5.6-1.9,8.6-8,6.7-13.6
		C89.4,114.7,80.2,101.7,74.3,103.7z"/>
	<path fill="#F3E2D2" d="M127.4,119.2c3.3-4.4-5.2-16.3-7.9-18.4c-4.4-3.3-10.5-2.4-13.8,1.9c-3.3,4.4-2.4,10.5,1.9,13.8
		C110.3,118.6,124,123.7,127.4,119.2z"/>
	<path fill="#F3E2D2" d="M48,98.6c-8,0.2-10.6,15.3-10.6,19.1c0.1,5.9,4.9,10.7,10.8,10.6s10.7-4.9,10.6-10.8
		C58.9,113.7,56.3,98.3,48,98.6z"/>
	<path fill="#FFFFFF" d="M76.7,102.4c-0.9,6.2,9.1,9.6,11.7,10.1c4.1,0.8,8.1-1.9,9-6s-1.9-8.1-6-9C88.8,97.1,77.6,96.5,76.7,102.4z
		"/>
	<path fill="#FFFFFF" d="M42.8,122.1c1.9,6.2,19.1,6.4,23,5.3c6.2-1.8,9.7-8.3,7.8-14.5c-1.8-6.2-8.3-9.7-14.5-7.8
		C55.2,106.2,40.8,115.7,42.8,122.1z"/>
	<path fill="#EACAAE" d="M104.7,101.6c-6.3-4.5-17.5,6.5-19.6,9.5c-3.4,4.9-2.1,11.6,2.8,14.9s11.6,2.1,14.9-2.8
		C105,120.2,111.7,106.6,104.7,101.6z"/>
	<path fill="#FFFFFF" d="M106.7,106.1c-6.5,3.5-3.1,17.5-1.6,20.8c2.4,5.1,8.5,7.4,13.7,5s7.4-8.5,5-13.7
		C122.2,114.9,113.4,102.4,106.7,106.1z"/>
</g>
<g>
	<path fill="#D2A592" d="M129.4,117.7L129.4,117.7c0-1,0-3.7,0-10.2l0-0.8c0-25.8-21-46.8-46.8-46.8c-25.8,0-46.8,21-46.8,46.8
		l0,0.8c0,9.2,0,10.6,0,10.8l0,0c0,4,0,24.8,0,25.2c0,25.9,20.9,46.8,46.8,46.8s46.8-21,46.8-46.8
		C129.4,143.2,129.5,118.1,129.4,117.7z M40.4,117.7c0-1.3,0-4.7,0-10.1l0-0.8c0-23.3,18.9-42.2,42.2-42.2
		c23.3,0,42.2,18.9,42.2,42.2l0,0.8c0,6.4,0,9.1,0,10.1H40.4z"/>
	<g opacity="0.2">
		<defs>
			<path id="SVGID_5_" opacity="0.2" d="M129.4,117.7L129.4,117.7c0-1,0-3.7,0-10.2l0-0.8c0-25.8-21-46.8-46.8-46.8
				c-25.8,0-46.8,21-46.8,46.8l0,0.8c0,9.2,0,10.6,0,10.8l0,0c0,4,0,24.8,0,25.2c0,25.9,20.9,46.8,46.8,46.8s46.8-21,46.8-46.8
				C129.4,143.2,129.5,118.1,129.4,117.7z M40.4,117.7c0-1.3,0-4.7,0-10.1l0-0.8c0-23.3,18.9-42.2,42.2-42.2
				c23.3,0,42.2,18.9,42.2,42.2l0,0.8c0,6.4,0,9.1,0,10.1H40.4z"/>
		</defs>
		<clipPath id="SVGID_2_">
			<use xlink:href="#SVGID_5_"  overflow="visible"/>
		</clipPath>
		<path clip-path="url(#SVGID_2_)" fill="#B2644B" d="M183.4,111.1l-1.1-1.1l-13.4,13.4l-3.4-3.4l13.4-13.4l-1.1-1.1l-13.4,13.4
			l-3.4-3.4l13.4-13.4l-1.1-1.1l-13.4,13.4l-3.4-3.4l13.4-13.4l-1.1-1.1l-13.4,13.4l-3.4-3.4L165.3,93l-1.1-1.1l-13.4,13.4l-3.4-3.4
			l13.4-13.4l-1.1-1.1l-13.4,13.4l-3.4-3.4l13.4-13.4l-1.1-1.1l-13.4,13.4l-3.4-3.4l13.4-13.4l-1.1-1.1l-13.4,13.4l-3.4-3.4
			l13.4-13.4l-1.1-1.1l-13.4,13.4l-3.4-3.4l13.4-13.4l-1.1-1.1l-13.4,13.4l-3.4-3.4l13.4-13.4l-1.1-1.1L123.5,78l-3.4-3.4l13.4-13.4
			l-1.1-1.1L119,73.5l-3.4-3.4L129,56.7l-1.1-1.1L114.4,69l-3.4-3.4l13.4-13.4l-1.1-1.1l-13.4,13.4l-3.4-3.4l13.4-13.4l-1.1-1.1
			l-13.4,13.4l-3.4-3.4l13.4-13.4l-1.1-1.1l-13.4,13.4l-3.4-3.4l13.4-13.4l-1.1-1.1L96.3,50.8l-3.4-3.4L106.3,34l-1.1-1.1L91.8,46.3
			l-3.4-3.4l13.4-13.4l-1.1-1.1L87.2,41.7l-3.4-3.4l13.4-13.4l-1.1-1.1L82.7,37.2L69.3,23.8l-1.1,1.1l13.4,13.4l-3.4,3.4L64.8,28.3
			l-1.1,1.1L77,42.9l-3.4,3.4L60.2,32.9L59.1,34l13.4,13.4l-3.4,3.4L55.7,37.4l-1.1,1.1L68,51.9l-3.4,3.4L51.1,41.9L50,43.1
			l13.4,13.4L60,59.9L46.6,46.5l-1.1,1.1L58.9,61l-3.4,3.4L42.1,51l-1.1,1.1l13.4,13.4L51,69L37.5,55.5l-1.1,1.1l13.4,13.4l-3.4,3.4
			L33,60.1l-1.1,1.1l13.4,13.4L41.9,78L28.5,64.6l-1.1,1.1l13.4,13.4l-3.4,3.4L23.9,69.1l-1.1,1.1l13.4,13.4l-3.4,3.4L19.4,73.7
			l-1.1,1.1l13.4,13.4l-3.4,3.4L14.9,78.2l-1.1,1.1l13.4,13.4l-3.4,3.4L10.3,82.7l-1.1,1.1l13.4,13.4l-3.4,3.4L5.8,87.3l-1.1,1.1
			l13.4,13.4l-3.4,3.4L1.3,91.8L0.1,93l13.4,13.4l-3.4,3.4L-3.3,96.4l-1.1,1.1L9,110.9l-3.4,3.4l-13.4-13.4l-1.1,1.1l13.4,13.4
			l-3.4,3.4l-13.4-13.4l-1.1,1.1L-0.1,120l-3.4,3.4L-16.9,110l-1.1,1.1l13.4,13.4L-18,137.9l1.1,1.1l13.4-13.4l3.4,3.4l-13.4,13.4
			l1.1,1.1l13.4-13.4l3.4,3.4L-8.9,147l1.1,1.1l13.4-13.4l3.4,3.4l-13.4,13.4l1.1,1.1l13.4-13.4l3.4,3.4L0.1,156.1l1.1,1.1
			l13.4-13.4l3.4,3.4L4.7,160.6l1.1,1.1l13.4-13.4l3.4,3.4L9.2,165.1l1.1,1.1l13.4-13.4l3.4,3.4l-13.4,13.4l1.1,1.1l13.4-13.4
			l3.4,3.4l-13.4,13.4l1.1,1.1l13.4-13.4l3.4,3.4l-13.4,13.4l1.1,1.1l13.4-13.4l3.4,3.4l-13.4,13.4l1.1,1.1L41.9,171l3.4,3.4
			l-13.4,13.4L33,189l13.4-13.4l3.4,3.4l-13.4,13.4l1.1,1.1L51,180.1l3.4,3.4l-13.4,13.4l1.1,1.1l13.4-13.4l3.4,3.4l-13.4,13.4
			l1.1,1.1L60,189.1l3.4,3.4L50,206l1.1,1.1l13.4-13.4l3.4,3.4l-13.4,13.4l1.1,1.1l13.4-13.4l3.4,3.4L59.1,215l1.1,1.1l13.4-13.4
			l3.4,3.4l-13.4,13.4l1.1,1.1l13.4-13.4l3.4,3.4l-13.4,13.4l1.1,1.1l13.4-13.4l13.4,13.4l1.1-1.1l-13.4-13.4l3.4-3.4l13.4,13.4
			l1.1-1.1l-13.4-13.4l3.4-3.4l13.4,13.4l1.1-1.1l-13.4-13.4l3.4-3.4l13.4,13.4l1.1-1.1l-13.4-13.4l3.4-3.4l13.4,13.4l1.1-1.1
			L102,192.5l3.4-3.4l13.4,13.4l1.1-1.1L106.5,188l3.4-3.4l13.4,13.4l1.1-1.1L111,183.5l3.4-3.4l13.4,13.4l1.1-1.1l-13.4-13.4
			l3.4-3.4l13.4,13.4l1.1-1.1l-13.4-13.4l3.4-3.4l13.4,13.4l1.1-1.1l-13.4-13.4l3.4-3.4l13.4,13.4l1.1-1.1l-13.4-13.4l3.4-3.4
			l13.4,13.4l1.1-1.1l-13.4-13.4l3.4-3.4l13.4,13.4l1.1-1.1l-13.4-13.4l3.4-3.4l13.4,13.4l1.1-1.1l-13.4-13.4l3.4-3.4l13.4,13.4
			l1.1-1.1l-13.4-13.4l3.4-3.4l13.4,13.4l1.1-1.1l-13.4-13.4l3.4-3.4l13.4,13.4l1.1-1.1l-13.4-13.4l3.4-3.4l13.4,13.4l1.1-1.1
			l-13.4-13.4l3.4-3.4l13.4,13.4l1.1-1.1L165.5,129l3.4-3.4l13.4,13.4l1.1-1.1L170,124.5L183.4,111.1z M163.2,120l-3.4,3.4l-3.4-3.4
			l3.4-3.4L163.2,120z M83.8,120l3.4-3.4l3.4,3.4l-3.4,3.4L83.8,120z M86.1,124.5l-3.4,3.4l-3.4-3.4l3.4-3.4L86.1,124.5z
			 M82.7,118.8l-3.4-3.4l3.4-3.4l3.4,3.4L82.7,118.8z M81.6,120l-3.4,3.4l-3.4-3.4l3.4-3.4L81.6,120z M77,124.5l-3.4,3.4l-3.4-3.4
			l3.4-3.4L77,124.5z M78.2,125.6l3.4,3.4l-3.4,3.4l-3.4-3.4L78.2,125.6z M82.7,130.2l3.4,3.4l-3.4,3.4l-3.4-3.4L82.7,130.2z
			 M83.8,129l3.4-3.4l3.4,3.4l-3.4,3.4L83.8,129z M88.4,124.5l3.4-3.4l3.4,3.4l-3.4,3.4L88.4,124.5z M92.9,120l3.4-3.4l3.4,3.4
			l-3.4,3.4L92.9,120z M91.8,118.8l-3.4-3.4l3.4-3.4l3.4,3.4L91.8,118.8z M87.2,114.3l-3.4-3.4l3.4-3.4l3.4,3.4L87.2,114.3z
			 M82.7,109.8l-3.4-3.4l3.4-3.4l3.4,3.4L82.7,109.8z M81.6,110.9l-3.4,3.4l-3.4-3.4l3.4-3.4L81.6,110.9z M77,115.4l-3.4,3.4
			l-3.4-3.4l3.4-3.4L77,115.4z M72.5,120l-3.4,3.4l-3.4-3.4l3.4-3.4L72.5,120z M68,124.5l-3.4,3.4l-3.4-3.4l3.4-3.4L68,124.5z
			 M69.1,125.6l3.4,3.4l-3.4,3.4l-3.4-3.4L69.1,125.6z M73.6,130.2l3.4,3.4l-3.4,3.4l-3.4-3.4L73.6,130.2z M78.2,134.7l3.4,3.4
			l-3.4,3.4l-3.4-3.4L78.2,134.7z M82.7,139.3l3.4,3.4l-3.4,3.4l-3.4-3.4L82.7,139.3z M83.8,138.1l3.4-3.4l3.4,3.4l-3.4,3.4
			L83.8,138.1z M88.4,133.6l3.4-3.4l3.4,3.4l-3.4,3.4L88.4,133.6z M92.9,129l3.4-3.4l3.4,3.4l-3.4,3.4L92.9,129z M97.4,124.5
			l3.4-3.4l3.4,3.4l-3.4,3.4L97.4,124.5z M102,120l3.4-3.4l3.4,3.4l-3.4,3.4L102,120z M100.8,118.8l-3.4-3.4l3.4-3.4l3.4,3.4
			L100.8,118.8z M96.3,114.3l-3.4-3.4l3.4-3.4l3.4,3.4L96.3,114.3z M91.8,109.8l-3.4-3.4l3.4-3.4l3.4,3.4L91.8,109.8z M87.2,105.2
			l-3.4-3.4l3.4-3.4l3.4,3.4L87.2,105.2z M82.7,100.7l-3.4-3.4l3.4-3.4l3.4,3.4L82.7,100.7z M81.6,101.8l-3.4,3.4l-3.4-3.4l3.4-3.4
			L81.6,101.8z M77,106.4l-3.4,3.4l-3.4-3.4l3.4-3.4L77,106.4z M72.5,110.9l-3.4,3.4l-3.4-3.4l3.4-3.4L72.5,110.9z M68,115.4
			l-3.4,3.4l-3.4-3.4l3.4-3.4L68,115.4z M63.4,120l-3.4,3.4l-3.4-3.4l3.4-3.4L63.4,120z M58.9,124.5l-3.4,3.4l-3.4-3.4l3.4-3.4
			L58.9,124.5z M60,125.6l3.4,3.4l-3.4,3.4l-3.4-3.4L60,125.6z M64.6,130.2l3.4,3.4l-3.4,3.4l-3.4-3.4L64.6,130.2z M69.1,134.7
			l3.4,3.4l-3.4,3.4l-3.4-3.4L69.1,134.7z M73.6,139.3l3.4,3.4l-3.4,3.4l-3.4-3.4L73.6,139.3z M78.2,143.8l3.4,3.4l-3.4,3.4
			l-3.4-3.4L78.2,143.8z M82.7,148.3l3.4,3.4l-3.4,3.4l-3.4-3.4L82.7,148.3z M83.8,147.2l3.4-3.4l3.4,3.4l-3.4,3.4L83.8,147.2z
			 M88.4,142.7l3.4-3.4l3.4,3.4l-3.4,3.4L88.4,142.7z M92.9,138.1l3.4-3.4l3.4,3.4l-3.4,3.4L92.9,138.1z M97.4,133.6l3.4-3.4
			l3.4,3.4l-3.4,3.4L97.4,133.6z M102,129l3.4-3.4l3.4,3.4l-3.4,3.4L102,129z M106.5,124.5l3.4-3.4l3.4,3.4l-3.4,3.4L106.5,124.5z
			 M111,120l3.4-3.4l3.4,3.4l-3.4,3.4L111,120z M109.9,118.8l-3.4-3.4l3.4-3.4l3.4,3.4L109.9,118.8z M105.4,114.3l-3.4-3.4l3.4-3.4
			l3.4,3.4L105.4,114.3z M100.8,109.8l-3.4-3.4l3.4-3.4l3.4,3.4L100.8,109.8z M96.3,105.2l-3.4-3.4l3.4-3.4l3.4,3.4L96.3,105.2z
			 M91.8,100.7l-3.4-3.4l3.4-3.4l3.4,3.4L91.8,100.7z M87.2,96.2l-3.4-3.4l3.4-3.4l3.4,3.4L87.2,96.2z M82.7,91.6l-3.4-3.4l3.4-3.4
			l3.4,3.4L82.7,91.6z M81.6,92.8l-3.4,3.4l-3.4-3.4l3.4-3.4L81.6,92.8z M77,97.3l-3.4,3.4l-3.4-3.4l3.4-3.4L77,97.3z M72.5,101.8
			l-3.4,3.4l-3.4-3.4l3.4-3.4L72.5,101.8z M68,106.4l-3.4,3.4l-3.4-3.4l3.4-3.4L68,106.4z M63.4,110.9l-3.4,3.4l-3.4-3.4l3.4-3.4
			L63.4,110.9z M58.9,115.4l-3.4,3.4l-3.4-3.4l3.4-3.4L58.9,115.4z M54.4,120l-3.4,3.4l-3.4-3.4l3.4-3.4L54.4,120z M49.8,124.5
			l-3.4,3.4l-3.4-3.4l3.4-3.4L49.8,124.5z M51,125.6l3.4,3.4l-3.4,3.4l-3.4-3.4L51,125.6z M55.5,130.2l3.4,3.4l-3.4,3.4l-3.4-3.4
			L55.5,130.2z M60,134.7l3.4,3.4l-3.4,3.4l-3.4-3.4L60,134.7z M64.6,139.3l3.4,3.4l-3.4,3.4l-3.4-3.4L64.6,139.3z M69.1,143.8
			l3.4,3.4l-3.4,3.4l-3.4-3.4L69.1,143.8z M73.6,148.3l3.4,3.4l-3.4,3.4l-3.4-3.4L73.6,148.3z M78.2,152.9l3.4,3.4l-3.4,3.4
			l-3.4-3.4L78.2,152.9z M82.7,157.4l3.4,3.4l-3.4,3.4l-3.4-3.4L82.7,157.4z M83.8,156.3l3.4-3.4l3.4,3.4l-3.4,3.4L83.8,156.3z
			 M88.4,151.7l3.4-3.4l3.4,3.4l-3.4,3.4L88.4,151.7z M92.9,147.2l3.4-3.4l3.4,3.4l-3.4,3.4L92.9,147.2z M97.4,142.7l3.4-3.4
			l3.4,3.4l-3.4,3.4L97.4,142.7z M102,138.1l3.4-3.4l3.4,3.4l-3.4,3.4L102,138.1z M106.5,133.6l3.4-3.4l3.4,3.4l-3.4,3.4
			L106.5,133.6z M111,129l3.4-3.4l3.4,3.4l-3.4,3.4L111,129z M115.6,124.5l3.4-3.4l3.4,3.4l-3.4,3.4L115.6,124.5z M120.1,120
			l3.4-3.4l3.4,3.4l-3.4,3.4L120.1,120z M119,118.8l-3.4-3.4l3.4-3.4l3.4,3.4L119,118.8z M114.4,114.3l-3.4-3.4l3.4-3.4l3.4,3.4
			L114.4,114.3z M109.9,109.8l-3.4-3.4l3.4-3.4l3.4,3.4L109.9,109.8z M105.4,105.2l-3.4-3.4l3.4-3.4l3.4,3.4L105.4,105.2z
			 M100.8,100.7l-3.4-3.4l3.4-3.4l3.4,3.4L100.8,100.7z M96.3,96.2l-3.4-3.4l3.4-3.4l3.4,3.4L96.3,96.2z M91.8,91.6l-3.4-3.4
			l3.4-3.4l3.4,3.4L91.8,91.6z M87.2,87.1l-3.4-3.4l3.4-3.4l3.4,3.4L87.2,87.1z M82.7,82.6l-3.4-3.4l3.4-3.4l3.4,3.4L82.7,82.6z
			 M81.6,83.7l-3.4,3.4l-3.4-3.4l3.4-3.4L81.6,83.7z M77,88.2l-3.4,3.4l-3.4-3.4l3.4-3.4L77,88.2z M72.5,92.8l-3.4,3.4l-3.4-3.4
			l3.4-3.4L72.5,92.8z M68,97.3l-3.4,3.4l-3.4-3.4l3.4-3.4L68,97.3z M63.4,101.8l-3.4,3.4l-3.4-3.4l3.4-3.4L63.4,101.8z M58.9,106.4
			l-3.4,3.4l-3.4-3.4l3.4-3.4L58.9,106.4z M54.4,110.9l-3.4,3.4l-3.4-3.4l3.4-3.4L54.4,110.9z M49.8,115.4l-3.4,3.4l-3.4-3.4
			l3.4-3.4L49.8,115.4z M45.3,120l-3.4,3.4l-3.4-3.4l3.4-3.4L45.3,120z M40.8,124.5l-3.4,3.4l-3.4-3.4l3.4-3.4L40.8,124.5z
			 M41.9,125.6l3.4,3.4l-3.4,3.4l-3.4-3.4L41.9,125.6z M46.4,130.2l3.4,3.4l-3.4,3.4l-3.4-3.4L46.4,130.2z M51,134.7l3.4,3.4
			l-3.4,3.4l-3.4-3.4L51,134.7z M55.5,139.3l3.4,3.4l-3.4,3.4l-3.4-3.4L55.5,139.3z M60,143.8l3.4,3.4l-3.4,3.4l-3.4-3.4L60,143.8z
			 M64.6,148.3l3.4,3.4l-3.4,3.4l-3.4-3.4L64.6,148.3z M69.1,152.9l3.4,3.4l-3.4,3.4l-3.4-3.4L69.1,152.9z M73.6,157.4l3.4,3.4
			l-3.4,3.4l-3.4-3.4L73.6,157.4z M78.2,161.9l3.4,3.4l-3.4,3.4l-3.4-3.4L78.2,161.9z M82.7,166.5l3.4,3.4l-3.4,3.4l-3.4-3.4
			L82.7,166.5z M83.8,165.3l3.4-3.4l3.4,3.4l-3.4,3.4L83.8,165.3z M88.4,160.8l3.4-3.4l3.4,3.4l-3.4,3.4L88.4,160.8z M92.9,156.3
			l3.4-3.4l3.4,3.4l-3.4,3.4L92.9,156.3z M97.4,151.7l3.4-3.4l3.4,3.4l-3.4,3.4L97.4,151.7z M102,147.2l3.4-3.4l3.4,3.4l-3.4,3.4
			L102,147.2z M106.5,142.7l3.4-3.4l3.4,3.4l-3.4,3.4L106.5,142.7z M111,138.1l3.4-3.4l3.4,3.4l-3.4,3.4L111,138.1z M115.6,133.6
			l3.4-3.4l3.4,3.4L119,137L115.6,133.6z M120.1,129l3.4-3.4l3.4,3.4l-3.4,3.4L120.1,129z M124.7,124.5l3.4-3.4l3.4,3.4l-3.4,3.4
			L124.7,124.5z M129.2,120l3.4-3.4l3.4,3.4l-3.4,3.4L129.2,120z M128.1,118.8l-3.4-3.4l3.4-3.4l3.4,3.4L128.1,118.8z M123.5,114.3
			l-3.4-3.4l3.4-3.4l3.4,3.4L123.5,114.3z M119,109.8l-3.4-3.4l3.4-3.4l3.4,3.4L119,109.8z M114.4,105.2l-3.4-3.4l3.4-3.4l3.4,3.4
			L114.4,105.2z M109.9,100.7l-3.4-3.4l3.4-3.4l3.4,3.4L109.9,100.7z M105.4,96.2l-3.4-3.4l3.4-3.4l3.4,3.4L105.4,96.2z M100.8,91.6
			l-3.4-3.4l3.4-3.4l3.4,3.4L100.8,91.6z M96.3,87.1l-3.4-3.4l3.4-3.4l3.4,3.4L96.3,87.1z M91.8,82.6l-3.4-3.4l3.4-3.4l3.4,3.4
			L91.8,82.6z M87.2,78l-3.4-3.4l3.4-3.4l3.4,3.4L87.2,78z M82.7,73.5l-3.4-3.4l3.4-3.4l3.4,3.4L82.7,73.5z M81.6,74.6L78.2,78
			l-3.4-3.4l3.4-3.4L81.6,74.6z M77,79.2l-3.4,3.4l-3.4-3.4l3.4-3.4L77,79.2z M72.5,83.7l-3.4,3.4l-3.4-3.4l3.4-3.4L72.5,83.7z
			 M68,88.2l-3.4,3.4l-3.4-3.4l3.4-3.4L68,88.2z M63.4,92.8L60,96.2l-3.4-3.4l3.4-3.4L63.4,92.8z M58.9,97.3l-3.4,3.4l-3.4-3.4
			l3.4-3.4L58.9,97.3z M54.4,101.8l-3.4,3.4l-3.4-3.4l3.4-3.4L54.4,101.8z M49.8,106.4l-3.4,3.4l-3.4-3.4l3.4-3.4L49.8,106.4z
			 M45.3,110.9l-3.4,3.4l-3.4-3.4l3.4-3.4L45.3,110.9z M40.8,115.4l-3.4,3.4l-3.4-3.4l3.4-3.4L40.8,115.4z M36.2,120l-3.4,3.4
			l-3.4-3.4l3.4-3.4L36.2,120z M31.7,124.5l-3.4,3.4l-3.4-3.4l3.4-3.4L31.7,124.5z M32.8,125.6l3.4,3.4l-3.4,3.4l-3.4-3.4
			L32.8,125.6z M37.3,130.2l3.4,3.4l-3.4,3.4l-3.4-3.4L37.3,130.2z M41.9,134.7l3.4,3.4l-3.4,3.4l-3.4-3.4L41.9,134.7z M46.4,139.3
			l3.4,3.4l-3.4,3.4l-3.4-3.4L46.4,139.3z M51,143.8l3.4,3.4l-3.4,3.4l-3.4-3.4L51,143.8z M55.5,148.3l3.4,3.4l-3.4,3.4l-3.4-3.4
			L55.5,148.3z M60,152.9l3.4,3.4l-3.4,3.4l-3.4-3.4L60,152.9z M64.6,157.4l3.4,3.4l-3.4,3.4l-3.4-3.4L64.6,157.4z M69.1,161.9
			l3.4,3.4l-3.4,3.4l-3.4-3.4L69.1,161.9z M73.6,166.5l3.4,3.4l-3.4,3.4l-3.4-3.4L73.6,166.5z M78.2,171l3.4,3.4l-3.4,3.4l-3.4-3.4
			L78.2,171z M82.7,175.5l3.4,3.4l-3.4,3.4l-3.4-3.4L82.7,175.5z M83.8,174.4l3.4-3.4l3.4,3.4l-3.4,3.4L83.8,174.4z M88.4,169.9
			l3.4-3.4l3.4,3.4l-3.4,3.4L88.4,169.9z M92.9,165.3l3.4-3.4l3.4,3.4l-3.4,3.4L92.9,165.3z M97.4,160.8l3.4-3.4l3.4,3.4l-3.4,3.4
			L97.4,160.8z M102,156.3l3.4-3.4l3.4,3.4l-3.4,3.4L102,156.3z M106.5,151.7l3.4-3.4l3.4,3.4l-3.4,3.4L106.5,151.7z M111,147.2
			l3.4-3.4l3.4,3.4l-3.4,3.4L111,147.2z M115.6,142.7l3.4-3.4l3.4,3.4l-3.4,3.4L115.6,142.7z M120.1,138.1l3.4-3.4l3.4,3.4l-3.4,3.4
			L120.1,138.1z M124.7,133.6l3.4-3.4l3.4,3.4l-3.4,3.4L124.7,133.6z M129.2,129l3.4-3.4l3.4,3.4l-3.4,3.4L129.2,129z M133.7,124.5
			l3.4-3.4l3.4,3.4l-3.4,3.4L133.7,124.5z M138.3,120l3.4-3.4l3.4,3.4l-3.4,3.4L138.3,120z M137.1,118.8l-3.4-3.4l3.4-3.4l3.4,3.4
			L137.1,118.8z M132.6,114.3l-3.4-3.4l3.4-3.4l3.4,3.4L132.6,114.3z M128.1,109.8l-3.4-3.4l3.4-3.4l3.4,3.4L128.1,109.8z
			 M123.5,105.2l-3.4-3.4l3.4-3.4l3.4,3.4L123.5,105.2z M119,100.7l-3.4-3.4l3.4-3.4l3.4,3.4L119,100.7z M114.4,96.2l-3.4-3.4
			l3.4-3.4l3.4,3.4L114.4,96.2z M109.9,91.6l-3.4-3.4l3.4-3.4l3.4,3.4L109.9,91.6z M105.4,87.1l-3.4-3.4l3.4-3.4l3.4,3.4L105.4,87.1
			z M100.8,82.6l-3.4-3.4l3.4-3.4l3.4,3.4L100.8,82.6z M96.3,78l-3.4-3.4l3.4-3.4l3.4,3.4L96.3,78z M91.8,73.5l-3.4-3.4l3.4-3.4
			l3.4,3.4L91.8,73.5z M87.2,69l-3.4-3.4l3.4-3.4l3.4,3.4L87.2,69z M82.7,64.4L79.3,61l3.4-3.4l3.4,3.4L82.7,64.4z M81.6,65.6
			L78.2,69l-3.4-3.4l3.4-3.4L81.6,65.6z M77,70.1l-3.4,3.4l-3.4-3.4l3.4-3.4L77,70.1z M72.5,74.6L69.1,78l-3.4-3.4l3.4-3.4
			L72.5,74.6z M68,79.2l-3.4,3.4l-3.4-3.4l3.4-3.4L68,79.2z M63.4,83.7L60,87.1l-3.4-3.4l3.4-3.4L63.4,83.7z M58.9,88.2l-3.4,3.4
			l-3.4-3.4l3.4-3.4L58.9,88.2z M54.4,92.8L51,96.2l-3.4-3.4l3.4-3.4L54.4,92.8z M49.8,97.3l-3.4,3.4L43,97.3l3.4-3.4L49.8,97.3z
			 M45.3,101.8l-3.4,3.4l-3.4-3.4l3.4-3.4L45.3,101.8z M40.8,106.4l-3.4,3.4l-3.4-3.4l3.4-3.4L40.8,106.4z M36.2,110.9l-3.4,3.4
			l-3.4-3.4l3.4-3.4L36.2,110.9z M31.7,115.4l-3.4,3.4l-3.4-3.4l3.4-3.4L31.7,115.4z M27.1,120l-3.4,3.4l-3.4-3.4l3.4-3.4L27.1,120z
			 M22.6,124.5l-3.4,3.4l-3.4-3.4l3.4-3.4L22.6,124.5z M23.7,125.6l3.4,3.4l-3.4,3.4l-3.4-3.4L23.7,125.6z M28.3,130.2l3.4,3.4
			l-3.4,3.4l-3.4-3.4L28.3,130.2z M32.8,134.7l3.4,3.4l-3.4,3.4l-3.4-3.4L32.8,134.7z M37.3,139.3l3.4,3.4l-3.4,3.4l-3.4-3.4
			L37.3,139.3z M41.9,143.8l3.4,3.4l-3.4,3.4l-3.4-3.4L41.9,143.8z M46.4,148.3l3.4,3.4l-3.4,3.4l-3.4-3.4L46.4,148.3z M51,152.9
			l3.4,3.4l-3.4,3.4l-3.4-3.4L51,152.9z M55.5,157.4l3.4,3.4l-3.4,3.4l-3.4-3.4L55.5,157.4z M60,161.9l3.4,3.4l-3.4,3.4l-3.4-3.4
			L60,161.9z M64.6,166.5l3.4,3.4l-3.4,3.4l-3.4-3.4L64.6,166.5z M69.1,171l3.4,3.4l-3.4,3.4l-3.4-3.4L69.1,171z M73.6,175.5
			l3.4,3.4l-3.4,3.4l-3.4-3.4L73.6,175.5z M78.2,180.1l3.4,3.4l-3.4,3.4l-3.4-3.4L78.2,180.1z M82.7,184.6l3.4,3.4l-3.4,3.4
			l-3.4-3.4L82.7,184.6z M83.8,183.5l3.4-3.4l3.4,3.4l-3.4,3.4L83.8,183.5z M88.4,178.9l3.4-3.4l3.4,3.4l-3.4,3.4L88.4,178.9z
			 M92.9,174.4l3.4-3.4l3.4,3.4l-3.4,3.4L92.9,174.4z M97.4,169.9l3.4-3.4l3.4,3.4l-3.4,3.4L97.4,169.9z M102,165.3l3.4-3.4l3.4,3.4
			l-3.4,3.4L102,165.3z M106.5,160.8l3.4-3.4l3.4,3.4l-3.4,3.4L106.5,160.8z M111,156.3l3.4-3.4l3.4,3.4l-3.4,3.4L111,156.3z
			 M115.6,151.7l3.4-3.4l3.4,3.4l-3.4,3.4L115.6,151.7z M120.1,147.2l3.4-3.4l3.4,3.4l-3.4,3.4L120.1,147.2z M124.7,142.7l3.4-3.4
			l3.4,3.4l-3.4,3.4L124.7,142.7z M129.2,138.1l3.4-3.4l3.4,3.4l-3.4,3.4L129.2,138.1z M133.7,133.6l3.4-3.4l3.4,3.4l-3.4,3.4
			L133.7,133.6z M138.3,129l3.4-3.4l3.4,3.4l-3.4,3.4L138.3,129z M142.8,124.5l3.4-3.4l3.4,3.4l-3.4,3.4L142.8,124.5z M147.3,120
			l3.4-3.4l3.4,3.4l-3.4,3.4L147.3,120z M146.2,118.8l-3.4-3.4l3.4-3.4l3.4,3.4L146.2,118.8z M141.7,114.3l-3.4-3.4l3.4-3.4l3.4,3.4
			L141.7,114.3z M137.1,109.8l-3.4-3.4l3.4-3.4l3.4,3.4L137.1,109.8z M132.6,105.2l-3.4-3.4l3.4-3.4l3.4,3.4L132.6,105.2z
			 M128.1,100.7l-3.4-3.4l3.4-3.4l3.4,3.4L128.1,100.7z M123.5,96.2l-3.4-3.4l3.4-3.4l3.4,3.4L123.5,96.2z M119,91.6l-3.4-3.4
			l3.4-3.4l3.4,3.4L119,91.6z M114.4,87.1l-3.4-3.4l3.4-3.4l3.4,3.4L114.4,87.1z M109.9,82.6l-3.4-3.4l3.4-3.4l3.4,3.4L109.9,82.6z
			 M105.4,78l-3.4-3.4l3.4-3.4l3.4,3.4L105.4,78z M100.8,73.5l-3.4-3.4l3.4-3.4l3.4,3.4L100.8,73.5z M96.3,69l-3.4-3.4l3.4-3.4
			l3.4,3.4L96.3,69z M91.8,64.4L88.4,61l3.4-3.4l3.4,3.4L91.8,64.4z M87.2,59.9l-3.4-3.4l3.4-3.4l3.4,3.4L87.2,59.9z M82.7,55.3
			l-3.4-3.4l3.4-3.4l3.4,3.4L82.7,55.3z M81.6,56.5l-3.4,3.4l-3.4-3.4l3.4-3.4L81.6,56.5z M77,61l-3.4,3.4L70.2,61l3.4-3.4L77,61z
			 M72.5,65.6L69.1,69l-3.4-3.4l3.4-3.4L72.5,65.6z M68,70.1l-3.4,3.4l-3.4-3.4l3.4-3.4L68,70.1z M63.4,74.6L60,78l-3.4-3.4l3.4-3.4
			L63.4,74.6z M58.9,79.2l-3.4,3.4l-3.4-3.4l3.4-3.4L58.9,79.2z M54.4,83.7L51,87.1l-3.4-3.4l3.4-3.4L54.4,83.7z M49.8,88.2
			l-3.4,3.4L43,88.2l3.4-3.4L49.8,88.2z M45.3,92.8l-3.4,3.4l-3.4-3.4l3.4-3.4L45.3,92.8z M40.8,97.3l-3.4,3.4l-3.4-3.4l3.4-3.4
			L40.8,97.3z M36.2,101.8l-3.4,3.4l-3.4-3.4l3.4-3.4L36.2,101.8z M31.7,106.4l-3.4,3.4l-3.4-3.4l3.4-3.4L31.7,106.4z M27.1,110.9
			l-3.4,3.4l-3.4-3.4l3.4-3.4L27.1,110.9z M22.6,115.4l-3.4,3.4l-3.4-3.4l3.4-3.4L22.6,115.4z M18.1,120l-3.4,3.4l-3.4-3.4l3.4-3.4
			L18.1,120z M13.5,124.5l-3.4,3.4l-3.4-3.4l3.4-3.4L13.5,124.5z M14.7,125.6l3.4,3.4l-3.4,3.4l-3.4-3.4L14.7,125.6z M19.2,130.2
			l3.4,3.4l-3.4,3.4l-3.4-3.4L19.2,130.2z M23.7,134.7l3.4,3.4l-3.4,3.4l-3.4-3.4L23.7,134.7z M28.3,139.3l3.4,3.4l-3.4,3.4
			l-3.4-3.4L28.3,139.3z M32.8,143.8l3.4,3.4l-3.4,3.4l-3.4-3.4L32.8,143.8z M37.3,148.3l3.4,3.4l-3.4,3.4l-3.4-3.4L37.3,148.3z
			 M41.9,152.9l3.4,3.4l-3.4,3.4l-3.4-3.4L41.9,152.9z M46.4,157.4l3.4,3.4l-3.4,3.4l-3.4-3.4L46.4,157.4z M51,161.9l3.4,3.4
			l-3.4,3.4l-3.4-3.4L51,161.9z M55.5,166.5l3.4,3.4l-3.4,3.4l-3.4-3.4L55.5,166.5z M60,171l3.4,3.4l-3.4,3.4l-3.4-3.4L60,171z
			 M64.6,175.5l3.4,3.4l-3.4,3.4l-3.4-3.4L64.6,175.5z M69.1,180.1l3.4,3.4l-3.4,3.4l-3.4-3.4L69.1,180.1z M73.6,184.6L77,188
			l-3.4,3.4l-3.4-3.4L73.6,184.6z M78.2,189.1l3.4,3.4l-3.4,3.4l-3.4-3.4L78.2,189.1z M82.7,193.7l3.4,3.4l-3.4,3.4l-3.4-3.4
			L82.7,193.7z M83.8,192.5l3.4-3.4l3.4,3.4l-3.4,3.4L83.8,192.5z M88.4,188l3.4-3.4l3.4,3.4l-3.4,3.4L88.4,188z M92.9,183.5
			l3.4-3.4l3.4,3.4l-3.4,3.4L92.9,183.5z M97.4,178.9l3.4-3.4l3.4,3.4l-3.4,3.4L97.4,178.9z M102,174.4l3.4-3.4l3.4,3.4l-3.4,3.4
			L102,174.4z M106.5,169.9l3.4-3.4l3.4,3.4l-3.4,3.4L106.5,169.9z M111,165.3l3.4-3.4l3.4,3.4l-3.4,3.4L111,165.3z M115.6,160.8
			l3.4-3.4l3.4,3.4l-3.4,3.4L115.6,160.8z M120.1,156.3l3.4-3.4l3.4,3.4l-3.4,3.4L120.1,156.3z M124.7,151.7l3.4-3.4l3.4,3.4
			l-3.4,3.4L124.7,151.7z M129.2,147.2l3.4-3.4l3.4,3.4l-3.4,3.4L129.2,147.2z M133.7,142.7l3.4-3.4l3.4,3.4l-3.4,3.4L133.7,142.7z
			 M138.3,138.1l3.4-3.4l3.4,3.4l-3.4,3.4L138.3,138.1z M142.8,133.6l3.4-3.4l3.4,3.4l-3.4,3.4L142.8,133.6z M147.3,129l3.4-3.4
			l3.4,3.4l-3.4,3.4L147.3,129z M151.9,124.5l3.4-3.4l3.4,3.4l-3.4,3.4L151.9,124.5z M158.7,115.4l-3.4,3.4l-3.4-3.4l3.4-3.4
			L158.7,115.4z M154.1,110.9l-3.4,3.4l-3.4-3.4l3.4-3.4L154.1,110.9z M149.6,106.4l-3.4,3.4l-3.4-3.4l3.4-3.4L149.6,106.4z
			 M145.1,101.8l-3.4,3.4l-3.4-3.4l3.4-3.4L145.1,101.8z M140.5,97.3l-3.4,3.4l-3.4-3.4l3.4-3.4L140.5,97.3z M136,92.8l-3.4,3.4
			l-3.4-3.4l3.4-3.4L136,92.8z M131.5,88.2l-3.4,3.4l-3.4-3.4l3.4-3.4L131.5,88.2z M126.9,83.7l-3.4,3.4l-3.4-3.4l3.4-3.4
			L126.9,83.7z M122.4,79.2l-3.4,3.4l-3.4-3.4l3.4-3.4L122.4,79.2z M117.9,74.6l-3.4,3.4l-3.4-3.4l3.4-3.4L117.9,74.6z M113.3,70.1
			l-3.4,3.4l-3.4-3.4l3.4-3.4L113.3,70.1z M108.8,65.6l-3.4,3.4l-3.4-3.4l3.4-3.4L108.8,65.6z M104.2,61l-3.4,3.4L97.4,61l3.4-3.4
			L104.2,61z M99.7,56.5l-3.4,3.4l-3.4-3.4l3.4-3.4L99.7,56.5z M95.2,51.9l-3.4,3.4l-3.4-3.4l3.4-3.4L95.2,51.9z M90.6,47.4
			l-3.4,3.4l-3.4-3.4l3.4-3.4L90.6,47.4z M82.7,39.5l3.4,3.4l-3.4,3.4l-3.4-3.4L82.7,39.5z M78.2,44l3.4,3.4l-3.4,3.4l-3.4-3.4
			L78.2,44z M73.6,48.5l3.4,3.4l-3.4,3.4l-3.4-3.4L73.6,48.5z M69.1,53.1l3.4,3.4l-3.4,3.4l-3.4-3.4L69.1,53.1z M64.6,57.6L68,61
			l-3.4,3.4L61.2,61L64.6,57.6z M60,62.2l3.4,3.4L60,69l-3.4-3.4L60,62.2z M55.5,66.7l3.4,3.4l-3.4,3.4l-3.4-3.4L55.5,66.7z
			 M51,71.2l3.4,3.4L51,78l-3.4-3.4L51,71.2z M46.4,75.8l3.4,3.4l-3.4,3.4L43,79.2L46.4,75.8z M41.9,80.3l3.4,3.4l-3.4,3.4l-3.4-3.4
			L41.9,80.3z M37.3,84.8l3.4,3.4l-3.4,3.4l-3.4-3.4L37.3,84.8z M32.8,89.4l3.4,3.4l-3.4,3.4l-3.4-3.4L32.8,89.4z M28.3,93.9
			l3.4,3.4l-3.4,3.4l-3.4-3.4L28.3,93.9z M23.7,98.4l3.4,3.4l-3.4,3.4l-3.4-3.4L23.7,98.4z M19.2,103l3.4,3.4l-3.4,3.4l-3.4-3.4
			L19.2,103z M14.7,107.5l3.4,3.4l-3.4,3.4l-3.4-3.4L14.7,107.5z M10.1,112l3.4,3.4l-3.4,3.4l-3.4-3.4L10.1,112z M5.6,116.6L9,120
			l-3.4,3.4L2.2,120L5.6,116.6z M-2.3,124.5l3.4-3.4l3.4,3.4l-3.4,3.4L-2.3,124.5z M2.2,129l3.4-3.4L9,129l-3.4,3.4L2.2,129z
			 M6.7,133.6l3.4-3.4l3.4,3.4l-3.4,3.4L6.7,133.6z M11.3,138.1l3.4-3.4l3.4,3.4l-3.4,3.4L11.3,138.1z M15.8,142.7l3.4-3.4l3.4,3.4
			l-3.4,3.4L15.8,142.7z M20.3,147.2l3.4-3.4l3.4,3.4l-3.4,3.4L20.3,147.2z M24.9,151.7l3.4-3.4l3.4,3.4l-3.4,3.4L24.9,151.7z
			 M29.4,156.3l3.4-3.4l3.4,3.4l-3.4,3.4L29.4,156.3z M33.9,160.8l3.4-3.4l3.4,3.4l-3.4,3.4L33.9,160.8z M38.5,165.3l3.4-3.4
			l3.4,3.4l-3.4,3.4L38.5,165.3z M43,169.9l3.4-3.4l3.4,3.4l-3.4,3.4L43,169.9z M47.6,174.4L51,171l3.4,3.4l-3.4,3.4L47.6,174.4z
			 M52.1,178.9l3.4-3.4l3.4,3.4l-3.4,3.4L52.1,178.9z M56.6,183.5l3.4-3.4l3.4,3.4l-3.4,3.4L56.6,183.5z M61.2,188l3.4-3.4L68,188
			l-3.4,3.4L61.2,188z M65.7,192.5l3.4-3.4l3.4,3.4l-3.4,3.4L65.7,192.5z M70.2,197.1l3.4-3.4l3.4,3.4l-3.4,3.4L70.2,197.1z
			 M74.8,201.6l3.4-3.4l3.4,3.4l-3.4,3.4L74.8,201.6z M82.7,209.5l-3.4-3.4l3.4-3.4l3.4,3.4L82.7,209.5z M87.2,205l-3.4-3.4l3.4-3.4
			l3.4,3.4L87.2,205z M91.8,200.5l-3.4-3.4l3.4-3.4l3.4,3.4L91.8,200.5z M96.3,195.9l-3.4-3.4l3.4-3.4l3.4,3.4L96.3,195.9z
			 M100.8,191.4l-3.4-3.4l3.4-3.4l3.4,3.4L100.8,191.4z M105.4,186.9l-3.4-3.4l3.4-3.4l3.4,3.4L105.4,186.9z M109.9,182.3l-3.4-3.4
			l3.4-3.4l3.4,3.4L109.9,182.3z M114.4,177.8l-3.4-3.4l3.4-3.4l3.4,3.4L114.4,177.8z M119,173.3l-3.4-3.4l3.4-3.4l3.4,3.4
			L119,173.3z M123.5,168.7l-3.4-3.4l3.4-3.4l3.4,3.4L123.5,168.7z M128.1,164.2l-3.4-3.4l3.4-3.4l3.4,3.4L128.1,164.2z
			 M132.6,159.7l-3.4-3.4l3.4-3.4l3.4,3.4L132.6,159.7z M137.1,155.1l-3.4-3.4l3.4-3.4l3.4,3.4L137.1,155.1z M141.7,150.6l-3.4-3.4
			l3.4-3.4l3.4,3.4L141.7,150.6z M146.2,146.1l-3.4-3.4l3.4-3.4l3.4,3.4L146.2,146.1z M150.7,141.5l-3.4-3.4l3.4-3.4l3.4,3.4
			L150.7,141.5z M155.3,137l-3.4-3.4l3.4-3.4l3.4,3.4L155.3,137z M159.8,132.4l-3.4-3.4l3.4-3.4l3.4,3.4L159.8,132.4z M164.3,127.9
			l-3.4-3.4l3.4-3.4l3.4,3.4L164.3,127.9z"/>
	</g>
</g>
<g>
	<text transform="matrix(1 0 0 1 20.3374 169.2638)" font-family="'RobotoSlab-Thin'" font-size="115">20</text>
</g>
<g>
	<path fill="#EACAAE" d="M45.7,182.3c2-7.8-13.1-15.7-17-16.7c-6.3-1.7-12.7,2.1-14.4,8.3s2.1,12.7,8.3,14.4
		C26.5,189.4,43.3,191.3,45.7,182.3z"/>
	<path fill="#F3E2D2" d="M44.4,158.2c-8,2.5-6.2,20.9-4.8,25c2.2,6.6,9.4,10.1,15.9,7.8s10.1-9.4,7.8-15.9
		C62,171,53.5,155.4,44.4,158.2z"/>
	<path fill="#F3E2D2" d="M87.7,176.5c0,7.6,19.2,13.6,24,13.6c7.5,0,13.6-6.1,13.6-13.6c0-7.5-6.1-13.6-13.6-13.6
		C107,162.9,87.7,168.6,87.7,176.5z"/>
	<path fill="#FFFFFF" d="M129.9,158.9c-7.5,2.7-3.7,20.5-1.9,24.3c2.8,6,10,8.6,16,5.8s8.6-10,5.8-16
		C148,169.2,137.7,156,129.9,158.9z"/>
	<path fill="#EACAAE" d="M144.5,184.4c1.2-8.3-15-14.4-19.1-15.1c-6.6-1-12.7,3.5-13.7,10.1c-1,6.6,3.5,12.7,10.1,13.7
		C125.9,193.7,143.3,192.9,144.5,184.4z"/>
	<path fill="#FFFFFF" d="M70.2,187.2c2.2,8.9,22.3,7.5,26.9,6.2c7.2-2.1,11.3-9.7,9.2-16.9s-9.7-11.3-16.9-9.2
		C84.8,168.7,67.8,177.1,70.2,187.2z"/>
	<path fill="#EACAAE" d="M51.5,198.3c2.3,8.1,19.9,6.2,23.9,4.9c6.3-2,9.8-8.8,7.7-15.1c-2-6.3-8.8-9.8-15.1-7.7
		C64,181.7,49.1,189.7,51.5,198.3z"/>
</g>
<g>
	<g>
		<defs>
			<rect id="SVGID_9_" x="-258.3" y="-278.3" width="178.6" height="260.8"/>
		</defs>
		<clipPath id="SVGID_4_">
			<use xlink:href="#SVGID_9_"  overflow="visible"/>
		</clipPath>
		<g clip-path="url(#SVGID_4_)">
		</g>
	</g>
</g>
</svg>
