<svg xmlns="http://www.w3.org/2000/svg" xml:space="preserve" viewBox="0 0 167.2 249.4">
    <path fill="#D4E7B1" d="M-5.7-5.7h178.6v260.8H-5.7z"/>
    <path fill="#5E806F" d="M57.5 230.7c0 .2-.4.4-.9.4H31.5c-.5 0-.9-.2-.9-.4s.4-.4.9-.4h25.2c.4 0 .8.2.8.4" opacity=".2"/>
    <path fill="#BA3033" d="M32 210.1c-3.5-1.3-4.4 4.9-4.5 5.3s-.1.6-.1.6l.6-.2-.1.6.6-.2-.1.6.6-.2-.1.6.5-.2-.1.5.6-.2-.1.6.6-.2.3.6s.6-3.8.8-4.4c.8-2.1 1.3-1.9 1.7-2 .1-.7-.4-1.5-1.2-1.8"/>
    <path fill="#E2B5A5" d="m66.3 206.5-1.8-1.6-3.1-2.8 8-10.4-9.4 9.2-.8-.7-1.7-1.5c-.5.5-.8 1.2-.8 1.9v.1c0 .7.3 1.2.7 1.6l-4.2 4.1c-1.6 1.6-3.5 1.7-3.5 1.7l4.9 6.3c.3.5.7 1.2.7.3 0-1.2.4-1.9.6-2.1l1.8-2.5c1.1-1.1 2.8-1.2 4-.3l.3.3.6.5c1.1.9 2.8.8 3.8-.3s.9-2.8-.1-3.8m-6-1.3c-.3 0-.5-.2-.5-.4 0-.3.2-.5.4-.5.3 0 .5.2.5.4 0 .3-.2.5-.4.5"/>
    <path fill="#BA3033" d="m61.3 202.1 8-10.4-9.4 9.2z"/>
    <path fill="#E2B5A5" d="M55.3 213.3c-.2-2.9-2.7-5.2-5.6-5.2H38.2c-3 0-5.4 2.3-5.7 5.2v17.4h1.6v-11.4c0-.8.7-.8.7-.8h1.1s.7 0 .7.8v11.4H38v-11.5s0-.8.6-.6c1.1.5 3.1.8 5.3.8 2.1 0 4-.3 5.2-.7h.1c.6-.2.6.6.6.6v11.5h1.6v-11.4c0-.8.7-.8.7-.8h1.1s.7 0 .7.8v11.4h1.6z"/>
    <path fill="#BA3033" d="M34.1 229.8h-1.6v.9h2zm3.9 0h-1.5v.9h2zm13.3 0h-1.5v.9h2zm4 0h-1.5v.9h1.9z"/>
    <circle cx="60" cy="204.9" r="1.3" fill="#FFF"/>
    <path fill="#010101" d="M60.4 204.9c-.2 0-.4-.2-.4-.4s.1-.3.2-.4h-.3c-.4 0-.8.4-.8.8s.4.8.8.8.8-.4.8-.8v-.2c0 .1-.1.2-.3.2"/>
    <circle cx="23.8" cy="39.2" r="2.6" fill="#BA3033"/>
    <path d="M12.37 28.608v-.98l1.75-.22v-8.53l-1.79.03v-.96l3.33-.71v10.17l1.75.22v.98Zm10.21.16q-1.67 0-2.64-1.16-.98-1.16-.98-3.34v-2.69q0-2.17.97-3.34t2.64-1.17q1.68 0 2.65 1.17.98 1.17.98 3.34v2.69q0 2.18-.97 3.34t-2.65 1.16m0-1.2q1.03 0 1.55-.75.53-.75.53-2.23v-3.34q0-1.48-.53-2.22-.54-.75-1.56-.75-1.01 0-1.54.75-.53.74-.53 2.22v3.34q0 1.47.54 2.23.54.75 1.54.75m9.13 1.2q-1.67 0-2.65-1.16t-.98-3.34v-2.69q0-2.17.97-3.34t2.64-1.17q1.68 0 2.66 1.17t.98 3.34v2.69q0 2.18-.97 3.34t-2.65 1.16m0-1.2q1.02 0 1.55-.75t.53-2.23v-3.34q0-1.48-.54-2.22-.53-.75-1.56-.75-1 0-1.54.75-.53.74-.53 2.22v3.34q0 1.47.54 2.23.54.75 1.55.75"/>
    <circle cx="143.4" cy="210.3" r="2.6" fill="#BA3033"/>
    <path d="M154.87 220.843v.98l-1.75.22v8.53l1.79-.03v.96l-3.33.71v-10.17l-1.75-.22v-.98Zm-10.21-.16q1.67 0 2.64 1.16.98 1.16.98 3.34v2.69q0 2.17-.97 3.34t-2.64 1.17q-1.68 0-2.65-1.17-.98-1.17-.98-3.34v-2.69q0-2.18.97-3.34t2.65-1.16m0 1.2q-1.03 0-1.55.75-.53.75-.53 2.23v3.34q0 1.48.53 2.22.54.75 1.56.75 1.01 0 1.54-.75.53-.74.53-2.22v-3.34q0-1.47-.54-2.23-.54-.75-1.54-.75m-9.13-1.2q1.67 0 2.65 1.16t.98 3.34v2.69q0 2.17-.97 3.34t-2.64 1.17q-1.68 0-2.66-1.17t-.98-3.34v-2.69q0-2.18.97-3.34t2.65-1.16m0 1.2q-1.02 0-1.55.75t-.53 2.23v3.34q0 1.48.54 2.22.53.75 1.56.75 1 0 1.54-.75.53-.74.53-2.22v-3.34q0-1.47-.54-2.23-.54-.75-1.55-.75"/>
    <path fill="#5E806F" d="M138.4 214.9c0 .3-.6.5-1.3.5H78.4c-.7 0-1.3-.2-1.3-.5s.6-.5 1.3-.5h58.8c.7 0 1.2.2 1.2.5" opacity=".2"/>
    <path fill="#5E806F" d="M56.6 123.8c-4 0-8.1-.7-12-2.3l4.9-2.8-2-4.4c11.4 4.5 24.3.1 30.7-10.4s4.2-24-5-32l5.1-5.9c12.1 10.5 14.9 28.1 6.6 41.9-6.3 10.1-17.1 15.9-28.3 15.9m38.5 91.1h-8.2l.8-3.7 3.8-.9 5.4-46.8 22.5 10z"/>
    <path fill="#7AA28D" d="M113 94.3C94.6 75.6 61.1 30.6 61.1 30.6L37.9 42.5 29.1 47l-.5.3c-5.2 3-7.3 9.5-4.9 15l21.7-10.5c1.7-.8 3.7-.1 4.6 1.6.8 1.7.1 3.7-1.6 4.6l-20 9.6c3.2 1.9 7.3 2.3 10.9.6l3.2-1.6 1.6-.8c6-2.6 14.7-.6 16.3 5.3 1.6 6 5.1 41.2 5.1 41.2.3.9 56-9.3 47.5-18M57.4 47c-.3 1-1.5 1.6-2.5 1.2-1-.3-1.6-1.4-1.3-2.5.3-1 1.5-1.6 2.5-1.3 1 .4 1.6 1.6 1.3 2.6"/>
    <ellipse cx="107.8" cy="136.9" fill="#7AA28D" rx="30.5" ry="67.3" transform="rotate(-31.085 107.807 136.941)"/>
    <path fill="#7AA28D" d="M147.5 151c-12.1-34.6-42.5-13.2-42.5-13.2l8.4 50s26.7 15.6 41.4 21.7c5 2.1 11.3 3.8 18.1 4.7V195c-8.6-8.3-17.8-22.1-25.4-44"/>
    <path fill="#528E73" d="M130.5 214.9h-9.3l.9-4.2 3.7-.7s-9.4-27.9-11.2-33.2 0-14.8 12.2-14.8 13.4 11.3 12.6 14.8c-.8 3.4-8.9 38.1-8.9 38.1"/>
    <g fill="#FFF">
        <path d="m25.7 66.5-2-4.2 3.2-1.5z"/>
        <path d="m28.3 65.2-2.1-4.1 3.3-1.6z"/>
        <path d="m30.8 64-2-4.1 3.2-1.6z"/>
        <path d="m33.3 62.8-2-4.2 3.3-1.5z"/>
        <path d="m35.9 61.6-2-4.2 3.2-1.6z"/>
        <path d="m38.4 60.3-2-4.1 3.3-1.6z"/>
        <path d="M41 59.1 39 55l3.2-1.6z"/>
        <path d="m43.5 57.9-2-4.2 3.2-1.5z"/>
    </g>
    <circle cx="56.9" cy="44.1" r="5" fill="#FFF"/>
    <path fill="#010101" d="M56.5 42.4c.2.8-.3 1.7-1.2 1.9-.6.1-1.2-.1-1.6-.5 0 .3 0 .7.1 1 .4 1.7 2.1 2.7 3.8 2.3s2.7-2.1 2.3-3.8-2.1-2.7-3.8-2.3c-.2.1-.5.2-.7.3.6.2 1 .6 1.1 1.1"/>
    <path fill="#528E73" d="M55.8 39.2c-2.7.7-4.3 3.4-3.7 6.1q.3 1.05.9 1.8l7.7-6.4c-1.2-1.3-3.1-1.9-4.9-1.5"/>
    <path d="M26.449 149.225v-2.13h11.53v-53.21l-13.3 2.99v-1.97l15.43-3.3v55.49h11.53v2.13Zm50.34.83q-8.3 0-12.91-6.12-4.6-6.12-4.6-17.3v-12.13q0-11.18 4.56-17.3 4.57-6.12 12.88-6.12 8.3 0 12.89 6.12 4.58 6.12 4.58 17.3v12.13q0 11.21-4.54 17.32-4.55 6.1-12.86 6.1m0-2.13q7.44 0 11.36-5.71 3.92-5.7 3.92-15.66v-12.05q0-9.99-3.94-15.64t-11.41-5.65q-7.48 0-11.4 5.65t-3.92 15.64v12.05q0 9.92 3.96 15.64 3.96 5.73 11.43 5.73m45.27 2.13q-8.31 0-12.91-6.12-4.61-6.12-4.61-17.3v-12.13q0-11.18 4.57-17.3t12.87-6.12q8.31 0 12.89 6.12 4.59 6.12 4.59 17.3v12.13q0 11.21-4.55 17.32-4.55 6.1-12.85 6.1m0-2.13q7.44 0 11.36-5.71 3.91-5.7 3.91-15.66v-12.05q0-9.99-3.93-15.64-3.94-5.65-11.42-5.65t-11.39 5.65q-3.92 5.65-3.92 15.64v12.05q0 9.92 3.96 15.64 3.95 5.73 11.43 5.73"/>
    <path fill="#528E73" d="M58.9 136.4c-3.5 0-7-.6-10.5-1.7l5.7-2.7-3.2-4.7c11.6 3.9 24.3-1.1 30.1-11.9 4.1-7.6 10.7-3.8 6.8 3.7-5.7 11-17.1 17.3-28.9 17.3"/>
</svg>
