<svg xmlns="http://www.w3.org/2000/svg" xmlns:xlink="http://www.w3.org/1999/xlink" xml:space="preserve" viewBox="0 0 167.2 249.4">
    <path fill="#7674B1" d="M-5.7-5.7h178.6v260.8H-5.7z"/>
    <g fill="#F1F2F2">
        <path d="m133.417 136.121-4.61 5.268-24.156-21.141 4.61-5.268z"/>
        <circle cx="134.3" cy="136.3" r="5.2"/>
        <circle cx="128.8" cy="142.6" r="5.2"/>
    </g>
    <path fill="#E9CBBC" d="m50.9 73.3 4.7-6.6 73 51.5-20.7 18.1z"/>
    <path fill="#F1F2F2" d="m50.4 73.5 5.5-7.3 31.8 22.5-13.5 12.9z"/>
    <path fill="#E6E7E8" d="m70.7 97.7 12.4-12.3 4.6 3.3-13.5 12.9z"/>
    <path fill="#51569F" d="M68.5 62.4c-.3 1.4.3 3.4 1.3 4.4l5.9 5.6c1 1 .8 2.3-.5 2.8l-21 8.8c-1.3.6-3.4.3-4.6-.5l-9.8-7c-1.2-.8-1.5-2.5-.6-3.7L49.8 58c.8-1.2 2.2-3 2.9-4.2.8-1.1 2.1-3 2.9-4.2l15.7-22.1c.8-1.2 2.3-1.6 3.3-.9s1.5 2.4 1.2 3.8z"/>
    <path fill="#4D489E" d="M68.9 24.6 35.7 71.4c-.6.8-.4 2 .4 2.6s2 .4 2.6-.4l33.2-46.8c.6-.8.4-2-.4-2.6-.9-.6-2-.4-2.6.4"/>
    <path fill="#FFF" d="m68.9 60.9-5.2.9c-.7.1-1.4-.4-1.5-1.1s.4-1.4 1.1-1.5l6.3-1.1zm1.5-6.7-4.6.8c-.7.1-1.4-.4-1.5-1.1s.4-1.4 1.1-1.5l5.7-1zm1.3-5.7-3.2.5c-.7.1-1.4-.4-1.5-1.1s.4-1.4 1.1-1.5l4.2-.7z"/>
    <circle cx="20.8" cy="39.2" r="2.6" fill="#BA3033"/>
    <path d="M20.85 29.927q-1.39 0-2.43-.47-1.05-.46-1.63-1.37-.57-.91-.57-2.22 0-1.2.72-2.12.72-.91 1.95-1.34-1.06-.41-1.67-1.25-.6-.83-.6-1.95 0-1.25.53-2.12.52-.88 1.47-1.33.95-.46 2.21-.46 1.25 0 2.2.46.96.45 1.5 1.33.55.87.55 2.12 0 1.12-.63 1.95-.62.84-1.69 1.25 1.23.43 1.97 1.34.74.92.74 2.12 0 1.31-.59 2.22t-1.63 1.37q-1.04.47-2.4.47m0-1.51q.8 0 1.41-.31t.95-.89q.34-.59.34-1.39 0-.78-.35-1.38-.35-.61-.97-.95-.61-.34-1.4-.34t-1.4.34q-.6.34-.95.94-.34.6-.34 1.39 0 1.21.74 1.9t1.97.69m0-6.78q.68 0 1.2-.29.52-.3.81-.84t.29-1.26q0-.7-.3-1.25-.3-.56-.83-.87-.52-.32-1.19-.32-1.03 0-1.66.67t-.63 1.77q0 1.09.64 1.74.63.65 1.67.65"/>
    <circle cx="146.4" cy="210.3" r="2.6" fill="#BA3033"/>
    <path d="M146.396 219.532q1.39 0 2.43.47 1.05.46 1.63 1.37.57.91.57 2.22 0 1.2-.72 2.12-.72.91-1.95 1.34 1.06.41 1.67 1.25.6.83.6 1.95 0 1.25-.53 2.12-.52.88-1.47 1.33-.95.46-2.21.46-1.25 0-2.2-.46-.96-.45-1.5-1.33-.55-.87-.55-2.12 0-1.12.63-1.95.62-.84 1.69-1.25-1.23-.43-1.97-1.34-.74-.92-.74-2.12 0-1.31.59-2.22t1.63-1.37q1.04-.47 2.4-.47m0 1.51q-.8 0-1.41.31t-.95.89q-.34.59-.34 1.39 0 .78.35 1.38.35.61.97.95.61.34 1.4.34t1.4-.34q.6-.34.95-.94.34-.6.34-1.39 0-1.21-.74-1.9t-1.97-.69m0 6.78q-.68 0-1.2.29-.52.3-.81.84t-.29 1.26q0 .7.3 1.25.3.56.83.87.52.32 1.19.32 1.03 0 1.66-.67t.63-1.77q0-1.09-.64-1.74-.63-.65-1.67-.65m-62.078-59.745q-9.37 0-16.55-3.18-7.17-3.18-11.21-9.3-4.03-6.12-4.03-14.87 0-9.09 5.78-15.79 5.77-6.7 15.34-9.23-8.34-2.53-13.33-8.71-4.99-6.19-4.99-14.6t3.69-14.39 10.22-9.16 14.94-3.18q8.34 0 14.87 3.22 6.53 3.21 10.29 9.19t3.76 14.32-5.1 14.56q-5.09 6.22-13.36 8.75 9.5 2.6 15.41 9.3 5.92 6.7 5.92 15.72 0 8.75-4.07 14.87t-11.21 9.3q-7.15 3.18-16.37 3.18m0-3.7q8.06 0 14.35-2.8t9.91-8.03q3.63-5.23 3.63-12.48 0-7.04-3.69-12.3-3.7-5.26-10.05-8.24-6.36-2.97-14.29-2.97-8.07 0-14.39 2.97-6.32 2.98-9.95 8.24-3.62 5.26-3.62 12.3 0 11.01 7.86 17.16t20.24 6.15m0-50.51q7.17 0 12.85-2.7 5.67-2.7 8.95-7.63 3.28-4.92 3.28-11.48t-3.35-11.69-9.05-8.07q-5.71-2.94-12.82-2.94-11.01 0-18.08 6.19-7.08 6.19-7.08 16.51 0 9.98 7.11 15.89 7.11 5.92 18.19 5.92"/>
    <g fill="#F1F2F2">
        <path d="m44.841 224.372-4.475-3.022 13.931-20.637 4.476 3.021z"/>
        <circle cx="44.8" cy="225.1" r="4"/>
        <circle cx="39.4" cy="221.4" r="4"/>
    </g>
    <path fill="#BF8F7E" d="M98.3 153.4c-1-.6-2.3-.3-2.9.7l-2.1 3.4c-.4.7-1.8.2-.9-1.3.5-.8 5.4-8.7 5.4-8.7.6-1 .3-2.3-.7-2.9s-2.3-.3-2.9.7l-4.7 7.6c-.7 1.1-1.9.3-1.1-1 .4-.6 5.5-8.8 5.5-8.8.6-1 .3-2.3-.7-2.9s-2.3-.3-2.9.7l-5.3 8.5c-1 1.2-1.7.1-1.2-.7.3-.5 3.3-5.3 3.3-5.3.6-1 .3-2.3-.7-2.9s-2.3-.3-2.9.7c-2.3 3.8-8.4 14.8-9.1 12l-1.4-5.8c-.3-1.1-1.4-1.9-2.6-1.6-1.1.3-1.9 1.4-1.6 2.6l1.9 7.9c.4 1.3 1 2.6.7 4.4-10.5 15.9 4 36 18.9 10.1l4.6-7.4 4.3-6.9c.4-1.2.1-2.5-.9-3.1"/>
    <circle cx="85" cy="142.3" r="1.8" fill="#6AC7BB"/>
    <circle cx="91.9" cy="142" r="1.8" fill="#6AC7BB"/>
    <circle cx="95.8" cy="146.5" r="1.8" fill="#6AC7BB"/>
    <circle cx="97.2" cy="155.3" r="1.8" fill="#6AC7BB"/>
    <path fill="#6AC7BB" d="m68.7 148.2.2 1.1.2 1c.9-.2 1.5-1.2 1.3-2.1-.2-.8-.8-1.3-1.6-1.3-.1.3-.2.8-.1 1.3"/>
    <path fill="none" d="m62.2 223.9-1.3-6.2-5.2 1.1-1.1-5.2-5.3 1.1-1.1-5.3-5.9 1.2-1.3-5.9-1.8.4 1 4-5.1 1.3"/>
    <path fill="#C55A4E" d="m48.2 209.4 1.1 5.3 5.3-1.1 1.1 5.2 4.4-1 28.5-43.4-19.1-12.5-28.4 43.2 1.2 5.5z"/>
    <g opacity=".5">
        <defs>
            <path id="a" d="m37.6 210.4 31.9-48.5 19.1 12.5-31.9 48.5" opacity=".5"/>
        </defs>
        <clipPath id="b">
            <use xlink:href="#a" overflow="visible"/>
        </clipPath>
        <path fill="#273B83" d="m41.8 193.1-.7 1.1m1.6-2.5-.6 1m1.5-2.4-.6 1m1.7-2.7-.8 1.2m6-8.9-3.2 4.9m6.7-10.2-.6 1m1.6-2.4-.6 1m1.7-2.7-.8 1.2m-14.2 31.1 3.2-4.8 1 .6-3.2 4.9-.2-.1 1.1 5.2 5.1-1.1-.2-.2 3.2-4.9 4.9 3.2-3.2 4.9-3.7-2.4 1 4.5 5.3-1.1 1.1 5.2 4.3-.9-.6-.4 3.2-4.9 1.1.7-2.9 4.4h.1L74 204l14-21 1.3.9 1.9-2.8-1.3-.9.7-1.1 1.3.9.3-.4-1.3-.9.6-1 1.3.9.3-.4-1.3-.9.6-1 1.3.9.3-.4-1.3-.9.8-1.2 1.3.9 1.9-2.8-1.3-.9.8-1.2-2.8-1.9-.8 1.2-1.1-.7.8-1.2-.4-.3-.8 1.2-1-.6.8-1.2-.4-.3-.8 1.2-1-.6.8-1.2-.4-.3-.8 1.2-1.2-.8.8-1.2L85 163l-.8 1.2-4.9-3.2.8-1.2-2.8-1.9-.8 1.2-1.1-.7.8-1.2-.4-.3-.8 1.2-1-.6.8-1.2-.4-.3-.8 1.2-1-.6.8-1.2-.4-.4-.8 1.2-1.2-.8.8-1.2-2.8-1.9-.8 1.2-1.2-.8-1.9 2.8 1.2.8-.8 1.2-1.2-.8-.3.4 1.2.8-.6 1-1.2-.8-.3.4 1.2.8-.6 1-1.2-.8-.5.5 1.2.8-.7 1.1-1.2-.8-1.9 2.8 1.2.8-3.2 4.9-1.2-.8m32 2.2 1 .6-.8 1.2-1-.6zm-.1 2.3-.6 1-1-.6.6-1zm-3.3 1.9-.7 1.1-1-.6.7-1.1zm-.7-1.1.6-1 1 .6-.6 1zm-1.9 5L79 184l-1-.6 3.2-4.9zm-5.2 7.7-.8 1.2-1-.6.8-1.2zm-1.1 1.7-.6 1-1-.6.6-1zm-3.5 3.3.7-1.1 1 .6-.7 1.1zm-.9 3.4-3.2 4.9-1-.6 3.2-4.9zm1.9-5 .6-1 1 .6-.6 1zm1.4-3.1-1.2-.8.8-1.2 1.2.8zm-.3.5-.6 1-1.2-.8.6-1zm-.9 1.4-.6 1-1.2-.8.6-1zm-.9 1.4-.7 1.1-1.2-.8.7-1.1zm-2.6 3.9-3.2 4.9-1.2-.8 3.2-4.9zm-9.5-16.7.8-1.2 1 .6-.8 1.2zm.6 1.1-.6 1-1-.6.6-1zm2.1-5.1 3.2-4.9 1 .6-3.2 4.9zm4.6-4 1.1.7-3.2 4.9-1.1-.7zm-4.2 14.8 4.9 3.2-.7 1.1-4.9-3.2zm5.8 1.9-.6 1L64 184l.6-1zm-4.5-3.7.6-1 4.9 3.2-.6 1zm-2.4 20.3 1.2.8-.6 1-1.2-.8zm.3-.5.8-1.2 1.2.8-.8 1.2zm7.9-18-4.9-3.2.8-1.2 4.9 3.2zm1.1-18.4-1.1-.7.6-1 1.1.7zm-.3.4-.7 1.1-1.1-.7.7-1.1zm-1.2-1.4-1-.6.6-1 1 .6zm-.3.4-.7 1.1-1-.6.7-1.1zM69 164l-1-.6.6-1 1 .6zm-.3.5-.7 1.1-1-.6.7-1.1zm-2.7 3.9-3.2 4.9-1-.6 3.2-4.9zm-5.1 7.7-.8 1.2-1-.6.8-1.2zm-1.1 1.7-.6 1-1-.6.6-1zm-.9 1.4-.6 1-1-.6.6-1zm-.9 1.4-.7 1.1-1-.6.7-1.1zm-2.7 3.9-3.2 4.9-1-.6 3.2-4.9zm-5.1 7.7-.8 1.2-1-.6.8-1.2zm-1.1 1.7-.6 1-1-.6.6-1zm-.9 1.4-.6 1-1-.6.6-1zm-.5 1.7 1 .6-.7 1.1-1-.6zm.3-.4.6-1 1 .6-.6 1zm.9-1.4.6-1 1 .6-.6 1zm1-1.4.8-1.2 1 .6-.8 1.2zm2.7-4.1 3.2-4.9 1 .6-3.2 4.9zm5.1-7.7.7-1.1 1 .6-.7 1.1zm1-1.6.6-1 1 .6-.6 1zm1.1 1.4 1.1.7-.7 1.1-1.1-.7zm.3-.4.6-1 1.1.7-.6 1zm.9-1.4.6-1 1.1.7-.6 1zm1-1.4.8-1.2 1.1.7-.8 1.2zm-.9 9.8 4.9 3.2-3.2 4.9-4.9-3.2zm-.4 17.3 1.2.8-.7 1.1-1.2-.8zm.3-.5.6-1 1.2.8-.6 1zm1.4 1.6 1 .6-.7 1.1-1-.6zm.3-.5.6-1 1 .6-.6 1zm.9-1.4.6-1 1 .6-.6 1zm1-1.4.8-1.2 1 .6-.8 1.2zm1.1 1.4 1 .6-.6 1-1-.6zm.3-.4.8-1.2 1 .6-.8 1.2zm2.7-4.1 3.2-4.9 1 .6-3.2 4.9zm5.1-7.7.7-1.1 1 .6-.7 1.1zm1-1.6.6-1 1 .6-.6 1zm1-1.4.6-1 1 .6-.6 1zm.9-1.4.8-1.2 1 .6-.8 1.2zm2.7-4 3.2-4.9 1 .6-3.2 4.9zm5.1-7.7.7-1.1 1 .6-.7 1.1zm1-1.6.6-1 1 .6-.6 1zm1.3-4.9 1 .6-.8 1.2-1-.6zm-.2 2.3-.6 1-1-.6.6-1zm-1.5-3.4 1.2.8-.8 1.2-1.2-.8zm-1.1 1.6 1.2.8-.6 1-1.2-.8zm-.9 1.4 1.2.8-.6 1-1.2-.8zm-.9 1.4 1.2.8-.7 1.1-1.2-.8zm-2.7 4 1.2.8-3.2 4.9-1.2-.8zm-2.1-13.5 4.9 3.2-.8 1.2-4.9-3.2zm-1.1 1.6 4.9 3.2-.6 1-4.9-3.2zm-.9 1.4 4.9 3.2-.6 1-4.9-3.2zm-.9 1.4 4.9 3.2-.7 1.1-4.9-3.2zm-2.7 4 4.9 3.2-3.2 4.9-4.9-3.2zm1.7-11.1 1.1.7-.8 1.2-1.1-.7zm0 2.4-.6 1-1.1-.7.6-1zm-1.4-3.3 1 .6-.8 1.2-1-.6zm-.2 2.3-.6 1-1-.6.6-1zm-1.2-3.2 1 .6-.8 1.2-1-.6zm-.2 2.3-.6 1-1-.6.6-1zm-1.5-3.4 1.2.8-.8 1.2-1.2-.8zm-1.1 1.6 1.2.8-.6 1-1.2-.8zm-.9 1.4 1.2.8-.6 1-1.2-.8zm-.9 1.4 1.2.8-.7 1.1-1.2-.8zm-2.7 4 1.2.8-3.2 4.9-1.2-.8zm-5.1 7.7 1.2.8-.8 1.2-1.2-.8zm-1.1 1.6 1.2.8-.6 1-1.2-.8zm-.9 1.4 1.2.8-.6 1-1.2-.8zm-1 1.4 1.2.8-.7 1.1-1.2-.8zm-2.6 4 1.2.8-3.2 4.9-1.2-.8zm-5.1 7.7 1.2.8-.8 1.2-1.2-.8zm-1.1 1.7 1.2.8-.6 1-1.2-.8zM40 204.6l-1.2-.8 3.2-4.9 1.2.8zm5.1-7.7-1.2-.8.7-1.1 1.2.8zm-.2-2.4.6-1 1.2.8-.6 1zm.7 2.7.7-1.1 1 .6-.7 1.1zm-3.8 8.6 3.2-4.9 1 .6-3.2 4.9zm2.5 1.7-1.1-.7 3.2-4.9 1.1.7zm5.2-7.7-1.1-.7.7-1.1 1.1.7zm1-1.6-1.1-.7.6-1 1.1.7zm.9-1.4-1.1-.7.6-1 1.1.7zm.9-1.4-1.1-.7.8-1.2 1.1.7zm2.7-4.1-1.1-.7 3.2-4.9 1.1.7zm2.2 13.6-4.9-3.2.7-1.1 4.9 3.2zm1-1.6-4.9-3.2.6-1 4.9 3.2zm.9-1.4-4.9-3.2.6-1 4.9 3.2zm-3.9-4.6.8-1.2 4.9 3.2-.8 1.2zm-.3 17.2 3.2-4.9 1.2.8-3.2 4.9zm1.7 1.1 3.2-4.9 1 .6-3.2 4.9zm2.3 1.6-1-.6 3.2-4.9 1 .6zm5.1-7.8-1-.6.7-1.1 1 .6zm.1-2.1.6-1 1 .6-.6 1zm1.5 3.2-1.1-.7.7-1.1 1.1.7zm1-1.6-1.1-.7.6-1 1.1.7zm.9-1.4-1.1-.7.6-1 1.1.7zm1-1.4-1.1-.7.8-1.2 1.1.7zm2.7-4-1.1-.7 3.2-4.9 1.1.7zm5.1-7.7-1.1-.7.7-1.1 1.1.7zm1-1.6-1.1-.7.6-1 1.1.7zm.9-1.4-1.1-.7.6-1 1.1.7zm1-1.4-1.1-.7.8-1.2 1.1.7zm2.7-4.1-1.1-.7 3.2-4.9 1.1.7zm5.1-7.7-1.1-.7.7-1.1 1.1.7zm1-1.5-1.1-.7.6-1 1.1.7zm1-1.4-1.1-.7.6-1 1.1.7zm.9-1.4-1.1-.7.8-1.2 1.1.7zm-58.5 32.8-.4-.2-.3.5.8.5zm7.9 8.5h-.1l-.5.7-.6-.5-4.7 1-1.7-8.1-.3.4-1.3-.8-.3.5 1.3.8-.8 1.1-1.2-.8-1.9 2.8 1.2.8-1.4 2.2 2.8 1.9 1.5-2.2 1.2.8L31 218l.5.3 1.5-2.2.9.7-1.5 2.2.5.3 1.5-2.2.9.6-1.5 2.2.5.3 1.5-2.2 1.1.7-1.5 2.2 2.8 1.9 1.5-2.2" clip-path="url(#b)"/>
    </g>
</svg>
