<svg xmlns="http://www.w3.org/2000/svg" xml:space="preserve" viewBox="0 0 167.2 249.4">
    <path fill="#FFF" d="M-18.2 23h29.1v29.1h-29.1z"/>
    <path fill="#D97983" d="M10.9 23H40v29.1H10.9z"/>
    <path fill="#FFF" d="M40 23h29.1v29.1H40z"/>
    <path fill="#D97983" d="M69.1 23h29.1v29.1H69.1z"/>
    <path fill="#FFF" d="M98.2 23h29.1v29.1H98.2z"/>
    <path fill="#D97983" d="M127.2 23h29.1v29.1h-29.1z"/>
    <path fill="#FFF" d="M156.3 23h29.1v29.1h-29.1z"/>
    <path fill="#D97983" d="M-18.2 52h29.1v29.1h-29.1z"/>
    <path fill="#C62127" d="M10.9 52H40v29.1H10.9z"/>
    <path fill="#D97983" d="M40 52h29.1v29.1H40z"/>
    <path fill="#C62127" d="M69.1 52h29.1v29.1H69.1z"/>
    <path fill="#D97983" d="M98.2 52h29.1v29.1H98.2z"/>
    <path fill="#C62127" d="M127.2 52h29.1v29.1h-29.1z"/>
    <path fill="#D97983" d="M156.3 52h29.1v29.1h-29.1zM-18.2-6.1h29.1V23h-29.1z"/>
    <path fill="#C62127" d="M10.9-6.1H40V23H10.9z"/>
    <path fill="#D97983" d="M40-6.1h29.1V23H40z"/>
    <path fill="#C62127" d="M69.1-6.1h29.1V23H69.1z"/>
    <path fill="#D97983" d="M98.2-6.1h29.1V23H98.2z"/>
    <path fill="#C62127" d="M127.2-6.1h29.1V23h-29.1z"/>
    <path fill="#D97983" d="M156.3-6.1h29.1V23h-29.1zM-18.2 226.5h29.1v29.1h-29.1z"/>
    <path fill="#C62127" d="M10.9 226.5H40v29.1H10.9z"/>
    <path fill="#D97983" d="M40 226.5h29.1v29.1H40z"/>
    <path fill="#C62127" d="M69.1 226.5h29.1v29.1H69.1z"/>
    <path fill="#D97983" d="M98.2 226.5h29.1v29.1H98.2z"/>
    <path fill="#C62127" d="M127.2 226.5h29.1v29.1h-29.1z"/>
    <path fill="#D97983" d="M156.3 226.5h29.1v29.1h-29.1z"/>
    <path fill="#FFF" d="M-18.2 81.1h29.1v29.1h-29.1z"/>
    <path fill="#D97983" d="M10.9 81.1H40v29.1H10.9z"/>
    <path fill="#FFF" d="M40 81.1h29.1v29.1H40z"/>
    <path fill="#D97983" d="M69.1 81.1h29.1v29.1H69.1z"/>
    <path fill="#FFF" d="M98.2 81.1h29.1v29.1H98.2z"/>
    <path fill="#D97983" d="M127.2 81.1h29.1v29.1h-29.1z"/>
    <path fill="#FFF" d="M156.3 81.1h29.1v29.1h-29.1z"/>
    <path fill="#D97983" d="M-18.2 110.2h29.1v29.1h-29.1z"/>
    <path fill="#C62127" d="M10.9 110.2H40v29.1H10.9z"/>
    <path fill="#D97983" d="M40 110.2h29.1v29.1H40z"/>
    <path fill="#C62127" d="M69.1 110.2h29.1v29.1H69.1z"/>
    <path fill="#D97983" d="M98.2 110.2h29.1v29.1H98.2z"/>
    <path fill="#C62127" d="M127.2 110.2h29.1v29.1h-29.1z"/>
    <path fill="#D97983" d="M156.3 110.2h29.1v29.1h-29.1z"/>
    <path fill="#FFF" d="M-18.2 139.3h29.1v29.1h-29.1z"/>
    <path fill="#D97983" d="M10.9 139.3H40v29.1H10.9z"/>
    <path fill="#FFF" d="M40 139.3h29.1v29.1H40z"/>
    <path fill="#D97983" d="M69.1 139.3h29.1v29.1H69.1z"/>
    <path fill="#FFF" d="M98.2 139.3h29.1v29.1H98.2z"/>
    <path fill="#D97983" d="M127.2 139.3h29.1v29.1h-29.1z"/>
    <path fill="#FFF" d="M156.3 139.3h29.1v29.1h-29.1z"/>
    <path fill="#D97983" d="M-18.2 168.3h29.1v29.1h-29.1z"/>
    <path fill="#C62127" d="M10.9 168.3H40v29.1H10.9z"/>
    <path fill="#D97983" d="M40 168.3h29.1v29.1H40z"/>
    <path fill="#C62127" d="M69.1 168.3h29.1v29.1H69.1z"/>
    <path fill="#D97983" d="M98.2 168.3h29.1v29.1H98.2z"/>
    <path fill="#C62127" d="M127.2 168.3h29.1v29.1h-29.1z"/>
    <path fill="#D97983" d="M156.3 168.3h29.1v29.1h-29.1z"/>
    <path fill="#FFF" d="M-18.2 197.4h29.1v29.1h-29.1z"/>
    <path fill="#D97983" d="M10.9 197.4H40v29.1H10.9z"/>
    <path fill="#FFF" d="M40 197.4h29.1v29.1H40z"/>
    <path fill="#D97983" d="M69.1 197.4h29.1v29.1H69.1z"/>
    <path fill="#FFF" d="M98.2 197.4h29.1v29.1H98.2z"/>
    <path fill="#D97983" d="M127.2 197.4h29.1v29.1h-29.1z"/>
    <path fill="#FFF" d="M156.3 197.4h29.1v29.1h-29.1z"/>
    <ellipse cx="83.6" cy="152.7" fill="#F1F2F2" rx="64.6" ry="25.9"/>
    <ellipse cx="84.3" cy="153" fill="#D1D3D4" rx="45.4" ry="13.1"/>
    <path fill="#74AF60" d="M110.3 148.6s-1.5-6.8.8-11.1c0 0 .2.8.4.8s.1-2 .5-2.7c.4-.6 1.7-1.1 1.7-1.1s-.4.7-.2.8 1.4-1.7 1.9-1.9c0 0 0 .9.2.6s1.2-1.6 2.1-1.8c0 0-.2.8 0 .9.2 0 1.1-1.6 1.8-1.8s1.5-.6 1.8-.9c0 0 0 .7.3.7s.9-.7 1-1.3 2.2-1.7 2.2-1.7-.2 1.2 0 1.1c.2 0 .8-1 .9-1.5.2-.5 1.4-1.2 1.6-1.5 0 0 .3 1.2.5 1.1s.4-.8 1.1-1.5 1.9-1.2 1.9-1.2 0 .8.2.7.1-.7.1-.7.9-.4 1.1-.3 1.5 2.3 1.3 3.6l.5-.2s.8 3 0 4.5c0 0-.2.4.2.4 0 0 .6 1.9-.7 4.4 0 0-.5 1.5-.5 2.2s-.7 1.5-.9 1.7-.8 1.8-1 2.7-1.2 2.9-3.4 4c-2.2 1-2.7 2.6-3.3 3.2s-5.7 5.1-14.1-2.2"/>
    <path fill="#89C97F" d="M112 151s4.1 4.1 8.1 4.3c0 0-.5-.5-.4-.6s1.5.8 2.1.8 1.5-.7 1.5-.7-.6 0-.6-.2 1.8-.3 2.1-.5c0 0-.6-.4-.3-.4s1.6-.1 2.2-.7c0 0-.7-.2-.6-.4s1.6-.1 2.1-.5c.4-.4 1.1-.8 1.4-.8 0 0-.5-.3-.3-.5s.9-.3 1.4-.1 2.1-.8 2.1-.8-.9-.4-.8-.5 1-.1 1.4 0 1.5-.4 1.7-.5c0 0-.7-.7-.5-.8s.7.1 1.6-.1 1.7-.8 1.7-.8-.6-.3-.4-.4.6.2.6.2.7-.5.7-.7c.1-.2-.9-2-2-2.5l.4-.3s-1.7-1.9-3.2-2c0 0-.4-.1-.2-.3 0 0-1-1.3-3.4-1.4 0 0-1.3-.3-1.8-.6s-1.3-.1-1.6-.1c-.3.1-1.6-.2-2.3-.5-.7-.2-2.6-.4-4.2.6-1.7 1.1-3 .7-3.7.9-.6.1-6.2 1.9-4.8 10.9"/>
    <path fill="#73453D" d="M40.8 153.5s3.7 3.4 7.1 4.9 8.8 2.8 10.5 3.7 12.8 6.3 14.4 7.1c1.7.8 8.9 4.5 9.8 4.6.9.2 15.7-4.9 18.3-7.2s8.9-4.6 10.5-4.9c1.5-.3 14.1-5.8 14.8-8.1.7-2.5-85.4-.1-85.4-.1"/>
    <path fill="#73453D" d="m83.5 105.7-42.7 18.2v29.6l42.7 19.6 42.7-19.6v-29.6z"/>
    <path fill="#543A32" d="m83.5 105.7-42.7 18.2 42.7 20.6 42.7-20.6z"/>
    <ellipse cx="54.5" cy="147.6" fill="#543A32" rx="8" ry=".6" transform="rotate(24.203 54.447 147.631)"/>
    <ellipse cx="112.2" cy="153.2" fill="#543A32" rx="5.3" ry=".8" transform="rotate(-23.671 112.163 153.224)"/>
    <ellipse cx="97.6" cy="146.4" fill="#543A32" rx="11.4" ry=".8" transform="rotate(-23.671 97.64 146.428)"/>
    <ellipse cx="63.2" cy="158.7" fill="#543A32" rx="12.8" ry=".7" transform="rotate(24.203 63.234 158.742)"/>
    <circle cx="73" cy="152.4" r="1.5" fill="#543A32"/>
    <circle cx="99.4" cy="152.5" r="1.5" fill="#543A32"/>
    <circle cx="90" cy="165.9" r="1.5" fill="#543A32"/>
    <circle cx="117.9" cy="134.1" r="1.5" fill="#543A32"/>
    <circle cx="49.2" cy="134.5" r="1.5" fill="#543A32"/>
    <path fill="#543A32" d="M40.8 123.9s1.7 3.2 5.1 4.8c3.5 1.6 4.8.5 6.9 1.6 2.1 1.2 6.7 4 9.2 5.5 20.1 12.2 26.7 11.3 33.9 3.9 1.4-1.5 3.7-3 5.3-2.1s5.1-.2 5.5-2.1c.5-1.8 1.2-3.5 2.5-3.5s11.3-2.5 13.6-4.4c2.3-1.8 3.3-3.9 3.3-3.9H40.8z"/>
    <path fill="#A97C50" d="M56.9 151c6.6-1.4 10.8 1 11.6 5 .9 4-1.9 8-8.5 9.4s-12.6-1-15.9-4.1c2.1-3.9 6.2-8.8 12.8-10.3"/>
    <g fill="#762B17" opacity=".2">
        <path d="m61.3 163.4-.1-.4c1.6-.5 3-1.3 3.9-2.3s1.2-2 1-2.8l.4-.1c.3 1-.1 2.2-1.1 3.3-1 .9-2.5 1.7-4.1 2.3m-4.7-.8.1-.5c.8.1 1.6.1 2.2-.2s1-.7 1.1-1.2l.5.1c-.1.6-.6 1.2-1.3 1.5-.8.4-1.7.4-2.6.3m-8.1-4.3-.4-.3c2.5-3 5.8-5 9.3-5.7s6.8.1 9.2 2.1l-.3.4c-2.3-2-5.5-2.7-8.8-2-3.3.6-6.5 2.6-9 5.5"/>
        <path d="m63.6 159-.4-.2c.7-1.2.2-2.8-1.1-3.4l.2-.4c1.5.8 2.1 2.6 1.3 4m-15.236 3.105 4.49 1.39-.148.478-4.49-1.39zm7.893-6.197.179.467-2.055.785-.179-.467zm3.242 1.857.125.484-6.003 1.551-.125-.484z"/>
    </g>
    <path fill="#A7A9AC" d="M78.3 129.6c7.5 2.3 14-11.4 15.7-16.7 1.5-4.7-3-9.6-3-9.6-1.1-1.2-1.5-3.5-1-5 0 0 14.6-38.8 15.3-41 1-3-.1-6.1-2.3-6.7-2.2-.7-4.8 1.2-5.7 4.2-.6 2.2-10.7 42.4-10.7 42.4-.4 1.6-2.1 3.2-3.7 3.6 0 0-6.4 1.5-7.9 6.2-1.7 5.2-4.1 20.2 3.3 22.6"/>
    <ellipse cx="79.7" cy="117.3" fill="#F1F2F2" opacity=".2" rx="2.6" ry="6.7" transform="rotate(6.419 79.657 117.266)"/>
    <circle cx="74" cy="129.4" r="4.1" fill="#543A32"/>
    <circle cx="80.4" cy="130.2" r="3.8" fill="#543A32"/>
    <circle cx="85.3" cy="130.2" r="3.2" fill="#543A32"/>
</svg>
