<svg xmlns="http://www.w3.org/2000/svg" xmlns:xlink="http://www.w3.org/1999/xlink" xml:space="preserve" viewBox="0 0 167.2 249.4">
    <path fill="#B1D9A3" d="M-5.7-5.7h178.6v260.8H-5.7z"/>
    <circle cx="146.4" cy="210.3" r="2.6" fill="#BA3033"/>
    <path d="M149.333 219.732v1.23l-2.2.27v10.66l2.24-.04v1.2l-4.16.9v-12.72l-2.19-.27v-1.23Z"/>
    <path fill="none" stroke="#59A260" stroke-miterlimit="10" stroke-width="3" d="M72.2 154.9S9.4 76.9 92.5 3.7"/>
    <path fill="#6DBD7B" d="M23.5 44.7c4-6.9 6.5-14.9 6.9-23.5s-1.2-16.7-4.5-24c-4 6.9-6.5 14.9-6.9 23.5s1.3 16.7 4.5 24"/>
    <path fill="#72A179" d="m23.9 37.5 1.8-44.7.8.1z"/>
    <circle cx="164.1" cy="40" r="8.3" fill="#E37149"/>
    <g fill="#BE5338" opacity=".5">
        <circle cx="161.9" cy="41.1" r=".3"/>
        <circle cx="166.7" cy="34.9" r=".3"/>
        <circle cx="165.2" cy="46.8" r=".3"/>
        <circle cx="161.1" cy="45.6" r=".3"/>
        <circle cx="164.3" cy="44.1" r=".1"/>
        <circle cx="162.4" cy="35.5" r=".1"/>
        <circle cx="158.4" cy="41.9" r=".2"/>
        <circle cx="158.6" cy="37.2" r=".1"/>
        <circle cx="167.3" cy="46" r=".1"/>
    </g>
    <circle cx="104.1" cy="24.2" r="5.6" fill="#E37149"/>
    <g fill="#BE5338" opacity=".5">
        <circle cx="102.6" cy="24.9" r=".2"/>
        <circle cx="105.8" cy="20.7" r=".2"/>
        <circle cx="104.8" cy="28.7" r=".2"/>
        <circle cx="102.1" cy="27.9" r=".2"/>
        <circle cx="104.2" cy="26.9" r=".1"/>
        <circle cx="106.4" cy="23.1" r=".1"/>
        <circle cx="102.9" cy="21.2" r=".1"/>
        <circle cx="100.3" cy="25.5" r=".1"/>
        <circle cx="106.4" cy="25.5" r=".1"/>
        <circle cx="107.5" cy="21.3" r=".1"/>
        <circle cx="108.5" cy="25.1" r=".1"/>
        <circle cx="106.2" cy="28.2" r=".1"/>
    </g>
    <circle cx="77.3" cy="3.3" r="7.6" fill="#E37149"/>
    <g fill="#BE5338" opacity=".5">
        <circle cx="75.3" cy="4.3" r=".3"/>
        <circle cx="78.4" cy="9.5" r=".3"/>
        <circle cx="74.6" cy="8.4" r=".3"/>
        <circle cx="77.5" cy="7" r=".1"/>
        <circle cx="80.5" cy="1.9" r=".1"/>
        <circle cx="72.2" cy="5.1" r=".2"/>
        <circle cx="72.4" cy=".7" r=".1"/>
        <circle cx="80.6" cy="5.1" r=".1"/>
        <circle cx="83.4" cy="4.6" r=".1"/>
        <circle cx="80.3" cy="8.8" r=".1"/>
    </g>
    <path fill="#6DBD7B" d="M127 24c4.5 7 11.9 10.9 19.6 11.2 2.9-7.1 2.4-15.5-2.1-22.5S132.6 1.8 124.9 1.5C122 8.6 122.5 17 127 24"/>
    <path fill="#72A179" d="m139.5 24.2-19.3-29 .8-.6z"/>
    <path fill="#6DBD7B" d="M71.2 40.1c1.4 5.8 5.5 10.2 10.6 12.2 3.7-4.1 5.3-9.9 3.9-15.7s-5.5-10.2-10.6-12.2c-3.6 4.2-5.3 10-3.9 15.7"/>
    <path fill="#72A179" d="M79.6 43.3 73.4 19l.7-.1z"/>
    <path fill="#26936C" d="M81.5 17.2c-2.9 7.8-1.6 16.1 2.8 22.4 7.4-1.9 13.9-7.4 16.7-15.1S102.6 8.4 98.2 2c-7.4 2-13.8 7.4-16.7 15.2"/>
    <path fill="#4B5551" d="m88.8 27.4 11.6-33 1 .4z"/>
    <path fill="#26936C" d="M106.5 11.9c2.8 6.5 8.6 10.8 15 12.1 3.4-5.6 4.2-12.8 1.3-19.3-2.8-6.5-8.6-10.8-15-12.1-3.4 5.7-4.1 12.8-1.3 19.3"/>
    <path fill="#4B5551" d="m117.1 13.8-12.4-27.2.7-.3z"/>
    <path fill="#26936C" d="M106.9 34.4c-1.1 3.6-.4 7.3 1.7 10.1 3.3-1 6.1-3.6 7.3-7.2 1.1-3.6.4-7.3-1.7-10.1-3.4 1-6.2 3.6-7.3 7.2"/>
    <path fill="#4B5551" d="m110.4 38.8 4.6-15.1.4.1z"/>
    <path fill="#26936C" d="M137.2 4c-3.1 9.8-1 19.9 4.8 27.5 9.1-2.8 16.7-9.9 19.8-19.7s1-19.9-4.8-27.5c-9.1 2.8-16.7 9.9-19.8 19.7"/>
    <path fill="#4B5551" d="m146.8 16.1 12.5-41.4 1.1.4z"/>
    <path fill="#26936C" d="M73 20.8c2.6 6.1 7.9 10.2 13.9 11.4 3.2-5.2 4-11.9 1.4-17.9-2.6-6.1-7.9-10.1-13.9-11.4-3.2 5.2-4 11.9-1.4 17.9"/>
    <path fill="#4B5551" d="M82.8 22.7 71.5-2.7l.7-.3z"/>
    <path fill="#26936C" d="M34.1 15.9c.5 6.4 4.2 11.8 9.4 14.8 4.6-3.8 7.3-9.8 6.7-16.2C49.7 8.1 46 2.8 40.8-.3c-4.6 3.9-7.3 9.8-6.7 16.2"/>
    <path fill="#4B5551" d="m42.6 20.7-2.8-27 .8-.1z"/>
    <path fill="#26936C" d="M9.1 7.9c-2.5 4.3-2.5 9.4-.5 13.6 4.6-.4 9-3 11.5-7.4s2.5-9.4.5-13.6c-4.7.5-9 3.1-11.5 7.4"/>
    <path fill="#4B5551" d="M12.5 14.7 22.6-3.8l.5.3z"/>
    <path fill="#26936C" d="M8.4 45c4.1 4.7 10.1 6.7 15.8 6.1 1.3-5.6 0-11.8-4.1-16.4S10 28 4.3 28.6C3 34.2 4.3 40.3 8.4 45"/>
    <path fill="#4B5551" d="M17.8 43.8.1 24.4l.5-.5z"/>
    <path fill="#6DBD7B" d="M27.3 42.4c9.4-4.1 18.1-10.4 25.1-18.8S64 5.4 66.2-4.6c-9.4 4-18.1 10.3-25.1 18.8S29.5 32.3 27.3 42.4"/>
    <path fill="#72A179" d="m33.3 35.3 36-44.6.8.6z"/>
    <path fill="#6DBD7B" d="M117.1 33.3c.3-7.7-1.1-15.6-4.5-23.1-3.5-7.4-8.5-13.7-14.6-18.4-.3 7.7 1.1 15.6 4.5 23.1s8.5 13.6 14.6 18.4"/>
    <path fill="#72A179" d="M114.2 27 95.9-11.9l.7-.3z"/>
    <path fill="#6DBD7B" d="M153.9 46.4c5.8-6.5 10.3-14.4 12.6-23.5s2.4-18.1.6-26.7c-5.8 6.5-10.3 14.4-12.6 23.5s-2.5 18.2-.6 26.7"/>
    <path fill="#72A179" d="m155.9 38.8 11.9-47.2.9.2z"/>
    <path fill="#59A260" d="M100 60.4c8.6-6.4 15.8-14.8 20.9-25.1 5-10.2 7.3-21.1 7.1-31.8-8.6 6.4-15.8 14.8-20.9 25.1-5 10.2-7.3 21.1-7.1 31.8"/>
    <path fill="#547056" d="M104.3 51.8 130-2l1 .5z"/>
    <path fill="#59A260" d="M95 48.5c3.2-9.4 4.4-19.6 2.9-30.1s-5.4-20-11.1-28.1c-3.2 9.4-4.4 19.6-2.9 30.1s5.4 20 11.1 28.1"/>
    <path fill="#4D8552" d="m93.8 39.6-8.4-54.5 1-.2z"/>
    <path fill="#26936C" d="M42.8 27.5C45 37.7 52 45.7 61 49.5c6.6-7.1 9.7-17.2 7.6-27.4S59.3 3.9 50.4.1c-6.6 7.1-9.7 17.2-7.6 27.4"/>
    <path fill="#4B5551" d="M57.5 33.4 47.6-9.5l1.2-.2z"/>
    <path fill="#6DBD7B" d="M-7.4 29.7c7.1-3 13.6-7.8 18.8-14.1S20 2 21.7-5.6C14.6-2.5 8.1 2.2 2.9 8.5S-5.8 22.1-7.4 29.7"/>
    <path fill="#72A179" d="M-3 24.3 24-9.1l.6.5z"/>
    <path fill="#59A260" d="M31.3 24.9c.7-5.6.1-11.5-2-17.1S23.8-2.7 19.6-6.5c-.7 5.6-.1 11.5 2 17.1s5.5 10.5 9.7 14.3"/>
    <path fill="#547056" d="M29.5 20.1 18.3-9.3l.5-.2z"/>
    <circle cx="72" cy="26.5" r="9.1" fill="#E37149"/>
    <g fill="#BE5338" opacity=".5">
        <circle cx="69.6" cy="27.7" r=".3"/>
        <circle cx="74.8" cy="20.9" r=".3"/>
        <circle cx="73.2" cy="33.9" r=".3"/>
        <circle cx="68.7" cy="32.6" r=".3"/>
        <circle cx="72.2" cy="31" r=".1"/>
        <circle cx="75.7" cy="24.8" r=".1"/>
        <circle cx="70.1" cy="21.6" r=".1"/>
        <circle cx="65.8" cy="28.6" r=".2"/>
        <circle cx="66" cy="23.4" r=".1"/>
        <circle cx="75.9" cy="28.6" r=".1"/>
        <circle cx="77.6" cy="21.9" r=".1"/>
        <circle cx="79.2" cy="28.1" r=".1"/>
        <circle cx="75.5" cy="33.1" r=".1"/>
    </g>
    <circle cx="34.5" cy="1.2" r="7.6" fill="#E37149"/>
    <g fill="#BE5338" opacity=".5">
        <circle cx="32.5" cy="2.2" r=".3"/>
        <circle cx="35.5" cy="7.4" r=".3"/>
        <circle cx="31.7" cy="6.4" r=".3"/>
        <circle cx="34.6" cy="5" r=".1"/>
        <circle cx="29.3" cy="3" r=".2"/>
        <circle cx="37.7" cy="3" r=".1"/>
        <circle cx="40.5" cy="2.5" r=".1"/>
        <circle cx="37.4" cy="6.7" r=".1"/>
    </g>
    <circle cx="6.5" cy="43.6" r="7.6" fill="#E37149"/>
    <g fill="#BE5338" opacity=".5">
        <circle cx="4.5" cy="44.6" r=".3"/>
        <circle cx="8.9" cy="39" r=".3"/>
        <circle cx="7.5" cy="49.8" r=".3"/>
        <circle cx="3.7" cy="48.7" r=".3"/>
        <circle cx="6.6" cy="47.4" r=".1"/>
        <circle cx="9.6" cy="42.2" r=".1"/>
        <circle cx="4.9" cy="39.6" r=".1"/>
        <circle cx="1.3" cy="45.4" r=".2"/>
        <circle cx="1.5" cy="41.1" r=".1"/>
        <circle cx="9.7" cy="45.4" r=".1"/>
        <circle cx="11.1" cy="39.7" r=".1"/>
        <circle cx="12.5" cy="44.9" r=".1"/>
        <circle cx="9.4" cy="49.1" r=".1"/>
    </g>
    <circle cx="131.6" cy="2.7" r="10.3" fill="#E37149"/>
    <g fill="#BE5338" opacity=".5">
        <circle cx="128.9" cy="4.1" r=".4"/>
        <circle cx="133" cy="11.2" r=".4"/>
        <circle cx="127.9" cy="9.7" r=".4"/>
        <circle cx="131.8" cy="7.8" r=".2"/>
        <circle cx="135.9" cy=".8" r=".2"/>
        <circle cx="124.6" cy="5.1" r=".2"/>
        <circle cx="136" cy="5.1" r=".1"/>
        <circle cx="139.8" cy="4.5" r=".1"/>
        <circle cx="135.6" cy="10.2" r=".1"/>
    </g>
    <path fill="#6DBD7B" d="M67.2 30.2c3-5.3 4.9-11.3 5.2-17.8S71.5-.3 69-5.8C66-.6 64.1 5.5 63.7 12s1 12.7 3.5 18.2"/>
    <path fill="#72A179" d="m67.5 24.7 1.3-33.9.6.1z"/>
    <circle cx="86.9" cy="194.1" r="35.3" fill="#E37149"/>
    <g fill="#BE5338" opacity=".5">
        <circle cx="80.3" cy="202.1" r="1.2"/>
        <circle cx="88.3" cy="169.6" r="1.2"/>
        <circle cx="103" cy="218.6" r="1.2"/>
        <circle cx="85" cy="221" r="1.2"/>
        <circle cx="94.8" cy="209.7" r=".5"/>
        <circle cx="97.6" cy="182.1" r=".5"/>
        <circle cx="72.5" cy="179.7" r=".5"/>
        <circle cx="68.3" cy="211.3" r=".7"/>
        <circle cx="60.8" cy="192.6" r=".3"/>
        <circle cx="104.2" cy="195.4" r=".5"/>
        <circle cx="99.5" cy="168.7" r=".5"/>
        <circle cx="115.2" cy="188.1" r=".5"/>
        <circle cx="110" cy="211.9" r=".5"/>
    </g>
    <circle cx="20.8" cy="39.2" r="2.6" fill="#BA3033"/>
    <path d="M17.897 29.717v-1.23l2.2-.27v-10.66l-2.24.04v-1.2l4.16-.9v12.72l2.19.27v1.23Zm46.09 150.92v-4.22h22.89V70.797l-26.41 5.93v-3.9l30.63-6.56v110.15h22.89v4.22Z"/>
    <g fill="#26936C">
        <path d="M75.6 167.9c8.1-.8 16-4.1 22.4-10s10.3-13.5 11.8-21.5c-8.1.8-16 4.1-22.4 10-6.5 5.9-10.4 13.5-11.8 21.5"/>
        <path d="M34.3 151.4c4.4 6.8 10.9 12.4 19.1 15.4s16.8 3.1 24.5.7c-4.4-6.8-10.9-12.4-19.1-15.4s-16.7-3-24.5-.7"/>
        <path d="M69.4 134.5c-2.3 5.2-3.1 11.3-1.7 17.3s4.7 11.1 9.1 14.8c2.3-5.2 3.1-11.3 1.7-17.3-1.4-6.1-4.7-11.2-9.1-14.8"/>
    </g>
    <defs>
        <path id="a" d="M-258.3-5.7h178.6v260.8h-178.6z"/>
    </defs>
    <clipPath id="b">
        <use xlink:href="#a" overflow="visible"/>
    </clipPath>
    <g clip-path="url(#b)">
        <path fill="#FFF" d="M13.7 58.3c.2-.2.3-.5.2-.7l.9-.9c.2.1.5 0 .7-.2s.3-.5.2-.7l.9-.9c.2.1.5 0 .7-.2.3-.3.3-.7.1-1 .2-1.1-.1-2.2-.8-3-.8-.8-1.9-1.1-3-.9-.3-.2-.7-.2-1 .1-.2.2-.3.5-.2.7l-.9.9c-.2-.1-.5 0-.7.2s-.3.5-.2.7l-.9.9c-.2-.1-.5 0-.7.2s-.3.5-.2.7l-.9.9c-.2-.1-.5 0-.7.2-.3.3-.3.8 0 1.1.2.2.5.3.7.2l.9 1c-.1.3 0 .5.2.7s.5.3.7.2l.9.9c-.1.3 0 .5.2.7.3.3.8.3 1.1 0 .2-.2.3-.5.2-.7l.9-.9c.3 0 .6 0 .7-.2m-2.5.6-.9-.9v-.4l.9-.9h.4l.9.9v.4l-.9.9zm-2.8-3.2.9-.9h.4l.9 1v.4l-.9 1h-.4l-.9-1zm5-4.7.9 1v.4l-.9 1H13l-.9-1V52l.9-1c.2.1.3.1.4 0m2.8 2.8v.4l-.9.9h-.4l-.9-.9v-.4l.9-.9h.4zM13 57l-.9-.9v-.4l.9-.9h.4l.9.9v.4l-.9.9zm-1.4-4.1.9 1v.4l-.9 1h-.4l-.9-1v-.4l.9-.9c.1-.1.2-.1.4-.1m4.5-1.8c.6.6.8 1.4.7 2.2h-.1l-.9-.9c.1-.3 0-.5-.2-.7s-.5-.3-.7-.2l-.9-1v-.1c.7-.1 1.5.1 2.1.7"/>
        <path fill="none" stroke="#FFF" stroke-miterlimit="10" stroke-width=".5" d="m-2.5 39 9 9M-4 71.4l9-9.1"/>
        <path fill="#FFF" d="M10.6 157.2c.2-.2.3-.5.2-.7l.9-.9c.2.1.5 0 .7-.2s.3-.5.2-.7l.9-.9c.2.1.5 0 .7-.2.3-.3.3-.7.1-1 .2-1.1-.1-2.2-.8-3s-1.9-1.1-3-.9c-.3-.2-.7-.2-1 .1-.2.2-.3.5-.2.7l-.9.9c-.2-.1-.5 0-.7.2s-.3.5-.2.7l-.9.9c-.2-.1-.5 0-.7.2s-.3.5-.2.7l-.9.9c-.2-.1-.5 0-.7.2-.3.3-.3.8 0 1.1.2.2.5.3.7.2l.9 1c-.1.3 0 .5.2.7s.5.3.7.2l.9.9c-.1.3 0 .5.2.7.3.3.8.3 1.1 0 .2-.2.3-.5.2-.7l.9-.9c.2 0 .5 0 .7-.2m-2.6.6-.9-.9v-.4l.9-.9h.4l.9.9v.4l-.9.9c-.1-.1-.3-.1-.4 0m-2.8-3.2.9-.9h.4l.9 1v.4l-.9 1h-.4l-.9-1c.1-.3.1-.4 0-.5m5.1-4.7.9 1v.4l-.9 1h-.4l-.9-1v-.4l.9-.9c.1 0 .2 0 .4-.1m2.7 2.8v.4l-.9.9h-.4l-.9-.9v-.4l.9-.9h.4zm-3.1 3.2-1-.9v-.4l.9-.9h.4l.9.9v.4l-.9.9zm-1.5-4.1.9 1v.4l-.9 1H8l-.9-1v-.4l.9-.9c.1-.1.3-.1.4-.1M13 150c.6.6.8 1.4.7 2.2h-.1l-.9-.9c.1-.3 0-.5-.2-.7s-.5-.3-.7-.2l-.9-1v-.1c.7-.1 1.5.1 2.1.7"/>
        <path fill="none" stroke="#FFF" stroke-miterlimit="10" stroke-width=".5" d="m-5.6 137.9 8.9 9m-10.4 23.4 8.9-9.1"/>
        <path fill="#FFF" d="M12.8 108.3c.2-.2.3-.5.2-.7l.9-.9c.2.1.5 0 .7-.2s.3-.5.2-.7l.9-.9c.2.1.5 0 .7-.2.3-.3.3-.7.1-1 .2-1.1-.1-2.2-.8-3s-1.9-1.1-3-.9c-.3-.2-.7-.2-1 .1-.2.2-.3.5-.2.7l-.9.9c-.2-.1-.5 0-.7.2s-.3.5-.2.7l-.9.9c-.2-.1-.5 0-.7.2s-.3.5-.2.7l-.9.9c-.2-.1-.5 0-.7.2-.3.3-.3.8 0 1.1.2.2.5.3.7.2l.9 1c-.1.3 0 .5.2.7s.5.3.7.2l.9.9c-.1.3 0 .5.2.7.3.3.8.3 1.1 0 .2-.2.3-.5.2-.7l.9-.9c.2.1.5 0 .7-.2m-2.6.6-.9-.9v-.4l.9-.9h.4l.9.9v.4l-.9.9zm-2.8-3.2.9-.9h.4l.9 1v.4l-.9 1h-.4l-.9-1c.1-.2.1-.3 0-.5m5-4.6.9 1v.4l-.9 1H12l-.9-1v-.4l.9-.9c.2-.1.3-.1.4-.1m2.8 2.8v.4l-.9.9h-.4l-.9-.9v-.4l.9-.9h.4zm-3.2 3.2-.9-.9v-.4l.9-.9h.4l.9.9v.4l-.9.9c-.1-.1-.2-.1-.4 0m-1.4-4.2.9 1v.4l-.9 1h-.4l-.9-1v-.4l.9-.9c.1 0 .3 0 .4-.1m4.5-1.8c.6.6.8 1.4.7 2.2h-.1l-.9-.9c.1-.3 0-.5-.2-.7s-.5-.3-.7-.2l-.9-1v-.1c.7-.1 1.6.2 2.1.7"/>
        <path fill="none" stroke="#FFF" stroke-miterlimit="10" stroke-width=".5" d="m-5 121.4 9-9"/>
        <path fill="#FFF" d="M35.9 131.7c.2-.2.3-.5.2-.7l.9-1c.2.1.5 0 .7-.2s.3-.5.2-.7l.9-.9c.2.1.5 0 .7-.2.3-.3.3-.7.1-1 .2-1.1-.1-2.2-.8-3s-1.9-1.1-3-.9c-.3-.2-.7-.2-1 .1-.2.2-.3.5-.2.7l-.9.9c-.2-.1-.5 0-.7.2s-.3.5-.2.7l-.9.9c-.2-.1-.5 0-.7.2s-.3.5-.2.7l-.9.9c-.2-.1-.5 0-.7.2-.3.3-.3.8 0 1.1.2.2.5.3.7.2l.9 1c-.1.3 0 .5.2.7s.5.3.7.2l.9.9c-.1.3 0 .5.2.7.3.3.8.3 1.1 0 .2-.2.3-.5.2-.7l.9-.9c.2.1.5 0 .7-.1m-2.6.6-.9-.9v-.4l.9-.9h.4l.9.9v.4l-.9.9c-.1-.1-.3-.1-.4 0m-2.8-3.2.9-.9h.4l.9 1v.4l-.9 1h-.4l-.9-1c.1-.3.1-.4 0-.5m5-4.7.9 1v.4l-.9 1h-.4l-.9-1v-.4l.9-.9c.2-.1.3-.1.4-.1m2.8 2.8v.4l-.9.9H37l-.9-.9v-.4l.9-.9h.4zm-3.1 3.2-.9-.9v-.4l.9-.9h.4l.9.9v.4l-.9.9zm-1.5-4.1.9 1v.4l-.9 1h-.4l-.9-1v-.4l.9-.9c.1-.1.3-.1.4-.1m4.6-1.8c.6.6.8 1.4.7 2.2h-.1l-.9-.9c.1-.3 0-.5-.2-.7s-.5-.3-.7-.2l-.9-1v-.1c.7-.1 1.5.1 2.1.7"/>
        <path fill="none" stroke="#FFF" stroke-miterlimit="10" stroke-width=".5" d="m19.7 112.4 8.9 9M-5 87.4l8.9 9.1m14.3 48.2 8.9-9"/>
        <path fill="#FFF" d="M38.1 82.8c.2-.2.3-.5.2-.7l.9-.9c.2.1.5 0 .7-.2s.3-.5.2-.7l.9-.9c.2.1.5 0 .7-.2.3-.3.3-.7.1-1 .2-1.1-.1-2.2-.8-3-.8-.8-1.9-1.1-3-.9-.3-.2-.7-.2-1 .1-.2.2-.3.5-.2.7l-.9.9c-.2-.1-.5 0-.7.2s-.3.5-.2.7l-1 .9c-.2-.1-.5 0-.7.2s-.3.5-.2.7l-.9.9c-.2-.1-.5 0-.7.2-.3.3-.3.8 0 1.1.2.2.5.3.7.2l.9 1c-.1.3 0 .5.2.7s.5.3.7.2l.9.9c-.1.3 0 .5.2.7.3.3.8.3 1.1 0 .2-.2.3-.5.2-.7l.9-.9c.3.1.6 0 .8-.2m-2.6.6-.9-.9v-.4l.9-.9h.4l.9.9v.4l-.9.9zm-2.8-3.2.9-.9h.4l.9 1v.4l-.9 1h-.4l-.9-1zm5-4.6.9 1v.4l-.9 1h-.4l-.9-1v-.4l.9-.9c.2-.1.3-.1.4-.1m2.8 2.8v.4l-.9.9h-.4l-.9-.9v-.4l.9-.9h.4zm-3.2 3.1-.9-.9v-.4l.9-.9h.4l.9.9v.4l-.9.9zm-1.4-4.1.9 1v.4l-.9 1h-.4l-.9-1v-.4l.9-.9c.1 0 .3 0 .4-.1m4.5-1.8c.6.6.8 1.4.7 2.2H41l-.9-.9c.1-.3 0-.5-.2-.7s-.5-.3-.7-.2l-.9-1v-.1c.7-.1 1.5.1 2.1.7"/>
        <path fill="none" stroke="#FFF" stroke-miterlimit="10" stroke-width=".5" d="m20.3 95.9 9-9"/>
        <path fill="#FFF" d="M61.2 106.1c.2-.2.3-.5.2-.7l.9-.9c.2.1.5 0 .7-.2s.3-.5.2-.7l.9-.9c.2.1.5 0 .7-.2.3-.3.3-.7.1-1 .2-1.1-.1-2.2-.8-3-.8-.8-1.9-1.1-3-.9-.3-.2-.7-.2-1 .1-.2.2-.3.5-.2.7l-.9.9c-.2-.1-.5 0-.7.2s-.3.5-.2.7l-.9.9c-.2-.1-.5 0-.7.2s-.3.5-.2.7l-.9.9c-.2-.1-.5 0-.7.2-.3.3-.3.8 0 1.1.2.2.5.3.7.2l.9 1c-.1.3 0 .5.2.7s.5.3.7.2l.9.9c-.1.3 0 .5.2.7.3.3.8.3 1.1 0 .2-.2.3-.5.2-.7l.9-.9c.2.1.5 0 .7-.2m-2.6.6-.9-.9v-.4l.9-.9h.4l.9.9v.4l-.9.9zm-2.8-3.2.9-.9h.4l.9 1v.4l-.9 1h-.4l-.9-1c.1-.2.1-.3 0-.5m5-4.6.9 1v.4l-.9 1h-.4l-.9-1v-.4l.9-.9c.2-.1.3-.1.4-.1m2.8 2.8v.4l-.9.9h-.4l-.9-.9v-.4l.9-.9h.4zm-3.1 3.2-.9-.9v-.4l.9-.9h.4l.9.9v.4l-.9.9c-.2-.1-.3-.1-.4 0m-1.5-4.2.9 1v.4l-.9 1h-.4l-.9-1v-.4l.9-.9c.1 0 .3 0 .4-.1m4.5-1.7c.6.6.8 1.4.7 2.2h-.1l-.9-.9c.1-.3 0-.5-.2-.7s-.5-.3-.7-.2l-.9-1v-.1c.8-.2 1.6.1 2.1.7"/>
        <path fill="none" stroke="#FFF" stroke-miterlimit="10" stroke-width=".5" d="m45 86.8 8.9 9.1m-33.6-34 8.9 9.1m14.3 48.2 8.9-9"/>
        <path fill="#FFF" d="M8.2 204.2c.2-.2.3-.5.2-.7l.9-.9c.2.1.5 0 .7-.2s.3-.5.2-.7l.9-.9c.2.1.5 0 .7-.2.3-.3.3-.7.1-1 .2-1.1-.1-2.2-.8-3s-1.9-1.1-3-.9c-.3-.2-.7-.2-1 .1-.2.2-.3.5-.2.7l-.9.9c-.2-.1-.5 0-.7.2s-.3.5-.2.7l-.9.9c-.2-.1-.5 0-.7.2s-.3.5-.2.7l-.9.9c-.2-.1-.5 0-.7.2-.3.3-.3.8 0 1.1.2.2.5.3.7.2l.9 1c-.1.3 0 .5.2.7s.5.3.7.2l.9.9c-.1.3 0 .5.2.7.3.3.8.3 1.1 0 .2-.2.3-.5.2-.7l.9-.9c.2.1.5 0 .7-.2m-2.5.6-.9-.9v-.4l.9-.9h.4l.9.9v.4l-1 .9zm-2.8-3.2.9-.9h.4l.9 1v.4l-.9 1h-.4l-.9-1zm5-4.6.9 1v.4l-.9 1h-.4l-.9-1v-.4l.9-.9c.1-.1.3-.1.4-.1m2.8 2.8v.4l-.9.9h-.4l-.9-.9v-.4l.9-.9h.4zM7.5 203l-.9-1v-.4l.9-.9h.4l.9.9v.4l-.9 1c-.1-.1-.3-.1-.4 0M6 198.8l.9 1v.4l-.9 1h-.4l-.9-1v-.4l.9-.9c.2 0 .3 0 .4-.1m4.6-1.8c.6.6.8 1.4.7 2.2h-.1l-.9-.9c.1-.3 0-.5-.2-.7s-.5-.3-.7-.2l-.9-1v-.1c.7-.1 1.5.2 2.1.7"/>
        <path fill="none" stroke="#FFF" stroke-miterlimit="10" stroke-width=".5" d="m-8 184.9 9 9.1"/>
        <path fill="#FFF" d="M32.7 179.5c.2-.2.3-.5.2-.7l.9-.9c.2.1.5 0 .7-.2s.3-.5.2-.7l.9-.9c.2.1.5 0 .7-.2.3-.3.3-.7.1-1 .2-1.1-.1-2.2-.8-3s-1.9-1.1-3-.9c-.3-.2-.7-.2-1 .1-.2.2-.3.5-.2.7l-.9.9c-.2-.1-.5 0-.7.2s-.3.5-.2.7l-.9.9c-.2-.1-.5 0-.7.2s-.3.5-.2.7l-.9.9c-.2-.1-.5 0-.7.2-.3.3-.3.8 0 1.1.2.2.5.3.7.2l.9 1c-.1.3 0 .5.2.7s.5.3.7.2l.9.9c-.1.3 0 .5.2.7.3.3.8.3 1.1 0 .2-.2.3-.5.2-.7l.9-.9c.2.1.5 0 .7-.2m-2.5.6-.9-.9v-.4l.9-.9h.4l.9.9v.4l-.9.9zm-2.8-3.2.9-.9h.4l.9 1v.4l-.9 1h-.4l-.9-1zm5-4.6.9 1v.4l-.9 1H32l-.9-1v-.4l.9-.9c.1-.1.3-.1.4-.1m2.8 2.8v.4l-.9.9h-.4l-.9-.9v-.4l.9-.9h.4zm-3.2 3.1-.9-.9v-.4l.9-.9h.4l.9.9v.4l-.9.9zm-1.5-4.1.9 1v.4l-.9 1h-.4l-.9-1v-.4l.9-.9c.2-.1.3-.1.4-.1m4.6-1.8c.6.6.8 1.4.7 2.2h-.1l-.9-.9c.1-.3 0-.5-.2-.7s-.5-.3-.7-.2l-.9-1v-.1c.7-.1 1.5.1 2.1.7"/>
        <path fill="none" stroke="#FFF" stroke-miterlimit="10" stroke-width=".5" d="m16.5 160.2 9 9.1M15 192.6l9-9"/>
        <path fill="#FFF" d="M58 154c.2-.2.3-.5.2-.7l.9-.9c.2.1.5 0 .7-.2s.3-.5.2-.7l.9-.9c.2.1.5 0 .7-.2.3-.3.3-.7.1-1 .2-1.1-.1-2.2-.8-3-.8-.8-1.9-1.1-3-.9-.3-.2-.7-.2-1 .1-.2.2-.3.5-.2.7l-.9.9c-.2-.1-.5 0-.7.2s-.3.5-.2.7l-.9.9c-.2-.1-.5 0-.7.2s-.3.5-.2.7l-.9.9c-.2-.1-.5 0-.7.2-.3.3-.3.8 0 1.1.2.2.5.3.7.2l.9 1c-.1.3 0 .5.2.7s.5.3.7.2l.9.9c-.1.3 0 .5.2.7.3.3.8.3 1.1 0 .2-.2.3-.5.2-.7l.9-.9c.2 0 .5 0 .7-.2m-2.5.6-.9-.9v-.4l.9-.9h.4l.9.9v.4l-.9.9zm-2.8-3.2.9-.9h.4l.9 1v.4l-.9 1h-.4l-.9-1zm5-4.7.9 1v.4l-.9 1h-.4l-.9-1v-.4l.9-.9c.1 0 .3 0 .4-.1m2.8 2.8v.4l-.9.9h-.4l-.9-.9v-.4l.9-.9h.4zm-3.2 3.2-.9-.9v-.4l.9-.9h.4l.9.9v.4l-.9.9zm-1.5-4.1.9 1v.4l-.9 1h-.4l-.9-1v-.4l.9-.9c.2-.1.3-.1.4-.1m4.6-1.8c.6.6.8 1.4.7 2.2H61l-.9-.9c.1-.3 0-.5-.2-.7s-.5-.3-.7-.2l-.9-1v-.1c.7-.1 1.5.1 2.1.7"/>
        <path fill="none" stroke="#FFF" stroke-miterlimit="10" stroke-width=".5" d="m41.8 134.7 9 9m-10.5 23.4 9-9.1"/>
        <path fill="#FFF" d="M83.3 128.5c.2-.2.3-.5.2-.7l.9-.9c.2.1.5 0 .7-.2s.3-.5.2-.7l.9-.9c.2.1.5 0 .7-.2.3-.3.3-.7.1-1 .2-1.1-.1-2.2-.8-3-.8-.8-1.9-1.1-3-.9-.3-.2-.7-.2-1 .1-.2.2-.3.5-.2.7l-.9.9c-.2-.1-.5 0-.7.2s-.3.5-.2.7l-.9.9c-.2-.1-.5 0-.7.2s-.3.5-.2.7l-.9.9c-.2-.1-.5 0-.7.2-.3.3-.3.8 0 1.1.2.2.5.3.7.2l.9 1c-.1.3 0 .5.2.7s.5.3.7.2l.9.9c-.1.3 0 .5.2.7.3.3.8.3 1.1 0 .2-.2.3-.5.2-.7l.9-.9c.2 0 .5 0 .7-.2m-2.6.6-.9-.9v-.4l.9-.9h.4l.9.9v.4l-.9.9c-.1-.1-.2-.1-.4 0m-2.7-3.2.9-.9h.4l.9 1v.4l-.9 1h-.4l-.9-1zm5-4.7.9 1v.4l-.9 1h-.4l-.9-1v-.4l.9-.9c.1-.1.2-.1.4-.1m2.8 2.8v.4l-.9.9h-.4l-.9-.9v-.4l.9-.9h.4zm-3.2 3.2-.9-.9v-.4l.9-.9h.4l.9.9v.4l-.9.9zm-1.5-4.1.9 1v.4l-.9 1h-.4l-.9-1v-.4l.9-.9c.2-.1.3-.1.4-.1m4.6-1.8c.6.6.8 1.4.7 2.2h-.1l-.9-.9c.1-.3 0-.5-.2-.7s-.5-.3-.7-.2l-.9-1v-.1c.7-.1 1.5.1 2.1.7"/>
        <path fill="none" stroke="#FFF" stroke-miterlimit="10" stroke-width=".5" d="m67.1 109.2 8.9 9m-10.4 23.4 9-9.1"/>
    </g>
</svg>
