<?xml version="1.0" encoding="utf-8"?>
<!-- Generator: Adobe Illustrator 18.1.1, SVG Export Plug-In . SVG Version: 6.00 Build 0)  -->
<!DOCTYPE svg PUBLIC "-//W3C//DTD SVG 1.1//EN" "http://www.w3.org/Graphics/SVG/1.1/DTD/svg11.dtd">
<svg version="1.1" id="Layer_1" xmlns="http://www.w3.org/2000/svg" xmlns:xlink="http://www.w3.org/1999/xlink" x="0px" y="0px"
	 viewBox="0 0 167.2 249.4" enable-background="new 0 0 167.2 249.4" xml:space="preserve">
<rect x="-5.7" y="-5.7" fill="#D07E6D" width="178.6" height="260.8"/>
<g>
	<g>
		<circle fill="#BA3033" cx="83.6" cy="103.3" r="48.6"/>
		<path fill="#E9C77C" d="M122.6,132.3H44.7c6.4,8.6,15.5,14.9,26.1,17.8l0,0c0,0,5.2,1,5.2,7c0,0.2-1.8,33.8-1.8,33.8
			c0,2.9,2.3,3.4,5.2,3.4h8.5c2.9,0,5.2-0.5,5.2-3.4l-2-33.8c-0.2-3.9,2.9-6.2,4.2-6.7C106.4,147.7,116,141.2,122.6,132.3z"/>
	</g>
	<circle fill="#FFFFFF" cx="99.9" cy="184" r="12.7"/>
</g>
</svg>
