<svg xmlns="http://www.w3.org/2000/svg" xml:space="preserve" viewBox="0 0 167.2 249.4">
    <path fill="#78CBE7" d="M-6.3-5.6h178.6v260.8H-6.3z"/>
    <circle cx="23.8" cy="39.2" r="2.6" fill="#BA3033"/>
    <path d="M21.62 28.848q-1.54 0-2.69-.78-1.15-.79-1.79-2.13-.63-1.34-.63-3.02v-.75q0-1.68.63-3.02.64-1.34 1.78-2.13 1.15-.79 2.68-.79 1.23 0 2.23.56t1.8 1.5 1.4 2.11q.6-1.16 1.39-2.1t1.81-1.5q1.01-.57 2.25-.57 1.53 0 2.67.8 1.14.79 1.78 2.13t.64 3.01v.75q0 1.68-.64 3.02t-1.79 2.13q-1.14.78-2.68.78-1.24 0-2.25-.56t-1.8-1.5q-.78-.94-1.38-2.11-.6 1.17-1.4 2.11t-1.79 1.5q-1 .56-2.22.56m0-1.73q.62 0 1.19-.3.57-.29 1.07-.76.49-.48.89-1.06t.67-1.16q.28-.59.4-1.07v-.47q-.12-.47-.4-1.05t-.68-1.15q-.4-.58-.9-1.06t-1.07-.77q-.57-.3-1.19-.3-.95 0-1.59.53t-.96 1.47q-.33.95-.33 2.2v.75q0 1.27.33 2.21.34.95.98 1.47.65.52 1.59.52m10.84 0q.94 0 1.58-.53.64-.52.97-1.47t.33-2.2v-.75q0-1.25-.33-2.2-.33-.94-.97-1.47t-1.56-.53q-.77 0-1.48.44t-1.28 1.12q-.56.68-.96 1.42-.39.74-.55 1.35v.47q.16.61.55 1.35.38.75.95 1.44.57.68 1.27 1.12t1.48.44"/>
    <circle cx="143.4" cy="210.3" r="2.6" fill="#BA3033"/>
    <path fill="#F1F2F2" d="M125.5 32.8c-2.7 1-4.1 4.1-3.1 6.8s4.1 4.1 6.8 3.1c6.1-2.3 8.9-14.6 8.9-14.6s-12.3 4.6-12.6 4.7"/>
    <path fill="#FBDAE6" d="m109.6 62.5-.8-2.5-2.6.4 9.7-15.8 3.5 2.2z"/>
    <path fill="#F5A5C4" d="m109.6 62.5-.8-2.5-2.6.4 1.8-3 3.5 2.1z"/>
    <path fill="#FBDAE6" d="m122.1 69.9-.9-2.6-2.6.4 9.8-15.7 3.4 2.1z"/>
    <path fill="#F5A5C4" d="m122.1 69.9-.9-2.6-2.6.4 1.9-2.9 3.4 2.1z"/>
    <path fill="#FBDAE6" d="m128.2 73.6-.9-2.5-2.6.4 9.7-15.8 3.5 2.1z"/>
    <path fill="#F5A5C4" d="m128.2 73.6-.9-2.5-2.6.4 1.9-3 3.4 2.1z"/>
    <path fill="#FBDAE6" d="m116.1 52.8 2.6-3.1-5.4-4.4c-1.1-1.1-2.3-.5-2.8-.3s-11.7 5.1-11.7 5.1l2.4 1.2-.7 2.6 11-4.8z"/>
    <path fill="#F5A5C4" d="m100.5 53.8.7-2.6-2.3-1.1 3.2-1.4 1.6 3.7z"/>
    <path fill="#FBDAE6" d="m110 43.5 1.4-2.3c2.2-3.6 7-4.7 10.5-2.5l13.6 8.4c3.6 2.2 4.7 7 2.5 10.5l-1.4 2.3c-2.2 3.6-7 4.7-10.5 2.5L112.5 54c-3.6-2.2-4.7-6.9-2.5-10.5"/>
    <path fill="#FBDAE6" d="m121.797 54.261 12.26 7.551-2.412 3.917-12.26-7.551z"/>
    <path fill="#E6E7E8" d="M133.3 39c-3.5-1.7-7.7-.2-9.4 3.3s-.2 7.7 3.3 9.4c7.9 3.8 22.3-4.9 22.3-4.9s-15.9-7.7-16.2-7.8"/>
    <path fill="#F9C8DA" d="M126.4 36.7c-1.9-.3-3.7.4-5 1.7.8 1.6 2.3 2.8 4.2 3.1s3.7-.4 5-1.7c-.7-1.6-2.3-2.8-4.2-3.1"/>
    <path fill="#F5A5C4" d="M126.3 37.5c-1.3-.2-2.5.3-3.3 1.1.5 1.1 1.5 1.9 2.8 2.1s2.5-.3 3.3-1.1c-.5-1.1-1.5-1.9-2.8-2.1"/>
    <path fill="#F9C8DA" d="M119.7 27.8a5.41 5.41 0 0 0-.5 5.2c1.8 0 3.6-.9 4.6-2.5 1.1-1.6 1.2-3.6.5-5.2-1.7.1-3.5.9-4.6 2.5"/>
    <path fill="#FBDAE6" d="M121.1 30.2c-2-1.3-3.6-2-6.5-1.4-2.9.7-3.2 1.7-6.2.2-.5-.3-1.6.5-2.5 1.8s-1.2 2.7-.7 3c0 0 2.1 1.4 2.5 5.5.2 1.8 1.4 4.4 3.4 5.8 4.1 2.7 9.7 1.6 12.4-2.5s1.7-9.6-2.4-12.4"/>
    <ellipse cx="106.7" cy="30.7" fill="#F5A5C4" rx=".1" ry=".5" transform="rotate(33.692 106.704 30.72)"/>
    <ellipse cx="106.8" cy="31.6" fill="#F5A5C4" rx=".1" ry=".5" transform="rotate(33.692 106.81 31.584)"/>
    <circle cx="117.6" cy="36.4" r="1.6" fill="#FFF"/>
    <path fill="#010101" d="M118.1 36.7c-.2-.1-.3-.4-.2-.7.1-.2.3-.3.4-.3-.1-.1-.2-.1-.3-.2-.5-.3-1.1-.1-1.3.4-.3.5-.1 1.1.4 1.3s1.1.1 1.3-.4c0-.1.1-.1.1-.2 0 .1-.2.1-.4.1"/>
    <path fill="#F5A5C4" d="m110 37.4-.6-.1c-.2.7-.9 1.2-1.6 1.1-.1 0-.2 0-.3-.1 0 .2.1.4.1.6 1.2.3 2.2-.4 2.4-1.5"/>
    <path fill="#FBDAE6" d="M109.1 42.9s.7 1.1.5 2.3c-.3 1.2 3.9-1.3 3.9-1.3l-2.8-1.9zM137 57.2l.9-.1.3 3.9z"/>
    <g fill="#F1F2F2">
        <circle cx="31.1" cy="78.7" r="15.8"/>
        <circle cx="46.6" cy="70.4" r="8.2"/>
        <circle cx="51.5" cy="86.2" r="12"/>
        <circle cx="57.3" cy="74.3" r="5.2"/>
    </g>
    <path d="M55.253 154.713q-6.69 0-11.69-3.4-5.01-3.39-7.77-9.13-2.75-5.74-2.75-12.77v-4.29q0-7.04 2.75-12.75 2.76-5.71 7.74-9.11 4.98-3.39 11.62-3.39 6.55 0 11.36 3.39 4.81 3.4 8.15 8.77 3.35 5.37 5.4 11.23 2.05-5.86 5.39-11.21 3.35-5.34 8.21-8.76 4.85-3.42 11.4-3.42 6.64 0 11.59 3.39 4.96 3.4 7.72 9.11t2.76 12.75v4.29q0 7.03-2.79 12.77-2.78 5.74-7.76 9.13-4.98 3.4-11.62 3.4-6.54 0-11.38-3.4-4.83-3.39-8.15-8.76t-5.37-11.23q-2.05 5.86-5.37 11.23t-8.11 8.76q-4.78 3.4-11.33 3.4m0-2.64q4.2 0 7.79-2 3.59-2.01 6.42-5.08 2.83-3.08 4.84-6.42 2-3.35 3.05-6.15 1.05-2.81 1.05-4.13v-2.05q0-1.32-1.05-4.1-1.05-2.79-3.05-6.13-2.01-3.35-4.86-6.42-2.86-3.08-6.45-5.08t-7.84-2q-6.1 0-10.47 3.17-4.37 3.18-6.69 8.33t-2.32 11.11v4.29q0 6.01 2.35 11.18 2.34 5.18 6.71 8.33t10.52 3.15m49.71 0q6.15 0 10.52-3.15t6.69-8.33q2.32-5.17 2.32-11.18v-4.29q0-5.96-2.34-11.11-2.35-5.15-6.69-8.33-4.35-3.17-10.4-3.17-5.32 0-9.4 2.59-4.08 2.58-6.94 6.47-2.85 3.88-4.56 7.88-1.71 4.01-2.39 6.79v2.05q.73 2.83 2.44 6.86t4.54 7.89q2.83 3.85 6.86 6.44t9.35 2.59"/>
    <g fill="#F1F2F2">
        <circle cx="140.1" cy="139.8" r="12.8"/>
        <circle cx="130.7" cy="129" r="6.7"/>
        <circle cx="122.5" cy="139.7" r="9.8"/>
        <circle cx="121.5" cy="129" r="4.2"/>
    </g>
    <g fill="#F1F2F2">
        <circle cx="83.1" cy="5.8" r="12.8"/>
        <circle cx="97.3" cy="6.7" r="6.7"/>
    </g>
    <g fill="#F1F2F2">
        <circle cx="115.4" cy="236.7" r="18.8"/>
        <circle cx="141.1" cy="240.2" r="14.3"/>
    </g>
    <path d="M145.625 220.599q1.54 0 2.69.78 1.15.79 1.79 2.13.63 1.34.63 3.02v.75q0 1.68-.63 3.02-.64 1.34-1.78 2.13-1.15.79-2.68.79-1.23 0-2.23-.56t-1.8-1.5-1.4-2.11q-.6 1.16-1.39 2.1t-1.81 1.5q-1.01.57-2.25.57-1.53 0-2.67-.8-1.14-.79-1.78-2.13t-.64-3.01v-.75q0-1.68.64-3.02t1.79-2.13q1.14-.78 2.68-.78 1.24 0 2.25.56t1.8 1.5q.78.94 1.38 2.11.6-1.17 1.4-2.11t1.79-1.5q1-.56 2.22-.56m0 1.73q-.62 0-1.19.3-.57.29-1.07.76-.49.48-.89 1.06t-.67 1.16q-.28.59-.4 1.07v.47q.12.47.4 1.05t.68 1.15q.4.58.9 1.06t1.07.77q.57.3 1.19.3.95 0 1.59-.53t.96-1.47q.33-.95.33-2.2v-.75q0-1.27-.33-2.21-.34-.95-.98-1.47-.65-.52-1.59-.52m-10.84 0q-.94 0-1.58.53-.64.52-.97 1.47t-.33 2.2v.75q0 1.25.33 2.2.33.94.97 1.47t1.56.53q.77 0 1.48-.44t1.28-1.12q.56-.68.96-1.42.39-.74.55-1.35v-.47q-.16-.61-.55-1.35-.38-.75-.95-1.44-.57-.68-1.27-1.12t-1.48-.44"/>
    <path fill="#F1F2F2" d="M60.3 166.1c4.5 1.7 6.8 6.8 5.1 11.3s-6.8 6.8-11.3 5.1c-10.2-3.9-14.8-24.3-14.8-24.3s20.5 7.7 21 7.9"/>
    <path fill="#FBDAE6" d="m47.5 235.3 2.5-3.6 4 1.8-8.5-29.7-6.5 1.9z"/>
    <path fill="#F5A5C4" d="m47.5 235.3 2.5-3.6 4 1.8-1.6-5.6-6.5 1.8z"/>
    <path fill="#FBDAE6" d="m59.3 231.8 2.5-3.7 4 1.8-8.5-29.6-6.6 1.8z"/>
    <path fill="#F5A5C4" d="m59.3 231.8 2.5-3.7 4 1.8-1.6-5.6-6.6 1.9z"/>
    <path fill="#FBDAE6" d="m74 201-4.3-5.2 9-7.4.1-.1c1.9-1.8 3.8-.8 4.6-.4s19.4 8.6 19.4 8.6l-3.9 1.9 1.2 4.3-18.2-8.1z"/>
    <path fill="#F5A5C4" d="m100 202.6-1.3-4.2 4-2-5.3-2.3-2.8 6.2z"/>
    <path fill="#FBDAE6" d="m68.5 206.5-2.6-6.3 10.7-4.5h.1c2.3-1.1 3.9.4 4.5.9.7.6 16.1 13.9 16.1 13.9l-4.3.7-.1 4.4-15.1-13z"/>
    <path fill="#F5A5C4" d="m92.9 215.6.1-4.4 4.3-.7-4.4-3.8-4.4 5.1z"/>
    <path fill="#FBDAE6" d="m86.1 183.9-2.4-3.9c-3.7-6-11.6-7.9-17.6-4.2l-22.6 13.9c-6 3.7-7.9 11.6-4.2 17.6l2.4 3.9c3.7 6 11.6 7.9 17.6 4.2l22.6-13.9c6-3.7 7.9-11.7 4.2-17.6"/>
    <path fill="#E6E7E8" d="M44.2 174c6.7-3.2 14.7-.4 17.9 6.3s.4 14.7-6.3 17.9c-15.1 7.3-42.6-9.3-42.6-9.3s30.4-14.6 31-14.9"/>
    <path fill="#F9C8DA" d="M58.7 172.6c3.2-.5 6.2.7 8.3 2.9-1.3 2.7-3.8 4.7-7 5.2s-6.2-.7-8.3-2.9c1.3-2.7 3.8-4.7 7-5.2"/>
    <path fill="#F5A5C4" d="M58.9 174c2.1-.3 4.1.5 5.5 1.9-.9 1.8-2.6 3.2-4.7 3.5s-4.1-.5-5.5-1.9c.9-1.8 2.6-3.2 4.7-3.5"/>
    <path fill="#F9C8DA" d="M69.9 157.8c1.8 2.7 2 5.9.9 8.7-3 0-5.9-1.5-7.7-4.1s-2-5.9-.9-8.7c2.9 0 5.9 1.5 7.7 4.1"/>
    <path fill="#FBDAE6" d="M67.6 161.8c3.3-2.2 6.1-3.4 10.8-2.3 4.8 1.1 5.3 2.8 10.3.3.8-.5 2.6.8 4.1 3s2 4.4 1.2 5c0 0-3.5 2.3-4.2 9.1-.3 2.9-2.4 7.4-5.7 9.6-6.8 4.6-16.1 2.7-20.6-4.1s-2.7-16 4.1-20.6"/>
    <ellipse cx="91.6" cy="162.6" fill="#F5A5C4" rx=".2" ry=".8" transform="rotate(146.308 91.606 162.627)"/>
    <ellipse cx="91.4" cy="164.1" fill="#F5A5C4" rx=".2" ry=".8" transform="rotate(146.308 91.43 164.065)"/>
    <circle cx="73.4" cy="172.1" r="2.6" fill="#FFF"/>
    <path fill="#010101" d="M72.6 172.5c.4-.2.6-.7.4-1.1-.1-.3-.4-.4-.7-.4.1-.1.3-.2.4-.3.8-.4 1.8-.1 2.2.7s.1 1.8-.7 2.2-1.8.1-2.2-.7c-.1-.1-.1-.2-.1-.4.1.1.4.2.7 0"/>
    <path fill="#F5A5C4" d="m86 173.8.9-.2c.3 1.2 1.5 2 2.7 1.8.2 0 .3-.1.4-.1-.1.3-.1.7-.2 1h-.1c-1.6.4-3.3-.7-3.7-2.5"/>
    <path fill="#FBDAE6" d="M87.6 182.9s-1.2 1.9-.8 3.8c.5 1.9-6.6-2.2-6.6-2.2l4.7-3.2zm-46.5 21.7-2.2-.7-2.8 8.2z"/>
</svg>
