<svg xmlns="http://www.w3.org/2000/svg" xml:space="preserve" viewBox="0 0 167.2 249.4">
    <path fill="#F9A02E" d="M-5.7-5.7h178.6v260.8H-5.7z"/>
    <path fill="#CD6F28" d="m-5.4 124.3 15.2-12.4 5.3 11.3 12.7-28.7 19.5 28 14.2-11.7 8.2 11.4L82.4 97l13.8 20.2 6.8-13.1 14.8 20.5L132 83.5l5.3 25.2 7.1-4.6 11 30.8 17.8-22.7v143.1H-5.4z"/>
    <circle cx="20.8" cy="39.2" r="2.6" fill="#BA3033"/>
    <path fill="#220E0A" d="M17.583 23.147q0 .71-.05 1.17t-.19.79-.43.66-.79.79q-.69.62-1.08 1.16t-.55 1.04q-.16.51-.16 1.04 0 1.03.55 1.59t1.58.56q.89 0 1.51-.49.62-.48.62-1.42h1.83l.03.06q.02 1.05-.49 1.83t-1.42 1.21-2.08.43q-1.92 0-2.99-.98-1.06-.99-1.06-2.74 0-.84.27-1.53.28-.69.84-1.38.57-.69 1.4-1.54.35-.35.5-.64.16-.28.2-.66.04-.37.04-.95Zm.02-4.01v2.04h-2v-2.04Zm6.45 6.58q0-.72.05-1.18.04-.45.19-.79.14-.33.43-.66t.79-.78q.7-.63 1.08-1.16.39-.54.55-1.05t.16-1.03q0-1.04-.55-1.6-.55-.55-1.58-.55-.89 0-1.51.48t-.62 1.42h-1.83l-.03-.06q-.02-1.05.49-1.83.51-.77 1.42-1.2t2.08-.43q1.92 0 2.99.98 1.06.98 1.06 2.74 0 .84-.28 1.53-.27.68-.83 1.37t-1.4 1.54q-.34.35-.5.64t-.2.65q-.04.37-.04.97Zm-.02 4v-2.03h2v2.03Z"/>
    <circle cx="146.4" cy="210.3" r="2.6" fill="#BA3033"/>
    <path fill="#220E0A" d="M149.664 226.3q0-.71.05-1.17t.19-.79.43-.66.79-.79q.69-.62 1.08-1.16t.55-1.04q.16-.51.16-1.04 0-1.03-.55-1.59t-1.58-.56q-.89 0-1.51.49-.62.48-.62 1.42h-1.83l-.03-.06q-.02-1.05.49-1.83t1.42-1.21 2.08-.43q1.92 0 2.99.98 1.06.99 1.06 2.74 0 .84-.27 1.53-.28.69-.84 1.38-.57.69-1.4 1.54-.35.35-.5.64-.16.28-.2.66-.04.37-.04.95Zm-.02 4.01v-2.04h2v2.04Zm-6.45-6.58q0 .72-.05 1.18-.04.45-.19.79-.14.33-.43.66t-.79.78q-.7.63-1.08 1.16-.39.54-.55 1.05t-.16 1.03q0 1.04.55 1.6.55.55 1.58.55.89 0 1.51-.48t.62-1.42h1.83l.03.06q.02 1.05-.49 1.83-.51.77-1.42 1.2t-2.08.43q-1.92 0-2.99-.98-1.06-.98-1.06-2.74 0-.84.28-1.53.27-.68.83-1.37t1.4-1.54q.34-.35.5-.64t.2-.65q.04-.37.04-.97Zm.02-4v2.03h-2v-2.03Z"/>
    <g fill="#220E0A">
        <path d="m93.3 106.2 2.8 1.7-3.2-.5zm-6.5 12.4 2.7 1.8-3.2-.5z"/>
        <path d="m65.2 98.6 1.7 33.9 8.1 2.3s1.8-7.3 3.7-11.1c2-4 7.3-3.6 8.1-3.7l.5-1c-2.3-3.4-1.3-8.1 2.1-10.3 1.1-.8 2.4-1.2 3.7-1.2l.5-1.1q-.6-.6-1.2-1.5c-2.9-4.4-1.7-10.3 2.7-13.2 1.1-.7 3.3-1.6 5-2.2l-.1-.3zm34.8-9.5.1.3c1.4-.5 2.5-.9 2.5-.9z"/>
    </g>
    <path fill="#220E0A" d="m51.3 108.2-4-.2 2.8 1.6zm2.8-2.1-4-.2 2.8 1.6zm2.5-1.6-4-.2 2.8 1.6zm18.7 71.9.2 16.4h1.8l7.2-13.9z"/>
    <path fill="#220E0A" d="M77.2 192.9s-.4-1.2-.9-1.5c-1.9-1.1-4.3-.6-5.4 1.3l-.3.6c.8-.5 1.7-.9 2.7-1-.6.3-1.2.8-1.5 1.4l-.3.6c.9-.6 2-.9 3.1-1.1-.7.3-1.3.8-1.7 1.5l-.3.6c2-1.3 4.6-2.4 4.6-2.4m-41.3-33.1.5 29.4h3.1l13.1-24.9z"/>
    <path fill="#220E0A" d="M39.4 189.4s-.7-2.2-1.6-2.8c-3.3-2.1-7.7-1-9.8 2.3-.2.3-.4.7-.5 1 1.5-.9 3.1-1.5 4.8-1.9-1.1.6-2.1 1.4-2.8 2.6-.2.3-.4.7-.5 1 1.7-1 3.6-1.7 5.5-2-1.2.6-2.3 1.5-3.1 2.7-.2.3-.4.7-.5 1 3.8-2 8.5-3.9 8.5-3.9m80 30-.3 4-1.2-3zm2.5-2.4-.3 3.9-1.2-3zm2-2.3-.4 4-1.1-3zM86.3 39.2c-1.2 3.6-2.5 6.6-4.8 9.7-5.1 6.5-12.4 12.2-15.1 20.6 1.3.7 3 1.6 4.2 2.3 2.6-9 7.9-14.4 12.2-22.5 1.5-2.9 3-7.1 3.5-10.1"/>
    <path fill="#912221" d="M73.7 142.1c0-20.4 8.4-39.6 10.8-47.8 2-6.9 3.7-19.8-.3-24.9-4.1-5.1-30.4 9.6-27.6 9.6 0 0 10.6.7 10.6 8.5s-7.5 13.5-11.9 17.4c-4 3.5-26.7 18.9-26.7 36.6 0 52.9 89.8 44.1 89.8 67.4 0 13.3-20.1 18.1-20.1 18.1s28.3-1.5 28.3-20.7c-.2-29.3-52.9-41.2-52.9-64.2"/>
    <path fill="#912221" d="M84.5 69.3c-3.5-5.5-11.4-6.8-17.7-2.9-3.7 2.3-18.1 14.7-16.6 22.1l10.9-3.9c1.5-.5 3.2.2 3.7 1.7s-.2 3.2-1.7 3.7l-7.6 2.7c7.6 1.2 20.9-4.4 24-6.3 6.2-3.9 8.5-11.6 5-17.1"/>
    <g fill="#FFF">
        <path d="m51.1 88.2 1.3-.5zm2.3-.8-1 .3-1.3.5 1 3z"/>
        <path d="m54 90.5 1.2-3.8-2.3.9z"/>
        <path d="m55.8 89.9 1.2-3.8-2.3.8z"/>
        <path d="m57.6 89.2 1.2-3.8-2.3.9z"/>
        <path d="m59.4 88.6 1.2-3.8-2.3.8z"/>
    </g>
    <ellipse cx="54" cy="82.5" fill="#220E0A" rx=".7" ry="1.6" transform="rotate(37.749 54.002 82.535)"/>
    <ellipse cx="57.4" cy="81.9" fill="#220E0A" rx=".7" ry="1.6" transform="rotate(37.749 57.41 81.854)"/>
    <path fill="#220E0A" d="M98 41.5c-1.2 3.6-2.5 6.6-4.8 9.7-5.1 6.5-12.4 12.2-15.1 20.6.4.6 1.2 1.3 1.9 1.7.8.4 1.6.5 2.4.6 2.6-9 7.9-14.4 12.2-22.5 1.4-2.9 2.9-7.1 3.4-10.1"/>
    <path fill="#FFF" d="M66.7 76.4c1.5.3 3.2 0 4.6-1s2.3-2.4 2.6-3.9c-1.5-.3-3.2 0-4.6 1-1.4.9-2.3 2.3-2.6 3.9"/>
    <path fill="#E37D4C" d="M69.6 74.3c.4.5 1 .9 1.6.9q.3-.9-.3-1.8c-.4-.5-1-.9-1.6-.9-.1.6 0 1.3.3 1.8"/>
    <path fill="#220E0A" d="M70 73.3c1.6-1 3.5-1.3 5.2-1.1-1.7-1.4-4.1-1.6-6.1-.4s-2.9 3.5-2.4 5.6c.5-1.6 1.7-3.1 3.3-4.1m3.2-7.2 4.3-5.4-1.2 5.4zm4.4-.1 2.5-3.1-.7 3.1z"/>
    <circle cx="54.7" cy="167.6" r="8.9" fill="#220E0A"/>
    <path fill="#220E0A" d="m45.8 167.6.5 29.5h3.1l13.1-25z"/>
    <path fill="#220E0A" d="M49.3 197.2s-.7-2.2-1.6-2.8c-3.3-2.1-7.7-1-9.8 2.3-.2.3-.4.7-.5 1 1.5-.9 3.1-1.5 4.8-1.9-1.1.6-2.1 1.4-2.8 2.6-.2.3-.4.7-.5 1 1.7-1 3.6-1.7 5.5-2-1.2.6-2.3 1.5-3.1 2.7-.2.3-.4.7-.5 1 3.8-2 8.5-3.9 8.5-3.9"/>
    <circle cx="89.1" cy="182.9" r="5" fill="#220E0A"/>
    <path fill="#220E0A" d="m84.1 182.9.3 16.4h1.7l7.3-13.9z"/>
    <path fill="#220E0A" d="M86.1 199.4s-.4-1.2-.9-1.5c-1.9-1.1-4.3-.6-5.4 1.3l-.3.6c.8-.5 1.7-.9 2.7-1-.6.3-1.2.8-1.5 1.4l-.3.6c.9-.6 2-.9 3.1-1.1-.7.3-1.3.8-1.7 1.5l-.3.6c1.9-1.3 4.6-2.4 4.6-2.4m37.1-41.9-1.4 5.3-.8-5.4zm-23.4-4-1.5 5.2-.9-5.4z"/>
    <path fill="#912221" d="m117.2 97.3-50.1 31.2.4 14.2s12.7-.9 19.7.2c7.4 1.1 9.6 9.9 10.2 11.1l1.9.3c4.4-5.4 12.3-6.3 17.7-2 1.8 1.4 3.1 3.3 3.9 5.3l2 .3q.75-1.35 1.8-2.7c5.6-7 15.7-8.1 22.7-2.5 1.8 1.4 4.3 4.4 6.2 6.8l.4-.3z"/>
    <path fill="#220E0A" d="m154.1 159.3-.4.3c1.6 2 2.7 3.6 2.7 3.6z"/>
    <path fill="#220E0A" d="m145.2 40.8-6.9-10.7-9.1 6 5.5-7.9-8.7-5.9-.5-.4s.2.2.5.4c.3.3.7.7.9 1 .7 1.1.5 2.5-.6 3.3-.1.1-.3.2-.4.2l-.7.1.7.2c.3.1.5.3.7.6.6.8.4 2-.4 2.6l-.6.1.7.2c.2.1 1.4.5 1.5 1.6.1.6 0 1.6-.1 2.3-1.9-2.3-4-4.8-5.2-6.9l-1.4-2.8-.5.7-1-3.8.6 4.5-.3.4-1-3.7.5 4.4-2.5 3.7 5.3-2.8c.3 2.7 1.4 5.3 2.7 7.5l-.4 2.1.6.6-.2-.8.4-1.1c.1.2.3.4.4.6l-.5 2.3.6.5-.2-.7.6-1.4c.6.9 1.2 1.6 1.7 2.3l-1.5 1.6 1 2.2-1.3 1.1 2.1-.8-.5-2.4 1.1-.7c.3.4.6.6.8.9l-1.2 1.6 1.6 2.7-1.5 1.5 2.5-1.2-.9-2.9.6-.5c3.9 3.6 7.6 8 10.3 13.2 0 0-2-9.5-8.6-16.5 0 0-.5-.6-1.4-1.4.7 0 1.5-.1 2.1 0 1.3.1 1.8 1.7 1.9 1.9l.2.8.2-.8c.7-1 2.1-1.2 3.1-.5.3.2.6.6.7.9l.2.9.2-.8c.1-.2.2-.3.3-.5.9-1.3 2.7-1.5 4-.6.4.1.9.6 1.3 1 .2.4.4.7.4.7zm-105 24.3-1.1-2.7.9-2.7-1.1 2.2-.1-.3 1-2.7-1.2 2.2-.2-.5-1.3 1.5c-1 1.1-2.7 2.5-4.2 3.6 0-.4.1-1 .3-1.4.2-.7 1-.7 1.2-.8h.4l-.4-.2c-.4-.5-.4-1.2.1-1.7.2-.1.3-.2.5-.3h.5l-.4-.2c-.1-.1-.2-.1-.2-.2-.6-.6-.5-1.6.1-2.1.2-.1.5-.3.7-.5l.4-.2-.4.2-6.3 2.7 2.4 5.7-4.9-5-5.8 5.7-.4.4s.2-.1.4-.3c.3-.2.6-.5.9-.6.9-.4 2 0 2.4.9.1.1.1.2.1.3v.5l.2-.5c.1-.2.3-.4.6-.5.7-.3 1.6 0 1.9.7v.5l.2-.5c.1-.1.6-1 1.4-.9.4 0 .9.2 1.3.3-.6.4-1.1.7-1.1.7-5.1 3.5-7.6 9.2-7.6 9.2 2.4-2.9 5.3-5.1 8.3-6.9l.3.4-1 1.7 1.4 1.1-.7-1.1 1.3-1.5-.5-1.1c.2-.1.4-.2.6-.4l.6.6-.6 1.4 1.2.8-.7-.8.9-1.3-.5-1.2c.4-.3.9-.7 1.4-1.2l.2 1-.2.4.4-.2v-1.5l.3-.3.1.8-.2.3.5-.3V67c1.1-1.2 2.2-2.7 2.7-4.3z" opacity=".3"/>
</svg>
