<svg xmlns="http://www.w3.org/2000/svg" xml:space="preserve" viewBox="0 0 167.2 249.4">
    <path fill="#F8ABAA" d="M-5.7-5.7h178.6v260.8H-5.7z"/>
    <circle cx="20.8" cy="39.2" r="2.6" fill="#BA3033"/>
    <path d="M16.27 29.717v-1.32l4.66-5.17q.84-.94 1.3-1.6.46-.65.65-1.19.18-.54.18-1.11 0-1.07-.64-1.79-.64-.73-1.85-.73-1.25 0-1.94.75-.7.75-.7 2.13h-1.85l-.02-.06q-.03-1.23.52-2.21t1.59-1.55 2.47-.57q1.35 0 2.32.51t1.5 1.4.53 2.04q0 .78-.31 1.55-.31.78-.89 1.59-.59.81-1.43 1.7l-3.74 4.08.02.05h5.05l.16-1.63h1.63v3.13Z"/>
    <circle cx="146.4" cy="210.3" r="2.6" fill="#BA3033"/>
    <path d="M150.974 219.732v1.32l-4.66 5.17q-.84.94-1.3 1.6-.46.65-.65 1.19-.18.54-.18 1.11 0 1.07.64 1.79.64.73 1.85.73 1.25 0 1.94-.75.7-.75.7-2.13h1.85l.02.06q.03 1.23-.52 2.21t-1.59 1.55-2.47.57q-1.35 0-2.32-.51t-1.5-1.4-.53-2.04q0-.78.31-1.55.31-.78.89-1.59.59-.81 1.43-1.7l3.74-4.08-.02-.05h-5.05l-.16 1.63h-1.63v-3.13Z"/>
    <path fill="#F0649B" d="M143.4 169.2 25.5 202v-67l52.2-54.7 65.7 21.9z"/>
    <path fill="#FDEFDB" d="M143.4 169.2 25.5 202v-67l117.9-32.8z"/>
    <path fill="#F5D0C0" d="M143.4 169.2 25.5 202v-5.2L143.4 164z"/>
    <path fill="#E5CCAD" d="M134.5 154.9c-5.6 1.6-5.1 3.3-10.7 4.9s-6.1-.2-11.7 1.3c-5.6 1.6-5.1 3.3-10.7 4.9s-6.1-.2-11.7 1.3c-5.6 1.6-5.1 3.3-10.7 4.9s-6.1-.2-11.7 1.3c-5.6 1.6-5.1 3.3-10.7 4.9s-6.1-.2-11.7 1.3c-5.6 1.6-5.1 3.3-10.7 4.9-4.5 1.3-5.7.4-8.9.8V202l117.9-32.8v-15.1c-3 .5-4.2-.5-8.7.8"/>
    <path fill="#E5CCAD" d="M137.5 127.7c-6.8 1.9-4.7 9.1-11.5 11s-8.8-5.3-15.5-3.5c-6.8 1.9-4.7 9.1-11.5 11s-8.8-5.3-15.5-3.5c-6.8 1.9-4.7 9.1-11.5 11s-8.8-5.3-15.5-3.5c-6.8 1.9-4.7 9.1-11.5 11s-8.8-5.3-15.5-3.4c-1.8.5-3 1.5-3.9 2.6v14.1c3.2-.4 4.4.5 8.9-.7 5.6-1.6 5.1-3.3 10.7-4.9s6.1.2 11.7-1.3c5.6-1.6 5.1-3.3 10.7-4.9s6.1.2 11.7-1.3c5.6-1.6 5.1-3.3 10.7-4.9s6.1.2 11.7-1.3c5.6-1.6 5.1-3.3 10.7-4.9s6.1.2 11.7-1.3c5.6-1.6 5.1-3.3 10.7-4.9 4.5-1.3 5.7-.4 8.9-.8v-14.7c-2-1-3.8-1.6-6.2-.9" opacity=".5"/>
    <path d="M40.5 193v-5.3l46.4-53.5c8.8-10.2 15.2-19 19.3-26.4s6.1-14.2 6.1-20.5c0-10.3-2.9-18.3-8.6-24.1s-14-8.7-25-8.7c-11.6 0-20.6 3.4-26.9 10.2-6.4 6.8-9.5 15.6-9.5 26.4h-4.5l-.2-.6c-.3-11.5 3.3-21.2 10.8-29.3 7.6-8 17.6-12.1 30.3-12.1 11.7 0 21.1 3.3 28.2 10 7.1 6.6 10.6 16 10.6 28.1 0 7.8-2.5 15.8-7.6 24s-12.3 17.7-21.5 28.5l-40.5 47.4.2.5H120v-23.2h5.3V193z"/>
    <path fill="#7F6CB1" d="M84.6 109.3c-.6.1-1.2-.3-1.3-1l-.4-2.9c-.1-.6.3-1.2 1-1.3.6-.1 1.2.3 1.3 1l.4 2.9c.1.6-.3 1.2-1 1.3"/>
    <path fill="#F0A88F" d="M72.2 93.7c0-.6.5-1.2 1.1-1.2l3-.1c.6 0 1.2.5 1.2 1.1s-.5 1.2-1.1 1.2l-3 .1c-.6 0-1.1-.5-1.2-1.1m46.1 6.6c-.3-.6 0-1.3.6-1.5l2.7-1.2c.6-.3 1.3 0 1.5.6.3.6 0 1.3-.6 1.5l-2.7 1.2c-.5.2-1.2 0-1.5-.6"/>
    <path fill="#D5DFF2" d="M71.3 116.9c0-.6.6-1.2 1.2-1.1l3 .1c.6 0 1.2.6 1.1 1.2 0 .6-.6 1.2-1.2 1.1l-3-.1c-.6 0-1.1-.5-1.1-1.2"/>
    <path fill="#EBB5BB" d="M41.4 125.1c-.2-.6.2-1.3.9-1.4l2.9-.7c.6-.2 1.3.2 1.4.9.2.6-.2 1.3-.9 1.4l-2.9.7c-.6.1-1.2-.3-1.4-.9"/>
    <path fill="#7F6CB1" d="M57.8 122.4c-.4-.5-.3-1.2.2-1.6l2.3-1.8c.5-.4 1.2-.3 1.6.2s.3 1.2-.2 1.6l-2.3 1.8c-.4.4-1.2.3-1.6-.2"/>
    <path fill="#DB3B7F" d="M51.3 114c-.4-.5-.3-1.2.2-1.6l2.3-1.8c.5-.4 1.2-.3 1.6.2s.3 1.2-.2 1.6l-2.3 1.8c-.5.3-1.2.3-1.6-.2"/>
    <path fill="#EBB5BB" d="M67.9 104c-.3.6-.9.9-1.5.6l-2.7-1.2c-.6-.3-.9-.9-.6-1.5s.9-.9 1.5-.6l2.7 1.2c.6.2.9.9.6 1.5"/>
    <path fill="#F4F0D4" d="M85 96.1c-.6.2-1.3-.2-1.4-.8l-.8-2.8c-.2-.6.2-1.3.8-1.4.6-.2 1.3.2 1.4.8l.8 2.8c.1.6-.2 1.3-.8 1.4"/>
    <path fill="#7F6CB1" d="M100.4 103.5c-.1-.6.3-1.3.9-1.4l2.9-.6c.6-.1 1.3.3 1.4.9s-.3 1.3-.9 1.4l-2.9.6c-.7.1-1.3-.3-1.4-.9"/>
    <path fill="#91C6E6" d="M91 93.5c0-.6.6-1.2 1.2-1.1l3 .1c.6 0 1.2.6 1.1 1.2 0 .6-.6 1.2-1.2 1.1l-3-.1c-.7 0-1.2-.6-1.1-1.2"/>
    <path fill="#D1394A" d="M110.7 103.2c7.6-7.5 7.6-19.8 0-27.4-7.5-7.6-19.8-7.6-27.4 0-9.3 9.3-10.3 29-6 33.3 4.3 4.2 24.8 2.6 33.4-5.9"/>
    <ellipse cx="99.4" cy="86.6" fill="#DEDAC6" rx=".4" ry="1.6" transform="rotate(45.085 99.443 86.622)"/>
    <ellipse cx="99.4" cy="103" fill="#DEDAC6" rx=".4" ry="1.6" transform="rotate(68.068 99.428 103.04)"/>
    <ellipse cx="107.6" cy="94.8" fill="#DEDAC6" rx=".4" ry="1.6" transform="rotate(34.055 107.647 94.858)"/>
    <ellipse cx="83" cy="88.2" fill="#DEDAC6" rx=".4" ry="1.6" transform="rotate(31.889 83.041 88.247)"/>
    <ellipse cx="82.2" cy="82.5" fill="#DEDAC6" rx=".4" ry="1.6" transform="rotate(31.889 82.23 82.504)"/>
    <ellipse cx="90.4" cy="100.6" fill="#DEDAC6" rx=".4" ry="1.6" transform="rotate(-108.482 90.404 100.562)"/>
    <ellipse cx="99.4" cy="94.8" fill="#DEDAC6" rx=".4" ry="1.6" transform="rotate(-124.736 99.438 94.83)"/>
    <ellipse cx="93.7" cy="107.1" fill="#DEDAC6" rx=".4" ry="1.6" transform="rotate(-124.736 93.678 107.125)"/>
    <ellipse cx="92.1" cy="92.4" fill="#DEDAC6" rx=".4" ry="1.6" transform="rotate(-134.915 92.053 92.353)"/>
    <ellipse cx="80.6" cy="103.8" fill="#DEDAC6" rx=".4" ry="1.6" transform="rotate(-149.418 80.555 103.826)"/>
    <ellipse cx="85.5" cy="107.1" fill="#DEDAC6" rx=".4" ry="1.6" transform="rotate(-103.033 85.476 107.12)"/>
    <ellipse cx="106.8" cy="85.8" fill="#DEDAC6" rx=".4" ry="1.6" transform="rotate(-155.488 106.83 85.815)"/>
    <ellipse cx="97" cy="79.2" fill="#DEDAC6" rx=".4" ry="1.6" transform="rotate(-116.1 96.997 79.243)"/>
    <ellipse cx="94.5" cy="75.1" fill="#DEDAC6" rx=".4" ry="1.6" transform="rotate(-116.1 94.543 75.138)"/>
    <ellipse cx="87.1" cy="77.5" fill="#DEDAC6" rx=".4" ry="1.6" transform="rotate(-148.908 87.065 77.492)"/>
    <ellipse cx="90.4" cy="84.2" fill="#DEDAC6" rx=".4" ry="1.6" transform="rotate(-128.382 90.43 84.154)"/>
    <ellipse cx="83.9" cy="94" fill="#DEDAC6" rx=".4" ry="1.6" transform="rotate(-147.352 83.851 93.988)"/>
    <ellipse cx="78.1" cy="96.4" fill="#DEDAC6" rx=".4" ry="1.6" transform="rotate(-164.128 78.103 96.437)"/>
    <ellipse cx="106.8" cy="100.6" fill="#DEDAC6" rx=".4" ry="1.6" transform="rotate(-134.915 106.805 100.577)"/>
    <path fill="#94A979" d="M117.7 76.7c-1.2-.1-2.4-.1-3.5 0 1.1-.7 2.2-1.5 3.2-2.5 3-2.9 4.8-6.7 5.3-10.5-3.9.4-7.7 2.1-10.7 5-.8.8-1.6 1.7-2.2 2.6.1-1 .2-1.9.1-2.9-.2-4.2-1.8-8-4.3-11-2.3 3.2-3.6 7.1-3.4 11.3.2 4 1.7 7.7 4 10.6 0 0 .3.4.3.3 2.8 2.5 6.3 4.2 10.3 4.7 4.2.4 8.2-.6 11.5-2.7-2.7-2.6-6.4-4.5-10.6-4.9"/>
    <g fill="#F0649B">
        <circle cx="75.9" cy="108.5" r="5.4"/>
        <circle cx="84.9" cy="110.4" r="5.4"/>
        <circle cx="94.4" cy="110.4" r="5.4"/>
        <circle cx="103" cy="108.5" r="5.4"/>
    </g>
    <path fill="#F0649B" d="M31.4 146.6c6.8-1.9 4.7-9.1 11.5-11s8.8 5.3 15.5 3.5c6.8-1.9 4.7-9.1 11.5-11s8.8 5.3 15.5 3.5c6.8-1.9 4.7-9.1 11.5-11s8.8 5.3 15.5 3.5c6.8-1.9 4.7-9.1 11.5-11s8.8 5.3 15.5 3.4c1.8-.5 3-1.5 3.9-2.6v-11.7L25.5 135v10.8c1.7.9 3.5 1.4 5.9.8"/>
    <g fill="#F0649B">
        <circle cx="30.7" cy="135.5" r="2.5"/>
        <circle cx="33.2" cy="133.7" r="1.8"/>
        <circle cx="36" cy="133.6" r="1.8"/>
        <circle cx="39.1" cy="132.2" r="2.4"/>
        <circle cx="42.7" cy="131" r="2.4"/>
        <circle cx="46.3" cy="130.5" r="2.4"/>
        <circle cx="50.5" cy="128.5" r="3.2"/>
        <circle cx="54.7" cy="125.8" r="3.2"/>
        <circle cx="59.6" cy="126.3" r="3.2"/>
        <circle cx="64.1" cy="123.8" r="2.6"/>
        <circle cx="68.3" cy="123.3" r="2.6"/>
        <circle cx="71.7" cy="122.4" r="2.6"/>
        <circle cx="75.5" cy="121" r="2.1"/>
        <circle cx="79.1" cy="120.4" r="2.1"/>
        <circle cx="82.4" cy="119.3" r="2.1"/>
        <circle cx="86.4" cy="119.1" r="2.8"/>
        <circle cx="93" cy="117.2" r="2.8"/>
        <circle cx="96.7" cy="115.8" r="2.8"/>
        <circle cx="100.8" cy="114.7" r="2.8"/>
        <circle cx="104.7" cy="113.3" r="2.8"/>
        <circle cx="108.6" cy="112.4" r="2.8"/>
        <circle cx="111.4" cy="110.5" r="3.7"/>
        <circle cx="116.4" cy="110.7" r="2.8"/>
        <ellipse cx="120.1" cy="108.8" rx="2" ry="2.1"/>
        <ellipse cx="122.9" cy="108.3" rx="2.1" ry="2.3"/>
        <ellipse cx="126" cy="107.4" rx="2.1" ry="2.3"/>
        <ellipse cx="129.3" cy="106.5" rx="2.1" ry="2.3"/>
        <ellipse cx="132.4" cy="106" rx="2.1" ry="2.3"/>
        <ellipse cx="136.2" cy="104.8" rx="2.1" ry="2.3"/>
        <ellipse cx="139.9" cy="104.9" rx="2.7" ry="2.9"/>
        <circle cx="89.4" cy="117.6" r="1.7"/>
    </g>
    <path fill="#7F6CB1" d="M70.5 111.1c-.6-.2-1-.8-.8-1.4l.7-2.9c.2-.6.8-1 1.4-.8s1 .8.8 1.4l-.7 2.9c-.2.6-.8 1-1.4.8m27.6 1.9c-.4-.5-.3-1.2.2-1.6l2.3-1.8c.5-.4 1.2-.3 1.6.2s.3 1.2-.2 1.6l-2.3 1.8c-.5.4-1.2.3-1.6-.2"/>
    <path fill="#D5DFF2" d="M81.9 109.2c.3-.6 1-.8 1.6-.5l2.6 1.4c.6.3.8 1 .5 1.6s-1 .8-1.6.5l-2.6-1.4c-.6-.3-.8-1-.5-1.6"/>
    <path fill="#E5CCAD" d="M34.4 183.1c5.6-1.6 5.1-3.3 10.7-4.9s6.1.2 11.7-1.3c5.6-1.6 5.1-3.3 10.7-4.9s6.1.2 11.7-1.3c5.6-1.6 5.1-3.3 10.7-4.9s6.1.2 11.7-1.3c5.6-1.6 5.1-3.3 10.7-4.9s6.1.2 11.7-1.3c5.6-1.6 5.1-3.3 10.7-4.9 4.5-1.3 5.7-.4 8.9-.8v-7.8c-3.2.4-4.4-.5-8.9.7-5.6 1.6-5.1 3.3-10.7 4.9s-6.1-.2-11.7 1.3c-5.6 1.6-5.1 3.3-10.7 4.9s-6.1-.2-11.7 1.3c-5.6 1.6-5.1 3.3-10.7 4.9s-6.1-.2-11.7 1.3c-5.6 1.6-5.1 3.3-10.7 4.9s-6.1-.2-11.7 1.3c-5.6 1.6-5.1 3.3-10.7 4.9-4.5 1.3-5.7.4-8.9.8v7.8c3.2-.4 4.4.6 8.9-.7m89.4-21.5c-5.6 1.6-6.1-.2-11.7 1.3-5.6 1.6 1.2 14.6 1.2 14.6l12.2-3.4c0 .1 3.9-14-1.7-12.5"/>
    <ellipse cx="41.5" cy="191" fill="#E5CCAD" rx="3.7" ry="4.4"/>
    <path fill="#D5DFF2" d="M128.5 103.1c.2-.6.8-1 1.5-.8l2.8.8c.6.2 1 .8.8 1.5-.2.6-.8 1-1.5.8l-2.8-.8c-.6-.2-1-.8-.8-1.5"/>
    <circle cx="36" cy="180" r=".6" fill="#573B2E"/>
    <circle cx="45.4" cy="173.4" r=".6" fill="#573B2E"/>
    <circle cx="76.3" cy="168.8" r=".6" fill="#573B2E"/>
    <circle cx="82.9" cy="163.1" r=".6" fill="#573B2E"/>
    <circle cx="101.6" cy="162.2" r=".6" fill="#573B2E"/>
    <circle cx="92.2" cy="163.1" r=".6" fill="#573B2E"/>
    <circle cx="120.3" cy="153.8" r=".6" fill="#573B2E"/>
    <circle cx="112.8" cy="154.7" r=".6" fill="#573B2E"/>
    <circle cx="107.2" cy="158.5" r=".6" fill="#573B2E"/>
    <circle cx="97.8" cy="160.3" r=".6" fill="#573B2E"/>
    <circle cx="80" cy="166.7" r=".6" fill="#573B2E"/>
    <circle cx="69.8" cy="169.6" r=".6" fill="#573B2E"/>
    <circle cx="60.4" cy="169.8" r=".6" fill="#573B2E"/>
    <circle cx="55.8" cy="174.5" r=".6" fill="#573B2E"/>
    <circle cx="116.6" cy="156.6" r=".6" fill="#573B2E"/>
    <circle cx="139" cy="148.2" r=".6" fill="#573B2E"/>
    <circle cx="128.7" cy="151.9" r=".6" fill="#573B2E"/>
    <circle cx="70.7" cy="166" r=".6" fill="#573B2E"/>
    <circle cx="51.9" cy="172.5" r=".6" fill="#573B2E"/>
    <circle cx="32.3" cy="178.1" r=".6" fill="#573B2E"/>
</svg>
