<?xml version="1.0" encoding="utf-8"?>
<!-- Generator: Adobe Illustrator 18.1.1, SVG Export Plug-In . SVG Version: 6.00 Build 0)  -->
<!DOCTYPE svg PUBLIC "-//W3C//DTD SVG 1.1//EN" "http://www.w3.org/Graphics/SVG/1.1/DTD/svg11.dtd">
<svg version="1.1" id="Layer_1" xmlns="http://www.w3.org/2000/svg" xmlns:xlink="http://www.w3.org/1999/xlink" x="0px" y="0px"
	 viewBox="0 0 167.2 249.4" enable-background="new 0 0 167.2 249.4" xml:space="preserve">
<rect x="-5.7" y="-5.7" fill="#F5E6B5" width="178.6" height="260.8"/>
<circle fill="#BA3033" cx="20.8" cy="39.2" r="2.6"/>
<g>
	<text transform="matrix(1 0 0 1 13.2251 28.6087)" font-family="'RobotoSlab-Regular'" font-size="16">13</text>
</g>
<circle fill="#BA3033" cx="146.4" cy="210.3" r="2.6"/>
<g>
	<text transform="matrix(-1 0 0 -1 154.0334 220.8431)" font-family="'RobotoSlab-Regular'" font-size="16">13</text>
</g>
<path fill="#D9C8C1" d="M98.4,186.9c-0.4-10-6.7-14.8-12.3-19c-5-3.8-9.3-7-9.6-13.8c-0.3-6.8,2.9-10.8,7.5-14.9
	c5.2-4.6,10.4-8.5,10-18.5c-0.1-1.9,0-4.2-1.8-4.2c-1.9,0.1-1.9,2.2-1.8,4c0.3,6.8-5.3,9.8-10,14c-5.2,4.6-11.2,9.9-10.8,19.9
	c0.4,10,6.7,14.8,12.3,19c0.9,0.7,1.7,1.3,2.5,1.9l0,0c0,0,8.9,8.1,4,17.4c-1.5,2.9-6.6,5.9-7.6,6.8c-5.2,4.6,2.1,11.4,6.8,7.3
	C92.8,202.2,98.8,196.9,98.4,186.9z"/>
<text transform="matrix(1 0 0 1 29.7445 170.3316)" font-family="'RobotoSlab-Thin'" font-size="115">13</text>
<path fill="#D9C8C1" d="M121.8,223.7c0-20.8-16.8-37.8-37.7-37.8c-20.8,0-37.8,16.8-37.8,37.7c0,25.6,25.9,54.2,37.7,54.2
	S121.8,247.3,121.8,223.7z"/>
<g>
	<polygon fill="#D18C52" points="103.9,75.6 62.7,75.6 57.1,-27.6 109.4,-27.6 	"/>
	<g>
		<circle fill="#D18C52" cx="63.9" cy="77.5" r="11.6"/>
		<circle fill="#D18C52" cx="83.6" cy="77.5" r="11.6"/>
		<circle fill="#D18C52" cx="102.6" cy="77.5" r="11.6"/>
	</g>
	<polygon fill="#522B10" points="65.7,97.7 67,84.3 60.4,85.3 	"/>
	<polygon fill="#522B10" points="82.7,97.8 86,84.7 79.3,84.7 	"/>
	<polygon fill="#522B10" points="100.5,97.7 105.8,85.3 99.1,84.3 	"/>
	<circle fill="#D18C52" cx="62.9" cy="81.1" r="4.7"/>
	<circle fill="#D18C52" cx="82.6" cy="81.1" r="4.7"/>
	<circle fill="#D18C52" cx="103" cy="81.1" r="4.7"/>
	<polygon fill="#D55627" points="59.5,15.8 59.7,20.7 92.3,15.8 	"/>
	<polygon fill="#D55627" points="58.9,4.8 59,7.3 75.6,4.8 	"/>
	<polygon fill="#C96928" points="90.9,31.1 106.3,31.1 106.4,28.4 	"/>
	<path fill="#D18C52" d="M104.7,61.3c0,1.8,0.6,3.8,3.9,6.3c3.2,2.5-6.4,3.9-6.4,3.9l-1.9-7.5C100.2,63.9,104.7,59.5,104.7,61.3z"/>
	<path fill="#D18C52" d="M61.8,60.5c0.1,2.8-1.4,5.7-3.5,6.8c-2.1,1,5.2,4.3,5.2,4.3L68.8,61L61.8,60.5z"/>
</g>
<g>
	<defs>
		<path id="SVGID_3_" d="M98.4,186.9c-0.4-10-6.7-14.8-12.3-19c-5-3.8-9.3-7-9.6-13.8c-0.3-6.8,2.9-10.8,7.5-14.9
			c5.2-4.6,10.4-8.5,10-18.5c-0.1-1.9,0-4.2-1.8-4.2c-1.9,0.1-1.9,2.2-1.8,4c0.3,6.8-5.3,9.8-10,14c-5.2,4.6-11.2,9.9-10.8,19.9
			c0.4,10,6.7,14.8,12.3,19c0.9,0.7,1.7,1.3,2.5,1.9l0,0c0,0,8.9,8.1,4,17.4c-1.5,2.9-6.6,5.9-7.6,6.8c-5.2,4.6,2.1,11.4,6.8,7.3
			C92.8,202.2,98.8,196.9,98.4,186.9z"/>
	</defs>
	<clipPath id="SVGID_2_">
		<use xlink:href="#SVGID_3_"  overflow="visible"/>
	</clipPath>
	<g opacity="8.000000e-02" clip-path="url(#SVGID_2_)">
		<polygon points="90.5,125.1 89.3,123.8 87.9,125 86.7,123.6 85.4,124.8 84.2,123.5 82.8,124.7 81.6,123.3 80.2,124.5 79,123.2 
			77.7,124.4 76.5,123 75.1,124.2 73.9,122.9 72.1,124.5 74.7,124.6 75.5,124.7 77.2,124.8 78.1,124.8 79.8,124.9 80.6,125 
			82.4,125.1 83.2,125.1 84.9,125.2 85.8,125.3 87.5,125.4 88.3,125.4 90,125.5 90.9,125.6 93.4,125.7 91.8,123.9 		"/>
		<polygon points="93.6,115 92.4,113.7 91.1,114.9 89.9,113.5 88.5,114.7 87.3,113.4 86,114.6 84.7,113.2 83.4,114.4 82.2,113.1 
			80.8,114.3 79.6,112.9 78.3,114.1 77.1,112.8 75.3,114.4 77.8,114.5 78.7,114.6 80.4,114.7 81.2,114.7 82.9,114.8 83.8,114.9 
			85.5,115 86.4,115 88.1,115.1 88.9,115.2 90.6,115.3 91.5,115.3 93.2,115.4 94,115.5 96.6,115.6 95,113.8 		"/>
		<polygon points="87.4,141.6 86,142.8 84.8,141.5 83.5,142.7 82.3,141.3 80.9,142.5 79.7,141.2 78.4,142.4 77.2,141 75.8,142.2 
			74.6,140.9 73.2,142.1 72,140.7 70.2,142.4 72.8,142.5 73.6,142.6 75.3,142.6 76.2,142.7 77.9,142.8 78.8,142.8 80.5,142.9 
			81.3,143 83,143.1 83.9,143.1 85.6,143.2 86.4,143.3 88.1,143.4 89,143.4 91.6,143.6 90,141.8 88.6,143 		"/>
		<polygon points="101.8,145 100.4,146.2 99.2,144.9 97.8,146.1 96.6,144.7 95.3,145.9 94.1,144.6 92.7,145.8 91.5,144.4 
			90.2,145.6 89,144.3 87.6,145.5 86.4,144.1 85,145.3 83.8,144 82.5,145.2 81.3,143.8 79.9,145.1 78.7,143.7 77.4,144.9 
			76.2,143.6 74.8,144.8 73.6,143.4 71.8,145 74.3,145.2 75.2,145.2 76.9,145.3 77.8,145.4 79.5,145.5 80.3,145.5 82,145.6 
			82.9,145.7 84.6,145.8 85.4,145.8 87.1,145.9 88,145.9 89.7,146 90.6,146.1 92.3,146.2 93.1,146.2 94.8,146.3 95.7,146.4 
			97.4,146.5 98.2,146.5 100,146.6 100.8,146.7 103.4,146.8 		"/>
		<polygon points="97.6,142.2 96.3,143.4 95.1,142.1 93.3,143.7 95.8,143.8 96.7,143.9 98.4,144 99.2,144 101.8,144.2 100.2,142.4 
			98.8,143.6 		"/>
		<polygon points="95.2,139.5 93.4,141.1 96,141.3 96.8,141.3 99.4,141.5 97.8,139.7 96.4,140.9 		"/>
		<polygon points="87.8,133.9 86.5,135.2 85.3,133.8 83.9,135 82.7,133.7 81.4,134.9 80.2,133.5 78.8,134.7 77.6,133.4 76.2,134.6 
			75,133.2 73.7,134.4 72.5,133.1 71.1,134.3 69.9,132.9 68.1,134.5 70.7,134.7 71.5,134.7 73.2,134.8 74.1,134.9 75.8,135 
			76.6,135 78.3,135.1 79.2,135.2 80.9,135.3 81.8,135.3 83.5,135.4 84.3,135.5 86,135.6 86.9,135.6 88.6,135.7 89.4,135.8 
			91.2,135.9 92,135.9 93.7,136 94.6,136 97.1,136.2 95.5,134.4 94.2,135.6 93,134.2 91.6,135.4 90.4,134.1 89,135.3 		"/>
		<polygon points="94.5,130.5 93.3,129.1 91.9,130.3 90.7,129 89.3,130.2 88.1,128.8 86.8,130 85.6,128.7 84.2,129.9 83,128.5 
			81.7,129.7 80.4,128.4 79.1,129.6 77.9,128.2 76.5,129.4 75.3,128.1 74,129.3 72.8,127.9 71.4,129.1 70.2,127.8 68.4,129.4 
			71,129.6 71.8,129.6 73.5,129.7 74.4,129.7 76.1,129.8 76.9,129.9 78.6,130 79.5,130 81.2,130.1 82.1,130.2 83.8,130.3 
			84.6,130.3 86.3,130.4 87.2,130.5 88.9,130.6 89.7,130.6 91.4,130.7 92.3,130.8 94,130.9 94.9,130.9 97.4,131.1 95.8,129.3 		"/>
		<polygon points="89.9,128.1 92.4,128.2 93.3,128.3 95.9,128.4 94.3,126.6 92.9,127.8 91.7,126.5 		"/>
		<polygon points="92.7,138.5 95.3,138.7 93.7,136.9 92.3,138.1 91.1,136.7 89.3,138.3 91.9,138.5 		"/>
		<polygon points="93,133.4 95.6,133.5 94,131.7 92.6,132.9 91.4,131.6 89.6,133.2 92.2,133.3 		"/>
		<polygon points="70.3,126.9 72,127 72.8,127.1 74.5,127.2 75.4,127.2 77.1,127.3 77.9,127.4 79.6,127.5 80.5,127.5 82.2,127.6 
			83.1,127.7 84.8,127.8 85.6,127.8 88.2,128 86.6,126.2 85.2,127.4 84,126 82.7,127.2 81.5,125.9 80.1,127.1 78.9,125.7 
			77.5,126.9 76.3,125.6 75,126.8 73.8,125.4 72.4,126.6 71.2,125.3 69.9,126.5 68.6,125.1 66.8,126.7 69.4,126.9 		"/>
		<polygon points="74,122 75.7,122.1 76.5,122.2 78.2,122.3 79.1,122.3 80.8,122.4 81.6,122.5 83.4,122.6 84.2,122.6 85.9,122.7 
			86.8,122.8 88.5,122.9 89.3,122.9 91.9,123 90.3,121.2 88.9,122.4 87.7,121.1 86.4,122.3 85.2,120.9 83.8,122.2 82.6,120.8 
			81.2,122 80,120.7 78.7,121.9 77.5,120.5 76.1,121.7 74.9,120.4 73.6,121.6 72.4,120.2 70.5,121.8 73.1,122 		"/>
		<polygon points="75.8,119.6 77.5,119.7 78.4,119.7 80.1,119.8 80.9,119.8 82.6,119.9 83.5,120 85.2,120.1 86.1,120.1 87.8,120.2 
			88.6,120.3 90.3,120.4 91.2,120.4 93.7,120.6 92.1,118.8 90.8,120 89.6,118.6 88.2,119.8 87,118.5 85.7,119.7 84.5,118.3 
			83.1,119.5 81.9,118.2 80.5,119.4 79.3,118 78,119.2 76.8,117.9 75.4,119.1 74.2,117.7 72.4,119.4 75,119.5 		"/>
		<polygon points="76.8,117 78.5,117.1 79.4,117.2 81.1,117.3 81.9,117.3 83.6,117.4 84.5,117.5 86.2,117.6 87.1,117.6 88.8,117.7 
			89.6,117.8 91.3,117.9 92.2,117.9 94.7,118.1 93.1,116.3 91.8,117.5 90.6,116.1 89.2,117.3 88,116 86.7,117.2 85.5,115.8 
			84.1,117 82.9,115.7 81.5,116.9 80.3,115.5 79,116.7 77.8,115.4 76.4,116.6 75.2,115.2 73.4,116.8 76,117 		"/>
		<polygon points="77.1,111.9 78.8,112 79.7,112.1 81.4,112.2 82.2,112.2 83.9,112.3 84.8,112.4 86.5,112.5 87.4,112.5 89.1,112.6 
			89.9,112.7 91.6,112.8 92.5,112.8 95,113 93.4,111.1 92.1,112.4 90.9,111 89.5,112.2 88.3,110.9 87,112.1 85.7,110.7 84.4,111.9 
			83.2,110.6 81.8,111.8 80.6,110.4 79.3,111.6 78.1,110.3 76.7,111.5 75.5,110.1 73.7,111.7 76.3,111.9 		"/>
		<polygon points="74.9,150.3 76.6,150.4 77.5,150.5 79.2,150.6 80,150.6 81.7,150.7 82.6,150.8 84.3,150.9 85.1,150.9 86.9,151 
			87.7,151.1 89.4,151.2 90.3,151.2 92,151.3 92.8,151.4 94.5,151.5 95.4,151.5 98,151.7 96.3,149.9 95,151.1 93.8,149.7 
			92.4,150.9 91.2,149.6 89.9,150.8 88.7,149.4 87.3,150.6 86.1,149.3 84.7,150.5 83.5,149.1 82.2,150.3 81,149 79.6,150.2 
			78.4,148.8 77.1,150 75.9,148.7 74.5,149.9 73.3,148.5 71.5,150.1 74.1,150.3 		"/>
		<polygon points="72.5,147.6 73.3,147.7 75.1,147.8 75.9,147.8 77.6,147.9 78.5,148 80.2,148.1 81,148.1 82.7,148.2 83.6,148.3 
			85.3,148.4 86.1,148.4 87.9,148.5 88.7,148.6 90.4,148.7 91.3,148.7 93,148.8 93.8,148.9 96.4,149 94.8,147.2 93.4,148.4 
			92.2,147 90.9,148.3 89.7,146.9 88.3,148.1 87.1,146.8 85.7,148 84.5,146.6 83.2,147.8 82,146.5 80.6,147.7 79.4,146.3 
			78.1,147.5 76.9,146.2 75.5,147.4 74.3,146 72.9,147.2 71.7,145.9 69.9,147.5 		"/>
		<polygon points="71.2,139.8 72.9,139.9 73.8,140 75.5,140.1 76.3,140.1 78.1,140.2 78.9,140.3 80.6,140.4 81.5,140.4 83.2,140.5 
			84,140.6 85.7,140.7 86.6,140.7 89.2,140.9 87.5,139.1 86.2,140.3 85,138.9 83.6,140.1 82.4,138.8 81.1,140 79.9,138.6 
			78.5,139.8 77.3,138.5 75.9,139.7 74.7,138.3 73.4,139.5 72.2,138.2 70.8,139.4 69.6,138 67.8,139.6 70.4,139.8 		"/>
		<polygon points="69.7,137.2 71.4,137.3 72.2,137.3 73.9,137.4 74.8,137.5 76.5,137.6 77.3,137.6 79.1,137.7 79.9,137.8 
			81.6,137.9 82.5,137.9 84.2,138 85,138.1 87.6,138.2 86,136.4 84.6,137.6 83.4,136.3 82.1,137.5 80.9,136.1 79.5,137.3 78.3,136 
			76.9,137.2 75.7,135.8 74.4,137 73.2,135.7 71.8,136.9 70.6,135.5 69.3,136.7 68.1,135.4 66.3,137 68.8,137.1 		"/>
		<polygon points="70,132.1 71.7,132.2 72.5,132.2 74.2,132.3 75.1,132.4 76.8,132.5 77.6,132.5 79.3,132.6 80.2,132.7 81.9,132.7 
			82.8,132.8 84.5,132.9 85.3,132.9 87.9,133.1 86.3,131.3 84.9,132.5 83.7,131.1 82.4,132.3 81.2,131 79.8,132.2 78.6,130.8 
			77.2,132.1 76,130.7 74.7,131.9 73.5,130.6 72.1,131.8 70.9,130.4 69.6,131.6 68.4,130.3 66.5,131.9 69.1,132 		"/>
		<polygon points="75.4,170.9 77.1,171 78,171.1 79.7,171.2 80.6,171.2 82.3,171.3 83.1,171.4 84.8,171.5 85.7,171.5 87.4,171.6 
			88.2,171.7 89.9,171.8 90.8,171.8 92.5,171.9 93.4,171.9 95.1,172 95.9,172.1 98.5,172.2 96.9,170.4 95.5,171.6 94.3,170.3 
			93,171.5 91.7,170.1 90.4,171.3 89.2,170 87.8,171.2 86.6,169.8 85.3,171.1 84.1,169.7 82.7,170.9 81.5,169.6 80.2,170.8 
			78.9,169.4 77.6,170.6 76.4,169.3 75,170.5 73.8,169.1 72,170.7 74.6,170.9 		"/>
		<polygon points="73.9,168.3 75.6,168.4 76.4,168.4 78.1,168.5 79,168.6 80.7,168.7 81.6,168.7 83.3,168.8 84.1,168.8 85.8,168.9 
			86.7,169 88.4,169.1 89.2,169.1 90.9,169.2 91.8,169.3 93.5,169.4 94.4,169.4 96.9,169.6 95.3,167.8 94,169 92.7,167.6 
			91.4,168.8 90.2,167.5 88.8,168.7 87.6,167.3 86.3,168.5 85.1,167.2 83.7,168.4 82.5,167 81.2,168.2 79.9,166.9 78.6,168.1 
			77.4,166.7 76,168 74.8,166.6 73.5,167.8 72.3,166.5 70.5,168.1 73,168.2 		"/>
		<polygon points="75.7,165.8 77.4,165.9 78.3,165.9 80,166 80.8,166.1 82.6,166.2 83.4,166.2 85.1,166.3 86,166.4 87.7,166.5 
			88.5,166.5 90.2,166.6 91.1,166.7 92.8,166.8 93.7,166.8 95.4,166.9 96.2,167 98.8,167.1 97.2,165.3 95.8,166.5 94.6,165.2 
			93.2,166.4 92,165 90.7,166.2 89.5,164.9 88.1,166.1 86.9,164.7 85.6,165.9 84.4,164.6 83,165.8 81.8,164.4 80.4,165.6 
			79.2,164.3 77.9,165.5 76.7,164.1 75.3,165.3 74.1,164 72.3,165.6 74.9,165.7 		"/>
		<polygon points="73.3,163.1 74.2,163.1 75.9,163.2 76.7,163.3 78.4,163.4 79.3,163.4 81,163.5 81.8,163.6 83.6,163.7 84.4,163.7 
			86.1,163.8 87,163.9 88.7,164 89.5,164 91.2,164.1 92.1,164.2 93.8,164.3 94.7,164.3 97.2,164.5 95.6,162.7 94.3,163.9 93,162.5 
			91.7,163.7 90.5,162.4 89.1,163.6 87.9,162.2 86.6,163.4 85.4,162.1 84,163.3 82.8,161.9 81.4,163.1 80.2,161.8 78.9,163 
			77.7,161.6 76.3,162.8 75.1,161.5 73.8,162.7 72.6,161.3 70.8,162.9 		"/>
		<polygon points="74.5,158 76.2,158.1 77,158.2 78.7,158.3 79.6,158.3 81.3,158.4 82.1,158.5 83.9,158.6 84.7,158.6 86.4,158.7 
			87.3,158.8 89,158.8 89.8,158.9 91.5,159 92.4,159 94.1,159.1 94.9,159.2 97.5,159.3 95.9,157.5 94.5,158.7 93.3,157.4 92,158.6 
			90.8,157.2 89.4,158.4 88.2,157.1 86.9,158.3 85.7,156.9 84.3,158.2 83.1,156.8 81.7,158 80.5,156.7 79.2,157.9 78,156.5 
			76.6,157.7 75.4,156.4 74.1,157.6 72.9,156.2 71,157.8 73.6,158 		"/>
		<polygon points="73,152.8 74.8,152.9 75.6,152.9 77.3,153 78.2,153.1 79.9,153.2 80.7,153.2 82.4,153.3 83.3,153.4 85,153.5 
			85.9,153.5 87.6,153.6 88.4,153.7 90.1,153.8 91,153.8 92.7,153.9 93.5,154 96.1,154.1 94.5,152.3 93.1,153.5 91.9,152.2 
			90.6,153.4 89.4,152 88,153.2 86.8,151.9 85.5,153.1 84.2,151.7 82.9,152.9 81.7,151.6 80.3,152.8 79.1,151.4 77.8,152.6 
			76.6,151.3 75.2,152.5 74,151.1 72.6,152.3 71.4,151 69.6,152.6 72.2,152.7 		"/>
		<polygon points="98,180.8 96.6,182 95.4,180.6 94.1,181.8 92.9,180.5 91.5,181.7 90.3,180.3 89,181.5 87.7,180.2 86.4,181.4 
			85.2,180 83.8,181.2 82.6,179.9 81.3,181.1 80.1,179.7 78.3,181.4 80.8,181.5 81.7,181.6 83.4,181.7 84.2,181.7 85.9,181.8 
			86.8,181.8 88.5,181.9 89.4,182 91.1,182.1 91.9,182.1 93.6,182.2 94.5,182.3 96.2,182.4 97,182.4 99.6,182.6 		"/>
		<polygon points="97.5,160.2 96.1,161.4 94.9,160 93.5,161.3 92.3,159.9 91,161.1 89.8,159.8 88.4,161 87.2,159.6 85.9,160.8 
			84.7,159.5 83.3,160.7 82.1,159.3 80.7,160.5 79.5,159.2 78.2,160.4 77,159 75.6,160.2 74.4,158.9 72.6,160.5 75.2,160.6 
			76,160.7 77.7,160.8 78.6,160.8 80.3,160.9 81.1,161 82.8,161.1 83.7,161.1 85.4,161.2 86.3,161.3 88,161.4 88.8,161.4 
			90.5,161.5 91.4,161.6 93.1,161.7 93.9,161.7 95.7,161.8 96.5,161.9 99.1,162 		"/>
		<polygon points="97.8,155.1 96.4,156.3 95.2,154.9 93.8,156.1 92.6,154.8 91.3,156 90.1,154.6 88.7,155.8 87.5,154.5 86.2,155.7 
			85,154.3 83.6,155.5 82.4,154.2 81,155.4 79.8,154 78.5,155.2 77.3,153.9 75.9,155.1 74.7,153.7 72.9,155.4 75.5,155.5 
			76.3,155.6 78,155.6 78.9,155.7 80.6,155.8 81.4,155.8 83.1,155.9 84,156 85.7,156.1 86.6,156.1 88.3,156.2 89.1,156.3 
			90.8,156.4 91.7,156.4 93.4,156.5 94.2,156.6 95.9,156.7 96.8,156.7 99.4,156.9 		"/>
		<polygon points="96.9,207.7 95.7,206.3 94.3,207.5 93.1,206.2 91.7,207.4 90.5,206 89.2,207.2 88,205.9 86.6,207.1 85.4,205.7 
			84.1,207 82.9,205.6 81.5,206.8 80.3,205.5 78.5,207.1 81.1,207.2 81.9,207.3 83.6,207.4 84.5,207.4 86.2,207.5 87,207.6 
			88.7,207.7 89.6,207.7 91.3,207.8 92.1,207.8 93.9,207.9 94.7,208 96.4,208.1 97.3,208.1 99.8,208.3 98.2,206.5 		"/>
		<polygon points="97.2,202.6 96,201.2 94.6,202.4 93.4,201.1 92,202.3 90.8,200.9 89.5,202.1 88.3,200.8 86.9,202 85.7,200.6 
			84.4,201.8 83.2,200.5 81.8,201.7 80.6,200.3 78.8,201.9 81.3,202.1 82.2,202.1 83.9,202.2 84.8,202.3 86.5,202.4 87.3,202.4 
			89,202.5 89.9,202.6 91.6,202.7 92.4,202.7 94.1,202.8 95,202.9 96.7,203 97.6,203 100.1,203.2 98.5,201.4 		"/>
		<polygon points="97.5,197.4 96.2,196.1 94.9,197.3 93.7,195.9 92.3,197.2 91.1,195.8 89.8,197 88.6,195.7 87.2,196.9 86,195.5 
			84.7,196.7 83.4,195.4 82.1,196.6 80.9,195.2 79.1,196.8 81.6,197 82.5,197 84.2,197.1 85.1,197.2 86.8,197.3 87.6,197.3 
			89.3,197.4 90.2,197.5 91.9,197.6 92.7,197.6 94.4,197.7 95.3,197.8 97,197.9 97.9,197.9 100.4,198 98.8,196.2 		"/>
		<polygon points="97.8,192.3 96.5,191 95.2,192.2 94,190.8 92.6,192 91.4,190.7 90.1,191.9 88.9,190.5 87.5,191.7 86.3,190.4 
			84.9,191.6 83.7,190.2 82.4,191.4 81.2,190.1 79.4,191.7 81.9,191.8 82.8,191.9 84.5,192 85.3,192 87.1,192.1 87.9,192.2 
			89.6,192.3 90.5,192.3 92.2,192.4 93,192.5 94.7,192.6 95.6,192.6 97.3,192.7 98.2,192.8 100.7,192.9 99.1,191.1 		"/>
		<polygon points="81.4,186.7 83.1,186.8 83.9,186.8 85.6,186.9 86.5,187 88.2,187.1 89.1,187.1 90.8,187.2 91.6,187.3 93.3,187.4 
			94.2,187.4 95.9,187.5 96.7,187.6 99.3,187.7 97.7,185.9 96.3,187.1 95.1,185.8 93.8,187 92.6,185.6 91.2,186.8 90,185.5 
			88.7,186.7 87.4,185.3 86.1,186.5 84.9,185.2 83.5,186.4 82.3,185 81,186.2 79.8,184.9 78,186.5 80.5,186.6 		"/>
		<polygon points="79,184 79.8,184 81.5,184.1 82.4,184.2 84.1,184.3 84.9,184.3 86.6,184.4 87.5,184.5 89.2,184.6 90.1,184.6 
			91.8,184.7 92.6,184.8 94.3,184.9 95.2,184.9 97.7,185 96.1,183.2 94.8,184.4 93.6,183.1 92.2,184.3 91,182.9 89.7,184.2 
			88.5,182.8 87.1,184 85.9,182.7 84.5,183.9 83.3,182.5 82,183.7 80.8,182.4 79.4,183.6 78.2,182.2 76.4,183.8 		"/>
		<polygon points="80.1,178.9 81.8,179 82.7,179 84.4,179.1 85.2,179.2 86.9,179.3 87.8,179.3 89.5,179.4 90.4,179.5 92.1,179.6 
			92.9,179.6 94.6,179.7 95.5,179.8 98,179.9 96.4,178.1 95.1,179.3 93.9,178 92.5,179.2 91.3,177.8 90,179 88.7,177.7 87.4,178.9 
			86.2,177.5 84.8,178.7 83.6,177.4 82.3,178.6 81.1,177.2 79.7,178.4 78.5,177.1 76.7,178.7 79.3,178.8 		"/>
		<polygon points="77.7,176.2 79.4,176.3 80.3,176.3 82,176.4 82.8,176.5 84.5,176.6 85.4,176.6 87.1,176.7 87.9,176.8 89.6,176.9 
			90.5,176.9 92.2,177 93.1,177.1 95.6,177.2 94,175.4 92.7,176.6 91.5,175.3 90.1,176.5 88.9,175.1 87.5,176.3 86.3,175 85,176.2 
			83.8,174.8 82.4,176 81.2,174.7 79.9,175.9 78.6,174.5 77.3,175.7 76.1,174.4 74.3,176 76.8,176.1 		"/>
		<polygon points="76.1,173.5 77.8,173.6 78.7,173.7 80.4,173.8 81.3,173.8 83,173.9 83.8,174 85.5,174.1 86.4,174.1 88.1,174.2 
			88.9,174.3 90.6,174.4 91.5,174.4 93.2,174.5 94.1,174.6 95.8,174.7 96.6,174.7 99.2,174.9 97.6,173 96.2,174.3 95,172.9 
			93.7,174.1 92.5,172.8 91.1,174 89.9,172.6 88.5,173.8 87.3,172.5 86,173.7 84.8,172.3 83.4,173.5 82.2,172.2 80.9,173.4 
			79.7,172 78.3,173.2 77.1,171.9 75.7,173.1 74.5,171.7 72.7,173.3 75.3,173.5 		"/>
		<polygon points="80.3,204.6 82.1,204.7 82.9,204.7 84.6,204.8 85.5,204.9 87.2,205 88,205 89.7,205.1 90.6,205.2 92.3,205.3 
			93.1,205.3 94.9,205.4 95.7,205.5 98.3,205.6 96.7,203.8 95.3,205 94.1,203.7 92.7,204.9 91.5,203.5 90.2,204.7 89,203.4 
			87.6,204.6 86.4,203.2 85.1,204.4 83.9,203.1 82.5,204.3 81.3,202.9 79.9,204.1 78.7,202.8 76.9,204.4 79.5,204.6 		"/>
		<polygon points="79.8,199.4 80.6,199.5 82.3,199.6 83.2,199.6 84.9,199.7 85.8,199.8 87.5,199.9 88.3,199.9 90,200 90.9,200.1 
			92.6,200.2 93.4,200.2 95.1,200.3 96,200.4 98.6,200.5 97,198.7 95.6,199.9 94.4,198.6 93,199.8 91.8,198.4 90.5,199.6 
			89.3,198.3 87.9,199.5 86.7,198.1 85.4,199.3 84.2,198 82.8,199.2 81.6,197.8 80.2,199 79,197.7 77.2,199.3 		"/>
		<polygon points="80.9,194.4 82.6,194.5 83.5,194.5 85.2,194.6 86.1,194.7 87.8,194.7 88.6,194.8 90.3,194.9 91.2,194.9 92.9,195 
			93.7,195.1 95.4,195.2 96.3,195.2 98.9,195.4 97.3,193.6 95.9,194.8 94.7,193.4 93.3,194.6 92.1,193.3 90.8,194.5 89.6,193.1 
			88.2,194.3 87,193 85.7,194.2 84.4,192.8 83.1,194.1 81.9,192.7 80.5,193.9 79.3,192.6 77.5,194.2 80.1,194.3 		"/>
		<polygon points="79.5,189.1 81.2,189.2 82.1,189.3 83.8,189.4 84.6,189.4 86.4,189.5 87.2,189.6 88.9,189.7 89.8,189.7 
			91.5,189.8 92.3,189.9 94,190 94.9,190 97.4,190.2 95.8,188.4 94.5,189.6 93.3,188.2 91.9,189.4 90.7,188.1 89.4,189.3 
			88.2,187.9 86.8,189.1 85.6,187.8 84.2,189 83,187.6 81.7,188.8 80.5,187.5 79.1,188.7 77.9,187.3 76.1,188.9 78.7,189.1 		"/>
	</g>
</g>
</svg>
