<svg xmlns="http://www.w3.org/2000/svg" xml:space="preserve" viewBox="0 0 167.2 249.4">
    <path fill="#FCD17F" d="M-5.7-5.7h178.6v260.8H-5.7z"/>
    <path fill="#5F5679" d="M150 73.8c1.4-5.1-1.4-8.2-4.8-8.7-3.1-.5-4.6.4-6.9 4.3-5.7 9-16.6 12.6-16.6 12.6-4.1 1.7-7.2 5.5-7.9 10.2-1.1 7.2 3.9 13.9 11.1 15 5.5.8 10-1.6 13.3-6.3 3.4-4.7 10.4-21.9 11.8-27.1"/>
    <path fill="#26936C" d="M147.9 65.7c-.9-.7-2-1.1-3.2-1.1s-2.3.4-3.3 1c.9.7 2 1.1 3.2 1.1 1.2.1 2.4-.3 3.3-1"/>
    <path fill="#26936C" d="M150.5 71.4c.2-1.1.1-2.3-.4-3.4s-1.4-1.9-2.4-2.4c-.2 1.1-.1 2.3.4 3.4.5 1 1.4 1.9 2.4 2.4"/>
    <path fill="#26936C" d="m147.8 66-.3-.2 1.1-2.4.7.4z"/>
    <circle cx="20.8" cy="39.2" r="2.6" fill="#BA3033"/>
    <path d="M15.973 28.608v-.98l1.27-.22v-1.43l-5.11.01v-.87l5.02-7.88h1.62v7.54h1.57v1.2h-1.57v1.43l1.28.22v.98Zm-2.2-3.83h3.47v-5.35l-.05-.02-.15.42Zm11.71 3.99q-1.67 0-2.64-1.16-.98-1.16-.98-3.34v-2.69q0-2.17.97-3.34t2.64-1.17q1.68 0 2.65 1.17.98 1.17.98 3.34v2.69q0 2.18-.97 3.34t-2.65 1.16m0-1.2q1.03 0 1.55-.75.53-.75.53-2.23v-3.34q0-1.48-.53-2.22-.54-.75-1.56-.75-1.01 0-1.54.75-.53.74-.53 2.22v3.34q0 1.47.54 2.23.54.75 1.54.75"/>
    <circle cx="146.4" cy="210.3" r="2.6" fill="#BA3033"/>
    <path d="M151.265 220.843v.98l-1.27.22v1.43l5.11-.01v.87l-5.02 7.88h-1.62v-7.54h-1.57v-1.2h1.57v-1.43l-1.28-.22v-.98Zm2.2 3.83h-3.47v5.35l.05.02.15-.42Zm-11.71-3.99q1.67 0 2.64 1.16.98 1.16.98 3.34v2.69q0 2.17-.97 3.34t-2.64 1.17q-1.68 0-2.65-1.17-.98-1.17-.98-3.34v-2.69q0-2.18.97-3.34t2.65-1.16m0 1.2q-1.03 0-1.55.75-.53.75-.53 2.23v3.34q0 1.48.53 2.22.54.75 1.56.75 1.01 0 1.54-.75.53-.74.53-2.22v-3.34q0-1.47-.54-2.23-.54-.75-1.54-.75"/>
    <path fill="#2E2547" d="M73.9 171c-4.7 1-6 4.6-5 7.5.9 2.7 2.2 3.6 6.4 3.7 9.7.8 17.1 8.1 17.1 8.1 3.1 2.6 7.4 3.5 11.5 2.1 6.3-2.2 9.6-9 7.4-15.2-1.6-4.7-5.4-7.4-10.6-8.1s-22 .9-26.8 1.9"/>
    <path fill="#26936C" d="M68.3 176.1c-.2 1-.1 2.1.4 3.1s1.3 1.7 2.2 2.2c.2-1 .1-2.1-.4-3.1s-1.3-1.8-2.2-2.2"/>
    <path fill="#26936C" d="M71.7 171.6c-1 .3-1.9.9-2.6 1.8s-1 1.9-1 3c1-.3 1.9-.9 2.6-1.8s1-2 1-3"/>
    <path fill="#26936C" d="M68.5 176.1v.2l-2.4.2v-.8z"/>
    <path fill="#5F5679" d="M99.4 235.5c4.2 1.4 6.9-.8 7.5-3.6.5-2.6-.1-3.8-3.3-5.9-7.3-5.2-9.7-14.4-9.8-14.4-1.3-3.5-4.3-6.2-8.2-7-6-1.2-11.8 2.7-13 8.6-.9 4.5.9 8.4 4.7 11.3s17.9 9.6 22.1 11"/>
    <path fill="#26936C" d="M106.3 234.1c.6-.7 1-1.6 1.1-2.6s-.2-2-.7-2.8c-.6.7-1 1.6-1.1 2.6-.1 1.1.2 2 .7 2.8"/>
    <path fill="#26936C" d="M101.5 236c.9.2 1.9.2 2.8-.2s1.7-1.1 2.1-1.9c-.9-.2-1.9-.2-2.8.2s-1.6 1.1-2.1 1.9"/>
    <path fill="#26936C" d="m106.1 234 .1-.2 2 1-.4.6z"/>
    <path fill="#2E2547" d="M89.1 39.4c-.1-4.3-3.1-6-5.8-5.5-2.5.4-3.5 1.4-4.2 5-2.2 8.3-9.7 13.7-9.7 13.7-2.7 2.3-4.2 6-3.6 9.8.9 5.8 6.4 9.8 12.2 8.8 4.4-.7 7.3-3.6 8.7-8.1s2.6-19.5 2.4-23.7"/>
    <path fill="#26936C" d="M85.5 33.6c-.9-.3-1.8-.4-2.8-.1-.9.3-1.7.9-2.3 1.6.9.3 1.8.4 2.8.1s1.8-.8 2.3-1.6"/>
    <path fill="#26936C" d="M88.9 37.3c-.1-.9-.5-1.8-1.2-2.5s-1.5-1.1-2.4-1.3c.1.9.5 1.8 1.2 2.5.6.8 1.5 1.2 2.4 1.3"/>
    <path fill="#26936C" d="M85.5 33.8h-.2l.2-2.2.7.2z"/>
    <path fill="#362F44" d="M101.4 45.2c-3.7 5.3-1.6 10.1 2.1 12 3.4 1.7 5.5 1.4 9.7-2.3 10.2-8.2 24.2-8 24.2-8.1 5.4-.4 10.5-3.5 13.1-8.7 4.1-7.9.9-17.6-7-21.7-6-3.1-12.1-2.1-17.8 2.1s-20.6 21.4-24.3 26.7"/>
    <path fill="#26936C" d="M100.7 55.4c.8 1.2 1.9 2.1 3.3 2.6s2.9.5 4.2.1c-.8-1.2-1.9-2.1-3.3-2.6s-2.9-.5-4.2-.1"/>
    <path fill="#26936C" d="M99.9 47.9c-.7 1.2-1 2.6-.8 4.1s.9 2.8 1.8 3.8c.7-1.2 1-2.6.8-4.1s-.8-2.8-1.8-3.8"/>
    <path fill="#26936C" d="m100.9 55.2.3.3-2.3 2.4-.7-.8z"/>
    <path fill="#362F44" d="M60.8 205.2c2.6-5 .4-8.9-3.1-10.1-3.1-1.2-4.9-.6-8.1 3-7.9 8.1-20 9.4-20 9.5-4.6.9-8.7 4.1-10.4 8.9-2.7 7.3 1 15.3 8.3 18 5.5 2 10.7.6 15.2-3.7 4.4-4.2 15.5-20.6 18.1-25.6"/>
    <path fill="#26936C" d="M60.4 196.3c-.8-.9-1.8-1.6-3.1-1.9s-2.5-.1-3.6.4c.8.9 1.8 1.6 3.1 1.9 1.2.2 2.5.1 3.6-.4"/>
    <path fill="#26936C" d="M61.8 202.7c.5-1.1.6-2.4.3-3.6-.3-1.3-1-2.3-2-3.1-.5 1.1-.6 2.4-.3 3.6.4 1.3 1.1 2.4 2 3.1"/>
    <path fill="#26936C" d="m60.2 196.5-.3-.2 1.7-2.3.7.6z"/>
    <path fill="#2E2547" d="M143.6 197.5c2-4.4-.1-7.1-2.9-8-2.5-.8-3.9-.3-6.3 2.8-6 6.9-14.9 8.7-14.9 8.7-3.7.9-7.5 3.5-8.7 7.3-1.8 5.9 1.4 10.9 7.3 12.7 4.5 1.4 8.6 0 12-3.6s11.7-15.8 13.5-19.9"/>
    <g fill="#26936C">
        <path d="M142.7 190.4c-.7-.7-1.6-1.2-2.6-1.3-1-.2-2 0-2.9.5.7.7 1.6 1.2 2.6 1.3 1.1.1 2.1 0 2.9-.5"/>
        <path d="M144.3 195.5c.3-.9.3-1.9 0-2.9s-1-1.8-1.7-2.3c-.3.9-.3 1.9 0 2.9.2.9.9 1.7 1.7 2.3"/>
        <path d="M140.1 193.4c.7-.2 1.3-.5 1.7-1.1.5-.6.7-1.3.7-1.9-.7.2-1.3.5-1.7 1.1-.5.6-.7 1.3-.7 1.9"/>
        <path d="m142.6 190.6-.2-.2 1.2-1.9.6.4z"/>
    </g>
    <path fill="#5F5679" d="M69.8 22c1.9-2.9.7-5.1-1.2-6-1.7-.8-2.8-.6-4.8 1.3-5 4.3-11.5 4.6-11.5 4.6-2.7.3-5.7 1.7-6.9 4.3-1.9 4-.2 7.9 3.8 9.8 3.1 1.5 6.1.9 8.9-1.3s10-10 11.7-12.7"/>
    <g fill="#26936C">
        <path d="M70 16.8c-.4-.6-1-1-1.7-1.2s-1.4-.2-2.1.1c.4.6 1 1 1.7 1.2s1.4.2 2.1-.1"/>
        <path d="M70.5 20.6q.45-.9.3-2.1c-.15-1.2-.5-1.4-1-1.8q-.45.9-.3 2.1c.1.7.5 1.3 1 1.8"/>
        <path d="M67.7 18.7c.5-.1 1-.3 1.3-.6.4-.4.6-.8.7-1.3-.5.1-1 .3-1.3.6-.3.4-.6.9-.7 1.3m2.1-1.7-.1-.2 1.1-1.2.3.4z"/>
    </g>
    <path fill="#3D335D" d="M27.7 152c-4.1-2.8-7.2-1.1-8.5 1.6-1.2 2.4-1 3.9 1.7 6.9 5.9 7.2 6.2 16.5 6.3 16.5.3 3.9 2.2 8.1 5.9 10 5.7 2.9 11.3.5 14.1-5.2 2.2-4.3 1.4-8.7-1.6-12.7s-14-14.5-17.9-17.1"/>
    <g fill="#26936C">
        <path d="M20.4 151.7c-.8.6-1.5 1.4-1.8 2.4q-.45 1.5 0 3c.8-.6 1.5-1.4 1.8-2.4.4-1 .3-2.1 0-3"/>
        <path d="M25.8 151c-.9-.5-1.9-.7-2.9-.5-1.1.2-2 .7-2.7 1.4.9.5 1.9.7 2.9.5 1.1-.2 2-.7 2.7-1.4"/>
        <path d="M23 154.9c-.1-.7-.3-1.4-.8-1.9-.5-.6-1.2-.9-1.8-1 .1.7.3 1.4.8 1.9s1.2.9 1.8 1"/>
        <path d="m20.6 151.9-.2.2-1.7-1.6.5-.5z"/>
    </g>
    <path fill="#3D335D" d="M21.8 59.1c-3.1 3-2.2 5.9-.2 7.5 1.8 1.5 3.1 1.5 6.1-.2 7.1-3.7 15-2.3 15-2.3 3.3.4 7.3-.4 9.5-3.2 3.4-4.3 2.4-9.4-1.8-12.8-3.2-2.6-7-2.8-11-.9s-14.8 9.1-17.6 11.9"/>
    <g fill="#26936C">
        <path d="M20.2 65.2c.3.8.9 1.5 1.7 1.9.8.5 1.7.6 2.5.5-.3-.8-.9-1.5-1.7-1.9s-1.7-.6-2.5-.5"/>
        <path d="M20.6 60.6c-.6.6-.9 1.5-1 2.4s.2 1.8.7 2.5c.6-.6.9-1.5 1-2.4 0-1-.3-1.8-.7-2.5"/>
        <path d="M23.3 63.6c-.6-.1-1.2 0-1.8.4-.6.3-1 .8-1.2 1.4.6.1 1.2 0 1.8-.4s1-.9 1.2-1.4"/>
        <path d="m20.3 65.1.2.2-1.7 1.2-.3-.6z"/>
    </g>
    <path fill="#5F5679" d="M101.4 130.1c4.9.7 6.8-2.1 6.9-5.1 0-2.7-.8-3.9-4.5-5.4-8.4-3.8-12.7-11.9-12.7-11.9-2-3.3-5.5-6.2-9.6-6.3-6.3-.1-10.2 4.4-10.2 10.7 0 4.7 2.5 8.3 6.9 10.6s18.7 6.8 23.2 7.4"/>
    <g fill="#26936C">
        <path d="M108 127.2c.5-.8.7-1.9.6-2.9s-.6-1.9-1.3-2.6c-.5.8-.7 1.9-.6 2.9s.6 2 1.3 2.6"/>
        <path d="M103.6 130.2c1 0 2-.2 2.8-.8q1.35-.9 1.8-2.4c-1 0-2 .2-2.8.8q-1.35.9-1.8 2.4"/>
        <path d="M104.3 125.5c.4.6.9 1.1 1.6 1.4s1.4.3 2.1.1c-.4-.6-.9-1.1-1.6-1.4-.7-.2-1.4-.2-2.1-.1"/>
        <path d="m107.8 127.2.1-.3 2.2.6-.3.7z"/>
    </g>
    <path d="M52.515 159.332v-3.03h9.15v-19.26h-39.64v-1.69l39.02-57.78h3.65v56.44h14.15v3.03h-14.15v19.26h9.16v3.03Zm-25.78-25.32h34.93v-52.17l-.34-.11-4.38 7.24Zm89.23 26.5q-11.85 0-18.42-8.73t-6.57-24.68v-17.3q0-15.94 6.52-24.68 6.51-8.73 18.36-8.73t18.39 8.73q6.54 8.74 6.54 24.68v17.3q0 16-6.49 24.71-6.48 8.7-18.33 8.7m0-3.03q10.61 0 16.2-8.15 5.59-8.14 5.59-22.34v-17.19q0-14.26-5.62-22.32-5.61-8.05-16.28-8.05t-16.26 8.05q-5.59 8.06-5.59 22.32v17.19q0 14.15 5.65 22.32 5.64 8.17 16.31 8.17"/>
    <path fill="#5F5679" d="M27.6 84.2c-3.9-1.7-6.7.2-7.4 2.9-.7 2.4-.2 3.7 2.7 5.9 6.5 5.5 8.1 14.5 8.2 14.5.9 3.4 3.6 6.3 7.2 7.3 5.6 1.6 11.4-1.6 13.1-7.2 1.2-4.2-.2-8-3.6-11.2-3.5-3.1-16.3-10.5-20.2-12.2"/>
    <path fill="#26936C" d="M20.9 85c-.6.6-1.1 1.5-1.3 2.4-.1 1 0 1.9.5 2.7.6-.6 1.1-1.5 1.3-2.4.1-1-.1-1.9-.5-2.7"/>
    <path fill="#26936C" d="M25.7 83.6q-1.35-.45-2.7 0c-.9.3-1.7.9-2.2 1.6q1.35.45 2.7 0c.9-.3 1.7-.9 2.2-1.6"/>
    <path fill="#26936C" d="m21.1 85.1-.2.2-1.7-1.1.4-.6z"/>
    <path fill="#3D335D" d="M124 143.8c-4.8-1.2-7 1.4-7.4 4.3-.3 2.7.4 3.9 3.9 5.8 7.9 4.7 11.2 13.3 11.3 13.2 1.6 3.5 4.8 6.8 8.8 7.3 6.2.8 10.6-3.3 11.4-9.5.6-4.7-1.5-8.5-5.7-11.3s-17.9-8.6-22.3-9.8"/>
    <g fill="#26936C">
        <path d="M117.1 146c-.6.8-.9 1.8-.9 2.8s.4 2 1 2.8c.6-.8.9-1.8.9-2.8 0-1.1-.4-2.1-1-2.8"/>
        <path d="M121.8 143.6c-1-.1-2 0-2.9.5s-1.6 1.3-2 2.1c1 .1 2 0 2.9-.5 1-.5 1.6-1.3 2-2.1"/>
        <path d="M120.6 148.1c-.3-.6-.8-1.2-1.4-1.5s-1.4-.5-2.1-.4c.3.6.8 1.2 1.4 1.5.7.4 1.4.5 2.1.4"/>
        <path d="m117.3 146.1-.1.2-2.1-.9.3-.6z"/>
    </g>
</svg>
