<svg xmlns="http://www.w3.org/2000/svg" xmlns:xlink="http://www.w3.org/1999/xlink" xml:space="preserve" viewBox="0 0 167.2 249.4">
    <path fill="#2BB4A0" d="M-5.7-5.7h178.6v260.8H-5.7z"/>
    <path fill="#A8894E" d="m88.4 134.5-33.2-19.4c-12.5-4.1-26 2.7-30.2 15.1-4.1 12.5 2.7 26 15.1 30.2l38.2 4.3c12.6 4.2 22.6-26 10.1-30.2"/>
    <g opacity=".4">
        <defs>
            <path id="a" d="m88.4 134.5-33.2-19.4c-12.5-4.1-26 2.7-30.2 15.1-4.1 12.5 2.7 26 15.1 30.2l38.2 4.3c12.6 4.2 22.6-26 10.1-30.2" opacity=".4"/>
        </defs>
        <clipPath id="b">
            <use xlink:href="#a" overflow="visible"/>
        </clipPath>
        <path fill="#9A7143" d="m45.7 197.1 71.2-35.7-.3-.5.5-.3-35.7-71.2-.5.3-.3-.5-71.1 35.6.3.5-.5.3L45 196.8l.5-.3zM66.5 151l3 6-6 3-3-6zm-6.6 2-3-6 6-3 3 6zm7.6-2.5 6-3 3 6-6 3zm-.5-1.1-3-6 6-3 3 6zm-3.6-7.1-3-6 6-3 3 6zm7.7-2.5 6-3 3 6-6 3zm-.6-1.1-3-6 6-3 3 6zm-3.5-7.1-3-6 6-3 3 6zm-1.1.6-6 3-3-6 6-3zm-7.1 3.5-6 3-3-6 6-3zm.5 1.1 3 6-6 3-3-6zm-4.1 9.6-6 3-3-6 6-3zm.6 1.1 3 6-6 3-3-6zm3.5 7.1 3 6-6 3-3-6zm3.6 7.1 3 6-6 3-3-6zm1.1-.5 6-3 3 6-6 3zm7.1-3.6 6-3 3 6-6 3zm7.1-3.6 6-3 3 6-6 3zm-.5-1-3-6 6-3 3 6zm4-9.6 6-3 3 6-6 3zm-.5-1.1-3-6 6-3 3 6zm-3.6-7.1-3-6 6-3 3 6zm-3.5-7.1-3-6 6-3 3 6zm-3.6-7.1-3-6 6-3 3 6zm-1.1.5-6 3-3-6 6-3zm-7.1 3.6-6 3-3-6 6-3zm-7.1 3.5-6 3-3-6 6-3zm-7.1 3.6-6 3-3-6 6-3zm.5 1 3 6-6 3-3-6zm-4 9.7-6 3-3-6 6-3zm.5 1 3 6-6 3-3-6zm3.6 7.1 3 6-6 3-3-6zm3.5 7.2 3 6-6 3-3-6zm3.6 7.1 3 6-6 3-3-6zm3.6 7.1 3 6-6 3-3-6zm1-.5 6-3 3 6-6 3zm7.1-3.6 6-3 3 6-6 3zm7.1-3.6 6-3 3 6-6 3zm7.2-3.5 6-3 3 6-6 3zm7.1-3.6 6-3 3 6-6 3zm-.6-1.1-3-6 6-3 3 6zm4.1-9.6 6-3 3 6-6 3zm-.5-1.1-3-6 6-3 3 6zm-3.6-7.1-3-6 6-3 3 6zm-3.5-7.1-3-6 6-3 3 6zm-3.6-7.1-3-6 6-3 3 6zm-3.6-7.1-3-6 6-3 3 6zm-3.5-7.1-3-6 6-3 3 6zm-1.1.5-6 3-3-6 6-3zm-7.1 3.6-6 3-3-6 6-3zm-7.1 3.5-6 3-3-6 6-3zm-7.1 3.6-6 3-3-6 6-3zm-7.2 3.6-6 3-3-6 6-3zm-7.1 3.5-6 3-3-6 6-3zm.6 1.1 3 6-6 3-3-6zm-4.1 9.6-6 3-3-6 6-3zm.5 1.1 3 6-6 3-3-6zm3.6 7.1 3 6-6 3-3-6zm3.5 7.1 3 6-6 3-3-6zm3.6 7.1 3 6-6 3-3-6zm3.6 7.1 3 6-6 3-3-6zm3.5 7.2 3 6-6 3-3-6zm3.6 7.1 3 6-6 3-3-6zm1.1-.6 6-3 3 6-6 3zM64 179l6-3 3 6-6 3zm7.1-3.6 6-3 3 6-6 3zm7.1-3.6 6-3 3 6-6 3zm7.1-3.5 6-3 3 6-6 3zm7.1-3.6 6-3 3 6-6 3zm7.2-3.6 6-3 3 6-6 3zm-.6-1-3-6 6-3 3 6zm4.1-9.6 6-3 3 6-6 3zm-.5-1.1-3-6 6-3 3 6zm-3.6-7.1-3-6 6-3 3 6zm-3.6-7.1-3-6 6-3 3 6zm-3.5-7.2-3-6 6-3 3 6zm-3.6-7.1-3-6 6-3 3 6zm-3.6-7.1-3-6 6-3 3 6zm-3.5-7.1-3-6 6-3 3 6zm-3.6-7.1-3-6 6-3 3 6zm-1.1.5-6 3-3-6 6-3zm-7.1 3.6-6 3-3-6 6-3zm-7.1 3.6-6 3-3-6 6-3zm-7.1 3.5-6 3-3-6 6-3zm-7.1 3.6-6 3-3-6 6-3zM41 118l-6 3-3-6 6-3zm-7.1 3.5-6 3-3-6 6-3zm-7.2 3.6-6 3-3-6 6-3zm.6 1.1 3 6-6 3-3-6zm-4.1 9.6-6 3-3-6 6-3zm.5 1 3 6-6 3-3-6zm3.6 7.1 3 6-6 3-3-6zm3.6 7.2 3 6-6 3-3-6zm3.5 7.1 3 6-6 3-3-6zm3.6 7.1 3 6-6 3-3-6zm3.6 7.1 3 6-6 3-3-6zm3.5 7.1 3 6-6 3-3-6zm3.6 7.1 3 6-6 3-3-6zm61-23-3-6 6-3 3 6zm-93.1-41 3 6-6 3-3-6z" clip-path="url(#b)"/>
    </g>
    <path fill="#45404B" d="M134.5 144.4s-4.2-.8-4.7.3.5 2 2.3 3.8l-.9 1.4s-3.1-1.3-3.9-.2c-.6.8.1 1.8 1.3 3.5l-1.2 1.4s-2.5-1.3-3.1-.5c-.4.5-.3 1.2.8 2.9l-1.6 1.4s-2.2-1.2-2.9-.7-.8 1.2-.5 2.6l-.3.1-3.5-6.7 4.7-5.7 4.2-5.1 1.6-1.2z"/>
    <path fill="#545A63" d="m117.6 144.8-5 6.1 15.3 10.3z"/>
    <path fill="#545A63" d="m120.1 141.6-4.6 5.7 16 9.5z"/>
    <path fill="#545A63" d="m115.5 147.2-3.2 4 8.7 10.6zm6.7-8.1-4.3 5.2 17.8 7.4z"/>
    <path fill="#545A63" d="m123.4 137.6-3.6 4.4 17.8 3z"/>
    <path fill="#45404B" d="M95.1 177.7s-1-4.2.1-4.7c1.1-.6 2 .4 3.9 2.1l1.4-.9s-1.4-3.1-.4-3.9c.8-.7 1.8 0 3.5 1.2l1.3-1.2s-1.5-2.5-.6-3.1c.5-.4 1.2-.4 3 .7l1.3-1.6s-1.3-2.1-.8-2.8 1.2-.9 2.6-.6v-.3l-6.8-3.2-5.4 5-4.9 4.4-1.1 1.7z"/>
    <path fill="#545A63" d="m94.8 160.7 5.9-5.2 11 14.9z"/>
    <path fill="#545A63" d="m91.8 163.4 5.5-4.9 10.1 15.6z"/>
    <path fill="#545A63" d="m97.1 158.6 3.9-3.4 11 8.2zm-7.8 7 5.1-4.5 8.1 17.5z"/>
    <path fill="#545A63" d="m86.5 165 5.6-1.9 3.7 17.6z"/>
    <path fill="#9A7143" d="M43.2 49.9c-18.6 10.2-11.5 28.4-.6 52.4 6.5 14.3-7.6 21.6 2 39 12.1 22.1 38.4 30.5 60.4 18.4 24-13.1 29.7-40.1 17.4-62.1-7.9-13.8-48.8-64.4-79.2-47.7"/>
    <circle cx="49.3" cy="76.8" r="4.4" fill="#FFF"/>
    <path fill="#010101" d="M48.9 75.3c.2.7-.2 1.5-1 1.7-.5.1-1.1 0-1.4-.4 0 .3 0 .6.1.9.4 1.5 1.9 2.4 3.4 2s2.4-1.9 2-3.4-1.9-2.4-3.4-2c-.2.1-.4.1-.6.3.4.1.8.5.9.9"/>
    <circle cx="68.2" cy="60.5" r="4.4" fill="#FFF"/>
    <path fill="#010101" d="M67.8 59.1c.2.7-.2 1.5-1 1.7-.5.1-1.1 0-1.4-.4 0 .3 0 .6.1.9.4 1.5 1.9 2.4 3.4 2s2.4-1.9 2-3.4-1.9-2.4-3.4-2c-.2.1-.4.1-.6.3.4 0 .8.4.9.9"/>
    <circle cx="20.8" cy="39.2" r="2.6" fill="#BA3033"/>
    <path d="M20.664 29.927q-1.2 0-2.16-.44-.95-.44-1.48-1.31-.54-.87-.51-2.14l.02-.06h1.74q0 1.15.66 1.8.67.64 1.73.64 1.22 0 1.89-.86.68-.86.68-2.35 0-1.38-.68-2.25-.68-.88-1.88-.88-1.14 0-1.65.35-.51.34-.75 1.04l-1.6-.17.82-7.8h7.51v2.81h-1.44l-.19-1.1h-4.25l-.45 3.99q.29-.22.63-.39t.75-.28q.4-.11.88-.12 1.31-.02 2.26.57.94.59 1.45 1.66.51 1.08.51 2.55 0 1.42-.51 2.49-.52 1.06-1.52 1.65-1 .6-2.46.6"/>
    <circle cx="146.4" cy="210.3" r="2.6" fill="#BA3033"/>
    <path d="M146.573 219.534q1.2 0 2.16.44.95.44 1.48 1.31.54.87.51 2.14l-.02.06h-1.74q0-1.15-.66-1.8-.67-.64-1.73-.64-1.22 0-1.89.86-.68.86-.68 2.35 0 1.38.68 2.25.68.88 1.88.88 1.14 0 1.65-.35.51-.34.75-1.04l1.6.17-.82 7.8h-7.51v-2.81h1.44l.19 1.1h4.25l.45-3.99q-.29.22-.63.39t-.75.28q-.4.11-.88.12-1.31.02-2.26-.57-.94-.59-1.45-1.66-.51-1.08-.51-2.55 0-1.42.51-2.49.52-1.06 1.52-1.65 1-.6 2.46-.6m-63.836-21.457q-8.06 0-14.42-3.05-6.36-3.04-9.95-9.09-3.58-6.05-3.38-15.07l.14-.41h3.21q0 11.76 6.56 17.84 6.57 6.08 17.84 6.08 13.27 0 19.45-7.31 6.19-7.31 6.19-22.01 0-12.58-6.19-19.83-6.18-7.24-17.33-7.24-10.93 0-17.19 3.65-6.25 3.66-8.99 10.84l-2.8-1.09 5.33-54.28h47.85v13.06h-3.69v-9.44h-40.81l-4.17 42.25q2.87-2.87 5.98-4.79 3.11-1.91 7.49-2.97 4.37-1.06 10.94-1.2 7.93-.27 14.11 3.52 6.19 3.8 9.71 10.8 3.52 7.01 3.52 16.58 0 10.12-3.18 17.57t-9.67 11.52q-6.5 4.07-16.55 4.07"/>
    <circle cx="32.9" cy="193.2" r="6.8" fill="#1A4E47" opacity=".2"/>
    <circle cx="136.9" cy="24.2" r="4.2" fill="#1A4E47" opacity=".2"/>
    <circle cx="139.4" cy="51.7" r="5.2" fill="#1A4E47" opacity=".2"/>
    <circle cx="44.7" cy="211.4" r="8.5" fill="#1A4E47" opacity=".2"/>
    <circle cx="23.7" cy="221.4" r="3.5" fill="#1A4E47" opacity=".2"/>
    <circle cx="126.4" cy="37.2" r="4.6" fill="#1A4E47" opacity=".2"/>
    <path fill="#45404B" d="M62.7 143.7s-3-3-2.4-4c.6-1.1 1.9-.8 4.4-.2l.7-1.5s-2.8-1.9-2.4-3.1c.3-1 1.5-.9 3.6-.8l.5-1.8s-2.5-1.3-2.2-2.3c.2-.6.8-.9 2.9-1l.3-2.1s-2.2-1.1-2.2-2 .6-1.4 1.9-1.9l-.1-.3-7.5.9-2 7.1-1.9 6.3-.1 2z"/>
    <path fill="#545A63" d="m53.5 129.5 2.3-7.6 17.2 6.9z"/>
    <path fill="#545A63" d="m52.4 133.3 2.1-7 16.8 7.9z"/>
    <path fill="#545A63" d="m54.4 126.4 1.5-4.9 13.7 1.2zm-3 10.1 2-6.5 16 10.6z"/>
    <path fill="#545A63" d="m50.9 138.3 1.6-5.4 12.5 13z"/>
    <ellipse cx="50.6" cy="128.7" fill="#9A7143" rx="13.4" ry="5.9" transform="rotate(109.584 50.575 128.657)"/>
    <path fill="#45404B" d="M109.1 126.5s1.4-4 .5-4.7c-1-.7-2.1.1-4.1 1.7l-1.2-1.1s1.7-2.9.8-3.9c-.7-.8-1.8-.2-3.6.8l-1.2-1.4s1.7-2.3 1-3c-.5-.5-1.2-.5-3 .4l-1.1-1.8s1.5-2 1.1-2.7c-.4-.8-1.1-1-2.5-.9v-.3l7.1-2.4 4.9 5.5 4.4 4.9.9 1.8z"/>
    <path fill="#545A63" d="m111.3 109.7-5.3-5.8-12.6 13.6z"/>
    <path fill="#545A63" d="m114 112.7-4.9-5.4-11.8 14.4z"/>
    <path fill="#545A63" d="m109.2 107.4-3.5-3.8-11.8 6.9zm7 7.8-4.5-5-10 16.4z"/>
    <path fill="#545A63" d="m117.5 116.6-3.8-4.2-5.6 17.1z"/>
    <path fill="#9A7143" d="M124.7 115.6c-3.2 3.2-10 1.5-15.2-3.7s-6.9-12-3.7-15.2 4.4.7 9.6 5.9c5.2 5.3 12.4 9.9 9.3 13"/>
    <path fill="#5B5557" d="M83.1 76.9c1.6-1.8.9-3.5-.6-5.5-1.9-2.3-5-1.8-7.9-1.2-1.2.2-8.5-.1-11.9 2.5-3.2 2.7-4.4 9.9-4.9 11.1-1.1 2.7-2.3 5.7-.4 8 1.6 2 3.1 2.9 5.2 1.8 1.3-.6 1.7 0 2.2.7.5.6 7.8 7 8.7 8.8.3 1.3.2 3.4 1.2 4.6 1.5 1.8 3.6 1.7 5.4.2.8-.6 3.3-3.4 6.2-5.7s6.1-4.2 6.9-4.9c1.8-1.5 2.4-3.5.9-5.3-1-1.2-3.1-1.6-4.3-2.2-1.6-1.2-6.2-9.7-6.8-10.3s-.7-1.5.1-2.6"/>
    <g fill="#2D3130">
        <circle cx="80.6" cy="101.4" r="1.2"/>
        <circle cx="87.1" cy="96.1" r="1.2"/>
    </g>
</svg>
