<svg xmlns="http://www.w3.org/2000/svg" xml:space="preserve" viewBox="0 0 167.2 249.4">
    <path fill="#EED27E" d="M-5.7-5.7h178.6v260.8H-5.7z"/>
    <path fill="#1E1817" d="M53.2 187s-7.4 1.8-16.1 10.8l2.8-1.1s-7.7 4.1-10.9 11.1l3.4-2.8-5.6 6.8 2.6-1.3-4.7 3.6h1.7l-2.3 2.6 3.2-1.5s-3.8 5.6-5.6 12l3.4-6-4.5 11.8 3-5.6s-3.8 9.8-4.9 14.9L21 238l-3 11.1 1.7-2.6-1.3 9.2h129.4l-2.3-9.8 2.1 4.3-2.6-8.3 1.7 2.6-3.2-7.3 1.9.9-2.3-5.3 3.2 3.8s-1.9-9.6-4.5-13l2.3 1.9s-3.6-8.5-6.8-10.9l2.6 1.1-4.5-4.3 2.8 1.5-4.7-4.3 2.6.9s-2.8-6-7-8.3h2.3s-6.6-7.2-11.6-10.2c-14.5-8.7-66.6-4-66.6-4"/>
    <path fill="#615855" d="M13.3 119.5S23.6 153 64.7 153v16c0 .1-51.4-8.5-51.4-49.5m139 0S142 153 100.9 153v16c0 .1 51.4-8.5 51.4-49.5"/>
    <path fill="#54382B" d="M64.4 186.2c-18.6 0-30.6-16.9-30.6-16.9s25.8-6.1 30.6 0zm36.5 0c18.6 0 30.6-16.9 30.6-16.9s-25.8-6.1-30.6 0z"/>
    <path fill="#54382B" d="M113.9 178c0-17.5-14.2-31.7-31.7-31.7S50.5 160.5 50.5 178c0 13.1 15.8 35.5 15.8 39.3 0 8.8 7.1 15.9 15.9 15.9s15.9-7.1 15.9-15.9c0-3.8 15.8-26.1 15.8-39.3"/>
    <path fill="#938B88" d="M82.2 233.2c8.8 0 15.9-7.1 15.9-15.9 0-1.5 2.5-5.9 5.4-11.5-5.6-5.1-13.1-21.1-21.4-21.1s-15.7 15.9-21.4 21.1c3 5.6 5.4 10 5.4 11.5.2 8.8 7.3 15.9 16.1 15.9" opacity=".4"/>
    <ellipse cx="78.2" cy="222.7" rx="1.5" ry="6" transform="rotate(-45.001 78.247 222.746)"/>
    <ellipse cx="86.2" cy="222.7" rx="1.5" ry="6" transform="rotate(45.001 86.166 222.745)"/>
    <path d="M81.1 226.9s.7.3.7 1.4.1 4.9.1 4.9h.2s.2-4.4.3-4.9c.1-.6.5-1.2.8-1.3s-1.1-1-1.1-1z"/>
    <path fill="#2E2423" d="m117.3 169.2 1 .5-1.8-3.6 1.5 1s-1.2-6.9-3.3-10.5l.9.5-2.7-4.1 1.6 1.2s-3-6.5-5.8-9.7c.6.2 1.3.5 1.9 1 0 0-.6-2.3-4.1-3.7l1.4-.3-6.5-1.6 3.2-.2s-3.5-1.6-6.1-1.8l1-.7s-2.7-.9-5-.5q-1.05.15-1.8.3c-1.5-.3-3.1-.6-4.8-.8l3.9-.6c-2.4-.2-5 .1-6.5.4h-.4l2.5-.8c-2.2-.1-4.2.4-5.4.8h-.2l2.2-.9c-1.6.1-3.7.7-5 1h-.8l1.8-1.2c-1.3.2-3.1 1-3.9 1.3H76l1.6-1.1c-.3.1-.7.1-1 .2-1.1.3-2 .8-2.6 1.1-.4 0-.8.1-1.2.2l-4-.7 1.6 1.1-3-.5.6 1-1.7-1 .3 1.5-2.6-1.2 1.4 1.5-4 .6h2.5c-1 .4-1.9.8-2.8 1.3-1.9.6-8.4 3.1-11.5 11.8l1.4-1-.6 1.2-2.1 1 .6.6-1.4 1.4.9-.1-2.3 6.3 2-2.7c0 .1-.1.2-.1.3l-2.4 6.1 1.4-1.5c0 .1 0 .3-.1.4l-1.4 2.2 1.2-.9s-1.6 3.4-1.9 4.8 1.1-1.2 1.1-1.2l-.6 4.8.8-1.8c-.3 3.8-.5 8-.5 12.6l1.1-4.4v22l.8-7.4.3 15.7.8-4.3.3 7.5 1-13.9 1 10.4.5-3.8.6 9.7 1-7.7.3 8.6 1.3-6.7 1.3 8.6-.2-10.7.5 2.6.2-9 1.1 5.6v-5l.6 10.7 1.9-6.6v12.3l1.4-9.3 1.9 8.3-.2-5.6 1.6 8.8 1.6-7.2 1.8 6.9.5-10.4 1.3 10.9.6-10.6.2 5.1 2.6-8.8-1.3 8.6 2.6-5.9-.5 5.9 3.4-12.3-.3 7.4 2.4-9.6 1.3 8.5.2-7.7 2.4 9.3.2-7.4 1.4 10.1.8-6.1 2.2 7.2.3-9.8 3 14.6-.8-10.4 2.7 12.2-1.1-15.7 2.4 10.7-.3-9.4 2.6 13-.1-7.5.6 5.9 2.5-7.2 1.6 8.5.5-11.4 2.7 13.8-.3-17.5 1 12.7.8-12.7 1.8 13.9.2-12.7 1.8 14.1.6-16.8 1.3 14.6 1.6-12.5s2.2-8.4 2.5-18.9l.5 1.5s.7-10.1.7-13l.5 1.3-.6-4.7.7 2.1z"/>
    <circle cx="64.4" cy="178.6" r="7.7" fill="#FFF"/>
    <path fill="#010101" d="M62.1 179.9c1.2-.6 1.7-2.1 1-3.3-.4-.8-1.3-1.3-2.2-1.3.4-.4.8-.7 1.3-1 2.4-1.3 5.4-.3 6.7 2.1s.3 5.4-2.1 6.7-5.4.3-6.7-2.1c-.2-.4-.3-.7-.4-1.1.7.3 1.6.4 2.4 0"/>
    <circle cx="98.1" cy="178.6" r="7.7" fill="#FFF"/>
    <path fill="#010101" d="M95.7 179.9c1.2-.6 1.7-2.1 1-3.3-.4-.8-1.3-1.3-2.2-1.3.4-.4.8-.7 1.3-1 2.4-1.3 5.4-.3 6.7 2.1s.3 5.4-2.1 6.7-5.4.3-6.7-2.1c-.2-.4-.3-.7-.4-1.1.7.3 1.6.4 2.4 0"/>
    <path fill="#AEABAD" d="m93.6 57.2-33.9 7.5-.6.1-33.9 7.5c-1.2.3-1.9 1.4-1.6 2.6l1 4.7c.3 1.2 1.4 1.9 2.6 1.6l34.5-7.6c1.2-.3 1.9-1.4 1.6-2.6l-1-4.7 31.8-7c1.2-.3 1-1.9 1-1.9-.1-.3-.3-.5-1.5-.2"/>
    <path fill="#4F2629" d="M139.6 94.6c.6-1.1.5-2.4 0-3.5 0 0-1.6-6.9-29.2-19.6-22.8-10.3-30.9-11.6-33-11.7h-.7c-.5.1-1 .5-1.3 1-1 2 1.9 3.5 3.3 4.3s18.5 8.9 24.8 12.1c10.1 5.3 25.9 16.1 27 16.9 1.1.7 3.3 2.5 4.8 2.6 1.6.1 3.5-.6 4.3-2.1"/>
    <circle cx="77.1" cy="61.7" r=".8" fill="#2D1618"/>
    <circle cx="136.4" cy="93.2" r="1.6" fill="#2D1618"/>
    <path fill="#D49F8C" d="M107.3 89.7c-3-2.1-.5-4.6-.5-4.6.5-.8-.5-1.5-1.6.1-.8 1.2-3.5 5.5-6.8 3.2-3.3-2.4-.3-5.9-.3-5.9.8-1.2.1-2.1-1.3-.6-.8.8-3.2 6-7 3.3-3.6-2.6.8-7.4.8-7.4.8-1.2-.1-2-1-.8-.5.7-2.6 4.6-5.6 2.5-2-1.4-1.3-3.2.5-5.7s11.7-14 6.3-12.7l-8.9 1.2c-1.8.2-3.4-1-3.7-2.8-.2-1.8 1-3.4 2.8-3.7l12.2-1.7c2.1-.2 4.2 0 6.6-1.4 16.7-23.6 51.4-13.7 22.8 21.5l-9.8 12.7c-2.2 2.9-4.1 3.9-5.5 2.8"/>
    <path fill="#FCD3C5" d="m80.9 56 1.6-.2 1.6-.2c.2 1.4-.8 2.7-2.3 2.9-1.2.1-2.3-.5-2.8-1.5.5-.5 1.1-.9 1.9-1"/>
    <path fill="#C55A4E" d="m167.3-13.3 9.3 6.9-1.7 12.2-46 64.1-28.2-20.2 45.8-63.9 11.2-6.8z"/>
    <path fill="#FFFCFC" d="M47 70.6 26.9 75c-.3.1-.5-.1-.6-.4s.1-.5.4-.6l20.1-4.4c.3-.1.5.1.6.4 0 .3-.2.6-.4.6" opacity=".7"/>
</svg>
